<svg xmlns="http://www.w3.org/2000/svg" width="32" height="32" viewBox="0 0 32 32">
  <defs>
    <style>
      .cls-1 {
        fill: #188bc2;
      }

      .cls-2 {
        fill: #fff;
        fill-rule: evenodd;
      }
    </style>
  </defs>
  <rect id="Rounded_Rectangle_1" data-name="Rounded Rectangle 1" class="cls-1" width="32" height="32" rx="4" ry="4"/>
  <path class="cls-2" d="M17.874,10.5V8.057a1.082,1.082,0,0,0-1.1-1.064H6.106a1.082,1.082,0,0,0-1.1,1.064V23.931a1.082,1.082,0,0,0,1.1,1.064H16.775a1.082,1.082,0,0,0,1.1-1.064V21.492a1.082,1.082,0,0,0-1.1-1.064H10.823a1.082,1.082,0,0,1-1.1-1.064h0a1.082,1.082,0,0,1,1.1-1.064h1.832a1.082,1.082,0,0,0,1.1-1.064V14.8a1.082,1.082,0,0,0-1.1-1.064H10.823a1.082,1.082,0,0,1-1.1-1.064V12.624a1.082,1.082,0,0,1,1.1-1.064h5.953A1.082,1.082,0,0,0,17.874,10.5Zm9.919,3.242H25.551a1.184,1.184,0,0,1-1.2-1.165V8.224a1.184,1.184,0,0,0-1.2-1.165H20.927a1.184,1.184,0,0,0-1.2,1.165v4.35a1.184,1.184,0,0,1-1.2,1.165h-1.7a1.184,1.184,0,0,0-1.2,1.165v2.149a1.184,1.184,0,0,0,1.2,1.165h1.7a1.184,1.184,0,0,1,1.2,1.165v4.433a1.184,1.184,0,0,0,1.2,1.165h2.219a1.184,1.184,0,0,0,1.2-1.165V19.381a1.184,1.184,0,0,1,1.2-1.165h2.242A1.184,1.184,0,0,0,29,17.052V14.9A1.184,1.184,0,0,0,27.794,13.738Z"/>
</svg>
