<svg width="400" height="400" xmlns="http://www.w3.org/2000/svg" display="block"><g fill-rule="evenodd"><path d="M77.415 3.7c-.142 2.035-.204 11.62-.137 21.3l.122 17.6 18.2.119c10.01.065 19.145.007 20.3-.129l2.1-.248V4.957L116.6 3.6c-.944-.915-1.4-1.722-1.4-2.478V0H77.675l-.26 3.7m71.012.2c-.305 2.56-.423 9.88-.345 21.3l.118 17.4 18 .119c9.9.065 18.945.007 20.1-.129l2.1-.248-.002-18.071-.001-18.071-1.197-1.8c-.712-1.071-1.197-2.326-1.198-3.1L186 0h-37.11l-.463 3.9M6.214 74.876c-.139 1.388-.2 10.714-.134 20.724l.12 18.2 17.8.121c9.79.066 19.117.005 20.727-.137l2.926-.257-.126-19.944c-.1-15.689-.238-20.055-.647-20.463-.409-.409-4.771-.546-20.465-.644l-19.946-.123-.255 2.523M77.397 73.3c-.12.495-.169 9.81-.108 20.7l.111 19.8 17 .122c9.35.067 18.485.005 20.3-.136l3.3-.258-.006-19.664c-.003-10.815-.138-19.86-.3-20.099-.775-1.147-4.295-1.365-22.064-1.365H77.615l-.218.9m71.127-.4c-.178.275-.38 9.539-.447 20.586l-.124 20.087.952.239c1.424.357 38.416.039 38.995-.336.388-.251.5-4.357.5-18.294 0-20.235-.113-21.336-2.287-22.244-1.814-.758-37.1-.794-37.589-.038m71.025.161c-.763.919-1.083 39.454-.336 40.355.509.613 35.414.826 38.187.233l1.2-.257V94.996c0-19.951-.12-21.267-2.017-22.131-1.814-.826-36.337-.644-37.034.196m70.8 0c-1.066 1.284-1.049 39.95.018 40.521.983.526 37.512.425 38.333-.106.388-.251.5-4.354.5-18.28 0-18.673-.214-21.654-1.608-22.4-1.428-.765-36.596-.514-37.243.265m-70.973 70.72c-.702 1.071-.715 38.8-.014 40.319.419.907 36.385 1.099 37.512.2 1.744-1.391 1.926-3.49 1.926-22.163v-17.721l-1.584-.808c-1.519-.775-2.314-.808-19.391-.808h-17.807l-.642.981m141.906-.189l-.918.765.118 19.322c.091 14.827.238 19.53.632 20.221l.514.9H400v-42l-18.9.013c-18.018.013-18.943.049-19.818.779M6.381 214.65c-.496 1.305-.361 38.071.143 38.85.427.66 34.356.72 37.556.067 3.741-.763 3.52.503 3.52-20.202v-18.147l-1.082-.709c-.991-.649-2.705-.719-20.4-.833l-19.319-.125-.418 1.099m71.071-.15c-.32 1.196-.322 36.648-.002 38.25l.25 1.25h35.6l2.354-1.056 2.354-1.057-.104-18.409-.104-18.409-2-.704c-1.789-.629-3.901-.706-20.053-.734l-18.054-.031-.241.9m283.818.026c-1.337 1.423-1.37 35.97-.037 38.127l.832 1.347H400v-40.4h-37.861l-.869.926m-354.88 70.9c-.63 1.657-.515 37.05.123 37.922.788 1.078 38.337.836 40.005-.257l1.082-.709v-17.915c0-13.724-.117-18.063-.5-18.552-1.007-1.286-4.413-1.515-22.53-1.515H6.78l-.39 1.026m71.062-.126c-.316 1.18-.325 37.244-.009 38.067.371.969 34.772.951 38.231-.02l2.326-.652v-36.588l-2.341-.853c-2.259-.824-2.966-.854-20.153-.854H77.693l-.241.9m212.822.514c-1.087 2.28-.994 35.971.103 37.286l.751.9h17.689c17.221 0 17.724-.022 19.036-.833l1.347-.832v-35.894l-1.338-1.021-1.338-1.02h-35.576l-.674 1.414m70.955-.36c-.811 1.03-.829 1.451-.829 18.93v17.877l.926.869c.923.868.972.87 19.8.87H400v-39.6h-37.942l-.829 1.054M6.524 355.7c-.366.564-.681 36.405-.333 37.8l.224.9h19.567c11.745 0 19.976-.156 20.592-.39l1.026-.39v-17.791c0-20.142.093-19.485-2.867-20.169-2.95-.681-37.766-.645-38.209.04m141.915.76c-.648 1.858-.61 36.809.041 37.46.655.655 35.552.685 38.143.033l1.777-.448v-35.923l-1.878-1.191-1.879-1.191h-35.765l-.439 1.26m70.966.189c-.742 1.776-.917 35.621-.191 36.977.557 1.04 35.747 1.219 38.199.194l1.387-.579v-35.507l-1.577-1.267-1.576-1.267h-35.636l-.606 1.449m70.869-.035c-1.075 2.253-1.022 36.147.057 37.124.928.839 36.039 1.023 37.85.198l1.019-.464v-35.715l-1.319-1.279-1.319-1.278h-35.614l-.674 1.414"/><path d="M76 21.338c0 20.164.04 21.374.731 22 1.247 1.128 39.85.994 42.085-.146l1.584-.808.001-17.892c0-11.337-.169-19.101-.461-21.192l-.461-3.3h-2.14c-2.75 0-3.032 1.377-.739 3.6l1.4 1.357v37.385l-2.1.248c-1.155.136-10.29.194-20.3.129L77.4 42.6V21.3c0-20.019-.042-21.3-.7-21.3-.658 0-.7 1.283-.7 21.338m70.661-16.475c-.143 2.674-.261 12.201-.261 21.171v16.308l1.076.846c1.533 1.207 40.39 1.117 42.242-.097l1.082-.709-.002-17.891c-.002-9.84-.118-19.376-.26-21.191l-.257-3.3H186l.002 1.3c.001.774.486 2.029 1.198 3.1l1.197 1.8.001 18.071.002 18.071-2.1.248c-1.155.136-10.2.194-20.1.129l-18-.119V24c0-10.23.149-19.815.332-21.3.33-2.683.325-2.7-.639-2.7-.959 0-.973.054-1.232 4.863M6.026 71.149c-1.001 1.963-1.324 42.193-.346 43.171.825.825 40.621.673 42.712-.163l1.608-.644v-39.96l-1.773-1.876-1.773-1.877-19.801-.135-19.801-.135-.826 1.619m70.854.262c-1.263 2.6-1.399 41.596-.149 42.727 1.132 1.024 40.12 1.006 42.269-.019l1.428-.68-.114-20.051-.114-20.051-1.081-1.417c-1.604-2.102-3.884-2.32-24.256-2.32H77.759l-.879 1.811m70.837.089l-1.117 1.9-.135 19.8-.136 19.8.976.914.977.914 20.359-.114c15.679-.088 20.566-.232 21.259-.628l.9-.514V73.37l-1.1-1.281c-1.994-2.32-3.578-2.489-23.367-2.489h-17.499l-1.117 1.9m71.6-1c-2.157 2.359-2.117 1.918-2.117 23.27v19.809l1.208.625c1.97 1.019 40.545.713 42.142-.334l1.114-.731-.132-19.869c-.153-22.955.115-21.44-4.038-22.843-2.328-.786-3.314-.827-19.902-.827h-17.453l-.822.9m70.078.841c-2.153 2.247-2.195 2.722-2.195 24.91v16.931l1.083.709c1.413.926 41.22 1.107 42.817.195l.9-.514V93.475c0-22.844.236-21.284-3.467-22.921l-2.156-.954h-35.314l-1.668 1.741M46.88 73.12c.409.408.547 4.774.647 20.463l.126 19.944-2.926.257c-1.61.142-10.937.203-20.727.137L6.2 113.8l-.12-18.2c-.066-10.01-.005-19.336.134-20.724l.255-2.523 19.946.123c15.694.098 20.056.235 20.465.644m68.643-.255c2.618.648 2.464-.659 2.471 20.999l.006 19.664-3.3.258c-1.815.141-10.95.203-20.3.136l-17-.122-.111-19.8c-.061-10.89-.012-20.205.108-20.7l.218-.9H95.63c12.342 0 18.607.146 19.893.465m70.59.073c2.174.908 2.287 2.009 2.287 22.244 0 13.937-.112 18.043-.5 18.294-.579.375-37.571.693-38.995.336l-.952-.239.124-20.087c.067-11.047.269-20.311.447-20.586.489-.756 35.775-.72 37.589.038m70.47-.073c1.897.864 2.017 2.18 2.017 22.131v18.396l-1.2.257c-2.773.593-37.678.38-38.187-.233-.747-.901-.427-39.436.336-40.355.697-.84 35.22-1.022 37.034-.196m71.009-.069c1.394.746 1.608 3.727 1.608 22.4 0 13.926-.112 18.029-.5 18.28-.821.531-37.35.632-38.333.106-1.067-.571-1.084-39.237-.018-40.521.647-.779 35.815-1.03 37.243-.265M218.412 142.1l-1.204 2.1-.004 19.05c-.005 21.658-.044 21.192 1.848 22.094 1.7.811 33.125.982 38.322.209 4.36-.649 4.007 1.148 4.156-21.171.18-27.054 2.777-24.382-23.696-24.382h-18.218l-1.204 2.1m141.284-.473l-2.103 1.615.103 20.665.104 20.665 2.2.689c3.131.982 40 1.11 40 .139 0-.525-2.398-.6-19.186-.6h-19.186l-.514-.9c-.394-.691-.541-5.394-.632-20.221l-.118-19.322.918-.765c.875-.73 1.8-.766 19.818-.779l18.9-.013V140l-19.1.007-19.1.006-2.104 1.614m-102.48 1.981l1.584.808v17.721c0 18.673-.182 20.772-1.926 22.163-1.127.899-37.093.707-37.512-.2-.701-1.519-.688-39.248.014-40.319l.642-.981h17.807c17.077 0 17.872.033 19.391.808M5.89 211.9c-.757 1.699-.702 42.922.059 43.839.749.902 40 .993 41.619.096 2.271-1.258 2.385-2.32 2.41-22.349.024-20.008.146-18.872-2.326-21.586l-1.002-1.1H6.38l-.49 1.1m70.899.6c-1.505 3.317-1.071 42.545.482 43.564 1.016.667 40.622.221 41.257-.464 1.772-1.913 1.872-3.097 1.868-22.108l-.004-18.092-1.172-2.044c-1.53-2.667-.441-2.546-22.94-2.552l-18.719-.004-.772 1.7m282.558.047l-1.747 1.748v19.23c0 18.672.024 19.27.821 20.62 1.317 2.233 1.54 2.255 22.439 2.255H400V254h-37.935l-.832-1.347c-.812-1.313-.833-1.811-.833-19.33v-17.984l.926-.869c.923-.868.972-.87 19.8-.87H400v-2.8h-38.905l-1.748 1.747m-312.829 1.962l1.082.709v18.147c0 20.705.221 19.439-3.52 20.202-3.2.653-37.129.593-37.556-.067-.504-.779-.639-37.545-.143-38.85l.418-1.099 19.319.125c17.695.114 19.409.184 20.4.833m69.282-.144l2 .704.104 18.409.104 18.409-2.354 1.057L113.3 254H77.7l-.25-1.25c-.32-1.602-.318-37.054.002-38.25l.241-.9 18.054.031c16.152.028 18.264.105 20.053.734M5.89 282.7c-.752 1.688-.698 41.006.059 42.8l.548 1.3h19.719c21.996 0 20.526.151 22.404-2.308l1.38-1.807v-18.158c0-17.493-.03-18.218-.817-19.76-1.754-3.439.183-3.167-22.593-3.167H6.38l-.49 1.1m71.401-.6c-1.59 1.951-2.03 39.634-.502 43l.772 1.7 18.919-.047c21.668-.055 20.835.03 22.6-2.285l1.32-1.73-.009-18.269-.01-18.269-1.09-1.985c-.703-1.279-1.446-2.083-2.091-2.26-1.957-.539-39.463-.403-39.909.145m212.522.144c-.354.355-1.087 1.519-1.629 2.587l-.984 1.942v35.497l1.622 2.265 1.622 2.265h36.848l1.907-1.038c2.892-1.574 2.801-.878 2.8-21.481 0-20.692.015-20.575-2.799-21.98-2.055-1.027-38.365-1.079-39.387-.057m70.987-.369c-.33.1-1.185.908-1.9 1.797l-1.3 1.615v38.294l2.036 1.61 2.036 1.609H400V324h-37.861l-.869-.926c-1.336-1.421-1.373-35.927-.041-37.62l.829-1.054H400v-2.8l-19.3.046c-10.615.026-19.57.129-19.9.229m-316.32 2.963c3.307.683 3.12-.492 3.12 19.629v17.915l-1.082.709c-1.668 1.093-39.217 1.335-40.005.257-.638-.872-.753-36.265-.123-37.922l.39-1.026h17.79c11.334 0 18.56.159 19.91.438m71.179.416l2.341.853v36.588l-2.326.652c-3.459.971-37.86.989-38.231.02-.316-.823-.307-36.887.009-38.067l.241-.9h17.813c17.187 0 17.894.03 20.153.854m212.203.166l1.338 1.021v35.894l-1.347.832c-1.312.811-1.815.833-19.036.833h-17.689l-.751-.9c-1.097-1.315-1.19-35.006-.103-37.286l.674-1.414h35.576l1.338 1.02M5.914 353.3c-.892 1.562-.955 40.033-.068 42l.675 1.5 18.84-.004c21.275-.005 21.254-.004 23.213-1.798L50 393.692v-36.519l-.999-1.972c-1.487-2.934-.419-2.801-22.561-2.801H6.428l-.514.9m142.185-.417c-1.803 2.182-2.715 37.951-1.051 41.237 1.464 2.89-.083 2.68 19.783 2.68 19.731 0 21.349-.148 22.997-2.106l.972-1.155v-18.098c0-19.053-.154-20.875-1.89-22.316-.926-.769-40.183-1.002-40.811-.242m71.027.017c-1.749 1.395-1.926 3.464-1.926 22.511v18.069l1.203 1.66 1.202 1.66h18.062c15.92 0 18.32-.081 20.23-.683 3.95-1.245 3.751-.081 3.618-21.2-.134-21.268-.135-21.274-3.319-22.076-2.631-.663-38.233-.609-39.07.059m70.535.2c-2.305 1.95-2.461 3.38-2.461 22.567v17.638l1.747 1.748 1.748 1.747h18.037c19.755 0 21.586-.201 22.815-2.504.776-1.454.455-38.103-.347-39.665-1.08-2.103-1.729-2.167-22.056-2.201-17.211-.028-18.719.024-19.483.67m-244.928 2.56c2.96.684 2.867.027 2.867 20.169v17.791l-1.026.39c-.616.234-8.847.39-20.592.39H6.415l-.224-.9c-.348-1.395-.033-37.236.333-37.8.443-.685 35.259-.721 38.209-.04m141.789.731l1.878 1.191v35.923l-1.777.448c-2.591.652-37.488.622-38.143-.033-.651-.651-.689-35.602-.041-37.46l.439-1.26h35.765l1.879 1.191m70.701.076l1.577 1.267v35.507l-1.387.579c-2.452 1.025-37.642.846-38.199-.194-.726-1.356-.551-35.201.191-36.977l.606-1.449h35.636l1.576 1.267m70.658.011l1.319 1.279v35.715l-1.019.464c-1.811.825-36.922.641-37.85-.198-1.079-.977-1.132-34.871-.057-37.124l.674-1.414h35.614l1.319 1.278" fill="#3f3f3f"/><path d="M74.8 21.369v21.369l1.231 1.231 1.231 1.231 19.669-.002c20.743-.003 21.821-.085 24.169-1.858l1.3-.981V24.24c0-9.966-.116-19.496-.259-21.18L121.883 0h-1.185c-1.154 0-1.178.04-.901 1.5.157.825.367 10.356.468 21.18l.183 19.679-1.608.821c-2.372 1.21-41.09 1.291-42.178.089-.599-.662-.662-2.771-.662-22C76 2.63 75.926 0 75.4 0s-.6 2.641-.6 21.369M145.462 3.3c-.692 8.881-.297 38.947.524 39.992 1.526 1.94 1.755 1.958 23.047 1.829 21.152-.128 20.725-.09 22.867-2.041l.9-.819-.002-17.831C192.795 2.884 192.635 0 191.441 0h-.841l.136 21.167.135 21.168-1.117.732c-1.039.682-2.52.741-21.16.85l-20.043.117-1.122-.882-1.122-.883.155-21.134C146.576 5.668 146.497 0 146.168 0c-.276 0-.549 1.277-.706 3.3M5.901 68.7C4.155 70.662 4 72.695 4 93.703v19.959l1.183 1.183 1.183 1.182 20.717-.113L47.8 115.8l2-1 2-1 .115-19.6c.138-23.692.111-23.86-4.196-25.66-2.222-.928-40.981-.78-41.818.16m70.669.29c-1.692 2.581-1.734 3.171-1.752 24.221-.02 22.085-.094 21.363 2.314 22.361.869.36 6.211.45 21.116.355l19.952-.127 2-1 2-1 .104-20.216.103-20.216-1.178-1.858c-2.226-3.511-.735-3.295-23.693-3.424l-20.299-.114-.667 1.018m71.341-.441c-.378.287-1.142 1.496-1.696 2.687l-1.007 2.164-.004 20.064-.004 20.065 1.231 1.036c1.815 1.527 1.465 1.506 22.816 1.365L189 115.8l1.8-1.008 1.8-1.007.11-19.793c.13-23.525-.095-24.715-4.842-25.634-3.008-.583-39.166-.41-39.957.191M219 68.471c-1.077.634-1.697 1.424-2.613 3.329-1.15 2.392-1.217 41.287-.072 42.323 2.012 1.821 2.668 1.877 21.572 1.869 19.018-.009 22.182-.217 24.107-1.588l1.206-.858V73.573l-1.003-1.979c-1.815-3.581-.507-3.381-22.779-3.493-14.474-.074-19.828.023-20.418.37m70.317.229c-3.704 2.041-3.773 2.528-3.635 25.5l.118 19.6 2 1 2 1h19.8c20.553 0 21.179-.039 22.935-1.42l1.065-.838-.009-20.271-.01-20.271-1.09-2c-1.606-2.944-1.494-2.93-23.297-2.968-17.007-.029-18.716.028-19.877.668m-241.09 2.977L50 73.553v39.96l-1.608.644c-2.091.836-41.887.988-42.712.163-.978-.978-.655-41.208.346-43.171l.826-1.619 19.801.135 19.801.135 1.773 1.877m66.776-1.626c2.776.413 3.127.573 4.116 1.869l1.081 1.417.114 20.051.114 20.051-1.428.68c-2.149 1.025-41.137 1.043-42.269.019-1.25-1.131-1.114-40.127.149-42.727l.879-1.811h17.104c10.642 0 18.251.171 20.14.451m71.213.154c1.749.443 2.677.945 3.484 1.884l1.1 1.281v40.202l-.9.514c-.693.396-5.58.54-21.259.628l-20.359.114-.977-.914-.976-.914.136-19.8.135-19.8 1.117-1.9 1.117-1.9h17.499c14.295 0 17.935.111 19.883.605m71.278.222c4.153 1.403 3.885-.112 4.038 22.843l.132 19.869-1.114.731c-1.597 1.047-40.172 1.353-42.142.334l-1.208-.625V93.77c0-21.352-.04-20.911 2.117-23.27l.822-.9h17.453c16.588 0 17.574.041 19.902.827m71.039.127c3.703 1.637 3.467.077 3.467 22.921v20.097l-.9.514c-1.597.912-41.404.731-42.817-.195l-1.083-.709V96.251c0-22.188.042-22.663 2.195-24.91l1.668-1.741h35.314l2.156.954m-109.775 68.644c-3.12 1.649-3.158 1.947-3.158 24.947v20.197l1.054.829c2.062 1.622 3.16 1.695 23.546 1.559 19.534-.13 19.605-.133 21.05-1.032 1.99-1.237 1.951-.786 1.946-22.448l-.004-19.05-.932-2c-1.728-3.706-2.386-3.806-24.937-3.782-16.049.016-17.213.065-18.565.78m141.671-.162c-4.514 1.214-4.526 1.288-4.361 25.822.151 22.235-.122 20.699 3.813 21.49 2.934.589 40.119.637 40.119.052 0-.261-6.583-.409-18.9-.424-16.731-.022-19.152-.104-21.1-.715l-2.2-.689-.104-20.67-.103-20.671 2.14-1.615 2.14-1.616h19.063c18.797 0 19.064-.011 19.064-.8 0-1.064-35.674-1.211-39.571-.164m-102.381 1.823c3.738 1.608 3.633.895 3.482 23.523-.149 22.319.204 20.522-4.156 21.171-5.197.773-36.622.602-38.322-.209-1.892-.902-1.853-.436-1.848-22.094l.004-19.05 1.204-2.1 1.204-2.1h18.218c17.746 0 18.269.022 20.214.859M5.74 210.071c-1.549 1.688-1.74 4.244-1.737 23.249.004 20.626.085 21.859 1.524 23.298l1.016 1.016 20.428-.117c24.236-.139 23.788-.066 24.608-4.015.891-4.293.387-39.416-.59-41.102-1.747-3.015-1.51-2.984-24.192-3.129l-20.204-.128-.853.928m70.991.042c-1.873 1.737-2.005 3.516-1.862 25.22L75 255.266l1.333 1.191 1.332 1.19 20.068-.126c18.482-.116 20.201-.184 21.764-.866 2.846-1.241 2.904-1.701 2.899-23.228L122.392 215l-.985-2.116c-1.665-3.577-.848-3.453-23.817-3.608l-19.81-.134-1.049.971m283.203-.239c-3.795.997-3.929 1.789-3.932 23.293-.003 22.772.055 23.093 4.318 23.988 3.578.751 39.68.61 39.68-.155 0-.525-2.393-.6-19.14-.6-20.899 0-21.122-.022-22.439-2.255-.797-1.35-.821-1.948-.821-20.62v-19.23l1.747-1.748 1.748-1.747h19.452c19.186 0 19.453-.011 19.453-.8 0-1.072-36.032-1.185-40.066-.126M47.652 211.9c2.472 2.714 2.35 1.578 2.326 21.586-.025 20.029-.139 21.091-2.41 22.349-1.619.897-40.87.806-41.619-.096-.761-.917-.816-42.14-.059-43.839l.49-1.1h40.27l1.002 1.1m68.872-.839c1.313.217 1.687.535 2.696 2.295l1.172 2.044.004 18.092c.004 19.011-.096 20.195-1.868 22.108-.635.685-40.241 1.131-41.257.464-1.553-1.019-1.987-40.247-.482-43.564l.772-1.7 18.719.004c10.296.003 19.406.118 20.244.257M5.652 280.945c-1.495 1.591-1.698 4.801-1.571 24.874.113 17.851.159 18.86.919 20.381l.8 1.6 20.534.104c28.634.144 25.645 2.863 25.657-23.331.011-21.936.016-21.9-3.275-23.54L46.643 280H6.539l-.887.945m71.448-.523c-2.057 1.227-2.091 1.561-2.229 22.378-.137 20.522.023 22.911 1.636 24.414 1.295 1.206 40.264 1.225 42.624.021 3.281-1.674 3.318-1.945 3.185-23.435-.13-21.109-.123-21.055-3.116-22.789-1.619-.938-40.6-1.483-42.1-.589m211.752.465c-3.119 1.511-3.052 1.007-3.052 23.113 0 21.868-.011 21.784 3 23.309 1.836.929 40.691.895 42.326-.037 2.364-1.348 2.474-2.361 2.472-22.805-.003-22.777-.063-23.1-4.466-24.044-4.208-.903-38.27-.51-40.28.464m70.748-.235c-3.531 1.205-3.693 2.361-3.526 25.148.143 19.462.234 20.239 2.526 21.395 1.828.922 41.4 1.128 41.4.216 0-.539-2.247-.611-19.164-.611h-19.164l-2.036-1.609-2.036-1.61v-38.294l1.3-1.608c1.762-2.179.58-2.067 22-2.074 18.832-.005 19.1-.016 19.1-.805 0-1.092-37.233-1.228-40.4-.148m-312.017 1.731c2.428 2.428 2.417 2.33 2.417 22.144v18.158l-1.38 1.807c-1.878 2.459-.408 2.308-22.404 2.308H6.497l-.548-1.3c-.757-1.794-.811-41.112-.059-42.8l.49-1.1h20.21c19.534 0 20.236.026 20.993.783m69.617-.428c.645.177 1.388.981 2.091 2.26l1.09 1.985.01 18.269.009 18.269-1.32 1.73c-1.765 2.315-.932 2.23-22.6 2.285l-18.919.047-.772-1.7c-1.528-3.366-1.088-41.049.502-43 .446-.548 37.952-.684 39.909-.145m212 .346c2.814 1.405 2.799 1.288 2.799 21.98.001 20.603.092 19.907-2.8 21.481l-1.907 1.038h-36.848l-1.622-2.265-1.622-2.265v-35.497l.984-1.942c1.78-3.513-.045-3.231 20.945-3.23 16.974 0 18.798.064 20.071.7M6.515 350.66c-.267.108-.897.859-1.4 1.668L4.2 353.8l-.126 19.826c-.123 19.229-.102 19.892.699 22 .455 1.196.827 2.669.827 3.274v1.1h42.8v-1.154c0-.795.317-1.362 1.019-1.822 2.62-1.717 2.578-1.366 2.58-21.257.002-24.281.01-24.251-7.183-25.007-3.23-.339-37.49-.429-38.301-.1m141.336.606c-2.437 1.851-2.439 1.867-2.573 22.902l-.121 19.167 1.221 2.482c.672 1.365 1.222 2.864 1.222 3.332V400h41.6v-1.157c0-.661.258-1.256.601-1.388.331-.127 1.141-1.081 1.8-2.121l1.199-1.891v-17.944c0-21.767-.113-22.454-4-24.249-2.543-1.174-39.401-1.16-40.949.016m71.149-.122c-3.336 2.061-3.379 2.365-3.39 24.316l-.01 18.46L217 396c.77 1.144 1.4 2.512 1.4 3.04v.96H260v-1.13c0-.682.388-1.495.977-2.049 2.229-2.094 2.223-2.038 2.218-21.481-.006-23.153-.046-23.334-5.463-24.382-4.797-.928-37.18-.773-38.732.186m70.4.196c-3.785 1.765-3.8 1.857-3.8 24.093 0 19.464.003 19.488 2.346 21.46.805.678 1.254 1.423 1.254 2.081V400h41.2v-.944c0-.527.611-1.592 1.384-2.412 1.899-2.013 1.875-1.698 1.738-23.044-.146-22.807.166-21.517-5.522-22.781-4.247-.943-36.39-.509-38.6.521m-242.173 1.474c.426.228 1.224 1.302 1.774 2.387l.999 1.972v36.519l-1.426 1.306c-1.959 1.794-1.938 1.793-23.213 1.798l-18.84.004-.675-1.5c-.887-1.967-.824-40.438.068-42l.514-.9H26.44c13.039 0 20.282.144 20.787.414m141.683.311c1.736 1.441 1.89 3.263 1.89 22.316v18.098l-.972 1.155c-1.648 1.958-3.266 2.106-22.997 2.106-19.866 0-18.319.21-19.783-2.68-1.664-3.286-.752-39.055 1.051-41.237.628-.76 39.885-.527 40.811.242m69.286-.284c3.184.802 3.185.808 3.319 22.076.133 21.119.332 19.955-3.618 21.2-1.91.602-4.31.683-20.23.683h-18.062l-1.202-1.66-1.203-1.66v-18.069c0-19.047.177-21.116 1.926-22.511.837-.668 36.439-.722 39.07-.059m71.004.121c2.612.935 2.587.742 2.713 21.638.127 21.235.276 20.173-2.993 21.396-2.037.762-3.097.804-20.188.804h-18.037l-1.748-1.747-1.747-1.748v-17.638c0-19.187.156-20.617 2.461-22.567 1.067-.903 37.052-1.028 39.539-.138" fill="#717171"/><path d="M73.054 1.856c-.769 5.613-.205 40.716.681 42.344 1.398 2.568 1.254 2.553 23.865 2.571 24.272.02 25.209-.107 27.041-3.65.604-1.169.831-31.148.297-39.221l-.259-3.9H122.2l.133 21.154.133 21.155-1.333 1.006c-2.385 1.801-3.409 1.88-24.202 1.883l-19.669.002-1.231-1.231-1.231-1.231V21.369C74.8.786 74.773 0 74.054 0c-.583 0-.8.403-1 1.856M142.4 21.461v21.462l1.67 1.542c2.577 2.379 2.664 2.387 25.646 2.255 29.173-.168 26.281 2.156 26.281-21.12 0-9.13-.117-18.625-.26-21.1l-.259-4.5H192.6l.136 21.028c.152 23.39.331 21.74-2.535 23.313-1.797.986-40.715 1.234-42.578.271-2.604-1.346-2.51-.407-2.359-23.597L145.4 0h-3v21.461M5.6 66.277c-2.65 1.369-2.587.789-2.721 24.923-.136 24.424-.156 24.117 1.643 25.228 1.862 1.151 45.24 1.03 47.366-.132 2.148-1.174 2.112-.777 2.11-23.37-.003-25.145-.016-25.225-4.247-26.544-2.908-.906-42.417-1-44.151-.105m71-.138c-3.437 1.58-3.523 2.197-3.685 26.452-.144 21.579-.136 21.698 1.749 23.469l1 .94 21.239.114c23.751.127 24.822.041 27.012-2.149l1.342-1.342-.159-20.911c-.189-24.871-.181-24.829-5.01-26.35-2.374-.747-41.906-.95-43.488-.223m70.8.045c-4.771 1.76-5 3.01-5 27.341v20.181l1.417 1.336c2.3 2.169 2.702 2.201 25.887 2.074 20.86-.114 21.334-.134 23.168-.981 3.348-1.547 3.227-.611 3.024-23.487-.214-24.03-.191-23.901-4.696-25.992-2.401-1.114-40.933-1.529-43.8-.472m70.814-.016c-2.627.73-4.375 2.629-4.969 5.397-.723 3.37-.61 41.357.127 42.782 1.361 2.631 1.576 2.653 26.215 2.653 24.364 0 23.194.11 25.721-2.417l1.092-1.092V93.559c0-30.179 2.352-27.699-26.4-27.843-15.847-.08-20.196.01-21.786.452m71.32-.176c-5.917 1.054-5.71.132-5.851 25.985-.086 15.774.008 21.676.357 22.519 1.043 2.519.78 2.491 24.36 2.634 24.187.147 24.865.091 26.793-2.248l1.207-1.464-.01-20.009c-.012-24.006-.182-25.05-4.39-26.952-1.578-.713-38.786-1.121-42.466-.465M47.719 68.54c4.307 1.8 4.334 1.968 4.196 25.66l-.115 19.6-2 1-2 1-20.717.114-20.717.113-1.183-1.182L4 113.662V93.703c0-21.008.155-23.041 1.901-25.003.837-.94 39.596-1.088 41.818-.16m71.224.386c.609.399 1.638 1.562 2.286 2.584l1.178 1.858-.103 20.216-.104 20.216-2 1-2 1-19.952.127c-14.905.095-20.247.005-21.116-.355-2.408-.998-2.334-.276-2.314-22.361.018-21.05.06-21.64 1.752-24.221l.667-1.018 20.299.114c18.821.106 20.381.167 21.407.84m68.925-.568c4.747.919 4.972 2.109 4.842 25.634l-.11 19.793-1.8 1.007-1.8 1.008-19.753.13c-21.351.141-21.001.162-22.816-1.365l-1.231-1.036.004-20.065.004-20.064 1.007-2.164c.554-1.191 1.318-2.4 1.696-2.687.791-.601 36.949-.774 39.957-.191m72.247.549c.593.389 1.53 1.598 2.082 2.687l1.003 1.979v39.973l-1.206.858c-1.925 1.371-5.089 1.579-24.107 1.588-18.904.008-19.56-.048-21.572-1.869-1.145-1.036-1.078-39.931.072-42.323 1.938-4.031.584-3.813 23.031-3.699 17.986.091 19.708.158 20.697.806m69.485-.375c1.568.408 1.941.726 2.891 2.468l1.09 2 .01 20.271.009 20.271-1.065.838c-1.756 1.381-2.382 1.42-22.935 1.42h-19.8l-2-1-2-1-.118-19.6c-.138-22.972-.069-23.459 3.635-25.5 1.581-.871 37.009-1.019 40.283-.168m-112.328 68.775c-4.362 1.396-4.472 2.063-4.472 27.082v20.349l1.178 1.178c1.996 1.996 3.075 2.085 25.299 2.074 23.65-.011 25.203-.214 26.701-3.501.73-1.602.565-39.861-.182-42.379-.704-2.368-2.581-4.246-4.885-4.886-2.07-.575-41.82-.499-43.639.083m141.328-.24c-4.107.894-3.983.123-4.111 25.533-.126 24.943-.229 24.079 2.99 24.973 2.654.737 42.521.575 42.521-.173 0-.525-2.37-.6-18.933-.6-19.823 0-22.808-.209-24.152-1.694-1.075-1.187-1.345-38.35-.306-42.19 1.216-4.499 1.309-4.516 24.875-4.516 18.249 0 18.516-.012 18.516-.8 0-.757-38.118-1.248-41.4-.533m-101.277 1.775c3.396.521 3.715.738 4.937 3.358l.932 2 .004 19.05c.005 21.662.044 21.211-1.946 22.448-1.445.899-1.516.902-21.05 1.032-20.386.136-21.484.063-23.546-1.559l-1.054-.829v-20.197c0-23 .038-23.298 3.158-24.947 1.722-.911 33.07-1.2 38.565-.356M5.73 207.761c-2.831 1.282-2.717.274-2.843 25.316-.125 25.055-.188 24.42 2.527 25.555 1.64.685 38.128.821 42.709.158 6.245-.903 5.877.644 5.875-24.709-.003-24.989-.009-25.027-4.259-26.157-2.679-.712-42.471-.86-44.009-.163m70.44.175c-3.221 1.506-3.456 3.46-3.298 27.464.14 21.357.103 21.021 2.457 22.764 2.246 1.664 43.729 1.364 47.024-.34 2.717-1.405 2.633-.74 2.78-21.89.176-25.186.025-26.144-4.366-27.704-3.379-1.201-42.113-1.456-44.597-.294m283.82-.346c-5.656.73-5.39-.554-5.39 26.01 0 24.17-.073 23.392 2.312 24.696 1.174.642 3.142.716 22.188.835l20.9.131v-.831c0-.83-.032-.831-18.78-.831-24.025 0-23.988.007-24.784-4.562-.578-3.318-.589-36.636-.013-38.838 1.335-5.105.814-5 24.959-5H400v-2l-18.9.052c-10.395.029-19.894.181-21.11.338M48.589 210.2c3.27 1.647 3.196 1.147 3.326 22.364.137 22.339.097 22.704-2.651 23.975-1.82.841-2.348.864-22.293.978l-20.428.117-1.016-1.016c-1.439-1.439-1.52-2.672-1.524-23.298-.003-19.005.188-21.561 1.737-23.249l.853-.928 20.204.128c19.267.123 20.277.166 21.792.929m70.322-.111c1.171.527 1.733 1.155 2.496 2.795l.985 2.116.004 18.427c.005 21.527-.053 21.987-2.899 23.228-1.563.682-3.282.75-21.764.866l-20.068.126-1.332-1.19L75 255.266l-.131-19.933c-.143-21.704-.011-23.483 1.862-25.22l1.049-.971 19.81.134c17.595.118 19.979.209 21.321.813M5.062 278.453c-2.182 1.268-2.244 1.969-2.251 25.347-.007 23.542.043 24.15 2.114 25.43 1.805 1.117 43.464 1.029 45.944-.097 3.07-1.393 2.931-.201 2.931-25.115V281.8l-.921-1.291c-1.739-2.438-2.496-2.51-26.052-2.497-14.218.008-21.266.151-21.765.441m71.138-.075c-3.07 1.257-3.403 3.807-3.386 25.948.018 22.801.238 24.212 3.951 25.302.95.279 8.473.38 22.235.297l20.8-.125 2-1c3.276-1.638 3.197-1.039 3.198-24.2.002-24.587.001-24.597-4.701-25.993-2.27-.675-42.499-.883-44.097-.229m212-.007c-4.572 1.104-4.4.095-4.4 25.847 0 24.69-.137 23.523 2.931 24.915 2.535 1.151 44.032.999 46.269-.168 3.321-1.734 3.45-2.725 3.3-25.339-.153-23.205-.313-24.029-4.872-25.177-2.005-.505-41.166-.575-43.228-.078m70.154-.09c-1.702.263-3.1 2.078-3.573 4.639-.689 3.728-.338 42.972.397 44.41 1.275 2.494.941 2.458 23.922 2.59l20.9.12v-2.019l-20.1-.11c-22.574-.125-22.025-.055-23.098-2.916-.806-2.146-1.127-35.253-.385-39.595.956-5.596.072-5.4 24.429-5.4H400v-2l-20.3.06c-11.165.033-20.771.132-21.346.221m-309.638 2.752c3.291 1.64 3.286 1.604 3.275 23.54-.012 26.194 2.977 23.475-25.657 23.331L5.8 327.8l-.8-1.6c-.76-1.521-.806-2.53-.919-20.381-.127-20.073.076-23.283 1.571-24.874l.887-.945h40.104l2.073 1.033m70.484-.022c2.993 1.734 2.986 1.68 3.116 22.789.133 21.49.096 21.761-3.185 23.435-2.36 1.204-41.329 1.185-42.624-.021-1.613-1.503-1.773-3.892-1.636-24.414.138-20.817.172-21.151 2.229-22.378 1.5-.894 40.481-.349 42.1.589m209.932-.588c4.403.944 4.463 1.267 4.466 24.044.002 20.444-.108 21.457-2.472 22.805-1.635.932-40.49.966-42.326.037-3.011-1.525-3-1.441-3-23.309 0-22.106-.067-21.602 3.052-23.113 2.01-.974 36.072-1.367 40.28-.464M5.097 349.037c-2.265 2.2-2.292 2.492-2.295 24.603-.003 24.971.085 26.36 1.657 26.36 1.438 0 1.524-1.192.314-4.374-1.334-3.51-1.043-41.07.335-43.286 1.265-2.034.333-1.942 19.425-1.918 20.07.025 22.613.202 24.931 1.736 2.438 1.613 2.536 2.525 2.535 23.609-.002 19.891.04 19.54-2.58 21.257-2.134 1.399-1.424 2.976 1.339 2.976h2.358l.289-1.7c.36-2.125.721-43.224.395-45.009-.258-1.408-2.354-4.091-3.198-4.091-.283 0-1.299-.356-2.258-.791-1.662-.754-2.683-.792-21.756-.8L6.577 347.6l-1.48 1.437m141.703-.111c-.99.736-2.34 2.118-3 3.072l-1.2 1.732-.121 20.189-.12 20.188 1.02 2.087c.562 1.147 1.021 2.473 1.021 2.946 0 .737.229.86 1.6.86 2.027 0 2.091-.705.378-4.183l-1.221-2.482.121-19.167c.135-21.16.13-21.122 2.677-22.936l1.246-.887 19.1.13c26.961.183 24.499-2.332 24.499 25.024v17.944l-1.199 1.891c-.659 1.04-1.469 1.994-1.8 2.121-.343.132-.601.727-.601 1.388V400h2.6c2.515 0 2.6-.033 2.6-1.013 0-.557.373-2.121.83-3.476.802-2.381.826-3.107.7-21.687l-.13-19.224-1-2c-.842-1.684-1.411-2.221-3.6-3.4l-2.6-1.4-20-.106-20-.106-1.8 1.338m70.602.029c-2.904 1.641-3.822 2.793-4.238 5.32-.627 3.817-.429 39.383.232 41.561.327 1.08.597 2.459.6 3.064.004 1.066.072 1.1 2.204 1.1 2.754 0 2.923-.846.8-4l-1.4-2.08.01-18.46c.011-22.022.104-22.643 3.67-24.498 1.518-.79 34.375-.793 38.452-.004 5.417 1.048 5.457 1.229 5.463 24.382.005 19.443.011 19.387-2.218 21.481-1.903 1.788-1.368 3.179 1.223 3.179 2.113 0 2.2-.042 2.2-1.06 0-.583.46-2 1.021-3.148l1.021-2.087-.121-19.552c-.176-28.352 1.925-26.303-27.121-26.453l-19.4-.099-2.398 1.354m71.118-.409c-2.886 1.216-3.995 2.381-4.497 4.722-.578 2.694-.557 40.361.024 42.532.235.88.52 2.185.634 2.9.203 1.28.239 1.3 2.363 1.3 2.677 0 3.054-1.296.902-3.107-2.343-1.972-2.346-1.996-2.346-21.46 0-22.236.015-22.328 3.8-24.093 2.21-1.03 34.353-1.464 38.6-.521 5.688 1.264 5.376-.026 5.522 22.781.137 21.346.161 21.031-1.738 23.044-2.165 2.296-1.924 3.356.762 3.356h2.145l.248-1.807c.136-.994.521-2.335.854-2.98.895-1.73.903-37.509.009-40.939-1.671-6.419-2.764-6.686-27.122-6.639-17.667.034-18.127.055-20.16.911" fill="#a5a5a5"/><path d="M0 200v200h3l-.131-23.142c-.144-25.491-.142-25.519 2.224-27.817l1.484-1.441 20.011.009c19.073.008 20.094.046 21.756.8.959.435 1.975.791 2.258.791.844 0 2.94 2.683 3.198 4.091.326 1.785-.035 42.884-.395 45.009l-.289 1.7H144.4v-.86c0-.473-.459-1.799-1.021-2.946l-1.02-2.087.12-20.188.121-20.189 1.2-1.732c.66-.954 2.01-2.336 3-3.072l1.8-1.338 20 .106 20 .106 2.6 1.4c2.189 1.179 2.758 1.716 3.6 3.4l1 2 .13 19.224c.126 18.58.102 19.306-.7 21.687-.457 1.355-.83 2.919-.83 3.476V400H214l-.004-1.1c-.003-.605-.273-1.984-.6-3.064-.661-2.178-.859-37.744-.232-41.561.416-2.527 1.334-3.679 4.238-5.32l2.398-1.354 19.4.099c29.046.15 26.945-1.899 27.121 26.453l.121 19.552-1.021 2.087c-.561 1.148-1.021 2.565-1.021 3.148V400h20.488l-.207-1.3a35.34 35.34 0 0 0-.634-2.9c-.58-2.167-.602-39.838-.025-42.526 1.132-5.279 2.86-5.674 24.812-5.674 24.194 0 25.301.274 26.968 6.674.894 3.43.886 39.209-.009 40.939-.333.645-.718 1.986-.854 2.98l-.248 1.807H400v-69.96l-20.9-.12c-18.651-.107-21.032-.192-22.122-.79-2.401-1.316-2.367-.997-2.498-23.431-.133-22.683-.01-24.353 1.932-26.296l1.203-1.203 21.192-.117 21.193-.116v-18.705l-20.9-.131c-22.752-.143-22.674-.135-23.988-2.435-.925-1.619-.725-44.905.215-46.628 1.448-2.654 1.372-2.646 24.173-2.793l20.5-.133V188l-20.5-.002c-22.367-.003-23.056-.063-24.332-2.123-1.032-1.667-1.038-44.358-.006-46.369 1.326-2.586.498-2.494 23.738-2.623l21.1-.116V0H195.794l.127 21.1c.172 28.544 3.337 25.45-26.205 25.62-22.982.132-23.069.124-25.646-2.255l-1.67-1.542V0H125l.141 20.818c.15 22.081.14 22.215-1.749 23.989-1.929 1.813-4.147 1.982-25.792 1.964-22.847-.018-22.468.025-23.917-2.744l-.928-1.773.123-21.127L73 0H0v200M49.751 66.382c4.231 1.319 4.244 1.399 4.247 26.544.002 22.593.038 22.196-2.11 23.37-2.126 1.162-45.504 1.283-47.366.132-1.799-1.111-1.779-.804-1.643-25.228.134-24.134.071-23.554 2.721-24.923 1.734-.895 41.243-.801 44.151.105m70.337-.02c4.829 1.521 4.821 1.479 5.01 26.35l.159 20.911-1.342 1.342c-2.19 2.19-3.261 2.276-27.012 2.149L75.664 117l-1-.94c-1.885-1.771-1.893-1.89-1.749-23.469.162-24.255.248-24.872 3.685-26.452 1.582-.727 41.114-.524 43.488.223m71.112.294c4.505 2.091 4.482 1.962 4.696 25.992.203 22.876.324 21.94-3.024 23.487-1.834.847-2.308.867-23.168.981-23.185.127-23.587.095-25.887-2.074l-1.417-1.336V93.525c0-24.331.229-25.581 5-27.341 2.867-1.057 41.399-.642 43.8.472m70.437.001c4.61 2.113 4.763 2.979 4.763 26.902v19.932l-1.092 1.092c-2.527 2.527-1.357 2.417-25.721 2.417-24.639 0-24.854-.022-26.215-2.653-.737-1.425-.85-39.412-.127-42.782.594-2.768 2.342-4.667 4.969-5.397 3.669-1.02 41.05-.599 43.423.489m70.363-.2c4.208 1.902 4.378 2.946 4.39 26.952l.01 20.009-1.207 1.464c-1.928 2.339-2.606 2.395-26.793 2.248-23.58-.143-23.317-.115-24.36-2.634-.929-2.242-.42-43.535.56-45.496 1.617-3.234 2.624-3.359 26.4-3.258 16.895.071 19.793.169 21 .715m-71.089 70.767c2.304.64 4.181 2.518 4.885 4.886.747 2.518.912 40.777.182 42.379-1.498 3.287-3.051 3.49-26.701 3.501-22.224.011-23.303-.078-25.299-2.074l-1.178-1.178v-20.349c0-25.019.11-25.686 4.472-27.082 1.819-.582 41.569-.658 43.639-.083m-211.172 70.7c4.25 1.13 4.256 1.168 4.259 26.157.002 25.353.37 23.806-5.875 24.709-4.581.663-41.069.527-42.709-.158-2.715-1.135-2.652-.5-2.527-25.555.126-25.042.012-24.034 2.843-25.316 1.538-.697 41.33-.549 44.009.163m71.028.306c4.391 1.56 4.542 2.518 4.366 27.704-.147 21.15-.063 20.485-2.78 21.89-3.295 1.704-44.778 2.004-47.024.34-2.354-1.743-2.317-1.407-2.457-22.764-.158-24.004.077-25.958 3.298-27.464 2.484-1.162 41.218-.907 44.597.294m-70.86 70.379c1.459.434 2.318.983 2.972 1.9l.921 1.291v22.218c0 24.914.139 23.722-2.931 25.115-2.48 1.126-44.139 1.214-45.944.097-2.071-1.28-2.121-1.888-2.114-25.43.007-23.378.069-24.079 2.251-25.347 1.283-.745 42.29-.602 44.845.156m70.39-.002c4.702 1.396 4.703 1.406 4.701 25.993-.001 23.161.078 22.562-3.198 24.2l-2 1-20.8.125c-13.762.083-21.285-.018-22.235-.297-3.713-1.09-3.933-2.501-3.951-25.302-.017-22.141.316-24.691 3.386-25.948 1.598-.654 41.827-.446 44.097.229m211.131-.158c4.559 1.148 4.719 1.972 4.872 25.177.15 22.614.021 23.605-3.3 25.339-2.237 1.167-43.734 1.319-46.269.168-3.068-1.392-2.931-.225-2.931-24.915 0-25.752-.172-24.743 4.4-25.847 2.062-.497 41.223-.427 43.228.078" fill="#fff"/></g></svg>