<svg width="400" height="370.37" viewBox="0 0 400 370.3703703703703" xmlns="http://www.w3.org/2000/svg"><g fill-rule="evenodd"><path d="M233.704 16.9c-1.321.257-4.937 1.502-6.771 2.333-.859.389-1.929.813-2.377.941-.448.129-.911.539-1.029.912-.119.372-.982 1.072-1.92 1.555-1.07.551-1.963 1.36-2.399 2.174-.382.713-1.193 1.763-1.803 2.333-.61.571-1.11 1.321-1.111 1.667-.001.346-.412 1.296-.914 2.111-.502.815-.919 1.731-.926 2.037-.008.306-.294 1.056-.637 1.667-1.449 2.588-1.014 12.512.674 15.37.718 1.215 1.4 2.829 1.603 3.789.117.556.669 1.495 1.226 2.086 1.705 1.809 4.34 4.915 4.47 5.27.068.185.355.336.637.336 1.021 0 3.623 1.638 4.2 2.644.785 1.367 2.129 1.514 12.486 1.364l8.188-.119 1.023-1.217c1.181-1.404 2.413-2.101 4.325-2.447 1.135-.205 1.445-.476 1.928-1.682.427-1.068.888-1.541 1.795-1.84 1.065-.353 1.3-.675 1.847-2.535.606-2.062 1.498-3.395 2.738-4.089 2.138-1.196 1.552-19.891-.67-21.375-.644-.43-1.438-1.517-1.895-2.592-.432-1.019-1.28-2.269-1.884-2.778a48.033 48.033 0 0 1-1.874-1.667c-1.85-1.77-3.882-3.115-5.574-3.689-1.001-.34-1.99-.75-2.199-.912-1.607-1.244-9.893-2.282-13.157-1.647m58.703-.021c-2.774.653-5.272 1.47-5.769 1.889-.322.27-.854.491-1.182.491-.329 0-.7.167-.826.371-.126.203-.537.37-.914.37-1.336 0-8.062 6.453-8.38 8.04-.238 1.194-1.646 3.071-2.302 3.071-1.088 0-1.68 6.135-1.338 13.856l.246 5.523 1.214 1.144c1.4 1.32 2.232 2.835 2.583 4.71.214 1.136.435 1.364 1.606 1.654 1.158.286 1.439.568 1.903 1.909.435 1.259.721 1.574 1.425 1.574 1.781 0 4.858 1.963 5.338 3.404.351 1.057 21.026.852 21.026-.208 0-1.108 3.483-3.196 5.334-3.196.764 0 .962-.179.962-.871 0-1.194 1.597-2.832 2.76-2.832.816 0 .946-.164.956-1.204.006-.662.256-1.527.555-1.923.299-.395.544-.98.544-1.301 0-.487.892-1.381 2.244-2.246 1.443-.923 1.036-19.354-.437-19.822-.969-.307-2.177-1.972-2.177-2.999 0-.481-.167-.876-.371-.876-.203 0-.37-.152-.37-.339 0-1.245-6.468-6.616-9.074-7.535-1.019-.359-1.907-.818-1.975-1.019-.068-.201-.423-.366-.788-.366-.366 0-1.31-.273-2.099-.606-1.409-.596-8.983-1.065-10.694-.663M117.876 35.645c-.863.277-1.325.734-1.649 1.629-.247.685-.583 1.245-.746 1.245-.483 0-.326 4.863.215 6.666l.5 1.667h4.094c4.906 0 4.63.225 4.829-3.936.303-6.354-2.216-8.884-7.243-7.271m58.513-.078c-.458.184-.833.565-.833.845s-.403.978-.894 1.55c-1.082 1.259-1.45 4.293-.706 5.816.269.55.488 1.336.488 1.746 0 1.87 8.721 2.292 9.452.458.528-1.322.653-6.395.192-7.757-.776-2.294-4.987-3.748-7.699-2.658m114.167 39.942c-3.325.231-4.26.496-4.26 1.206 0 .411-.92 1.433-1.29 1.433-.127 0-.931.309-1.786.686-.854.378-1.844.789-2.199.914-.356.125-.978.773-1.384 1.44-.406.668-1.338 1.632-2.071 2.143-.948.66-1.59 1.568-2.222 3.146-.571 1.426-1.376 2.627-2.254 3.364l-1.366 1.147v18.358l1.543 1.282c1.206 1.001 1.676 1.743 2.146 3.383.726 2.533.977 2.878 2.28 3.14.743.149 1.207.627 1.751 1.804.459.991 1.023 1.642 1.482 1.711 2.16.321 5.008 2.137 5.455 3.478.185.554 13.778.938 17.832.504 2.023-.216 2.349-.367 2.912-1.349.628-1.094 3.155-2.534 4.476-2.55.801-.01 1.732-.859 1.732-1.579 0-.708 1.388-2.133 2.078-2.133.745 0 1.626-.901 1.626-1.663 0-1.005 1.871-4.633 2.389-4.633 1.944 0 2.802-19.993.888-20.688-1.055-.382-2.252-1.948-2.872-3.757-.531-1.548-1.041-2.273-2.126-3.023-.785-.542-1.682-1.444-1.995-2.004-.312-.56-.812-1.152-1.111-1.316-.603-.331-3.511-1.567-4.53-1.926-.36-.127-.809-.637-.998-1.134-.511-1.345-7.744-1.966-16.126-1.384M57.274 94.361c-1.128 1.825-1.123 10.255.007 11.385.713.713 7.082.783 8.01.087.868-.65 1.219-6.733.55-9.537l-.487-2.037-3.944-.105c-2.169-.057-4.03.036-4.136.207m117.747.536c-.317.453-.582 1.078-.588 1.389-.007.311-.257.889-.556 1.285-.706.934-.691 4.24.024 5.185.299.395.543 1.092.543 1.548 0 1.854 3.078 2.547 7.829 1.761 2.528-.418 3.037-11.103.561-11.767-2.293-.615-7.227-.237-7.813.599M58.704 153.292l-1.852.227-.245 1.851c-.599 4.516-.024 8.255 1.437 9.352 1.45 1.089 7.141.353 7.141-.924 0-.209.249-.857.553-1.441.962-1.843.575-8.502-.511-8.799-1.245-.341-4.743-.484-6.523-.266m58.927-.013c-2.027.336-3.437 6.076-2.085 8.485.199.354.607 1.268.907 2.032l.546 1.389 2.89-.012c3.363-.014 4.112-.447 4.888-2.821.557-1.705.433-8.045-.169-8.614-.471-.446-5.185-.755-6.977-.459m58.665-.045c-1.201.221-1.852.772-1.852 1.569 0 .351-.246 1.132-.546 1.735-.685 1.372-.372 4.613.54 5.592.349.375.799 1.174.999 1.776.508 1.529 5.597 1.842 7.156.44 1.753-1.579 2.319-5.094 1.461-9.091l-.389-1.818-2.481-.234c-2.624-.248-3.395-.243-4.888.031M114.63 193.73c-4.384.505-4.923.677-5.744 1.83-.475.667-1.331 1.238-2.213 1.475-.96.259-1.82.87-2.589 1.841-.633.8-1.454 1.55-1.824 1.668-.371.117-.977.918-1.348 1.779-.371.861-1.201 2.149-1.844 2.862-2.571 2.851-3.247 11.55-1.679 21.627.251 1.616.61 2.454 1.383 3.23 1.782 1.79 2.303 2.489 2.873 3.852.381.911.959 1.489 1.876 1.872.729.304 1.418.792 1.529 1.083.112.292.513.628.891.748s.778.502.888.848c.123.387 1.092.895 2.519 1.321 1.275.381 2.735.833 3.245 1.005 4.747 1.604 19.41.187 20.31-1.963.068-.164.818-.779 1.666-1.366 2.98-2.062 5.801-5.207 5.801-6.465 0-.291.561-1.022 1.246-1.624 1.842-1.617 2.22-3.713 2.197-12.165-.021-7.891-.278-9.173-2.249-11.236-.667-.699-1.308-1.699-1.423-2.223-.457-2.073-.628-2.334-1.869-2.852-.846-.354-1.461-.958-1.799-1.766-.417-.999-.836-1.318-2.255-1.715-.958-.268-2.174-.934-2.702-1.48-2.128-2.198-9.034-3.092-16.886-2.186m282.752 5.251c-.308.699-1.103 1.511-1.893 1.934-1.054.564-1.418 1.027-1.605 2.037-.235 1.264-1.631 3.476-2.715 4.301-1.823 1.389-1.544 20.473.312 21.373.518.25 1.335 1.282 1.852 2.34 1.189 2.429 4.485 5.701 5.743 5.701H400v-38.889h-1.044c-.823 0-1.157.255-1.574 1.203M57.778 212.532c-1.488.447-2.046 6.178-.833 8.548 1.274 2.489 6.752 2.664 8.631.275.887-1.128.878-7.642-.012-8.532-.453-.453-6.495-.679-7.786-.291m176.265.1c-3.254 1.195-3.543 6.887-.456 8.959 5.903 3.963 10.947.713 9.765-6.292l-.44-2.609-1.919-.231c-2.678-.322-5.816-.243-6.95.173M53.411 253.149c-2.838.514-3.61.914-3.973 2.057-.135.424-.712.786-1.484.931-1.197.225-2.264 1.021-3.51 2.62-.305.392-1.013 1.003-1.574 1.357-.56.354-1.018.864-1.018 1.134 0 .892-1.165 2.844-2.039 3.417-2.894 1.896-2.934 20.911-.049 23.668.639.611 1.576 1.904 2.081 2.873.506.969 1.206 1.853 1.556 1.963.349.111.738.527.864.924s.46.722.742.722c.281 0 .645.217.808.483.163.265.911.768 1.662 1.117.751.349 1.465.948 1.587 1.33.142.447.713.781 1.597.935.757.131 1.793.383 2.302.559 3.634 1.255 11.915 1.263 16.481.016a30.735 30.735 0 0 1 2.48-.533c.818-.137 1.452-.484 1.578-.864.116-.35 1.057-1.136 2.092-1.747 2.545-1.502 4.702-3.661 5.368-5.37.598-1.535 1.042-2.179 1.773-2.57 2.087-1.117 2.795-14.788 1.122-21.656-.144-.593-.8-1.55-1.457-2.127-.657-.577-1.297-1.56-1.422-2.185-.247-1.235-.732-1.847-2-2.526-.452-.242-1.075-.928-1.384-1.525-.395-.766-1.101-1.278-2.391-1.736-1.052-.373-2.017-.999-2.27-1.471-1.128-2.109-12.184-3.126-19.522-1.796m58.631.007c-1.628.286-3.027.726-3.111.976-.274.821-1.846 2.164-2.534 2.164-.914 0-5.235 4.232-5.868 5.748-.281.672-.955 1.571-1.499 1.998-2.976 2.342-3.272 23.48-.344 24.604.447.171 2.795 3.372 2.795 3.808 0 .375 2.05 2.184 3.704 3.27.917.602 2.116 1.561 2.664 2.13.55.57 1.399 1.035 1.89 1.035.49 0 1.374.15 1.965.334 6.005 1.871 18.346.786 20.91-1.838.541-.553 1.382-1.13 1.87-1.283 1.17-.367 5.335-4.552 5.704-5.732.432-1.382 1.276-2.537 2.028-2.776 1.563-.496 2.306-14.596 1.044-19.816-.231-.954-.918-2.221-1.606-2.963-.662-.713-1.315-1.713-1.452-2.222-.459-1.711-1.032-2.535-1.916-2.757-.483-.121-1.288-.869-1.788-1.662-.65-1.029-1.259-1.515-2.13-1.697-.671-.141-1.803-.808-2.516-1.482-2.28-2.154-12.588-3.112-19.81-1.839m63.338 18.532c-1.846 1.394-2.275 7.266-.628 8.584 2.04 1.632 7.474 1.629 9.108-.005.617-.617.784-5.386.255-7.304-.444-1.614-7.018-2.573-8.735-1.275m176.055-.102l-1.713.373-.207 2.631c-.378 4.799-.022 5.875 2.152 6.49 5.3 1.5 9.779-.469 9.803-4.308.029-4.842-3.421-6.625-10.035-5.186m-60.509 40.242c-4.385.425-5.097.658-6.841 2.236-.874.791-2.316 1.653-3.205 1.916-1.323.39-1.689.699-2.02 1.701-.278.841-.846 1.45-1.81 1.942-1.098.56-1.459.998-1.647 1.998-.132.705-.96 2.209-1.84 3.342l-1.6 2.06-.224 4.729c-.301 6.333.15 12.274.977 12.878 1.03.753 2.479 3.139 2.776 4.571.18.865.521 1.397.949 1.479 1.014.196 2.074 1.223 2.641 2.561.341.804.763 1.203 1.274 1.203.796 0 2.029.592 2.897 1.389.277.255.647.463.823.463.175 0 .418.313.539.696.817 2.573 21.387 2.492 23.667-.093 1.077-1.222 3.2-2.451 4.237-2.453.633-.001 1-.356 1.427-1.378.628-1.503 1.454-2.297 2.409-2.315.424-.009.762-.592 1.093-1.884.313-1.222.977-2.41 1.911-3.422 2.887-3.126 2.887-16.998.001-20.521-.802-.978-1.675-2.476-1.942-3.328-.354-1.133-.775-1.671-1.566-1.999-.62-.257-1.35-1.001-1.708-1.741-.476-.983-1.064-1.464-2.457-2.005-1.007-.392-2.446-1.268-3.198-1.946-2.104-1.902-9.887-2.823-17.563-2.079M116.12 331.102c-.789.871-1.19 5.07-.674 7.046.56 2.146 5.443 2.95 8.753 1.442 1.413-.644 1.546-7.674.163-8.643-1.324-.927-7.366-.814-8.242.155m234.621-.4c-1.117.31-1.678 3.448-1.205 6.735l.282 1.96 1.85.479c5.979 1.55 9.825-.343 9.805-4.826-.017-3.868-5.08-5.919-10.732-4.348"/><path d="M233.333 15.02c-4.984.581-6.204.95-8.491 2.575-.932.661-2.244 1.482-2.917 1.823-1.577.801-5.407 4.63-6.212 6.21-.343.673-1.168 1.974-1.833 2.891-1.466 2.02-2.242 4.943-2.995 11.296-.42 3.535 1.392 12.813 2.766 14.165.363.357 1.103 1.422 1.643 2.365 1.279 2.234 4.689 5.768 6.459 6.694.767.402 1.587.975 1.822 1.274.774.987 3.23 1.989 6.24 2.547 1.629.302 3.674.715 4.542.919 3.907.914 15.122-1.142 16.727-3.066.32-.385 1.207-1.022 1.97-1.417 1.82-.941 4.98-4.077 6.682-6.629.747-1.121 1.6-2.371 1.896-2.778.296-.408.817-1.908 1.158-3.333.34-1.426.807-3.253 1.036-4.059 1.169-4.106-.557-16.712-2.511-18.333-.293-.244-1.084-1.305-1.758-2.359-1.436-2.248-5.58-6.414-6.724-6.76-.438-.133-1.129-.54-1.537-.905-1.906-1.709-9.987-3.918-13.333-3.646-.204.016-2.287.253-4.63.526m57.408.123c-4.418.723-4.551.77-7.633 2.7-1.244.779-2.427 1.416-2.63 1.416-.202 0-1.1.834-1.996 1.852-.896 1.019-1.835 1.852-2.086 1.852-.252 0-.877.827-1.389 1.838-.512 1.011-1.401 2.386-1.974 3.056-2.734 3.19-4.248 14.335-2.732 20.106 1.116 4.247 1.8 5.901 2.94 7.11.662.702 1.203 1.525 1.203 1.828 0 .754 4.703 5.438 6.259 6.234.692.354 1.63 1.017 2.086 1.472 1.617 1.617 11.306 3.826 15.036 3.428 5.553-.593 11.348-2.239 12.467-3.541.349-.405 1.221-1.041 1.94-1.413 1.751-.907 5.322-4.523 6.236-6.315.405-.795 1.01-1.672 1.344-1.949 2.349-1.949 4.126-11.971 3.117-17.572-.81-4.493-1.714-7.822-2.291-8.432-.964-1.021-2.49-3.227-2.49-3.601 0-.76-5.068-5.46-6.783-6.29-.954-.462-1.735-.962-1.735-1.112 0-2.082-12.064-3.786-18.889-2.667m-46.111 2.47c1.018.352 2.022.772 2.231.934.209.162 1.198.572 2.199.912 1.692.574 3.724 1.919 5.574 3.689a48.033 48.033 0 0 0 1.874 1.667c.604.509 1.452 1.759 1.884 2.778.457 1.075 1.251 2.162 1.895 2.592 2.222 1.484 2.808 20.179.67 21.375-1.24.694-2.132 2.027-2.738 4.089-.547 1.86-.782 2.182-1.847 2.535-.907.299-1.368.772-1.795 1.84-.483 1.206-.793 1.477-1.928 1.682-1.912.346-3.144 1.043-4.325 2.447l-1.023 1.217-8.188.119c-10.357.15-11.701.003-12.486-1.364-.577-1.006-3.179-2.644-4.2-2.644-.282 0-.569-.151-.637-.336-.13-.355-2.765-3.461-4.47-5.27-.557-.591-1.109-1.53-1.226-2.086-.203-.96-.885-2.574-1.603-3.789-1.688-2.858-2.123-12.782-.674-15.37.343-.611.629-1.361.637-1.667.007-.306.424-1.222.926-2.037s.913-1.765.914-2.111c.001-.346.501-1.096 1.111-1.667.61-.57 1.421-1.62 1.803-2.333.436-.814 1.329-1.623 2.399-2.174.938-.483 1.801-1.183 1.92-1.555.118-.373.581-.783 1.029-.912.448-.128 1.518-.552 2.377-.941 1.834-.831 5.45-2.076 6.771-2.333 1.982-.386 9.09.078 10.926.713m58.471-.071c.789.333 1.733.606 2.099.606.365 0 .72.165.788.366.068.201.956.66 1.975 1.019 2.606.919 9.074 6.29 9.074 7.535 0 .187.167.339.37.339.204 0 .371.395.371.876 0 1.027 1.208 2.692 2.177 2.999 1.473.468 1.88 18.899.437 19.822-1.352.865-2.244 1.759-2.244 2.246 0 .321-.245.906-.544 1.301-.299.396-.549 1.261-.555 1.923-.01 1.04-.14 1.204-.956 1.204-1.163 0-2.76 1.638-2.76 2.832 0 .692-.198.871-.962.871-1.851 0-5.334 2.088-5.334 3.196 0 1.06-20.675 1.265-21.026.208-.48-1.441-3.557-3.404-5.338-3.404-.704 0-.99-.315-1.425-1.574-.464-1.341-.745-1.623-1.903-1.909-1.171-.29-1.392-.518-1.606-1.654-.351-1.875-1.183-3.39-2.583-4.71l-1.214-1.144-.246-5.523c-.342-7.721.25-13.856 1.338-13.856.656 0 2.064-1.877 2.302-3.071.318-1.587 7.044-8.04 8.38-8.04.377 0 .788-.167.914-.37.126-.204.497-.371.826-.371.328 0 .86-.221 1.182-.491.497-.419 2.995-1.236 5.769-1.889 1.711-.402 9.285.067 10.694.663M118.333 33.593c-4.689.427-7.293 5.454-5.765 11.13 1.481 5.5 13.053 5.75 14.506.314.223-.835.568-1.716.766-1.958.813-.992-.433-5.254-2.32-7.933-.625-.887-3.9-1.968-5.304-1.75-.221.034-1.068.123-1.883.197m58.294.116c-2.057.348-4.774 1.98-4.777 2.87-.002.354-.252 1.121-.556 1.704-.903 1.732-.714 4.395.556 7.828 1.06 2.866 9.204 3.828 12.409 1.465 2.471-1.821 3.026-6.929 1.167-10.742-1.136-2.331-1.442-2.575-3.87-3.087-2.161-.455-2.448-.458-4.929-.038m-53.899 2.232c2.121.998 2.609 2.419 2.391 6.975-.199 4.161.077 3.936-4.829 3.936h-4.094l-.5-1.667c-.541-1.803-.698-6.666-.215-6.666.163 0 .499-.56.746-1.245.736-2.035 3.71-2.645 6.501-1.333m59.141.078c2.466 1.171 3.503 6.265 2.027 9.963-.731 1.834-9.452 1.412-9.452-.458 0-.41-.219-1.196-.488-1.746-.744-1.523-.376-4.557.706-5.816.491-.572.894-1.27.894-1.55 0-1.351 3.799-1.588 6.313-.393m111.279 37.302c-.611.18-2.111.527-3.333.772-4.249.849-4.955 1.114-6.916 2.593-1.085.818-2.306 1.581-2.714 1.695-.407.114-1.324.933-2.037 1.818-.713.886-1.563 1.707-1.89 1.825-.326.117-1.048 1.05-1.604 2.071-.556 1.022-1.384 2.231-1.839 2.686-2.444 2.444-3.957 14.556-2.508 20.071 1.198 4.557 1.655 5.73 2.675 6.873.599.671 1.42 1.899 1.825 2.729.405.83 1.242 1.795 1.86 2.144.618.349 1.235.932 1.371 1.296.276.74 1.154 1.442 3.073 2.455.713.376 1.546.971 1.852 1.321 3.522 4.038 23.819 3.896 27.117-.19.35-.433 1.183-1.013 1.852-1.29 1.396-.577 6.216-5.24 6.216-6.014 0-.284.542-1.102 1.204-1.818 1.858-2.008 2.082-2.562 3.064-7.586.986-5.041 1.132-7.89.551-10.725-1.439-7.029-1.511-7.247-3.167-9.568-.909-1.272-1.652-2.45-1.652-2.617 0-.491-5.49-5.714-6.008-5.715-.26 0-1.057-.509-1.77-1.13-1.565-1.364-3.268-2.14-5.74-2.618a183.828 183.828 0 0 1-3.519-.72c-2.478-.54-6.698-.73-7.963-.358m12.521 2.478c.369.105.824.597 1.013 1.094.189.497.638 1.007.998 1.134 1.019.359 3.927 1.595 4.53 1.926.299.164.799.756 1.111 1.316.313.56 1.21 1.462 1.995 2.004 1.085.75 1.595 1.475 2.126 3.023.62 1.809 1.817 3.375 2.872 3.757 1.914.695 1.056 20.688-.888 20.688-.518 0-2.389 3.628-2.389 4.633 0 .762-.881 1.663-1.626 1.663-.69 0-2.078 1.425-2.078 2.133 0 .72-.931 1.569-1.732 1.579-1.321.016-3.848 1.456-4.476 2.55-.563.982-.889 1.133-2.912 1.349-4.054.434-17.647.05-17.832-.504-.447-1.341-3.295-3.157-5.455-3.478-.459-.069-1.023-.72-1.482-1.711-.544-1.177-1.008-1.655-1.751-1.804-1.303-.262-1.554-.607-2.28-3.14-.47-1.64-.94-2.382-2.146-3.383l-1.543-1.282V90.988l1.366-1.147c.878-.737 1.683-1.938 2.254-3.364.632-1.578 1.274-2.486 2.222-3.146.733-.511 1.665-1.475 2.071-2.143.406-.667 1.028-1.315 1.384-1.44.355-.125 1.345-.536 2.199-.914.855-.377 1.659-.686 1.786-.686.37 0 1.29-1.022 1.29-1.433 0-1.245 15.622-1.983 19.373-.916M58.002 92.83c-4.19 1.287-5.956 6.541-3.778 11.242 2.578 5.564 11.93 5.439 14.264-.19 3.079-7.424-2.647-13.458-10.486-11.052m117.554-.26c-.306.185-1.209.649-2.006 1.032-3.958 1.903-3.736 11.215.314 13.182 4.261 2.069 11.678 1.025 11.689-1.646.001-.332.266-1.234.588-2.004 1.507-3.606-.437-9.433-3.42-10.255-1.918-.528-6.476-.724-7.165-.309M65.841 96.296c.669 2.804.318 8.887-.55 9.537-.928.696-7.297.626-8.01-.087-1.13-1.13-1.135-9.56-.007-11.385.106-.171 1.967-.264 4.136-.207l3.944.105.487 2.037m116.993-1.998c2.476.664 1.967 11.349-.561 11.767-4.751.786-7.829.093-7.829-1.761 0-.456-.244-1.153-.543-1.548-.715-.945-.73-4.251-.024-5.185.299-.396.549-.974.556-1.285.041-1.964 4.53-3.027 8.401-1.988m-123.76 57.149c-3.429.597-5.741 3.581-5.741 7.412 0 6.661 6.115 10.063 12.517 6.965 1.511-.731 3.409-4.354 3.409-6.507 0-5.796-4.063-8.935-10.185-7.87m58.889-.002c-4.172.625-5.556 2.47-5.556 7.407 0 6.26 4.116 9.44 10.093 7.798 4.014-1.102 7.132-7.185 5.14-10.028-.332-.474-.603-1.174-.603-1.556 0-1.263-2.249-3.079-4.376-3.535-2.052-.44-2.307-.445-4.698-.086m58.889-.004c-3.382.707-4.857 1.814-5.501 4.131-.634 2.28-.815 5.582-.332 6.063.152.153.449.888.659 1.633.956 3.4 9.615 5.003 12.436 2.302 2.938-2.813 3.241-9.595.561-12.557-1.193-1.318-5.193-2.122-7.823-1.572m-111.625 2.117c1.086.297 1.473 6.956.511 8.799-.304.584-.553 1.232-.553 1.441 0 1.277-5.691 2.013-7.141.924-1.461-1.097-2.036-4.836-1.437-9.352l.245-1.851 1.852-.227c1.78-.218 5.278-.075 6.523.266m59.381.18c.602.569.726 6.909.169 8.614-.776 2.374-1.525 2.807-4.888 2.821l-2.89.012-.546-1.389c-.3-.764-.708-1.678-.907-2.032-1.352-2.409.058-8.149 2.085-8.485 1.792-.296 6.506.013 6.977.459m56.576-.535l2.481.234.389 1.818c.858 3.997.292 7.512-1.461 9.091-1.559 1.402-6.648 1.089-7.156-.44-.2-.602-.65-1.401-.999-1.776-.912-.979-1.225-4.22-.54-5.592.3-.603.546-1.384.546-1.735 0-1.542 2.096-2.039 6.74-1.6m-65.814 38.432c-1.018.261-2.851.694-4.074.962-1.222.268-2.717.751-3.322 1.075-1.214.648-1.369.752-2.974 1.986a33.927 33.927 0 0 1-2.222 1.551c-.611.382-1.346 1.024-1.633 1.426-.286.402-1.245 1.546-2.129 2.542-.885.996-1.609 2.055-1.609 2.354 0 .299-.125.545-.277.547-.153.003-.591.711-.972 1.574a66.192 66.192 0 0 1-1.375 2.892c-3.082 5.985-.979 19.553 3.957 25.53 2.609 3.159 7.762 7.407 8.986 7.407.169 0 .594.317.945.705.35.387 1.23.815 1.954.951.725.136 1.589.388 1.921.559 7.469 3.872 22.538-.973 28.193-9.066a38.094 38.094 0 0 1 2-2.593c.53-.611.964-1.253.964-1.425.001-.173.225-.84.499-1.482 1.741-4.074 2.555-8.348 2.358-12.384-.225-4.609-2.147-11.498-3.643-13.057-.286-.297-.839-1.041-1.231-1.652-2.064-3.225-8.326-8.228-11.316-9.043-7.045-1.918-11.312-2.305-15-1.359m9.658 2.105c4.364.439 5.019.659 6.488 2.176.528.546 1.744 1.212 2.702 1.48 1.419.397 1.838.716 2.255 1.715.338.808.953 1.412 1.799 1.766 1.241.518 1.412.779 1.869 2.852.115.524.756 1.524 1.423 2.223 1.971 2.063 2.228 3.345 2.249 11.236.023 8.452-.355 10.548-2.197 12.165-.685.602-1.246 1.333-1.246 1.624 0 1.258-2.821 4.403-5.801 6.465-.848.587-1.598 1.202-1.666 1.366-.9 2.15-15.563 3.567-20.31 1.963-.51-.172-1.97-.624-3.245-1.005-1.427-.426-2.396-.934-2.519-1.321-.11-.346-.51-.728-.888-.848s-.779-.456-.891-.748c-.111-.291-.8-.779-1.529-1.083-.917-.383-1.495-.961-1.876-1.872-.57-1.363-1.091-2.062-2.873-3.852-3.149-3.161-2.933-21.277.296-24.857.643-.713 1.473-2.001 1.844-2.862.371-.861.977-1.662 1.348-1.779.37-.118 1.191-.868 1.824-1.668.769-.971 1.629-1.582 2.589-1.841.882-.237 1.738-.808 2.213-1.475.821-1.153 1.36-1.325 5.744-1.83 3.84-.443 5.912-.441 10.398.01m270.197 5.056c-1.578 1.579-3.07 3.287-3.314 3.797-.245.509-.85 1.48-1.345 2.157-2.181 2.985-3.845 13.085-2.81 17.059.192.736.618 2.541.947 4.009.658 2.938 1.341 4.534 2.66 6.219 1.293 1.65 1.369 1.764 1.944 2.877.291.563 1.124 1.472 1.852 2.018.727.546 1.661 1.377 2.075 1.845 1.319 1.495 2.766 1.165 2.766-.629 0-1.332-.093-1.481-.924-1.481-1.258 0-4.554-3.272-5.743-5.701-.517-1.058-1.334-2.09-1.852-2.34-1.856-.9-2.135-19.984-.312-21.373 1.084-.825 2.48-3.037 2.715-4.301.187-1.01.551-1.473 1.605-2.037.79-.423 1.585-1.235 1.893-1.934.417-.948.751-1.203 1.574-1.203.867 0 1.044-.157 1.044-.926 0-1.861-1.636-1.195-4.775 1.944M58.339 210.504c-1.682.467-4.265 2.84-4.265 3.919 0 .395-.167.821-.37.947-.989.611-.401 4.545 1.018 6.813 2.805 4.481 9.863 4.884 12.565.717.572-.882 1.146-1.687 1.276-1.789.13-.102.355-1.06.501-2.129.848-6.225-4.271-10.272-10.725-8.478m174.733.571c-4.506 2.233-4.497 11.789.012 13.707 4.571 1.944 9.462.968 11.058-2.206 2.46-4.893.8-11.835-2.83-11.835-.494 0-1.001-.167-1.127-.371-.47-.76-5.08-.303-7.113.705m-167.508 1.748c.89.89.899 7.404.012 8.532-1.879 2.389-7.357 2.214-8.631-.275-1.213-2.37-.655-8.101.833-8.548 1.291-.388 7.333-.162 7.786.291m175.429-.364l1.919.231.44 2.609c.751 4.452.144 6.174-2.526 7.163-6.149 2.28-11.392-2.391-8.652-7.709 1.26-2.445 3.25-2.963 8.819-2.294m-122.289 36.885c-.815.197-1.753.497-2.084.667-.332.17-1.248.415-2.037.546-.789.13-1.768.369-2.176.529-.407.161-1.407.502-2.222.757-2.166.679-3.972 1.557-4.815 2.34-.407.378-1.532 1.204-2.5 1.834-.967.629-1.759 1.268-1.759 1.419 0 .15-.708 1.003-1.574 1.894-3.439 3.541-7.715 14.488-7.145 18.291.678 4.522 3.904 12.083 6.551 15.354 5.219 6.451 11.236 9.588 19.618 10.231 5.718.439 14.749-2.294 17.884-5.411.428-.425 1.486-1.372 2.351-2.106.866-.734 1.574-1.478 1.574-1.655 0-.314.735-1.316 1.852-2.524.731-.791 2.385-4.272 2.917-6.14 1.137-3.997 1.299-5.109 1.296-8.889-.008-6.986-1.699-11.919-5.874-17.136-3.247-4.057-10.904-8.604-14.49-8.604-.23 0-1.399-.318-2.597-.706a334.01 334.01 0 0 0-2.733-.878c-.306-.095-1.222-.01-2.037.187m-60.926.837c-2.77.51-5.077 1.112-6.482 1.69-.407.167-1.157.42-1.666.56-.781.215-2.15 1.096-5.139 3.304-1.995 1.475-5.914 5.978-6.21 7.135-.117.459-.332.834-.478.834-.146 0-.729 1.458-1.296 3.24-.567 1.783-1.207 3.615-1.423 4.071-2.515 5.336 2.587 21.757 7.774 25.02.258.162 1.231.954 2.163 1.761.933.807 2.476 1.82 3.43 2.25.954.43 2.383 1.092 3.176 1.471 5.069 2.422 15.03 2.186 20.428-.484 8.94-4.423 12.916-9.684 16.316-21.589.917-3.213.778-4.442-1.053-9.259a533.587 533.587 0 0 1-1.396-3.704c-1.459-3.994-4.877-8.683-7.774-10.665a178.388 178.388 0 0 1-2.672-1.891c-3.833-2.763-12.767-4.653-17.698-3.744m10.114 2.802c3.367.493 4.489.93 5.041 1.962.253.472 1.218 1.098 2.27 1.471 1.29.458 1.996.97 2.391 1.736.309.597.932 1.283 1.384 1.525 1.268.679 1.753 1.291 2 2.526.125.625.765 1.608 1.422 2.185.657.577 1.313 1.534 1.457 2.127 1.673 6.868.965 20.539-1.122 21.656-.731.391-1.175 1.035-1.773 2.57-.666 1.709-2.823 3.868-5.368 5.37-1.035.611-1.976 1.397-2.092 1.747-.126.38-.76.727-1.578.864-.753.126-1.868.366-2.48.533-4.566 1.247-12.847 1.239-16.481-.016-.509-.176-1.545-.428-2.302-.559-.884-.154-1.455-.488-1.597-.935-.122-.382-.836-.981-1.587-1.33-.751-.349-1.499-.852-1.662-1.117-.163-.266-.527-.483-.808-.483-.282 0-.616-.325-.742-.722-.126-.397-.515-.813-.864-.924-.35-.11-1.05-.994-1.556-1.963-.505-.969-1.442-2.262-2.081-2.873-2.885-2.757-2.845-21.772.049-23.668.874-.573 2.039-2.525 2.039-3.417 0-.27.458-.78 1.018-1.134.561-.354 1.269-.965 1.574-1.357 1.246-1.599 2.313-2.395 3.51-2.62.772-.145 1.349-.507 1.484-.931.699-2.202 10.522-3.385 18.454-2.223m61.182.354c.815.238 2.065.984 2.778 1.658.713.674 1.845 1.341 2.516 1.482.871.182 1.48.668 2.13 1.697.5.793 1.305 1.541 1.788 1.662.884.222 1.457 1.046 1.916 2.757.137.509.79 1.509 1.452 2.222 1.978 2.131 2.765 8.357 2.036 16.111-.519 5.529-.718 6.429-1.474 6.668-.752.239-1.596 1.394-2.028 2.776-.369 1.18-4.534 5.365-5.704 5.732-.488.153-1.329.73-1.87 1.283-2.564 2.624-14.905 3.709-20.91 1.838-.591-.184-1.475-.334-1.965-.334-.491 0-1.34-.465-1.89-1.035-.548-.569-1.747-1.528-2.664-2.13-1.654-1.086-3.704-2.895-3.704-3.27 0-.436-2.348-3.637-2.795-3.808-2.928-1.124-2.632-22.262.344-24.604.544-.427 1.218-1.326 1.499-1.998.633-1.516 4.954-5.748 5.868-5.748.688 0 2.26-1.343 2.534-2.164.446-1.336 16.164-1.956 20.143-.795m48.215 15.529c-.982.136-1.898.407-2.037.602s-.891.686-1.672 1.091c-1.712.889-1.634.774-2.321 3.412-1.593 6.115 3.86 12.398 9.111 10.498.51-.184 1.405-.44 1.99-.568 1.229-.27 1.524-.544 2.955-2.744 2.157-3.318 1.151-9.537-1.804-11.148-1.032-.563-3.978-1.551-4.295-1.441-.078.027-.945.161-1.927.298m174.774.388c-.8.41-1.633.747-1.851.749-2.105.013-3.484 7.686-1.891 10.527 1.566 2.795 1.86 3.092 3.511 3.547 7.198 1.984 12.674-2.753 11.117-9.616-1.046-4.616-6.735-7.337-10.886-5.207m-169.855 2.35c1.959.514 2.146.952 2.2 5.182.042 3.347-.278 3.874-2.677 4.41-6.156 1.375-9.388-1.593-7.679-7.053.945-3.017 3.408-3.784 8.156-2.539m176.521.092c1.889.722 2.757 2.329 2.741 5.076-.024 3.839-4.503 5.808-9.803 4.308-2.174-.615-2.53-1.691-2.152-6.49l.207-2.631 1.713-.373c2.654-.578 5.611-.533 7.294.11m-65.766 37.045c-1.564.184-4.823 1.14-6.852 2.009-.815.349-1.898.763-2.407.919-.51.156-1.397.678-1.973 1.159-.576.482-1.177.876-1.335.876-.569 0-5.129 4.663-6.158 6.296-.577.917-1.364 2.026-1.749 2.464-.687.784-.838 1.239-2.011 6.055-1.512 6.209-.273 16.783 2.319 19.8.499.581.907 1.194.907 1.364 0 1.305 6.65 7.565 9.59 9.028 13.169 6.551 27.836 2.861 35.866-9.024 4.851-7.179 5.388-21.88.998-27.333-.596-.74-1.152-1.531-1.234-1.757-.776-2.125-8.505-9.116-10.078-9.116-.185 0-1.042-.304-1.906-.677-4.067-1.754-9.634-2.576-13.977-2.063m12.358 3.548c1.15.245 2.296.83 3.168 1.618.752.678 2.191 1.554 3.198 1.946 1.393.541 1.981 1.022 2.457 2.005.358.74 1.088 1.484 1.708 1.741.791.328 1.212.866 1.566 1.999.267.852 1.14 2.35 1.942 3.328 2.886 3.523 2.886 17.395-.001 20.521-.934 1.012-1.598 2.2-1.911 3.422-.331 1.292-.669 1.875-1.093 1.884-.955.018-1.781.812-2.409 2.315-.427 1.022-.794 1.377-1.427 1.378-1.037.002-3.16 1.231-4.237 2.453-2.28 2.585-22.85 2.666-23.667.093-.121-.383-.364-.696-.539-.696-.176 0-.546-.208-.823-.463-.868-.797-2.101-1.389-2.897-1.389-.511 0-.933-.399-1.274-1.203-.567-1.338-1.627-2.365-2.641-2.561-.428-.082-.769-.614-.949-1.479-.297-1.432-1.746-3.818-2.776-4.571-.827-.604-1.278-6.545-.977-12.878l.224-4.729 1.6-2.06c.88-1.133 1.708-2.637 1.84-3.342.188-1 .549-1.438 1.647-1.998.964-.492 1.532-1.101 1.81-1.942.331-1.002.697-1.311 2.02-1.701.889-.263 2.331-1.125 3.205-1.916.875-.791 2.105-1.554 2.734-1.694 3.92-.873 14.56-.92 18.502-.081m-188.469 15.865c-.815.41-2.148 1.348-2.963 2.083l-1.482 1.336v7.395l2.209 1.96c6.31 5.6 14.948.273 12.82-7.906-1.177-4.526-6.449-6.95-10.584-4.868m234.653-.019c-2.854 1.13-3.865 3.069-3.844 7.378.01 2.29.164 3.577.437 3.668.231.077.421.302.421.5 0 2.985 7.423 4.659 10.893 2.456 2.666-1.692 2.817-1.888 3.428-4.46 1.722-7.252-4.305-12.326-11.335-9.542m-227.143 2.812c1.383.969 1.25 7.999-.163 8.643-3.31 1.508-8.193.704-8.753-1.442-.516-1.976-.115-6.175.674-7.046.876-.969 6.918-1.082 8.242-.155m234.563.03c1.928.928 2.539 1.904 2.548 4.073.02 4.483-3.826 6.376-9.805 4.826l-1.85-.479-.282-1.96c-.473-3.287.088-6.425 1.205-6.735 1.88-.523 6.874-.355 8.184.275m-185.406 36.796c-.612.164-1.57.402-2.13.529-.776.176-1.019.45-1.019 1.15v.918h17.037v-.918c0-.702-.241-.972-1.018-1.142a28.972 28.972 0 0 1-2.092-.563c-1.299-.411-9.224-.392-10.778.026m174.907.283c-1.844.474-2.13.666-2.13 1.431v.883h17.778v-.896c0-1.85-10.331-2.786-15.648-1.418" fill="#373737"/><path d="M232.222 13.188c-5.695 1.464-8.159 2.328-8.889 3.116-.305.33-1.137.922-1.848 1.315-1.465.809-7.041 6.176-7.041 6.777 0 .216-.5.963-1.112 1.66-1.302 1.483-2.145 3.335-2.808 6.166a101.297 101.297 0 0 1-.892 3.519c-1.042 3.72-1.169 4.583-.979 6.666.111 1.223.521 3.223.911 4.445a78.158 78.158 0 0 1 1.298 4.722c.324 1.375.767 2.708.982 2.963 1.719 2.028 2.263 2.774 2.451 3.359.234.731 5.136 5.808 5.607 5.808.159 0 1.178.73 2.266 1.622 1.466 1.202 2.61 1.778 4.419 2.225a43.692 43.692 0 0 1 4.777 1.537c3.402 1.361 9.313 1.397 12.525.076 2.442-1.004 4.194-1.57 5.992-1.935.647-.131 1.742-.77 2.433-1.419.691-.649 1.745-1.429 2.341-1.733 1.576-.804 5.337-4.709 5.952-6.18.29-.695.793-1.364 1.117-1.489.758-.291 2.214-3.579 2.536-5.73.346-2.306.542-2.514 2.682-2.852 2.121-.336 1.825-.709 2.798 3.525.513 2.232 1.873 4.945 2.479 4.945.169 0 .67.749 1.113 1.665.444.916 1.253 1.928 1.798 2.251.546.322 1.365 1.154 1.82 1.849.456.694 1.417 1.509 2.137 1.809.719.301 1.731 1.05 2.249 1.665.517.615 1.554 1.286 2.302 1.492 6.021 1.653 5.57 1.434 5.979 2.903.663 2.39.591 2.499-2.117 3.195-3.651.937-4.408 1.279-6.318 2.858-.948.783-1.906 1.424-2.129 1.424-.517 0-2.016 1.583-2.016 2.129 0 .228-.323.517-.718.642-.857.272-2.986 2.613-2.986 3.284 0 .26-.513.963-1.141 1.561-1.352 1.289-2.016 2.748-2.54 5.579-.211 1.146-.644 2.603-.961 3.238-1.45 2.907-1.548 9.739-.178 12.452l.746 1.481c.204.404.371 1.041.371 1.414 0 1.571 1.187 4.427 2.372 5.71.701.759 1.395 1.758 1.542 2.221.239.753 2.265 2.861 2.765 2.876.109.003.503.523.876 1.154.373.631 1.225 1.376 1.894 1.656.668.279 1.837 1.094 2.597 1.81 1.26 1.188 3.193 2.045 4.626 2.051.308.001 1.475.346 2.592.766 6.023 2.266 9.254 2.28 15.041.061 1.043-.4 2.636-.838 3.539-.973 1.137-.171 2.192-.701 3.426-1.72.981-.811 2.349-1.742 3.04-2.07.691-.328 1.532-1.063 1.869-1.634.337-.57 1.002-1.245 1.478-1.5.476-.255 1.303-1.226 1.838-2.159.535-.932 1.359-2.112 1.83-2.621 1.074-1.16 1.929-3.18 2.397-5.669.2-1.058.726-2.674 1.169-3.59 1.152-2.379 1.172-8.293.038-10.795-.429-.947-.894-2.28-1.033-2.963-.664-3.254-1.551-5.427-2.623-6.428-.436-.407-1.086-1.308-1.443-2.002-.773-1.5-1.567-2.371-2.701-2.96-.458-.239-.833-.68-.833-.981 0-.301-.958-1.157-2.13-1.902-1.171-.745-2.379-1.634-2.685-1.975-.747-.835-2.629-1.64-5.674-2.428l-2.526-.654.253-1.882c.311-2.315-.106-1.988 3.686-2.891 2.575-.613 3.479-1.018 4.569-2.046.747-.705 1.85-1.535 2.452-1.846 1.3-.673 1.788-1.132 2.38-2.237.243-.454.603-.825.799-.825.579 0 1.752-1.341 2.562-2.928.414-.812.967-1.611 1.228-1.775.915-.574 1.67-2.199 2.295-4.939.346-1.521.976-3.505 1.401-4.409 1-2.134 1.033-7.917.058-10.21-.347-.814-.865-2.48-1.152-3.702a554.434 554.434 0 0 0-.744-3.133c-.269-1.107-1.559-3.349-1.926-3.349-.146 0-.657-.708-1.137-1.574-.858-1.55-5.728-6.574-6.372-6.574-.358 0-.956-.442-2.417-1.787-.904-.833-1.827-1.178-6.587-2.463a208.01 208.01 0 0 1-3.518-.981c-1.726-.507-7.783-.206-10.556.524-6.33 1.668-7.529 2.085-8.044 2.802-.261.362-1.053.981-1.76 1.374-1.524.849-2.114 1.278-2.714 1.972-.244.284-1.168 1.2-2.051 2.037-.883.837-1.818 2.027-2.077 2.644-.258.618-.96 1.618-1.558 2.223-1.155 1.167-1.784 2.505-2.173 4.618-.903 4.899-4.609 5.39-5.569.737-.564-2.729-1.417-4.637-2.756-6.162-.612-.697-1.113-1.424-1.113-1.616 0-.599-4.549-5.02-6.288-6.11-.912-.571-1.905-1.286-2.207-1.588-2.559-2.559-14.537-4.5-19.653-3.184m10.583 1.935c4.402.649 6.801 1.502 8.491 3.017.408.365 1.099.772 1.537.905 1.144.346 5.288 4.512 6.724 6.76.674 1.054 1.465 2.115 1.758 2.359 1.954 1.621 3.68 14.227 2.511 18.333-.229.806-.696 2.633-1.036 4.059-.341 1.425-.862 2.925-1.158 3.333-.296.407-1.149 1.657-1.896 2.778-1.702 2.552-4.862 5.688-6.682 6.629-.763.395-1.65 1.032-1.97 1.417-1.605 1.924-12.82 3.98-16.727 3.066-.868-.204-2.913-.617-4.542-.919-3.01-.558-5.466-1.56-6.24-2.547-.235-.299-1.055-.872-1.822-1.274-1.77-.926-5.18-4.46-6.459-6.694-.54-.943-1.28-2.008-1.643-2.365-1.374-1.352-3.186-10.63-2.766-14.165.753-6.353 1.529-9.276 2.995-11.296.665-.917 1.49-2.218 1.833-2.891.805-1.58 4.635-5.409 6.212-6.21.673-.341 1.985-1.162 2.917-1.823 2.475-1.759 5.552-2.486 13.121-3.101.204-.017 2.382.266 4.842.629m60.158.175c2.884.431 6.667 1.856 6.667 2.512 0 .15.781.65 1.735 1.112 1.715.83 6.783 5.53 6.783 6.29 0 .374 1.526 2.58 2.49 3.601.939.993 2.701 9.194 2.688 12.506-.004 1.006-.236 3.079-.515 4.607-1.081 5.914-1.73 7.838-2.999 8.891-.334.277-.939 1.154-1.344 1.949-.914 1.792-4.485 5.408-6.236 6.315-.719.372-1.591 1.008-1.94 1.413-1.119 1.302-6.914 2.948-12.467 3.541-3.73.398-13.419-1.811-15.036-3.428-.456-.455-1.394-1.118-2.086-1.472-1.556-.796-6.259-5.48-6.259-6.234 0-.303-.541-1.126-1.203-1.828-1.14-1.209-1.824-2.863-2.94-7.11-1.516-5.771-.002-16.916 2.732-20.106.573-.67 1.462-2.045 1.974-3.056.512-1.011 1.137-1.838 1.389-1.838.251 0 1.19-.833 2.086-1.852.896-1.018 1.794-1.852 1.996-1.852.203 0 1.386-.637 2.63-1.416 4.96-3.106 10.956-3.874 19.855-2.545M119.259 31.471c-.305.203-.955.372-1.444.375-7.77.05-10.837 13.683-3.871 17.21.784.397 1.676.91 1.982 1.14 1.353 1.016 4.679 1.556 5.838.948.354-.185 1.589-.79 2.746-1.343 8.353-3.996 7.327-15.302-1.616-17.816a321.342 321.342 0 0 1-2.524-.718c-.305-.091-.805.001-1.111.204m59.074.01c-.407.176-1.16.331-1.672.345-2.204.061-5.575 2.206-6.35 4.04-.401.95-.901 2.079-1.111 2.509-.21.431-.304 1.764-.209 2.963.363 4.571 1.414 6.647 3.967 7.834.716.332 1.729.914 2.252 1.292 1.679 1.212 4.765 1.277 6.57.137.846-.534 1.757-.971 2.023-.971 3.745 0 6.517-9.236 3.829-12.759-.531-.696-.965-1.445-.965-1.664 0-.764-1.932-2.067-4.56-3.077-2.926-1.125-2.74-1.093-3.774-.649m-55.604 2.276c2.251.452 2.745.903 4.211 3.836.897 1.793 1.402 4.873.9 5.486-.198.242-.543 1.123-.766 1.958-1.453 5.436-13.025 5.186-14.506-.314-1.528-5.676 1.076-10.703 5.765-11.13a51.242 51.242 0 0 0 1.883-.197c.221-.035 1.352.128 2.513.361m58.827-.01c7.002 1.476 6.794 13.563-.26 15.034-3.516.734-8.732-.74-9.446-2.67-1.27-3.433-1.459-6.096-.556-7.828.304-.583.554-1.35.556-1.704.003-.89 2.72-2.522 4.777-2.87 2.481-.42 2.768-.417 4.929.038m119.555 39.932c.917.199 2.5.524 3.519.72 2.472.478 4.175 1.254 5.74 2.618.713.621 1.51 1.13 1.77 1.13.518.001 6.008 5.224 6.008 5.715 0 .167.743 1.345 1.652 2.617 1.656 2.321 1.728 2.539 3.167 9.568.581 2.835.435 5.684-.551 10.725-.982 5.024-1.206 5.578-3.064 7.586-.662.716-1.204 1.534-1.204 1.818 0 .774-4.82 5.437-6.216 6.014-.669.277-1.502.857-1.852 1.29-3.298 4.086-23.595 4.228-27.117.19-.306-.35-1.139-.945-1.852-1.321-1.919-1.013-2.797-1.715-3.073-2.455-.136-.364-.753-.947-1.371-1.296-.618-.349-1.455-1.314-1.86-2.144-.405-.83-1.226-2.058-1.825-2.729-1.02-1.143-1.477-2.316-2.675-6.873-1.449-5.515.064-17.627 2.508-20.071.455-.455 1.283-1.664 1.839-2.686.556-1.021 1.278-1.954 1.604-2.071.327-.118 1.177-.939 1.89-1.825.713-.885 1.63-1.704 2.037-1.818.408-.114 1.629-.877 2.714-1.695 1.961-1.479 2.667-1.744 6.916-2.593 1.222-.245 2.722-.592 3.333-.772 1.265-.372 5.485-.182 7.963.358M59.865 90.558c-.583.304-1.308.553-1.611.553-3.508 0-7.079 4.498-7.122 8.974-.048 4.92 1.904 7.303 7.593 9.267l2.571.887 2.223-.804c4.977-1.803 5.808-2.422 7.087-5.279 2.447-5.465-1.204-13.045-6.284-13.045-.294 0-1.011-.249-1.594-.553-.584-.304-1.228-.553-1.432-.553-.203 0-.847.249-1.431.553m118.283-.305c-3.544.582-8.144 3.342-8.15 4.89-.002.329-.252 1.075-.556 1.659-1.033 1.981-.603 5.938 1.021 9.384 1.039 2.206 8.353 4.544 10.648 3.404a53.435 53.435 0 0 1 2.916-1.305c1.095-.447 1.934-1.146 2.589-2.158.533-.824 1.055-1.581 1.158-1.683 2.045-2.01 1.858-6.508-.377-9.074-.355-.407-.755-1.104-.89-1.549-.243-.803-3.471-2.698-4.635-2.722-.317-.006-.899-.256-1.295-.555-.395-.299-.895-.521-1.111-.494-.215.028-.809.119-1.318.203M64.003 92.651c4.492 1.11 6.548 6.257 4.485 11.231-2.334 5.629-11.686 5.754-14.264.19-3.307-7.14 2.002-13.341 9.779-11.421m118.718.228c2.983.822 4.927 6.649 3.42 10.255-.322.77-.587 1.672-.588 2.004-.011 2.671-7.428 3.715-11.689 1.646-4.05-1.967-4.272-11.279-.314-13.182.797-.383 1.7-.847 2.006-1.032.689-.415 5.247-.219 7.165.309M58.333 149.823c-1.018.49-1.98.897-2.137.905-4.959.229-6.715 10.395-2.553 14.783 2.192 2.311 6.838 3.958 8.981 3.184a71.734 71.734 0 0 1 2.926-.961c4.46-1.35 7.154-7.199 5.438-11.808-.722-1.94-1.446-3.333-1.731-3.333-.139 0-.737-.417-1.329-.926-.592-.509-1.212-.926-1.378-.926-.165 0-1.212-.417-2.325-.926-2.486-1.137-3.516-1.136-5.892.008m60.186-.685c-2.245.772-6.134 3.041-6.837 3.989-2.558 3.451-1.981 10.693 1.031 12.94 2.687 2.005 7.247 3.357 8.896 2.636.643-.28 1.951-.789 2.908-1.131 4.382-1.563 6.795-7.132 5.136-11.853-.937-2.668-3.817-5.349-5.746-5.349-.315 0-.574-.133-.574-.296 0-.752-3.416-1.416-4.814-.936m57.788.163c-.504.201-1.004.482-1.111.625-.108.142-1.13.725-2.272 1.295-2.154 1.075-2.524 1.538-3.464 4.335-1.339 3.982.766 11.481 3.222 11.481.177 0 1.066.339 1.975.753 2.5 1.139 4.959 1.508 6.08.912.511-.272 1.68-.771 2.596-1.109 1.728-.638 3.333-1.873 3.334-2.565 0-.219.414-.879.918-1.466.505-.587 1.012-1.67 1.127-2.407.114-.737.279-1.792.366-2.345.405-2.586-3.84-8.411-6.159-8.448-.281-.004-.928-.334-1.438-.732-1.017-.796-3.594-.959-5.174-.329m-110.976 2.693c2.537 1.343 3.928 3.937 3.928 7.323 0 2.153-1.898 5.776-3.409 6.507-6.402 3.098-12.517-.304-12.517-6.965 0-5.867 6.673-9.685 11.998-6.865m57.33-.463c2.127.456 4.376 2.272 4.376 3.535 0 .382.271 1.082.603 1.556 1.992 2.843-1.126 8.926-5.14 10.028-5.977 1.642-10.093-1.538-10.093-7.798 0-5.534 1.613-7.151 7.667-7.685.347-.031 1.511.133 2.587.364m59.241.179c6.699 1.88 6.324 13.309-.49 14.932-4.071.97-8.992-.735-9.734-3.374-.21-.745-.507-1.48-.659-1.633-.483-.481-.302-3.783.332-6.063.583-2.097.694-2.232 2.5-3.047 3.314-1.495 5.015-1.667 8.051-.815m-66.303 37.597c-1.097.182-2.597.65-3.334 1.04-.736.39-2.339 1.002-3.561 1.36-1.223.359-2.743.996-3.379 1.417-1.948 1.289-5.503 4.034-5.633 4.349-.067.164-.863 1.06-1.768 1.992-.905.931-1.994 2.433-2.418 3.337-.425.903-.889 1.642-1.031 1.642-.25 0-.996 1.603-1.809 3.889-2.44 6.856-1.523 17.576 1.953 22.829.515.778.937 1.573.937 1.767 0 .193.219.572.487.841.267.269.654.79.859 1.158.84 1.507 4.896 5.21 7.699 7.03 3.355 2.178 3.878 2.441 7.179 3.614 1.285.457 2.202.943 2.037 1.081-3.173 2.666-4.716 3.671-6.555 4.272-1.338.437-2.764 1.255-3.687 2.116-.828.772-1.614 1.403-1.748 1.403-.133 0-.807.561-1.497 1.247-2.861 2.841-4.275 4.581-4.932 6.068-.383.866-.812 1.574-.955 1.574-.143 0-.8 1.209-1.461 2.686l-1.67 3.729-.469 1.045-.745-1.415c-.41-.778-1.202-2.248-1.759-3.267a729.32 729.32 0 0 1-2.165-3.991c-.633-1.177-1.74-2.773-2.459-3.547-.719-.774-1.567-1.728-1.884-2.12-.317-.392-1.046-1.046-1.62-1.453a30.946 30.946 0 0 1-2.185-1.753c-1.397-1.24-4.667-2.877-5.748-2.877-.438 0-.797-.126-.797-.28 0-.364-1.964-1.227-3.868-1.7-2.131-.529-10.798-.48-12.798.072-2.158.596-3.704 1.276-3.704 1.628 0 .154-.379.28-.843.28-.981 0-4.958 1.985-5.803 2.896-.317.343-1.327 1.2-2.243 1.905-.917.706-1.727 1.43-1.802 1.61-.074.18-.87 1.155-1.767 2.165-.898 1.011-1.995 2.62-2.437 3.576-.442.955-.918 1.821-1.058 1.922-1.861 1.361-3.488 17.745-1.917 19.315.254.255.463.837.463 1.293 0 .457.154.925.342 1.042.188.116.451.709.585 1.318.133.608.354 1.107.491 1.108.137.001.572.792.968 1.759.396.967.896 1.943 1.111 2.169.216.227.892 1.049 1.503 1.827 2.842 3.622 9.919 9.058 11.791 9.058a1.4 1.4 0 0 1 .82.328c2.901 2.698 18.218 1.587 23.389-1.697 1.06-.673 2.08-1.223 2.267-1.223.354 0 2.726-1.974 4.676-3.89 1.811-1.78 3.605-4.169 4.681-6.232 1.513-2.9 2.3-4.333 3.456-6.289l1.052-1.78.672 1.41c2.137 4.489 2.651 5.496 2.893 5.666.147.104.566.83.931 1.614 2.496 5.362 10.841 11.711 17.261 13.131 3.359.744 10.458.987 12.963.444 4.449-.965 8.148-2.348 8.148-3.047 0-.158.25-.287.555-.287.306 0 .556-.148.556-.33 0-.181.395-.429.879-.551.483-.121 1.768-1.056 2.856-2.077 1.088-1.021 2.073-1.856 2.189-1.856.117 0 .528-.542.914-1.204.386-.662 1.07-1.537 1.519-1.944.881-.8 2.754-4.139 2.754-4.912 0-.26.42-1.276.933-2.257 2.609-4.99 2.573-16.078-.066-19.869-.283-.407-.69-1.388-.904-2.179-.448-1.658-1.844-3.908-3.574-5.76-.662-.709-1.204-1.414-1.204-1.566 0-.956-8.464-6.606-9.896-6.606-.309 0-1.093-.458-1.742-1.018a54.067 54.067 0 0 0-2.355-1.901c-1.482-1.112-1.363-1.278 1.483-2.063 2.266-.624 5.152-2.058 6.158-3.059.275-.274 1.025-.73 1.667-1.014 1.188-.524 5.425-4.353 5.426-4.902.001-.166.668-1.052 1.483-1.969.865-.972 1.889-2.745 2.46-4.259.538-1.426 1.099-2.759 1.246-2.963 2.39-3.299 2.277-14.906-.189-19.464-.281-.52-.855-1.864-1.275-2.986-.928-2.479-4.844-7.394-7.198-9.031a42.833 42.833 0 0 1-2.077-1.563c-1.435-1.166-4.39-2.564-6.035-2.856-.77-.137-1.943-.569-2.607-.961-2.149-1.268-7.8-1.762-12.061-1.054m8.105 2.176c6.234 1.124 8.104 1.801 11.296 4.091 3.029 2.174 5.42 4.485 6.686 6.463.392.611.945 1.355 1.231 1.652 1.496 1.559 3.418 8.448 3.643 13.057.197 4.036-.617 8.31-2.358 12.384-.274.642-.498 1.309-.499 1.482 0 .172-.434.814-.964 1.425a38.094 38.094 0 0 0-2 2.593c-5.655 8.093-20.724 12.938-28.193 9.066-.332-.171-1.196-.423-1.921-.559-.724-.136-1.604-.564-1.954-.951-.351-.388-.776-.705-.945-.705-1.224 0-6.377-4.248-8.986-7.407-4.936-5.977-7.039-19.545-3.957-25.53.374-.727.993-2.028 1.375-2.892.381-.863.819-1.571.972-1.574.152-.002.277-.248.277-.547 0-.299.724-1.358 1.609-2.354.884-.996 1.843-2.14 2.129-2.542.287-.402 1.022-1.044 1.633-1.426a33.927 33.927 0 0 0 2.222-1.551c1.605-1.234 1.76-1.338 2.974-1.986.605-.324 2.1-.807 3.322-1.075 1.223-.268 3.056-.701 4.074-.962 2.267-.581 5.615-.642 8.334-.152m274.074 2.961c0 .204-.225.371-.499.371s-.899.35-1.389.779c-.489.428-1.158.97-1.485 1.203-.327.234-1.461 1.572-2.521 2.973-1.06 1.401-2.162 2.783-2.45 3.071-.287.287-.938 1.837-1.445 3.444-.508 1.606-1.304 3.724-1.771 4.707-1.562 3.292-.896 15.304.849 15.304.187 0 .34.257.34.571 0 1.547 1.656 5.487 2.827 6.729.701.743 1.632 1.988 2.07 2.766.437.779.909 1.416 1.047 1.416.139 0 1.099.833 2.133 1.852 2.25 2.214 4.516 2.679 4.516.926 0-.761-.18-.926-1.007-.926-.585 0-1.321-.357-1.759-.853-.414-.468-1.348-1.299-2.075-1.845-.728-.546-1.561-1.455-1.852-2.018-.575-1.113-.651-1.227-1.944-2.877-1.319-1.685-2.002-3.281-2.66-6.219a158.877 158.877 0 0 0-.947-4.009c-1.035-3.974.629-14.074 2.81-17.059.495-.677 1.1-1.648 1.345-2.157.843-1.755 6.101-6.667 7.137-6.667.769 0 .952-.178.952-.926 0-.782-.173-.926-1.111-.926-.611 0-1.111.167-1.111.37M59.417 207.96c-12.166 2.74-10.204 19.795 2.25 19.561 6.356-.119 12.046-7.481 9.466-12.248-.191-.354-.448-1.116-.57-1.693-.248-1.171-1.489-2.464-3.711-3.867-.815-.514-1.565-1.049-1.667-1.19-.454-.624-3.971-.968-5.768-.563m176.934-.184c-1.294.146-2.461.432-2.593.634-.132.203-.989.837-1.906 1.41-2.087 1.305-2.409 1.733-3.202 4.254-.353 1.12-.774 2.129-.938 2.242-.883.608 1.526 7.737 3.071 9.085 4.12 3.594 14.773 2.217 14.773-1.909 0-.234.391-1.002.869-1.707 2.318-3.416-.221-12.155-3.531-12.155-.37 0-.672-.152-.672-.338 0-.312-2.995-1.948-3.357-1.834-.089.028-1.22.171-2.514.318m-172.505 2.663c3.746 1.079 5.781 4.41 5.218 8.543-.146 1.069-.371 2.027-.501 2.129-.13.102-.704.907-1.276 1.789-2.702 4.167-9.76 3.764-12.565-.717-1.419-2.268-2.007-6.202-1.018-6.813.203-.126.37-.552.37-.947 0-2.776 5.782-5.133 9.772-3.984m176.339-.069c.126.204.633.371 1.127.371 3.63 0 5.29 6.942 2.83 11.835-1.596 3.174-6.487 4.15-11.058 2.206-4.509-1.918-4.518-11.474-.012-13.707 2.033-1.008 6.643-1.465 7.113-.705m-116.711 39.665c1.198.388 2.367.706 2.597.706 3.586 0 11.243 4.547 14.49 8.604 4.175 5.217 5.866 10.15 5.874 17.136.003 3.78-.159 4.892-1.296 8.889-.532 1.868-2.186 5.349-2.917 6.14-1.117 1.208-1.852 2.21-1.852 2.524 0 .177-.708.921-1.574 1.655-.865.734-1.923 1.681-2.351 2.106-1.718 1.709-7.938 4.413-11.574 5.033-13.342 2.274-24.503-4.191-30.139-17.458-.989-2.328-2.057-5.864-2.34-7.749-.57-3.803 3.706-14.75 7.145-18.291.866-.891 1.574-1.744 1.574-1.894 0-.151.792-.79 1.759-1.419.968-.63 2.093-1.456 2.5-1.834.843-.783 2.649-1.661 4.815-2.34a42.366 42.366 0 0 0 2.222-.757c.408-.16 1.387-.399 2.176-.529.789-.131 1.705-.376 2.037-.546 1.002-.513 3.529-1.037 4.121-.854.305.094 1.535.489 2.733.878m-57.733.38c4.041.856 8.067 2.308 9.735 3.51.961.692 2.163 1.543 2.672 1.891 2.897 1.982 6.315 6.671 7.774 10.665.149.408.777 2.075 1.396 3.704 1.831 4.817 1.97 6.046 1.053 9.259-3.4 11.905-7.376 17.166-16.316 21.589-5.398 2.67-15.359 2.906-20.428.484a190.702 190.702 0 0 0-3.176-1.471c-.954-.43-2.497-1.443-3.43-2.25-.932-.807-1.905-1.599-2.163-1.761-5.187-3.263-10.289-19.684-7.774-25.02.216-.456.856-2.288 1.423-4.071.567-1.782 1.15-3.24 1.296-3.24.146 0 .361-.375.478-.834.296-1.157 4.215-5.66 6.21-7.135 2.989-2.208 4.358-3.089 5.139-3.304.509-.14 1.259-.393 1.666-.56 4.647-1.913 9.826-2.435 14.445-1.456m110.114 16.402c-.752.269-1.862.886-2.467 1.373-.605.486-1.421 1.134-1.815 1.44-4.351 3.377-3.046 12.905 2.14 15.619 4.557 2.385 12.954.623 12.954-2.719 0-.245.345-.813.767-1.262 5.491-5.845-3.669-17.276-11.579-14.451m176.043.085c-5.654 2.466-7.887 8.813-5.075 14.424 2.794 5.577 8.509 6.978 14.554 3.568 2.042-1.151 4.252-7.5 3.494-10.035-.22-.737-.514-1.755-.652-2.262-.357-1.31-2.01-3.708-2.556-3.708-.254 0-.679-.262-.945-.583-1.554-1.873-6.09-2.595-8.82-1.404m-171.015 2.061c6.142 1.79 7.687 9.24 2.959 14.259-.231.245-.898.55-1.482.679-.585.128-1.48.384-1.99.568-5.251 1.9-10.704-4.383-9.111-10.498.687-2.638.609-2.523 2.321-3.412.781-.405 1.533-.896 1.672-1.091.139-.195 1.055-.466 2.037-.602.982-.137 1.849-.271 1.927-.298.079-.027.829.151 1.667.395m178.842.968c5.039 2.704 4.61 11.432-.679 13.812-3.216 1.447-8.365.756-9.598-1.289-1.405-2.331-1.562-2.725-1.802-4.535-.42-3.172 1.114-7.907 2.566-7.916.218-.002 1.051-.339 1.851-.749 1.934-.992 5.068-.715 7.662.677m-68.244 36.929c-1.324.264-3.157.747-4.074 1.073-.916.327-1.958.695-2.314.818-.357.123-.649.372-.649.551 0 .18-.277.328-.615.328-.765 0-3.965 1.987-5.632 3.499-2.767 2.508-3.759 3.649-5.767 6.636-2.106 3.133-2.315 3.649-3.209 7.92-.267 1.273-.604 2.315-.749 2.315-.89 0-1.055 7.906-.213 10.195.297.809.718 2.138.934 2.953.888 3.353 1.621 5.5 2.035 5.964.757.849 1.158 1.427 1.887 2.724.894 1.589 1.564 2.41 3.149 3.86.695.636 1.727 1.599 2.293 2.141.566.541 1.58 1.291 2.254 1.666.675.375 1.309.766 1.411.867 4.459 4.459 19.02 4.777 27.168.593 3.101-1.593 8.229-5.755 9.099-7.385.289-.542.664-.985.833-.985.169 0 .308-.223.308-.495s.6-1.266 1.335-2.208c1.193-1.532 2.739-5.803 2.739-7.568 0-.278.341-1.206.759-2.062.976-2.002 1.11-8.213.206-9.593-.311-.474-.754-1.776-.985-2.894-.683-3.309-1.858-6.523-2.573-7.032-.143-.102-.721-.922-1.286-1.823-2.153-3.437-7.998-8.621-10.287-9.123-.561-.123-1.019-.337-1.019-.475 0-.518-4.448-1.989-7.939-2.624-2.789-.507-6.027-.449-9.099.164m12.004 2.654c1.037.337 2.592.918 3.455 1.29.864.373 1.721.677 1.906.677 1.573 0 9.302 6.991 10.078 9.116.082.226.638 1.017 1.234 1.757 4.39 5.453 3.853 20.154-.998 27.333-8.03 11.885-22.697 15.575-35.866 9.024-2.94-1.463-9.59-7.723-9.59-9.028 0-.17-.408-.783-.907-1.364-2.592-3.017-3.831-13.591-2.319-19.8 1.173-4.816 1.324-5.271 2.011-6.055.385-.438 1.172-1.547 1.749-2.464 1.029-1.633 5.589-6.296 6.158-6.296.158 0 .759-.394 1.335-.876.576-.481 1.463-1.003 1.973-1.159.509-.156 1.592-.57 2.407-.919 5.301-2.271 12.599-2.79 17.374-1.236m-184.781 15.79c-5.454.977-8.493 4.6-8.444 10.066.1 11.129 14.338 13.866 19.169 3.685 2.118-4.464-1.216-11.925-5.887-13.172a44.781 44.781 0 0 1-2.246-.656c-.407-.14-1.574-.105-2.592.077m234.244-.007c-2.612 1.029-3.576 1.568-4.298 2.402-5.23 6.038-3.382 14.991 3.571 17.301 8.912 2.96 16.174-7.477 10.936-15.718-1.996-3.139-7.199-5.171-10.209-3.985m-230 2.696c5.267 1.723 6.533 9.075 2.266 13.156-3.164 3.024-7.033 2.944-10.598-.221l-2.209-1.96v-7.395l1.482-1.336c3.067-2.767 5.566-3.386 9.059-2.244m236.525.574c3.259 1.839 4.376 4.861 3.367 9.11-.611 2.572-.762 2.768-3.428 4.46-3.47 2.203-10.893.529-10.893-2.456 0-.198-.19-.423-.421-.5-1.044-.348-.543-7.066.655-8.795 2.142-3.092 7.003-3.917 10.72-1.819M175.37 365.395c-.407.096-1.74.363-2.963.594-1.222.23-2.388.537-2.592.682-.204.145-.871.381-1.482.525-3.698.87-3.967 3.174-.37 3.174 2.316 0 2.407-.034 2.407-.918 0-.701.243-.974 1.019-1.148.56-.125 1.602-.377 2.315-.56 1.696-.435 9.215-.433 10.593.003.59.187 1.532.44 2.092.563.777.17 1.018.44 1.018 1.142 0 .884.092.918 2.408.918 3.588 0 3.251-2.389-.466-3.299-.762-.187-2.363-.607-3.557-.934-2.156-.589-9.003-1.077-10.422-.742m175.556.149c-1.019.169-2.477.49-3.241.715-.764.224-1.976.558-2.693.741-3.848.983-4.498 3.37-.918 3.37 2.09 0 2.222-.052 2.222-.875 0-1.868 9.48-2.804 15.205-1.502 2.314.526 2.573.675 2.573 1.481 0 .856.108.896 2.407.896 2.27 0 2.408-.049 2.408-.857 0-.89-2.23-2.476-3.481-2.476-.332 0-.893-.146-1.246-.325-2.319-1.171-9.423-1.798-13.236-1.168" fill="#8b8b8b"/><path d="M234.074 10.399c-3.33.401-4.594.876-5.331 2-.443.677-1.029.895-2.968 1.102-2.69.288-4.779 1.413-4.961 2.67-.082.565-.461.832-1.393.983-1.137.185-2.384.972-2.384 1.504 0 .385-1.763 2.083-2.163 2.083-.522 0-1.541 1.946-1.541 2.944 0 .418-.231.759-.514.759-1.439 0-3.189 3.487-3.189 6.352 0 .418-.56 1.319-1.244 2.003-1.474 1.474-1.719 2.742-1.719 8.873 0 5.291.179 6.119 1.709 7.907.69.806 1.254 1.805 1.254 2.221 0 1.938 1.112 4.915 2.168 5.804.601.506 1.461 1.627 1.912 2.491.921 1.767 2.239 3.135 4.321 4.485.778.504 2.069 1.513 2.87 2.242.804.732 1.846 1.326 2.326 1.326 1.178 0 4.314 1.47 4.944 2.317 1 1.344 13.407 1.959 16.69.829 2.226-.767 3.368-1.361 4.059-2.111.323-.35 1.323-.752 2.222-.894 1.852-.292 3.97-1.497 5.053-2.874.402-.511 1.335-1.217 2.072-1.569.923-.44 1.573-1.134 2.087-2.227.41-.873 1.064-1.757 1.452-1.965 1.044-.559 2.507-3.303 2.787-5.228.232-1.595.33-1.711 1.808-2.147.859-.254 1.77-.551 2.025-.66.297-.128.463.119.463.69 0 1.89 1.105 4.577 2.397 5.829.719.697 1.307 1.392 1.307 1.546 0 .65 2.306 3.626 2.975 3.838.4.128.728.387.728.577 0 .19.185.345.411.345.226 0 1.323.834 2.438 1.852 1.362 1.246 2.349 1.854 3.014 1.857 1.852.01 2.47.406 3.489 2.238.56 1.008 1.019 1.895 1.019 1.973 0 .078-1.077.258-2.393.399-2.303.246-4.274 1.217-4.274 2.105 0 .615-1.012 1.428-1.777 1.428-.936 0-5.63 4.695-5.63 5.63 0 .861-.664 1.586-1.776 1.939-.477.151-.905.671-1.032 1.252a28.178 28.178 0 0 1-.556 2.068c-.187.59-.34 1.512-.34 2.048 0 .631-.45 1.399-1.275 2.177-1.615 1.523-1.795 2.654-1.63 10.234l.127 5.821 1.389 1.273c.918.841 1.389 1.596 1.389 2.229 0 2.378 1.116 4.927 2.432 5.551.932.442 1.272.843 1.272 1.5 0 1.243 4.191 5.462 5.995 6.035.951.302 1.401.68 1.482 1.244.146 1.029 2.061 1.954 4.682 2.262 1.606.189 2.199.467 3.156 1.482 2.443 2.59 16.122 2.346 17.332-.309.346-.761.763-.953 2.495-1.152 3.253-.373 4.482-.924 5.039-2.258.362-.866.814-1.245 1.72-1.444 1.647-.362 5.323-4.053 5.687-5.71.191-.869.566-1.337 1.29-1.611 1.411-.533 1.802-1.307 2.28-4.518.227-1.529.534-2.78.682-2.78 3.354 0 3.826-16.486.513-17.941-.656-.288-.881-.902-1.296-3.519-.479-3.026-.556-3.195-1.708-3.725-.873-.402-1.325-.945-1.64-1.97-.239-.778-.712-1.611-1.05-1.852-.339-.24-.815-.812-1.058-1.271-.243-.458-.596-.833-.783-.833-.187 0-.757-.417-1.266-.926-.509-.509-1.33-.926-1.824-.926-.651 0-1.026-.309-1.365-1.128-.596-1.438-1.994-2.155-4.772-2.445l-2.204-.23.899-1.424c.494-.784.899-1.599.899-1.812 0-.475 1.589-1.109 2.782-1.109.511 0 1.789-.752 3.032-1.785 1.182-.982 2.649-2.105 3.26-2.495 1.58-1.01 1.904-1.368 2.808-3.102.442-.848 1.431-2.175 2.197-2.949 1.354-1.368 1.552-1.864 2.039-5.099.128-.847.571-1.847.985-2.222 3.153-2.851 3.115-17.449-.047-18.453-.518-.164-.778-.886-1.128-3.14-.471-3.029-1.283-4.459-2.533-4.459-.458 0-.783-.499-1.105-1.703-.308-1.154-.692-1.765-1.188-1.895-.402-.105-.732-.319-.732-.474 0-.806-3.033-3.335-3.999-3.335-.837 0-1.122-.236-1.479-1.221-.509-1.408-1.876-2.046-5.104-2.379-1.394-.144-2.149-.412-2.381-.845-1.754-3.277-15.686-3.402-17.422-.157-.347.649-.891.851-2.826 1.049-3.199.328-4.897 1.329-4.925 2.905-.009.476-.318.648-1.166.648-1.591 0-6.253 4.673-6.253 6.268 0 .868-.191 1.085-1.116 1.27-.693.139-1.235.541-1.434 1.065-.797 2.104-1.154 3.586-1.154 4.789v1.302l-1.998-.958c-1.975-.948-2.001-.982-2.398-3.14-.316-1.724-.682-2.463-1.741-3.519-.738-.735-1.58-1.795-1.871-2.355-.291-.56-.692-1.018-.891-1.018-.198 0-.36-.242-.36-.539 0-.296-.42-.837-.933-1.203a38.44 38.44 0 0 1-1.724-1.314c-.434-.356-.985-.648-1.223-.648-.238 0-1.196-.732-2.129-1.626-1.521-1.457-1.942-1.655-4.044-1.899-1.897-.22-2.619-.506-3.775-1.495-.821-.703-2.004-1.308-2.782-1.423-2.979-.441-6.308-.514-8.946-.195m11.111 3.371c4.012 1.078 5.9 1.813 6.69 2.602.302.302 1.295 1.017 2.207 1.588 1.739 1.09 6.288 5.511 6.288 6.11 0 .192.501.919 1.113 1.616 1.339 1.525 2.192 3.433 2.756 6.162.96 4.653 4.666 4.162 5.569-.737.389-2.113 1.018-3.451 2.173-4.618.598-.605 1.3-1.605 1.558-2.223.259-.617 1.194-1.807 2.077-2.644.883-.837 1.807-1.753 2.051-2.037.6-.694 1.19-1.123 2.714-1.972.707-.393 1.499-1.012 1.76-1.374.515-.717 1.714-1.134 8.044-2.802 2.773-.73 8.83-1.031 10.556-.524.713.21 2.296.651 3.518.981 4.76 1.285 5.683 1.63 6.587 2.463 1.461 1.345 2.059 1.787 2.417 1.787.644 0 5.514 5.024 6.372 6.574.48.866.991 1.574 1.137 1.574.367 0 1.657 2.242 1.926 3.349.122.501.457 1.911.744 3.133s.805 2.888 1.152 3.702c.975 2.293.942 8.076-.058 10.21-.425.904-1.055 2.888-1.401 4.409-.625 2.74-1.38 4.365-2.295 4.939-.261.164-.814.963-1.228 1.775-.81 1.587-1.983 2.928-2.562 2.928-.196 0-.556.371-.799.825-.592 1.105-1.08 1.564-2.38 2.237-.602.311-1.705 1.141-2.452 1.846-1.09 1.028-1.994 1.433-4.569 2.046-3.792.903-3.375.576-3.686 2.891l-.253 1.882 2.526.654c3.045.788 4.927 1.593 5.674 2.428.306.341 1.514 1.23 2.685 1.975 1.172.745 2.13 1.601 2.13 1.902 0 .301.375.742.833.981 1.134.589 1.928 1.46 2.701 2.96.357.694 1.007 1.595 1.443 2.002 1.072 1.001 1.959 3.174 2.623 6.428.139.683.604 2.016 1.033 2.963 1.134 2.502 1.114 8.416-.038 10.795-.443.916-.969 2.532-1.169 3.59-.468 2.489-1.323 4.509-2.397 5.669-.471.509-1.295 1.689-1.83 2.621-.535.933-1.362 1.904-1.838 2.159-.476.255-1.141.93-1.478 1.5-.337.571-1.178 1.306-1.869 1.634-.691.328-2.059 1.259-3.04 2.07-1.234 1.019-2.289 1.549-3.426 1.72-.903.135-2.496.573-3.539.973-5.787 2.219-9.018 2.205-15.041-.061-1.117-.42-2.284-.765-2.592-.766-1.433-.006-3.366-.863-4.626-2.051-.76-.716-1.929-1.531-2.597-1.81-.669-.28-1.521-1.025-1.894-1.656s-.767-1.151-.876-1.154c-.5-.015-2.526-2.123-2.765-2.876-.147-.463-.841-1.462-1.542-2.221-1.185-1.283-2.372-4.139-2.372-5.71 0-.373-.167-1.01-.371-1.414l-.746-1.481c-1.37-2.713-1.272-9.545.178-12.452.317-.635.75-2.092.961-3.238.524-2.831 1.188-4.29 2.54-5.579.628-.598 1.141-1.301 1.141-1.561 0-.671 2.129-3.012 2.986-3.284.395-.125.718-.414.718-.642 0-.546 1.499-2.129 2.016-2.129.223 0 1.181-.641 2.129-1.424 1.91-1.579 2.667-1.921 6.318-2.858 2.708-.696 2.78-.805 2.117-3.195-.409-1.469.042-1.25-5.979-2.903-.748-.206-1.785-.877-2.302-1.492-.518-.615-1.53-1.364-2.249-1.665-.72-.3-1.681-1.115-2.137-1.809-.455-.695-1.274-1.527-1.82-1.849-.545-.323-1.354-1.335-1.798-2.251-.443-.916-.944-1.665-1.113-1.665-.606 0-1.966-2.713-2.479-4.945-.973-4.234-.677-3.861-2.798-3.525-2.14.338-2.336.546-2.682 2.852-.322 2.151-1.778 5.439-2.536 5.73-.324.125-.827.794-1.117 1.489-.615 1.471-4.376 5.376-5.952 6.18-.596.304-1.65 1.084-2.341 1.733-.691.649-1.786 1.288-2.433 1.419-1.798.365-3.55.931-5.992 1.935-3.212 1.321-9.123 1.285-12.525-.076a43.692 43.692 0 0 0-4.777-1.537c-1.809-.447-2.953-1.023-4.419-2.225-1.088-.892-2.107-1.622-2.266-1.622-.471 0-5.373-5.077-5.607-5.808-.188-.585-.732-1.331-2.451-3.359-.215-.255-.658-1.588-.982-2.963a78.158 78.158 0 0 0-1.298-4.722c-.39-1.222-.8-3.222-.911-4.445-.19-2.083-.063-2.946.979-6.666.229-.815.63-2.398.892-3.519.663-2.831 1.506-4.683 2.808-6.166.612-.697 1.112-1.444 1.112-1.66 0-.601 5.576-5.968 7.041-6.777.711-.393 1.543-.985 1.848-1.315.73-.788 3.194-1.652 8.889-3.116 3.131-.805 8.737-.553 12.963.582M117.963 29.125c-1.536.227-3.483 1.292-3.719 2.033-.108.342-.76.722-1.463.854-1.361.255-2.645 1.576-3.032 3.12-.13.515-.584 1.28-1.011 1.7-2.411 2.374-2.2 7.987.338 8.961.305.117.554.544.554.949 0 1.007 1.132 2.844 1.903 3.089.348.111 1.143.723 1.766 1.36 3.153 3.225 14.108 2.563 14.108-.852 0-.159.375-.408.834-.553 1.094-.346 2.473-1.356 2.49-1.823.038-1.03.853-3.198 1.413-3.759.843-.846.835-5.01-.012-5.962-.318-.357-.789-1.363-1.046-2.235-.54-1.825-1.701-3.124-3.41-3.816-.657-.266-1.445-.755-1.75-1.087-1.389-1.508-5.03-2.413-7.963-1.979m58.518-.009c-1.761.44-2.707.99-3.07 1.788-.256.562-.838.939-1.7 1.1-1.321.248-2.822 1.795-2.822 2.909 0 .296-.583 1.157-1.296 1.913-1.257 1.333-1.297 1.464-1.297 4.31 0 2.835.045 2.985 1.297 4.371.713.789 1.296 1.752 1.296 2.141 0 .777 3.573 4.105 5.451 5.076 2.905 1.502 9.599.469 11.496-1.775.559-.661 1.553-1.511 2.209-1.89 3.778-2.178 3.281-16.096-.575-16.096-.188 0-.55-.25-.803-.556-.254-.305-.774-.555-1.157-.555-.382 0-.695-.145-.695-.321 0-1.443-5.658-3.083-8.334-2.415m-53.587 2.869c8.943 2.514 9.969 13.82 1.616 17.816a133.644 133.644 0 0 0-2.746 1.343c-1.159.608-4.485.068-5.838-.948-.306-.23-1.198-.743-1.982-1.14-6.966-3.527-3.899-17.16 3.871-17.21.489-.003 1.139-.172 1.444-.375.306-.203.806-.295 1.111-.204.306.09 1.441.414 2.524.718m59.213.145c2.628 1.01 4.56 2.313 4.56 3.077 0 .219.434.968.965 1.664 2.688 3.523-.084 12.759-3.829 12.759-.266 0-1.177.437-2.023.971-1.805 1.14-4.891 1.075-6.57-.137-.523-.378-1.536-.96-2.252-1.292-2.553-1.187-3.604-3.263-3.967-7.834-.095-1.199-.001-2.532.209-2.963.21-.43.71-1.559 1.111-2.509.775-1.834 4.146-3.979 6.35-4.04.512-.014 1.265-.169 1.672-.345 1.034-.444.848-.476 3.774.649M59.074 88.288c-2.062.49-3.889 1.31-3.889 1.745 0 .555-1.175 1.448-1.905 1.448-1.074 0-2.91 2.336-2.91 3.703 0 .224-.416.793-.926 1.265-1.381 1.28-1.385 6-.006 7.308.506.48.922 1.025.926 1.211.027 1.439 1.374 3.217 2.871 3.789.888.339 1.787.938 1.997 1.331 1.411 2.636 9.666 2.586 12.035-.072.552-.62 1.213-1.127 1.468-1.127 1.265 0 2.714-1.332 3.096-2.847.216-.859.605-1.695.864-1.857 2.346-1.473 2.31-6.091-.065-8.303-.428-.399-.778-1.144-.778-1.655 0-1.031-1.605-2.746-2.571-2.746-.335 0-1.3-.643-2.144-1.43-1.083-1.01-2.004-1.505-3.132-1.684-.879-.14-1.931-.314-2.338-.387-.408-.073-1.574.065-2.593.308m117.595-.123c-1.679.243-2.23.521-3.149 1.586-.621.721-1.612 1.394-2.245 1.524-1.07.221-2.386 1.752-2.386 2.776 0 .23-.583 1.001-1.296 1.714-2.315 2.315-1.578 9.42.976 9.42.176 0 .32.38.32.844 0 1.31 1.003 2.432 2.546 2.847.929.251 1.552.697 1.833 1.315 1.186 2.601 9.414 2.458 11.416-.199.233-.31 1.187-.944 2.119-1.409 5.529-2.762 5.562-14.183.049-16.921-.815-.405-1.615-.944-1.778-1.199-.556-.87-4.859-2.758-6-2.633-.204.022-1.286.173-2.405.335M62.728 90.558c.583.304 1.3.553 1.594.553 5.08 0 8.731 7.58 6.284 13.045-1.279 2.857-2.11 3.476-7.087 5.279l-2.223.804-2.571-.887c-5.689-1.964-7.641-4.347-7.593-9.267.043-4.476 3.614-8.974 7.122-8.974.303 0 1.028-.249 1.611-.553.584-.304 1.228-.553 1.431-.553.204 0 .848.249 1.432.553m117.849-.014c.396.299.978.549 1.295.555 1.164.024 4.392 1.919 4.635 2.722.135.445.535 1.142.89 1.549 2.235 2.566 2.422 7.064.377 9.074-.103.102-.625.859-1.158 1.683-.655 1.012-1.494 1.711-2.589 2.158-.891.364-2.203.951-2.916 1.305-2.295 1.14-9.609-1.198-10.648-3.404-1.624-3.446-2.054-7.403-1.021-9.384.304-.584.554-1.33.556-1.659.007-1.826 5.016-4.52 9.468-5.093.216-.027.716.195 1.111.494M56.481 147.727c-.814.371-1.707 1.098-1.984 1.617-.277.518-1.015 1.089-1.64 1.268-1.206.346-2.414 1.981-2.46 3.33-.014.436-.25.879-.524.984-1.668.641-1.958 5.972-.421 7.734.412.472 1.052 1.653 1.422 2.623.555 1.457.949 1.891 2.25 2.484.867.395 2.096 1.204 2.732 1.797 2.333 2.18 8.623 2.197 10.79.029.576-.576 1.739-1.323 2.585-1.662 1.488-.595 2.621-2.006 2.621-3.264 0-.305.421-1.009.935-1.563.931-1.006 1.046-1.313 1.466-3.927.237-1.476-.378-3.08-1.68-4.382-.397-.396-.721-1.112-.721-1.59 0-1.187-1.148-2.416-2.513-2.689-.768-.154-1.199-.499-1.345-1.078-.558-2.223-7.966-3.324-11.513-1.711m58.708-.023c-.71.348-1.501 1.069-1.757 1.603a2.201 2.201 0 0 1-1.562 1.189c-1.087.218-2.24 1.754-2.24 2.986 0 .305-.23.689-.511.851-2.344 1.359-2.842 6.29-.849 8.403.678.719 1.439 1.995 1.691 2.836.389 1.299.716 1.643 2.182 2.291.947.419 2.014 1.132 2.37 1.585 1.721 2.188 8.036 2.345 10.626.264.795-.64 2.173-1.538 3.061-1.995 1.957-1.009 2.376-1.522 2.885-3.522.216-.85.64-1.794.943-2.096.992-.992 1.166-4.568.28-5.765-.419-.567-.972-1.734-1.23-2.593-.468-1.565-2.153-3.371-3.143-3.371-.29 0-.528-.167-.528-.372 0-2.364-8.725-4.002-12.218-2.294m59.255-.19c-.509.235-1.391.957-1.96 1.605-.57.649-1.416 1.275-1.881 1.392-.883.221-1.714 1.598-1.714 2.84 0 .398-.239.723-.53.723-2.351 0-2.985 7.205-.821 9.334.682.672 1.351 1.675 1.486 2.23.305 1.258 1.612 2.51 2.62 2.51.428 0 1.275.61 1.929 1.389l1.166 1.389 3.475.126 3.476.125 2.015-1.514c1.109-.833 2.229-1.515 2.489-1.515.26 0 .473-.155.473-.345 0-.19.367-.462.816-.605 4.24-1.345 4.543-14.014.385-16.105-.559-.281-1.388-.955-1.841-1.498-1.905-2.278-8.56-3.474-11.583-2.081m-110.219 2.301c1.113.509 2.16.926 2.325.926.166 0 .786.417 1.378.926.592.509 1.19.926 1.329.926.285 0 1.009 1.393 1.731 3.333 1.716 4.609-.978 10.458-5.438 11.808-.913.277-2.23.709-2.926.961-2.143.774-6.789-.873-8.981-3.184-4.162-4.388-2.406-14.554 2.553-14.783.157-.008 1.119-.415 2.137-.905 2.376-1.144 3.406-1.145 5.892-.008m57.878-.481c.677.244 1.23.578 1.23.74 0 .163.259.296.574.296 1.929 0 4.809 2.681 5.746 5.349 1.659 4.721-.754 10.29-5.136 11.853-.957.342-2.265.851-2.908 1.131-1.229.537-3.145.176-6.424-1.21-4.298-1.818-6.072-6.099-4.764-11.496.625-2.578 1.763-3.837 4.821-5.335 4.047-1.982 4.702-2.109 6.861-1.328m59.378.296c.51.398 1.157.728 1.438.732 2.319.037 6.564 5.862 6.159 8.448-.087.553-.252 1.608-.366 2.345-.115.737-.622 1.82-1.127 2.407-.504.587-.918 1.247-.918 1.466-.001.692-1.606 1.927-3.334 2.565-.916.338-2.085.837-2.596 1.109-1.121.596-3.58.227-6.08-.912-.909-.414-1.798-.753-1.975-.753-2.456 0-4.561-7.499-3.222-11.481.94-2.797 1.31-3.26 3.464-4.335 1.142-.57 2.164-1.153 2.272-1.295.871-1.155 4.943-1.347 6.285-.296m-69.259 38.124c-1.704.344-4.798 1.738-5.736 2.585-.41.37-1.291.775-1.958.9-.668.125-1.625.606-2.128 1.068a53.212 53.212 0 0 1-2.055 1.767c-2.31 1.874-4.704 4.443-5.288 5.673-.33.695-1.093 1.745-1.695 2.335-1.072 1.047-1.758 2.911-2.146 5.831-.105.788-.519 1.761-.921 2.162-2.427 2.427-2.535 13.014-.158 15.578.457.494 1.002 1.871 1.285 3.25.621 3.029 1.347 4.572 2.419 5.146.465.248 1.063 1.064 1.328 1.813.532 1.5 1.363 2.446 2.452 2.792.392.124.944.747 1.226 1.385.339.766 1.03 1.387 2.045 1.836.842.373 1.895 1.168 2.338 1.768.762 1.031 2.492 1.768 5.767 2.457 1.043.22 1.066.937.029.937-.619 0-3.432 1.839-4.165 2.723-.257.309-.956.67-1.553.801s-1.086.392-1.086.58c0 .187-.212.34-.471.34-.458 0-1.49.897-2.781 2.417-.35.413-1.108 1.05-1.684 1.417-.576.366-1.217 1.153-1.425 1.749-.208.596-.528 1.084-.712 1.084-.184 0-.334.227-.334.504s-.576 1.114-1.28 1.86c-.842.893-1.494 2.122-1.907 3.595-.667 2.376-.952 2.366-1.623-.053-.201-.724-.887-1.891-1.525-2.592-.638-.702-1.393-1.818-1.677-2.481-.284-.662-.681-1.203-.882-1.203-.201 0-.365-.195-.365-.434 0-.668-5.348-5.639-6.929-6.441-.772-.391-2.155-1.22-3.071-1.841-2.002-1.356-3.723-1.975-6.363-2.287-1.084-.128-2.471-.537-3.082-.91-1.603-.977-7.784-.97-9.737.01-.756.379-2.212.797-3.236.928-2.673.341-5.757 1.559-6.685 2.638-.439.511-1.097.929-1.461.929-1.346 0-7.576 5.684-8.918 8.137-.781 1.427-.886 1.579-2.179 3.146-.861 1.043-1.487 2.898-1.94 5.75-.112.71-.634 1.96-1.159 2.777-1.104 1.721-1.503 10.74-.518 11.727.254.255.463.743.463 1.085 0 .341.232.814.516 1.05.284.235.602.964.707 1.619.523 3.277 2.251 7.302 3.135 7.302.152 0 .653.821 1.113 1.826.533 1.16 1.305 2.114 2.12 2.617.705.436 1.495 1.238 1.756 1.782.261.545 1.174 1.325 2.029 1.735.855.409 2.047 1.25 2.65 1.87 1.039 1.069 4.25 2.389 5.821 2.394.39.002 1.208.275 1.819.609 4.087 2.228 3.797 2.159 9.107 2.163l5.033.004 1.969-1.224c1.083-.674 2.768-1.376 3.744-1.561 2.562-.486 4.31-1.301 5.93-2.764.783-.707 2.024-1.537 2.757-1.844.879-.367 1.479-.938 1.757-1.675.232-.614.603-1.117.825-1.117.675 0 2.675-2.173 2.927-3.18.131-.521.796-1.504 1.479-2.187 1.054-1.054 1.761-2.464 2.695-5.374.098-.306.515.528.927 1.852.795 2.558 1.913 4.444 2.635 4.445.241 0 .813.848 1.273 1.885.58 1.31 1.144 2.001 1.852 2.268.559.211 1.279.905 1.601 1.541.346.685 1.238 1.487 2.188 1.965.881.444 1.952 1.229 2.378 1.745.808.977 3.845 2.229 6.242 2.572.766.11 1.658.465 1.981.789 2.457 2.456 13.58 2.676 15.995.315.263-.257 1.18-.654 2.037-.881 4.41-1.169 5.471-1.601 6.765-2.752.774-.688 2.093-1.604 2.932-2.036.875-.45 1.909-1.406 2.428-2.246.497-.804 1.113-1.462 1.369-1.462.536 0 2.693-2.84 2.693-3.546 0-.259.393-.942.874-1.518 1.362-1.633 2.15-3.404 2.852-6.417.356-1.528.929-3.528 1.273-4.445.826-2.199.657-8.599-.263-10-.335-.509-.798-1.988-1.03-3.285-.517-2.895-1.995-6.345-2.719-6.345-.316 0-.632-.522-.774-1.28-.133-.704-.609-1.715-1.06-2.246-1.439-1.695-3.533-3.881-3.72-3.881-.099 0-.966-.764-1.926-1.697-1.128-1.096-2.187-1.769-2.987-1.899-.762-.124-1.324-.465-1.458-.885-.119-.376-1.214-1.216-2.434-1.866-2.186-1.165-2.359-1.769-.517-1.804 1.25-.023 3.864-1.393 5.639-2.956.928-.817 1.889-1.486 2.134-1.486.644 0 1.896-1.171 2.176-2.037.132-.407.795-1.099 1.474-1.537.773-.5 1.601-1.572 2.215-2.871.54-1.14 1.121-2.073 1.292-2.073.55 0 2.026-3.4 2.54-5.851.275-1.312.79-2.991 1.145-3.73.917-1.914.933-9.826.022-11.216-.342-.523-.814-2.015-1.049-3.317-.472-2.62-1.894-5.775-2.931-6.501-.368-.258-.769-.963-.889-1.565-.121-.603-.483-1.317-.806-1.588-1.345-1.128-2.793-2.757-2.988-3.361-.115-.356-.587-.742-1.05-.858-.463-.116-1.521-.933-2.351-1.815-1.108-1.178-1.902-1.67-2.989-1.854-.815-.137-1.783-.584-2.153-.992-2.225-2.459-14.445-3.932-21.246-2.561m11.653 1.522c1.418.205 3.121.693 3.785 1.085.664.392 1.837.824 2.607.961 1.645.292 4.6 1.69 6.035 2.856a42.833 42.833 0 0 0 2.077 1.563c2.354 1.637 6.27 6.552 7.198 9.031.42 1.122.994 2.466 1.275 2.986 2.466 4.558 2.579 16.165.189 19.464-.147.204-.708 1.537-1.246 2.963-.571 1.514-1.595 3.287-2.46 4.259-.815.917-1.482 1.803-1.483 1.969-.001.549-4.238 4.378-5.426 4.902-.642.284-1.392.74-1.667 1.014-1.006 1.001-3.892 2.435-6.158 3.059-2.846.785-2.965.951-1.483 2.063a54.067 54.067 0 0 1 2.355 1.901c.649.56 1.433 1.018 1.742 1.018 1.432 0 9.896 5.65 9.896 6.606 0 .152.542.857 1.204 1.566 1.73 1.852 3.126 4.102 3.574 5.76.214.791.621 1.772.904 2.179 2.639 3.791 2.675 14.879.066 19.869-.513.981-.933 1.997-.933 2.257 0 .773-1.873 4.112-2.754 4.912-.449.407-1.133 1.282-1.519 1.944-.386.662-.797 1.204-.914 1.204-.116 0-1.101.835-2.189 1.856-1.088 1.021-2.373 1.956-2.856 2.077-.484.122-.879.37-.879.551 0 .182-.25.33-.556.33-.305 0-.555.129-.555.287 0 .417-2.129 1.452-4.26 2.069-11.186 3.24-21.702.859-29.233-6.621-3.514-3.49-3.998-4.084-4.879-5.976-.365-.784-.784-1.51-.931-1.614-.242-.17-.756-1.177-2.893-5.666l-.672-1.41-1.052 1.78c-1.156 1.956-1.943 3.389-3.456 6.289-1.076 2.063-2.87 4.452-4.681 6.232-1.95 1.916-4.322 3.89-4.676 3.89-.187 0-1.207.55-2.267 1.223-1.912 1.215-4.128 1.998-8.037 2.843-3.542.765-14.149-.027-15.352-1.146a1.4 1.4 0 0 0-.82-.328c-1.872 0-8.949-5.436-11.791-9.058-.611-.778-1.287-1.6-1.503-1.827-.215-.226-.715-1.202-1.111-2.169-.396-.967-.831-1.758-.968-1.759-.137-.001-.358-.5-.491-1.108-.134-.609-.397-1.202-.585-1.318-.188-.117-.342-.585-.342-1.042 0-.456-.209-1.038-.463-1.293-1.571-1.57.056-17.954 1.917-19.315.14-.101.616-.967 1.058-1.922.442-.956 1.539-2.565 2.437-3.576.897-1.01 1.693-1.985 1.767-2.165.075-.18.885-.904 1.802-1.61.916-.705 1.926-1.562 2.243-1.905.845-.911 4.822-2.896 5.803-2.896.464 0 .843-.126.843-.28 0-.352 1.546-1.032 3.704-1.628 2-.552 10.667-.601 12.798-.072 1.904.473 3.868 1.336 3.868 1.7 0 .154.359.28.797.28 1.081 0 4.351 1.637 5.748 2.877.627.557 1.61 1.346 2.185 1.753.574.407 1.303 1.061 1.62 1.453.317.392 1.165 1.346 1.884 2.12.719.774 1.826 2.37 2.459 3.547a729.32 729.32 0 0 0 2.165 3.991 301.306 301.306 0 0 1 1.759 3.267l.745 1.415.469-1.045 1.67-3.729c.661-1.477 1.318-2.686 1.461-2.686.143 0 .572-.708.955-1.574.657-1.487 2.071-3.227 4.932-6.068.69-.686 1.364-1.247 1.497-1.247.134 0 .92-.631 1.748-1.403.923-.861 2.349-1.679 3.687-2.116 1.839-.601 3.382-1.606 6.555-4.272.165-.138-.752-.624-2.037-1.081-3.301-1.173-3.824-1.436-7.179-3.614-2.803-1.82-6.859-5.523-7.699-7.03a6.388 6.388 0 0 0-.859-1.158c-.268-.269-.487-.648-.487-.841 0-.194-.422-.989-.937-1.767-3.476-5.253-4.393-15.973-1.953-22.829.813-2.286 1.559-3.889 1.809-3.889.142 0 .606-.739 1.031-1.642.424-.904 1.513-2.406 2.418-3.337.905-.932 1.701-1.828 1.768-1.992.13-.315 3.685-3.06 5.633-4.349.636-.421 2.156-1.058 3.379-1.417 1.222-.358 2.825-.97 3.561-1.36 2.463-1.304 7.061-1.728 11.61-1.071m272.118 3.257c-.648.578-1.178 1.31-1.178 1.625 0 .354-.462.662-1.204.803-1.149.218-2.487 1.786-2.508 2.939-.004.239-.541.683-1.192.989-.863.405-1.387 1.057-1.936 2.41-.414 1.021-1.267 2.604-1.895 3.519-3.629 5.285-3.314 22.076.494 26.289.458.508.833 1.219.833 1.582 0 .87 1.658 3.465 3.118 4.883.642.623 1.442 1.568 1.778 2.101.337.533 1.413 1.438 2.39 2.011.977.573 2.103 1.345 2.501 1.716 1.32 1.23 2.806.9 2.806-.622 0-1.239-.059-1.297-1.317-1.297-1.083 0-1.652-.329-3.199-1.851-1.034-1.019-1.994-1.852-2.133-1.852-.138 0-.61-.637-1.047-1.416-.438-.778-1.369-2.023-2.07-2.766-1.171-1.242-2.827-5.182-2.827-6.729 0-.314-.153-.571-.34-.571-1.745 0-2.411-12.012-.849-15.304.467-.983 1.263-3.101 1.771-4.707.507-1.607 1.158-3.157 1.445-3.444.288-.288 1.39-1.67 2.45-3.071 1.06-1.401 2.194-2.739 2.521-2.973.327-.233.996-.775 1.485-1.203.49-.429 1.115-.779 1.389-.779s.499-.167.499-.371c0-.203.5-.37 1.111-.37 1.023 0 1.111-.103 1.111-1.296 0-1.771-2.151-1.902-4.007-.245M56.481 206.311c-2.201.706-6.111 4.926-6.111 6.597 0 .404-.146.79-.325.857-1.772.672-2.167 6.177-.567 7.903.491.529.892 1.123.892 1.319 0 .196.193.729.428 1.185.236.455.542 1.072.68 1.37.138.297 1.097.978 2.13 1.512 1.034.534 2.387 1.398 3.009 1.921 2.163 1.82 6.96 1.784 9.316-.07.717-.564 2.04-1.401 2.94-1.86 2.079-1.06 2.567-1.559 2.834-2.897.119-.594.6-1.527 1.07-2.073 1.812-2.11 1.636-8.371-.236-8.371-.157 0-.399-.607-.538-1.349-.265-1.413-1.788-3.205-4.381-5.153-1.579-1.186-8.493-1.739-11.141-.891m175.468.562c-1.667.83-3.041 2.313-3.756 4.053-.084.204-.641.994-1.239 1.757-2.275 2.903-2.335 7.77-.125 10.046.669.689 1.324 1.685 1.457 2.214.307 1.222 1.626 2.464 2.617 2.464.428 0 1.276.611 1.93 1.389l1.166 1.389h3.411c3.394 0 3.417-.006 4.413-1.199.586-.702 1.501-1.299 2.207-1.44.723-.145 1.45-.628 1.816-1.208.337-.532 1.231-1.601 1.988-2.376 2.986-3.054 2.228-11.712-1.202-13.739-.592-.349-1.078-.917-1.079-1.262-.011-2.727-9.424-4.171-13.604-2.088m-166.764 1.65c.102.141.852.676 1.667 1.19 2.222 1.403 3.463 2.696 3.711 3.867.122.577.379 1.339.57 1.693 2.58 4.767-3.11 12.129-9.466 12.248-12.454.234-14.416-16.821-2.25-19.561 1.797-.405 5.314-.061 5.768.563m175.439-.342c.879.426 1.598.926 1.598 1.111 0 .186.302.338.672.338 3.31 0 5.849 8.739 3.531 12.155-.478.705-.869 1.473-.869 1.707 0 4.126-10.653 5.503-14.773 1.909-1.545-1.348-3.954-8.477-3.071-9.085.164-.113.585-1.122.938-2.242.793-2.521 1.115-2.949 3.202-4.254.917-.573 1.774-1.207 1.906-1.41.132-.202 1.299-.488 2.593-.634 1.294-.147 2.425-.29 2.514-.318.088-.028.88.298 1.759.723m-64.513 56.263c-.799.408-1.615.741-1.813.741-1.848 0-5.409 3.287-5.409 4.993 0 .309-.164.563-.364.563-2.475 0-2.937 8.718-.58 10.932.438.411 1.052 1.411 1.366 2.222.448 1.16.957 1.671 2.386 2.391.999.504 2.3 1.379 2.892 1.945.863.824 1.451 1.04 2.966 1.086 3.064.093 3.671-.047 5.086-1.173.739-.589 1.796-1.184 2.348-1.322 1.631-.41 4.904-3.868 5.261-5.559.988-4.68-.016-11.644-1.758-12.197-.382-.122-1.068-.753-1.524-1.403-1.162-1.655-1.745-2.038-3.52-2.314-.853-.133-1.837-.557-2.187-.943-.85-.939-3.268-.921-5.15.038m176.613-.043c-.412.384-1.434.814-2.27.955-1.665.282-3.3 1.641-3.65 3.035-.12.478-.42.868-.666.868-3.26 0-3.866 11.155-.752 13.816.705.601 1.281 1.337 1.281 1.635 0 .693 1.47 1.928 2.313 1.944.356.007 1.296.599 2.089 1.315 1.493 1.349 2.184 1.515 5.66 1.365 1.437-.062 1.93-.288 2.917-1.334.653-.693 1.625-1.348 2.16-1.456 1.284-.26 2.638-1.563 2.638-2.54 0-.429.569-1.333 1.263-2.007 1.783-1.731 2.582-5.522 1.648-7.813-1.116-2.738-1.493-3.443-1.838-3.443-.205 0-.699-.737-1.098-1.638-.873-1.973-2.513-3.434-4.213-3.753-.689-.129-1.594-.553-2.01-.941-1.054-.981-4.421-.986-5.472-.008m-170.885 2.522c5.898 2.2 9.156 10.554 5.595 14.345-.422.449-.767 1.017-.767 1.262 0 3.342-8.397 5.104-12.954 2.719-5.186-2.714-6.491-12.242-2.14-15.619.394-.306 1.21-.954 1.815-1.44 2.34-1.883 5.523-2.36 8.451-1.267m176.997.087c.769.392 1.616.976 1.882 1.296.266.321.691.583.945.583.546 0 2.199 2.398 2.556 3.708.138.507.432 1.525.652 2.262.758 2.535-1.452 8.884-3.494 10.035-6.045 3.41-11.76 2.009-14.554-3.568-2.002-3.995-1.922-5.587.529-10.503 1.845-3.7 7.818-5.683 11.484-3.813m-66.953 36.941c-.696.099-1.795.583-2.442 1.077-.648.494-1.401.898-1.675.898-2.626 0-7.025 1.986-7.025 3.171 0 .248-.565.556-1.255.686-1.437.269-3.19 1.841-3.19 2.86 0 .415-.263.69-.658.69-1.118 0-2.146.99-2.666 2.566-.274.83-.692 1.508-.93 1.508-1.19 0-3.153 4.14-3.153 6.649 0 .437-.377 1.161-.839 1.61-2.973 2.892-2.856 18.397.147 19.35.405.128.683.737.804 1.757.408 3.463 1.026 5.089 2.237 5.892.643.426 1.503 1.459 1.91 2.296.466.956 1.184 1.727 1.937 2.076.657.306 1.199.835 1.203 1.177.009.704 1.521 2.012 2.724 2.355.442.126 1.303.789 1.914 1.474.877.983 1.657 1.376 3.704 1.87 2.944.711 5.37 1.626 5.37 2.025 0 1.726 11.541 1.333 13.491-.459.392-.36 1.309-.758 2.037-.883 3.465-.596 5.235-1.33 6.238-2.587.556-.698 1.228-1.268 1.493-1.268 1.059 0 2.743-1.22 3.101-2.246.209-.598.626-1.088.927-1.088.815 0 2.713-2.05 2.713-2.931 0-.459.494-1.09 1.235-1.575 1.462-.958 1.942-1.942 2.419-4.957.262-1.654.636-2.542 1.43-3.391 2.912-3.117 2.794-15.833-.174-18.801-.716-.716-1.042-1.545-1.273-3.237-.362-2.649-1.249-4.364-2.59-5.013-.611-.295-1.037-.879-1.186-1.624-.259-1.294-1.478-2.545-2.482-2.545-.42 0-.808-.463-1.081-1.29-.356-1.079-.725-1.397-2.251-1.939-1.004-.357-1.825-.848-1.825-1.092 0-1.022-3.137-2.455-6.389-2.919-.967-.138-1.759-.363-1.759-.5 0-1.273-7.582-2.294-12.191-1.642m8.697 2.745c3.491.635 7.939 2.106 7.939 2.624 0 .138.458.352 1.019.475 2.289.502 8.134 5.686 10.287 9.123.565.901 1.143 1.721 1.286 1.823.715.509 1.89 3.723 2.573 7.032.231 1.118.674 2.42.985 2.894.904 1.38.77 7.591-.206 9.593-.418.856-.759 1.784-.759 2.062 0 1.765-1.546 6.036-2.739 7.568-.735.942-1.335 1.936-1.335 2.208 0 .272-.139.495-.308.495-.169 0-.544.443-.833.985-1.521 2.85-9.056 7.93-14.23 9.592-3.254 1.045-12.725.982-15.926-.107-2.137-.726-5.726-2.308-6.111-2.693-.102-.101-.736-.492-1.411-.867-.674-.375-1.688-1.125-2.254-1.666a169.458 169.458 0 0 0-2.293-2.141c-1.585-1.45-2.255-2.271-3.149-3.86-.729-1.297-1.13-1.875-1.887-2.724-.414-.464-1.147-2.611-2.035-5.964a40.47 40.47 0 0 0-.934-2.953c-.842-2.289-.677-10.195.213-10.195.145 0 .482-1.042.749-2.315.894-4.271 1.103-4.787 3.209-7.92 2.008-2.987 3-4.128 5.767-6.636 1.667-1.512 4.867-3.499 5.632-3.499.338 0 .615-.148.615-.328 0-.179.292-.428.649-.551.356-.123 1.398-.491 2.314-.818 4.157-1.479 9.225-1.955 13.173-1.237m-182.239 15.965c-1.014.191-1.94.502-2.057.692-.117.189-1.241.842-2.498 1.451-2.234 1.082-4.156 3.207-4.156 4.593 0 .288-.234.613-.52.723-2.203.846-2.451 6.67-.413 9.711.403.602 1.153 1.918 1.666 2.924.784 1.537 1.295 2.01 3.199 2.963 1.246.624 2.496 1.311 2.778 1.527 2.009 1.544 4.549 1.39 7.919-.478a60.126 60.126 0 0 1 2.408-1.206c2.121-1.012 3.986-3.106 4.458-5.005.202-.815.654-2.046 1.003-2.735.768-1.518.766-3.673-.006-4.889-.312-.492-.685-1.478-.829-2.191-.528-2.616-3.992-6.297-5.926-6.297-.444 0-1.096-.318-1.448-.707-.569-.629-1.095-.844-3.178-1.302-.306-.067-1.386.035-2.4.226m234.339.101c-.666.297-1.301.778-1.412 1.068-.112.29-.848.63-1.636.756-1.456.233-2.965 1.725-2.965 2.931 0 .303-.375.646-.834.762-3.436.873-3.315 13.047.142 14.144.38.121.692.519.692.885 0 .932 1.788 2.618 2.776 2.618.453 0 1.555.582 2.449 1.293 2.166 1.721 5.527 1.646 7.162-.16.355-.392 1.491-1.016 2.524-1.386 1.632-.585 1.973-.89 2.611-2.34.403-.916 1.169-2.115 1.702-2.664 2.302-2.372 2.244-8.305-.105-10.817-.59-.632-1.245-1.648-1.455-2.259-.478-1.389-1.884-2.641-3.282-2.92-.587-.118-1.488-.634-2.001-1.147-.558-.558-1.355-.933-1.982-.933a14.88 14.88 0 0 1-2.112-.186c-.586-.101-1.609.058-2.274.355m-229.138 3.121c4.671 1.247 8.005 8.708 5.887 13.172-4.831 10.181-19.069 7.444-19.169-3.685-.055-6.129 6.14-11.823 11.036-10.143.408.14 1.418.435 2.246.656m235.704.098c6.858 2.961 7.629 14.313 1.229 18.092-8.614 5.086-18.208-4.126-13.738-13.19 1.741-3.53 2.325-4.054 6.211-5.586 1.267-.499 4.327-.167 6.298.684M172.992 363.18c-.9.282-1.983.835-2.407 1.228-.424.393-1.601.836-2.616.986-3.798.559-5.747 1.826-5.747 3.737 0 1.222.024 1.239 1.667 1.239 1.527 0 1.667-.077 1.667-.917 0-1.014 1.021-1.844 2.777-2.257.611-.144 1.278-.38 1.482-.525 1.848-1.316 11.998-1.678 15.926-.568 1.222.345 2.846.781 3.608.968 1.765.432 2.873 1.379 2.873 2.456 0 .765.172.843 1.852.843 4.46 0 .507-4.398-4.522-5.032-1.078-.135-2.293-.543-2.7-.905-2.077-1.846-9.758-2.54-13.86-1.253m176.27.003c-.712.308-1.628.865-2.037 1.237-.409.372-1.577.788-2.595.923-3.724.494-5.371 1.638-5.371 3.731 0 1.785 2.458 2.041 2.661.278.129-1.124 1.42-1.92 4.376-2.701.917-.242 2.167-.626 2.778-.853 2.689-.999 12.565-.406 15.088.905.353.184.914.334 1.246.334 1.251 0 3.481 1.586 3.481 2.476 0 .753.179.857 1.481.857 1.4 0 1.482-.061 1.482-1.111 0-1.923-2.087-3.326-5.747-3.865-1.015-.15-2.184-.585-2.597-.969-1.968-1.824-11.073-2.619-14.246-1.242" fill="#ccc"/><path d="M0 185.185V370.37h162.222v-1.239c0-1.911 1.949-3.178 5.747-3.737 1.015-.15 2.188-.589 2.606-.977 2.742-2.543 13.41-2.532 16.277.016.407.362 1.622.77 2.7.905 3.274.413 6.374 2.443 6.374 4.175v.857h143.333v-1.296c0-2.093 1.647-3.237 5.371-3.731 1.018-.135 2.187-.552 2.597-.925 2.845-2.59 13.485-2.585 16.281.007.413.384 1.582.819 2.597.969 3.66.539 5.747 1.942 5.747 3.865v1.111H400V244.074h-1.041c-.573 0-1.367-.303-1.765-.674-.398-.371-1.524-1.143-2.501-1.716-.977-.573-2.053-1.478-2.39-2.011-.336-.533-1.136-1.478-1.778-2.101-1.46-1.418-3.118-4.013-3.118-4.883 0-.363-.375-1.074-.833-1.582-3.808-4.213-4.123-21.004-.494-26.289.628-.915 1.481-2.498 1.895-3.519.549-1.353 1.073-2.005 1.936-2.41.651-.306 1.188-.75 1.192-.989.021-1.153 1.359-2.721 2.508-2.939.742-.141 1.204-.449 1.204-.803 0-1.088 2.237-2.677 3.77-2.677H400V0H0v185.185M243.02 10.594c.778.115 1.961.72 2.782 1.423 1.156.989 1.878 1.275 3.775 1.495 2.102.244 2.523.442 4.044 1.899.933.894 1.891 1.626 2.129 1.626s.789.292 1.223.648c.435.357 1.21.948 1.724 1.314.513.366.933.907.933 1.203 0 .297.162.539.36.539.199 0 .6.458.891 1.018.291.56 1.133 1.62 1.871 2.355 1.059 1.056 1.425 1.795 1.741 3.519.397 2.158.423 2.192 2.398 3.14l1.998.958v-1.302c0-1.203.357-2.685 1.154-4.789.199-.524.741-.926 1.434-1.065.925-.185 1.116-.402 1.116-1.27 0-1.595 4.662-6.268 6.253-6.268.848 0 1.157-.172 1.166-.648.028-1.576 1.726-2.577 4.925-2.905 1.935-.198 2.479-.4 2.826-1.049 1.736-3.245 15.668-3.12 17.422.157.232.433.987.701 2.381.845 3.228.333 4.595.971 5.104 2.379.357.985.642 1.221 1.479 1.221.966 0 3.999 2.529 3.999 3.335 0 .155.33.369.732.474.496.13.88.741 1.188 1.895.322 1.204.647 1.703 1.105 1.703 1.25 0 2.062 1.43 2.533 4.459.35 2.254.61 2.976 1.128 3.14 3.162 1.004 3.2 15.602.047 18.453-.414.375-.857 1.375-.985 2.222-.487 3.235-.685 3.731-2.039 5.099-.766.774-1.755 2.101-2.197 2.949-.904 1.734-1.228 2.092-2.808 3.102-.611.39-2.078 1.513-3.26 2.495-1.243 1.033-2.521 1.785-3.032 1.785-1.193 0-2.782.634-2.782 1.109 0 .213-.405 1.028-.899 1.812l-.899 1.424 2.204.23c2.778.29 4.176 1.007 4.772 2.445.339.819.714 1.128 1.365 1.128.494 0 1.315.417 1.824.926.509.509 1.079.926 1.266.926.187 0 .54.375.783.833.243.459.719 1.031 1.058 1.271.338.241.811 1.074 1.05 1.852.315 1.025.767 1.568 1.64 1.97 1.152.53 1.229.699 1.708 3.725.415 2.617.64 3.231 1.296 3.519 3.313 1.455 2.841 17.941-.513 17.941-.148 0-.455 1.251-.682 2.78-.478 3.211-.869 3.985-2.28 4.518-.724.274-1.099.742-1.29 1.611-.364 1.657-4.04 5.348-5.687 5.71-.906.199-1.358.578-1.72 1.444-.557 1.334-1.786 1.885-5.039 2.258-1.732.199-2.149.391-2.495 1.152-1.21 2.655-14.889 2.899-17.332.309-.957-1.015-1.55-1.293-3.156-1.482-2.621-.308-4.536-1.233-4.682-2.262-.081-.564-.531-.942-1.482-1.244-1.804-.573-5.995-4.792-5.995-6.035 0-.657-.34-1.058-1.272-1.5-1.316-.624-2.432-3.173-2.432-5.551 0-.633-.471-1.388-1.389-2.229l-1.389-1.273-.127-5.821c-.165-7.58.015-8.711 1.63-10.234.825-.778 1.275-1.546 1.275-2.177 0-.536.153-1.458.34-2.048.187-.591.437-1.521.556-2.068.127-.581.555-1.101 1.032-1.252 1.112-.353 1.776-1.078 1.776-1.939 0-.935 4.694-5.63 5.63-5.63.765 0 1.777-.813 1.777-1.428 0-.888 1.971-1.859 4.274-2.105 1.316-.141 2.393-.321 2.393-.399 0-.078-.459-.965-1.019-1.973-1.019-1.832-1.637-2.228-3.489-2.238-.665-.003-1.652-.611-3.014-1.857-1.115-1.018-2.212-1.852-2.438-1.852-.226 0-.411-.155-.411-.345 0-.19-.328-.449-.728-.577-.669-.212-2.975-3.188-2.975-3.838 0-.154-.588-.849-1.307-1.546-1.292-1.252-2.397-3.939-2.397-5.829 0-.571-.166-.818-.463-.69-.255.109-1.166.406-2.025.66-1.478.436-1.576.552-1.808 2.147-.28 1.925-1.743 4.669-2.787 5.228-.388.208-1.042 1.092-1.452 1.965-.514 1.093-1.164 1.787-2.087 2.227-.737.352-1.67 1.058-2.072 1.569-1.083 1.377-3.201 2.582-5.053 2.874-.899.142-1.899.544-2.222.894-.691.75-1.833 1.344-4.059 2.111-3.283 1.13-15.69.515-16.69-.829-.63-.847-3.766-2.317-4.944-2.317-.48 0-1.522-.594-2.326-1.326-.801-.729-2.092-1.738-2.87-2.242-2.082-1.35-3.4-2.718-4.321-4.485-.451-.864-1.311-1.985-1.912-2.491-1.056-.889-2.168-3.866-2.168-5.804 0-.416-.564-1.415-1.254-2.221-1.53-1.788-1.709-2.616-1.709-7.907 0-6.131.245-7.399 1.719-8.873.684-.684 1.244-1.585 1.244-2.003 0-2.865 1.75-6.352 3.189-6.352.283 0 .514-.341.514-.759 0-.998 1.019-2.944 1.541-2.944.4 0 2.163-1.698 2.163-2.083 0-.532 1.247-1.319 2.384-1.504.932-.151 1.311-.418 1.393-.983.182-1.257 2.271-2.382 4.961-2.67 1.939-.207 2.525-.425 2.968-1.102 1.293-1.973 7.681-2.781 14.277-1.805M124.101 29.876c.698.343 1.519.896 1.825 1.228.305.332 1.093.821 1.75 1.087 1.709.692 2.87 1.991 3.41 3.816.257.872.728 1.878 1.046 2.235.847.952.855 5.116.012 5.962-.56.561-1.375 2.729-1.413 3.759-.017.467-1.396 1.477-2.49 1.823-.459.145-.834.394-.834.553 0 3.415-10.955 4.077-14.108.852-.623-.637-1.418-1.249-1.766-1.36-.771-.245-1.903-2.082-1.903-3.089 0-.405-.249-.832-.554-.949-2.538-.974-2.749-6.587-.338-8.961.427-.42.881-1.185 1.011-1.7.387-1.544 1.671-2.865 3.032-3.12.703-.132 1.355-.512 1.463-.854.647-2.036 6.722-2.826 9.857-1.282m59.168.311c.85.562 1.546 1.167 1.546 1.344 0 .176.313.321.695.321.383 0 .903.25 1.157.555.253.306.615.556.803.556 3.856 0 4.353 13.918.575 16.096-.656.379-1.65 1.229-2.209 1.89-1.897 2.244-8.591 3.277-11.496 1.775-1.878-.971-5.451-4.299-5.451-5.076 0-.389-.583-1.352-1.296-2.141-1.252-1.386-1.297-1.536-1.297-4.371 0-2.846.04-2.977 1.297-4.31.713-.756 1.296-1.617 1.296-1.913 0-1.114 1.501-2.661 2.822-2.909.862-.161 1.444-.538 1.7-1.1 1.005-2.206 6.954-2.639 9.858-.717M64.005 88.367c1.128.179 2.049.674 3.132 1.684.844.787 1.809 1.43 2.144 1.43.966 0 2.571 1.715 2.571 2.746 0 .511.35 1.256.778 1.655 2.375 2.212 2.411 6.83.065 8.303-.259.162-.648.998-.864 1.857-.382 1.515-1.831 2.847-3.096 2.847-.255 0-.916.507-1.468 1.127-2.369 2.658-10.624 2.708-12.035.072-.21-.393-1.109-.992-1.997-1.331-1.497-.572-2.844-2.35-2.871-3.789-.004-.186-.42-.731-.926-1.211-1.379-1.308-1.375-6.028.006-7.308.51-.472.926-1.041.926-1.265 0-1.367 1.836-3.703 2.91-3.703.73 0 1.905-.893 1.905-1.448 0-.738 4.994-2.32 6.482-2.053.407.073 1.459.247 2.338.387m116.921-.112c1.847.582 3.758 1.599 4.148 2.208.163.255.963.794 1.778 1.199 5.513 2.738 5.48 14.159-.049 16.921-.932.465-1.886 1.099-2.119 1.409-2.002 2.657-10.23 2.8-11.416.199-.281-.618-.904-1.064-1.833-1.315-1.543-.415-2.546-1.537-2.546-2.847 0-.464-.144-.844-.32-.844-2.554 0-3.291-7.105-.976-9.42.713-.713 1.296-1.484 1.296-1.714 0-1.024 1.316-2.555 2.386-2.776.633-.13 1.624-.803 2.245-1.524 1.077-1.248 1.848-1.515 5.554-1.921.204-.023 1.037.169 1.852.425M66.181 147.811c.998.484 1.68 1.095 1.813 1.627.146.579.577.924 1.345 1.078 1.365.273 2.513 1.502 2.513 2.689 0 .478.324 1.194.721 1.59 1.302 1.302 1.917 2.906 1.68 4.382-.42 2.614-.535 2.921-1.466 3.927-.514.554-.935 1.258-.935 1.563 0 1.258-1.133 2.669-2.621 3.264-.846.339-2.009 1.086-2.585 1.662-2.167 2.168-8.457 2.151-10.79-.029-.636-.593-1.865-1.402-2.732-1.797-1.301-.593-1.695-1.027-2.25-2.484-.37-.97-1.01-2.151-1.422-2.623-1.537-1.762-1.247-7.093.421-7.734.274-.105.51-.548.524-.984.046-1.349 1.254-2.984 2.46-3.33.625-.179 1.363-.75 1.64-1.268 1.229-2.303 8.202-3.218 11.684-1.533m58.146-.283c1.319.487 3.08 1.899 3.08 2.47 0 .205.238.372.528.372.99 0 2.675 1.806 3.143 3.371.258.859.811 2.026 1.23 2.593.886 1.197.712 4.773-.28 5.765-.303.302-.727 1.246-.943 2.096-.509 2-.928 2.513-2.885 3.522-.888.457-2.266 1.355-3.061 1.995-2.59 2.081-8.905 1.924-10.626-.264-.356-.453-1.423-1.166-2.37-1.585-1.466-.648-1.793-.992-2.182-2.291-.252-.841-1.013-2.117-1.691-2.836-1.993-2.113-1.495-7.044.849-8.403.281-.162.511-.546.511-.851 0-1.232 1.153-2.768 2.24-2.986a2.201 2.201 0 0 0 1.562-1.189c.979-2.043 7.357-3.084 10.895-1.779m59.204.294c.918.432 2.042 1.23 2.496 1.773.453.543 1.282 1.217 1.841 1.498 4.158 2.091 3.855 14.76-.385 16.105-.449.143-.816.415-.816.605s-.213.345-.473.345-1.38.682-2.489 1.515l-2.015 1.514-3.476-.125-3.475-.126-1.166-1.389c-.654-.779-1.501-1.389-1.929-1.389-1.008 0-2.315-1.252-2.62-2.51-.135-.555-.804-1.558-1.486-2.23-2.164-2.129-1.53-9.334.821-9.334.291 0 .53-.325.53-.723 0-1.242.831-2.619 1.714-2.84.465-.117 1.311-.743 1.881-1.392 1.997-2.275 7.573-2.93 11.047-1.297m-55.805 39.946c2.336.443 4.845 1.556 5.742 2.547.37.408 1.338.855 2.153.992 1.087.184 1.881.676 2.989 1.854.83.882 1.888 1.699 2.351 1.815.463.116.935.502 1.05.858.195.604 1.643 2.233 2.988 3.361.323.271.685.985.806 1.588.12.602.521 1.307.889 1.565 1.037.726 2.459 3.881 2.931 6.501.235 1.302.707 2.794 1.049 3.317.911 1.39.895 9.302-.022 11.216-.355.739-.87 2.418-1.145 3.73-.514 2.451-1.99 5.851-2.54 5.851-.171 0-.752.933-1.292 2.073-.614 1.299-1.442 2.371-2.215 2.871-.679.438-1.342 1.13-1.474 1.537-.28.866-1.532 2.037-2.176 2.037-.245 0-1.206.669-2.134 1.486-1.775 1.563-4.389 2.933-5.639 2.956-1.842.035-1.669.639.517 1.804 1.22.65 2.315 1.49 2.434 1.866.134.42.696.761 1.458.885.8.13 1.859.803 2.987 1.899.96.933 1.827 1.697 1.926 1.697.187 0 2.281 2.186 3.72 3.881.451.531.927 1.542 1.06 2.246.142.758.458 1.28.774 1.28.724 0 2.202 3.45 2.719 6.345.232 1.297.695 2.776 1.03 3.285.92 1.401 1.089 7.801.263 10-.344.917-.917 2.917-1.273 4.445-.702 3.013-1.49 4.784-2.852 6.417-.481.576-.874 1.259-.874 1.518 0 .706-2.157 3.546-2.693 3.546-.256 0-.872.658-1.369 1.462-.519.84-1.553 1.796-2.428 2.246-.839.432-2.158 1.348-2.932 2.036-1.294 1.151-2.355 1.583-6.765 2.752-.857.227-1.774.624-2.037.881-2.415 2.361-13.538 2.141-15.995-.315-.323-.324-1.215-.679-1.981-.789-2.397-.343-5.434-1.595-6.242-2.572-.426-.516-1.497-1.301-2.378-1.745-.95-.478-1.842-1.28-2.188-1.965-.322-.636-1.042-1.33-1.601-1.541-.708-.267-1.272-.958-1.852-2.268-.46-1.037-1.032-1.885-1.273-1.885-.722-.001-1.84-1.887-2.635-4.445-.412-1.324-.829-2.158-.927-1.852-.934 2.91-1.641 4.32-2.695 5.374-.683.683-1.348 1.666-1.479 2.187-.252 1.007-2.252 3.18-2.927 3.18-.222 0-.593.503-.825 1.117-.278.737-.878 1.308-1.757 1.675-.733.307-1.974 1.137-2.757 1.844-1.62 1.463-3.368 2.278-5.93 2.764-.976.185-2.661.887-3.744 1.561l-1.969 1.224-5.033-.004c-5.31-.004-5.02.065-9.107-2.163-.611-.334-1.429-.607-1.819-.609-1.571-.005-4.782-1.325-5.821-2.394-.603-.62-1.795-1.461-2.65-1.87-.855-.41-1.768-1.19-2.029-1.735-.261-.544-1.051-1.346-1.756-1.782-.815-.503-1.587-1.457-2.12-2.617-.46-1.005-.961-1.826-1.113-1.826-.884 0-2.612-4.025-3.135-7.302-.105-.655-.423-1.384-.707-1.619-.284-.236-.516-.709-.516-1.05 0-.342-.209-.83-.463-1.085-.985-.987-.586-10.006.518-11.727.525-.817 1.047-2.067 1.159-2.777.453-2.852 1.079-4.707 1.94-5.75 1.293-1.567 1.398-1.719 2.179-3.146 1.342-2.453 7.572-8.137 8.918-8.137.364 0 1.022-.418 1.461-.929.928-1.079 4.012-2.297 6.685-2.638 1.024-.131 2.48-.549 3.236-.928 1.953-.98 8.134-.987 9.737-.01.611.373 1.998.782 3.082.91 2.64.312 4.361.931 6.363 2.287.916.621 2.299 1.45 3.071 1.841 1.581.802 6.929 5.773 6.929 6.441 0 .239.164.434.365.434.201 0 .598.541.882 1.203.284.663 1.039 1.779 1.677 2.481.638.701 1.324 1.868 1.525 2.592.671 2.419.956 2.429 1.623.053.413-1.473 1.065-2.702 1.907-3.595.704-.746 1.28-1.583 1.28-1.86 0-.277.15-.504.334-.504.184 0 .504-.488.712-1.084.208-.596.849-1.383 1.425-1.749.576-.367 1.334-1.004 1.684-1.417 1.291-1.52 2.323-2.417 2.781-2.417.259 0 .471-.153.471-.34 0-.188.489-.449 1.086-.58.597-.131 1.296-.492 1.553-.801.733-.884 3.546-2.723 4.165-2.723 1.037 0 1.014-.717-.029-.937-3.275-.689-5.005-1.426-5.767-2.457-.443-.6-1.496-1.395-2.338-1.768-1.015-.449-1.706-1.07-2.045-1.836-.282-.638-.834-1.261-1.226-1.385-1.089-.346-1.92-1.292-2.452-2.792-.265-.749-.863-1.565-1.328-1.813-1.072-.574-1.798-2.117-2.419-5.146-.283-1.379-.828-2.756-1.285-3.25-2.377-2.564-2.269-13.151.158-15.578.402-.401.816-1.374.921-2.162.388-2.92 1.074-4.784 2.146-5.831.602-.59 1.365-1.64 1.695-2.335.584-1.23 2.978-3.799 5.288-5.673a53.212 53.212 0 0 0 2.055-1.767c.503-.462 1.46-.943 2.128-1.068.667-.125 1.548-.53 1.958-.9 2.828-2.553 14.125-3.92 21.24-2.571m-60.104 19.434c2.593 1.948 4.116 3.74 4.381 5.153.139.742.381 1.349.538 1.349 1.872 0 2.048 6.261.236 8.371-.47.546-.951 1.479-1.07 2.073-.267 1.338-.755 1.837-2.834 2.897-.9.459-2.223 1.296-2.94 1.86-2.356 1.854-7.153 1.89-9.316.07-.622-.523-1.975-1.387-3.009-1.921-1.033-.534-1.992-1.215-2.13-1.512a43.018 43.018 0 0 0-.68-1.37c-.235-.456-.428-.989-.428-1.185 0-.196-.401-.79-.892-1.319-1.6-1.726-1.205-7.231.567-7.903.179-.067.325-.453.325-.857 0-1.671 3.91-5.891 6.111-6.597 2.648-.848 9.562-.295 11.141.891m174.195-.916c1.746.501 3.733 1.923 3.736 2.675.001.345.487.913 1.079 1.262 3.43 2.027 4.188 10.685 1.202 13.739-.757.775-1.651 1.844-1.988 2.376-.366.58-1.093 1.063-1.816 1.208-.706.141-1.621.738-2.207 1.44-.996 1.193-1.019 1.199-4.413 1.199h-3.411l-1.166-1.389c-.654-.778-1.502-1.389-1.93-1.389-.991 0-2.31-1.242-2.617-2.464-.133-.529-.788-1.525-1.457-2.214-2.21-2.276-2.15-7.143.125-10.046.598-.763 1.155-1.553 1.239-1.757 1.728-4.203 7.863-6.292 13.624-4.64m-60.556 58.12c.35.386 1.334.81 2.187.943 1.775.276 2.358.659 3.52 2.314.456.65 1.142 1.281 1.524 1.403 1.742.553 2.746 7.517 1.758 12.197-.357 1.691-3.63 5.149-5.261 5.559-.552.138-1.609.733-2.348 1.322-1.415 1.126-2.022 1.266-5.086 1.173-1.515-.046-2.103-.262-2.966-1.086-.592-.566-1.893-1.441-2.892-1.945-1.429-.72-1.938-1.231-2.386-2.391-.314-.811-.928-1.811-1.366-2.222-2.357-2.214-1.895-10.932.58-10.932.2 0 .364-.254.364-.563 0-1.706 3.561-4.993 5.409-4.993.198 0 1.014-.333 1.813-.741 1.882-.959 4.3-.977 5.15-.038m176.935.003c.416.388 1.321.812 2.01.941 1.7.319 3.34 1.78 4.213 3.753.399.901.893 1.638 1.098 1.638.345 0 .722.705 1.838 3.443.934 2.291.135 6.082-1.648 7.813-.694.674-1.263 1.578-1.263 2.007 0 .977-1.354 2.28-2.638 2.54-.535.108-1.507.763-2.16 1.456-.987 1.046-1.48 1.272-2.917 1.334-3.476.15-4.167-.016-5.66-1.365-.793-.716-1.733-1.308-2.089-1.315-.843-.016-2.313-1.251-2.313-1.944 0-.298-.576-1.034-1.281-1.635-3.114-2.661-2.508-13.816.752-13.816.246 0 .546-.39.666-.868.35-1.394 1.985-2.753 3.65-3.035.836-.141 1.858-.571 2.27-.955 1.051-.978 4.418-.973 5.472.008m-55.259 40.264c.626.37 1.137.784 1.137.92 0 .137.792.362 1.759.5 3.252.464 6.389 1.897 6.389 2.919 0 .244.821.735 1.825 1.092 1.526.542 1.895.86 2.251 1.939.273.827.661 1.29 1.081 1.29 1.004 0 2.223 1.251 2.482 2.545.149.745.575 1.329 1.186 1.624 1.341.649 2.228 2.364 2.59 5.013.231 1.692.557 2.521 1.273 3.237 2.968 2.968 3.086 15.684.174 18.801-.794.849-1.168 1.737-1.43 3.391-.477 3.015-.957 3.999-2.419 4.957-.741.485-1.235 1.116-1.235 1.575 0 .881-1.898 2.931-2.713 2.931-.301 0-.718.49-.927 1.088-.358 1.026-2.042 2.246-3.101 2.246-.265 0-.937.57-1.493 1.268-1.003 1.257-2.773 1.991-6.238 2.587-.728.125-1.645.523-2.037.883-1.95 1.792-13.491 2.185-13.491.459 0-.399-2.426-1.314-5.37-2.025-2.047-.494-2.827-.887-3.704-1.87-.611-.685-1.472-1.348-1.914-1.474-1.203-.343-2.715-1.651-2.724-2.355-.004-.342-.546-.871-1.203-1.177-.753-.349-1.471-1.12-1.937-2.076-.407-.837-1.267-1.87-1.91-2.296-1.211-.803-1.829-2.429-2.237-5.892-.121-1.02-.399-1.629-.804-1.757-1.654-.525-2.086-2.523-2.086-9.653 0-7.159.162-7.968 1.939-9.697.462-.449.839-1.173.839-1.61 0-2.509 1.963-6.649 3.153-6.649.238 0 .656-.678.93-1.508.52-1.576 1.548-2.566 2.666-2.566.395 0 .658-.275.658-.69 0-1.019 1.753-2.591 3.19-2.86.69-.13 1.255-.438 1.255-.686 0-1.185 4.399-3.171 7.025-3.171.274 0 1.027-.404 1.675-.898 1.963-1.498 11.153-1.739 13.496-.355m-180.649 18.12c.545.13 1.279.555 1.631.944.352.389 1.004.707 1.448.707 1.934 0 5.398 3.681 5.926 6.297.144.713.517 1.699.829 2.191.772 1.216.774 3.371.006 4.889-.349.689-.801 1.92-1.003 2.735-.472 1.899-2.337 3.993-4.458 5.005-.917.437-2 .98-2.408 1.206-3.37 1.868-5.91 2.022-7.919.478-.282-.216-1.532-.903-2.778-1.527-1.904-.953-2.415-1.426-3.199-2.963-.513-1.006-1.263-2.322-1.666-2.924-2.038-3.041-1.79-8.865.413-9.711.286-.11.52-.435.52-.723 0-1.386 1.922-3.511 4.156-4.593 1.257-.609 2.381-1.262 2.498-1.451.247-.4 3.637-1.098 4.457-.918.305.068 1.001.229 1.547.358m234.778-.2c.627 0 1.424.375 1.982.933.513.513 1.414 1.029 2.001 1.147 1.398.279 2.804 1.531 3.282 2.92.21.611.865 1.627 1.455 2.259 2.349 2.512 2.407 8.445.105 10.817-.533.549-1.299 1.748-1.702 2.664-.638 1.45-.979 1.755-2.611 2.34-1.033.37-2.169.994-2.524 1.386-1.635 1.806-4.996 1.881-7.162.16-.894-.711-1.996-1.293-2.449-1.293-.988 0-2.776-1.686-2.776-2.618 0-.366-.312-.764-.692-.885-3.457-1.097-3.578-13.271-.142-14.144.459-.116.834-.459.834-.762 0-1.206 1.509-2.698 2.965-2.931.788-.126 1.524-.466 1.636-.756.304-.793 2.479-1.632 3.686-1.423a14.88 14.88 0 0 0 2.112.186" fill="#fff"/></g></svg>