<svg width="400" height="400" xmlns="http://www.w3.org/2000/svg" display="block"><g fill-rule="evenodd"><path d="M352.764 31.844c-.31.374-1.148.924-1.862 1.222-.729.305-1.747 1.255-2.324 2.169-.597.946-1.594 1.863-2.382 2.193-.97.405-1.572 1.055-2.117 2.286-.418.946-1.912 2.922-3.32 4.39l-2.559 2.67 1.729 1.09c.952.599 2.347 2 3.1 3.113.754 1.112 2.485 3.013 3.847 4.223a141.496 141.496 0 0 1 4.522 4.221c1.969 1.944 2.091 2.001 3.224 1.518.648-.277 1.578-.511 2.068-.521.567-.011 1.108-.44 1.492-1.183.728-1.408 2.461-2.835 3.442-2.835.43 0 1.088-.679 1.646-1.7.579-1.058 1.473-1.965 2.368-2.403 1.1-.538 1.552-1.086 1.926-2.334.422-1.409.764-1.753 2.503-2.521l2.015-.889-1.651-.648c-1.332-.523-1.808-1.004-2.464-2.486-.814-1.841-5.572-7.078-6.844-7.534-.372-.133-.998-.747-1.39-1.364-.876-1.376-1.481-1.78-3.533-2.356-.88-.247-1.886-.574-2.236-.726-.385-.167-.858-.007-1.2.405m-223.216 1.15c-.966.701-2.466 2.024-3.334 2.94-.868.916-1.714 1.666-1.878 1.666-.356 0-2.336 1.93-2.336 2.277 0 .659-3.005 4.652-3.623 4.813-.751.197-1.35 1.42-1.796 3.667-.148.746-.951 2.096-1.783 3-1.64 1.78-2.183 3.369-2.567 7.518-.229 2.471-1.541 6.695-2.83 9.114-.296.556-.723 2.242-.947 3.747-.647 4.329-1.512 5.185-5.738 5.68-1.164.137-2.926.662-3.916 1.167-2.783 1.421-5.414 2.148-10.162 2.808-3.291.458-4.486.785-4.87 1.333-.827 1.18-3.457 2.77-5.041 3.046-1.007.175-2.085.852-3.412 2.143-1.067 1.038-2.474 2.155-3.127 2.482-1.407.704-7.11 6.284-8.468 8.285-.846 1.247-.92 1.671-.672 3.86l.278 2.46 4.68 4.655c2.574 2.56 5.111 4.786 5.637 4.947 1.248.382 2.364 1.376 2.789 2.487.193.505.82.997 1.454 1.14 3.555.802 4.273 1.13 5.792 2.649 1.589 1.589 1.738 1.645 5.279 1.997 4.699.467 7.993 1.319 10.243 2.648.997.589 3.048 1.28 4.599 1.549 3.219.558 4.025 1.262 4.404 3.845.575 3.925.026 53.626-.607 54.879-1.24 2.458-.481 2.392-28.996 2.529-32.532.156-30.615.419-31.514-4.325-.271-1.43-.967-3.41-1.547-4.4-1.3-2.218-2.187-5.794-2.695-10.87-.377-3.778-.425-3.91-2.012-5.545-.986-1.016-1.793-2.326-2.052-3.33-.235-.91-.515-1.957-.622-2.326-.106-.369-.809-1.034-1.561-1.478-.778-.459-1.623-1.417-1.959-2.222-.325-.778-1.277-2.111-2.115-2.962a276.986 276.986 0 0 1-3.812-3.995c-1.353-1.449-3.232-2.931-4.6-3.629-1.45-.741-2.565-1.64-2.992-2.412-.486-.878-.976-1.231-1.708-1.231-1.522 0-5.821-1.86-7.074-3.06-.924-.885-1.609-1.095-4.415-1.352a208.147 208.147 0 0 1-5.622-.592l-2.3-.288V261.2l1.3.009c2.295.016 3.883 2.005 4.722 5.918.345 1.612.688 2.14 1.898 2.922.812.526 1.778 1.596 2.146 2.379.369.783 1.401 1.907 2.295 2.499.893.591 1.734 1.511 1.868 2.045.151.602.799 1.229 1.707 1.651 1.852.859 2.864 1.738 3.292 2.857.224.585.912 1.034 2.054 1.342 2.081.56 4.937 2.184 5.662 3.219.372.532 1.833 1.046 4.9 1.725 4.507.996 7.231 1.912 8.938 3.005.808.517 2.376.629 8.8.629H57.4l2.466-1.277c1.357-.702 3.877-1.557 5.6-1.9 5.557-1.106 6.658-1.515 8.207-3.049.93-.921 2.151-1.636 3.275-1.919 1.739-.438 3.052-1.332 3.052-2.079 0-.201.71-.814 1.578-1.362 3.669-2.316 10.77-10.413 10.808-12.323.008-.39.706-1.47 1.552-2.4 1.728-1.899 2.248-3.165 3.078-7.491.317-1.65 1.106-4.08 1.754-5.4.905-1.844 1.282-3.373 1.624-6.6.613-5.784 1.569-6.957 6.098-7.478 1.351-.156 2.512-.579 3.235-1.179 1.789-1.487 9.808-3.343 14.444-3.343.111 0 1.113-.809 2.225-1.797 1.401-1.244 2.517-1.876 3.628-2.053 1.187-.19 2.116-.758 3.572-2.184 1.082-1.06 2.473-2.188 3.09-2.507.618-.319 1.948-1.453 2.958-2.52 1.009-1.066 2.447-2.48 3.195-3.141.749-.662 1.991-2.254 2.761-3.538.77-1.284 1.892-2.591 2.494-2.905.632-.329 1.197-1.031 1.336-1.662.572-2.586 1.061-3.63 2.214-4.727 1.756-1.671 1.898-2.058 2.363-6.429.495-4.652 1.634-8.773 2.853-10.322.481-.612 1.009-1.958 1.172-2.992.785-4.963 1.793-5.806 7.701-6.438 3.384-.361 4.804-.71 6.478-1.591 1.18-.62 3.19-1.325 4.467-1.566 4.292-.81 6.703-1.689 7.991-2.917.698-.664 2.228-1.612 3.4-2.105 2.881-1.212 9.691-7.375 11.745-10.628.548-.868 1.161-1.578 1.362-1.578.749 0 1.641-1.315 2.084-3.071.297-1.179.977-2.319 1.951-3.27 1.529-1.491 2.332-3.791 2.971-8.504.138-1.015.91-3.175 1.715-4.8l1.464-2.955.02-7.6.019-7.6-1.308-2.675c-.839-1.715-1.66-4.434-2.286-7.576-.592-2.966-1.202-5.027-1.547-5.22-.847-.474-3.052-4.07-3.508-5.722-.245-.887-.738-1.575-1.275-1.78-1.107-.424-1.994-1.44-2.83-3.241-.405-.875-1.107-1.585-1.839-1.861-.716-.27-1.444-.996-1.847-1.841-.449-.94-1.202-1.637-2.313-2.139-.974-.441-2.04-1.355-2.61-2.239-.721-1.118-1.324-1.559-2.4-1.754-2.19-.398-5.215-2.065-5.707-3.147-.473-1.038-1.054-1.221-5.13-1.614-3.585-.345-8.304-1.666-10.091-2.825-.821-.531-2.081-.967-2.8-.968-3.734-.007-5.314-1.267-5.772-4.602-.147-1.074-.768-2.772-1.38-3.774-1.271-2.081-2.202-5.447-2.55-9.222-.521-5.642-.564-5.79-2.26-7.608-1.793-1.923-2.347-3.059-2.347-4.813 0-.932-.33-1.377-1.631-2.198-.936-.591-1.867-1.596-2.186-2.36-.597-1.429-5.294-6.448-7.053-7.537-.588-.365-1.18-1.011-1.315-1.436-.289-.912-.853-1.18-3.864-1.837-2.227-.486-2.265-.478-4.003.783M379.332 44.12c-.234 1.643-.264 3.278-.071 3.806.187.509.339 1.555.339 2.324 0 .83.162 1.297.4 1.15.481-.298.548-9.661.071-9.956-.181-.112-.513 1.092-.739 2.676M298.77 87.435c-.534.569-1.51 1.283-2.17 1.586-2.675 1.229-4.462 2.525-5.6 4.064-.66.892-1.782 1.909-2.493 2.259-.846.416-1.589 1.265-2.147 2.451-.469.999-1.016 1.916-1.216 2.04-2.65 1.638 5.008 11.915 11.133 14.941 1.363.673 2.755 1.619 3.093 2.103l.616.88.437-1.253c.466-1.337 1.544-2.224 3.194-2.63.687-.169 1.245-.766 1.72-1.843.502-1.137 1.13-1.781 2.194-2.25 1.131-.5 1.667-1.086 2.225-2.434.449-1.087 1.165-1.998 1.846-2.35 1.525-.789 2.535-4.518 1.404-5.181-1.746-1.024-2.967-2.331-3.21-3.438-.19-.863-.7-1.421-1.824-1.994a5.522 5.522 0 0 1-2.358-2.358c-.573-1.124-1.131-1.634-1.994-1.824-1.251-.274-3.22-2.252-3.22-3.235 0-.848-.545-.693-1.63.466M273.293 101.8c.001 2.992.117 4.348.307 3.6.414-1.628.425-4.855.023-6.8-.245-1.184-.331-.352-.33 3.2m50.307 86.972c-1.21.134-3.436.827-4.946 1.54-1.563.737-3.975 1.475-5.6 1.713-6.506.952-7.357 1.209-8.635 2.614-.796.875-1.945 1.55-3.318 1.949-1.514.441-2.771 1.231-4.498 2.825-1.319 1.218-2.939 2.354-3.6 2.524-.847.218-1.485.819-2.157 2.029-.622 1.122-1.428 1.918-2.32 2.291-.984.411-1.569 1.042-2.09 2.257-.399.927-1.52 2.418-2.492 3.313-1.185 1.091-1.939 2.211-2.288 3.4-.836 2.853-1.393 3.739-2.721 4.327-1.203.533-1.261.671-1.509 3.6-.67 7.92-1.575 11.916-3.151 13.908-.481.609-1.055 1.83-1.275 2.713-.227.914-.745 1.783-1.2 2.016-.44.225-1.266.883-1.835 1.462-1.262 1.284-3.338 1.779-11.365 2.709-6.221.721-7.584 1.127-7.98 2.374-.282.888-1.283 1.411-4.306 2.246-1.851.512-2.573.976-3.795 2.438-.985 1.177-2.044 1.965-3.047 2.265-1.233.37-1.659.766-2.155 2.006-.432 1.08-1.078 1.779-2.148 2.325-1.068.545-1.761 1.294-2.295 2.482-.421.936-1.587 2.563-2.592 3.614-1.189 1.245-2.058 2.641-2.492 4-.403 1.261-1.188 2.571-1.982 3.307-1.376 1.276-1.541 1.801-2.774 8.83-.317 1.801-1.101 4.299-1.761 5.606-.725 1.436-1.379 3.606-1.673 5.551-.798 5.265-1.374 5.851-6.516 6.626-1.586.24-4.045.977-5.463 1.639-1.419.661-4.029 1.457-5.8 1.768-6.816 1.195-7.233 1.329-8.627 2.767-.848.876-2.097 1.6-3.421 1.985-1.44.418-2.688 1.181-4.029 2.462-1.069 1.02-2.71 2.2-3.646 2.621-1.188.534-1.937 1.227-2.482 2.295-.546 1.07-1.245 1.716-2.325 2.148-1.24.496-1.636.922-2.006 2.155-.3 1.002-1.087 2.062-2.259 3.042-1.495 1.249-1.937 1.959-2.616 4.195-.621 2.046-1.164 2.989-2.267 3.936l-1.45 1.245-.717 6.403c-.914 8.161-2.078 12.107-3.57 12.107-.223 0-.406.35-.406.777 0 .941-1.438 2.023-2.689 2.023-.501 0-.911.167-.911.371 0 1.384-7.074 3.187-15.075 3.84-3.136.256-3.291.316-3.668 1.399-.474 1.358-1.597 2.106-4.21 2.803-1.438.383-2.389.994-3.6 2.31-.906.983-2.406 2.114-3.333 2.513-1.215.521-1.846 1.106-2.257 2.09-.373.892-1.169 1.698-2.291 2.32-1.21.672-1.811 1.31-2.029 2.157-.17.661-1.311 2.281-2.535 3.6-1.552 1.67-2.365 2.937-2.683 4.18-.27 1.056-1.066 2.446-1.953 3.407-1.208 1.311-1.585 2.122-1.957 4.217a237.019 237.019 0 0 1-1.087 5.593c-.344 1.65-.711 3.675-.816 4.5l-.19 1.5H212v-23.911c0-28.108-.451-25.815 5.29-26.906 1.04-.197 2.57-.801 3.4-1.342 1.989-1.296 5.055-2.13 9.71-2.643 4.81-.53 4.755-.51 6.802-2.4 1.067-.985 2.261-1.675 3.157-1.826 2.474-.415 2.805-.587 3.533-1.834.389-.668 1.415-1.577 2.279-2.02 2.206-1.133 9.277-8.118 10.652-10.522.63-1.103 1.682-2.322 2.337-2.709 1.225-.723 1.398-1.059 1.812-3.528.15-.892.838-2.087 1.806-3.135 1.948-2.11 1.885-1.931 2.424-6.897.546-5.031 1.378-8.111 2.651-9.81.529-.705 1.125-2.145 1.325-3.2 1.109-5.835-1.582-5.364 29.872-5.231 29.052.124 28.145.053 29.841 2.345 1.439 1.946 1.49 3.819 1.499 54.869l.01 50.7h50.013l-.106-81.323-.107-81.324-1.097-1.303c-1.46-1.736-2.169-4.367-2.92-10.837-.343-2.963-.66-5.393-.704-5.4-1.418-.227-2.584-1.535-3.396-3.809-.668-1.87-1.511-3.19-3.1-4.856-1.201-1.259-2.183-2.648-2.183-3.088 0-.527-.579-1.12-1.7-1.738-1.072-.591-2.001-1.518-2.516-2.508-.564-1.088-1.181-1.666-2.003-1.879-.653-.169-2.176-1.224-3.384-2.344-1.585-1.47-2.886-2.261-4.669-2.84-1.788-.58-2.75-1.166-3.475-2.117-1.065-1.396-1.831-1.63-8.583-2.621-1.715-.252-4.119-.987-5.8-1.773-3.113-1.457-6.785-1.944-11.07-1.468"/><path d="M128.4 19.969c-.962.278-.947.301.4.611 3.064.705 9.686.226 8.372-.606-.669-.423-7.312-.427-8.772-.005M350 20l-1 .32 1 .043c.55.023 1.52.313 2.155.644 1.029.537 1.475.537 4.083-.002 1.611-.333 3.071-.608 3.245-.611.174-.003.047-.181-.283-.394-.712-.46-7.764-.46-9.2 0m2.681 8.314c-.349.873-1.206 2.014-1.904 2.536-.699.523-2.337 1.985-3.64 3.25-1.304 1.265-2.541 2.3-2.749 2.3-.208 0-.84.732-1.405 1.627-.565.895-2.352 2.965-3.971 4.6-3.124 3.154-3.735 3.398-6.512 2.602-1.602-.46-2.77.72-2.048 2.068.365.681.692.742 2.735.504 3.165-.367 7.275 2.505 10.129 7.076.369.592 1.472 1.627 2.451 2.3.979.674 1.894 1.586 2.035 2.028.14.442.741 1.055 1.335 1.362 1.835.95 3.264 2.685 3.729 4.528l.444 1.764.853-1.522c.469-.836 1.543-1.907 2.385-2.38 1.549-.869 10.652-8.867 10.652-9.359 0-.838 3.267-4.237 5.247-5.459l2.314-1.429-2.036-1.53c-2.287-1.718-4.765-4.548-5.473-6.25-.258-.621-1.193-1.545-2.078-2.052-.92-.527-1.885-1.504-2.257-2.284-.36-.755-1.111-1.526-1.683-1.73-.569-.203-1.734-.93-2.589-1.616-.855-.687-1.69-1.248-1.854-1.248-.164 0-1.014-.736-1.887-1.636l-1.588-1.636-.635 1.586m-222.281.995c-.33.71-1.189 1.651-1.908 2.091-1.932 1.181-7.474 6.608-8.212 8.041-.352.682-1.098 1.541-1.659 1.908-.561.368-1.674 1.97-2.473 3.56-.799 1.59-1.863 3.38-2.363 3.977-.843 1.006-2.985 6.638-2.985 7.848 0 .293-.538 1.758-1.196 3.257-.81 1.846-1.399 4.183-1.826 7.242-1.138 8.157-1.453 8.428-11.578 9.944-1.54.23-3.7.843-4.8 1.361-1.1.518-3.594 1.36-5.542 1.87-1.948.511-4.108 1.341-4.8 1.846-.692.504-2.698 1.662-4.458 2.573-1.76.911-3.622 2.182-4.138 2.825-.515.644-1.642 1.529-2.502 1.968-.861.44-1.955 1.394-2.431 2.121-.477.726-1.446 1.701-2.154 2.165-.708.464-1.715 1.62-2.238 2.569-.523.949-1.599 2.145-2.391 2.657l-1.439.933.674 2.179c.378 1.221 1.06 2.45 1.553 2.794.483.339 1.28 1.403 1.772 2.364.492.962 1.52 2.169 2.284 2.683.765.514 1.807 1.552 2.316 2.307.509.756 1.48 1.607 2.157 1.891.678.285 1.939 1.247 2.803 2.137.909.937 2.617 2.06 4.052 2.665 1.365.576 3.112 1.625 3.882 2.333 1.135 1.043 2.233 1.489 5.8 2.357 2.42.589 5.514 1.6 6.875 2.248 1.361.647 3.01 1.177 3.665 1.177 3.154 0 7.435 1.191 8.65 2.405l1.21 1.21.122 24.492c.152 30.274.142 30.343-4.722 31.46-2.318.533-49.946.586-51.336.058-2.294-.873-3.091-2.707-3.854-8.875-.208-1.677-.725-3.657-1.149-4.4-.896-1.567-1.678-4.072-2.66-8.515-.492-2.225-.985-3.429-1.661-4.056-.529-.49-1.582-2.166-2.341-3.726-.759-1.56-2.104-3.538-2.989-4.397-.885-.859-1.842-2.115-2.127-2.793-.284-.677-1.133-1.646-1.884-2.152-.752-.507-1.839-1.616-2.415-2.464-.576-.848-1.663-1.799-2.416-2.114-.752-.315-2.088-1.254-2.968-2.088-.88-.833-2.77-2.006-4.2-2.607-1.43-.6-3.14-1.595-3.8-2.211-.965-.9-2.062-1.296-5.6-2.022-2.42-.496-5.48-1.238-6.8-1.648-3.486-1.084-4.2-1.017-4.2.398v1.155l4.1.454c2.255.25 4.795.526 5.645.613.952.098 1.954.552 2.615 1.184 1.234 1.183 5.541 3.039 7.051 3.039.732 0 1.222.353 1.708 1.231.427.772 1.542 1.671 2.992 2.412 1.368.698 3.247 2.18 4.6 3.629a276.986 276.986 0 0 0 3.812 3.995c.838.851 1.79 2.184 2.115 2.962.338.81 1.182 1.764 1.971 2.229 1.029.607 1.489 1.237 1.809 2.478.236.915.517 1.965.623 2.334.107.368.919 1.416 1.805 2.33 1.57 1.618 1.621 1.759 1.998 5.53.508 5.076 1.395 8.652 2.695 10.87.58.99 1.276 2.97 1.547 4.4.899 4.744-1.018 4.481 31.514 4.325 28.515-.137 27.756-.071 28.996-2.529.633-1.253 1.182-50.954.607-54.879-.379-2.583-1.185-3.287-4.404-3.845-1.551-.269-3.602-.96-4.599-1.549-2.25-1.329-5.544-2.181-10.243-2.648-3.541-.352-3.69-.408-5.279-1.997-1.519-1.519-2.237-1.847-5.792-2.649-.634-.143-1.261-.635-1.454-1.14-.425-1.111-1.541-2.105-2.789-2.487-.526-.161-3.063-2.387-5.637-4.947L63.326 105l-.278-2.46c-.248-2.189-.174-2.613.672-3.86 1.358-2.001 7.061-7.581 8.468-8.285.653-.327 2.06-1.444 3.127-2.482 1.327-1.291 2.405-1.968 3.412-2.143 1.584-.276 4.214-1.866 5.041-3.046.384-.548 1.579-.875 4.87-1.333 4.748-.66 7.379-1.387 10.162-2.808.99-.505 2.752-1.03 3.916-1.167 4.226-.495 5.091-1.351 5.738-5.68.224-1.505.651-3.191.947-3.747 1.289-2.419 2.601-6.643 2.83-9.114.384-4.149.927-5.738 2.567-7.518.832-.904 1.635-2.254 1.783-3 .446-2.247 1.045-3.47 1.796-3.667.618-.161 3.623-4.154 3.623-4.813 0-.34 1.977-2.277 2.324-2.277.158 0 1.093-.831 2.077-1.846 3.35-3.457 4.643-4.092 7.199-3.536 2.948.641 3.526.918 3.815 1.83.135.425.727 1.071 1.315 1.436 1.759 1.089 6.456 6.108 7.053 7.537.319.764 1.25 1.769 2.186 2.36 1.301.821 1.631 1.266 1.631 2.198 0 1.754.554 2.89 2.347 4.813 1.696 1.818 1.739 1.966 2.26 7.608.348 3.775 1.279 7.141 2.55 9.222.612 1.002 1.233 2.7 1.38 3.774.458 3.335 2.038 4.595 5.772 4.602.719.001 1.979.437 2.8.968 1.787 1.159 6.506 2.48 10.091 2.825 4.076.393 4.657.576 5.13 1.614.492 1.082 3.517 2.749 5.707 3.147 1.076.195 1.679.636 2.4 1.754.57.884 1.636 1.798 2.61 2.239 1.111.502 1.864 1.199 2.313 2.139.403.845 1.131 1.571 1.847 1.841.732.276 1.434.986 1.839 1.861.836 1.801 1.723 2.817 2.83 3.241.537.205 1.03.893 1.275 1.78.456 1.652 2.661 5.248 3.508 5.722.345.193.955 2.254 1.547 5.22.626 3.142 1.447 5.861 2.286 7.576l1.308 2.675-.019 7.6-.02 7.6-1.464 2.955c-.805 1.625-1.577 3.785-1.715 4.8-.639 4.713-1.442 7.013-2.971 8.504-.974.951-1.654 2.091-1.951 3.27-.443 1.756-1.335 3.071-2.084 3.071-.201 0-.814.71-1.362 1.578-2.054 3.253-8.864 9.416-11.745 10.628-1.172.493-2.702 1.441-3.4 2.105-1.288 1.228-3.699 2.107-7.991 2.917-1.277.241-3.287.946-4.467 1.566-1.674.881-3.094 1.23-6.478 1.591-5.908.632-6.916 1.475-7.701 6.438-.163 1.034-.691 2.38-1.172 2.992-1.219 1.549-2.358 5.67-2.853 10.322-.465 4.371-.607 4.758-2.363 6.429-1.153 1.097-1.642 2.141-2.214 4.727-.139.631-.704 1.333-1.336 1.662-.602.314-1.724 1.621-2.494 2.905-.77 1.284-2.012 2.876-2.761 3.538-.748.661-2.186 2.075-3.195 3.141-1.01 1.067-2.34 2.201-2.958 2.52-.617.319-2.008 1.447-3.09 2.507-1.456 1.426-2.385 1.994-3.572 2.184-1.111.177-2.227.809-3.628 2.053-1.112.988-2.114 1.797-2.225 1.797-4.636 0-12.655 1.856-14.444 3.343-.723.6-1.884 1.023-3.235 1.179-4.529.521-5.485 1.694-6.098 7.478-.342 3.227-.719 4.756-1.624 6.6-.648 1.32-1.437 3.75-1.754 5.4-.83 4.326-1.35 5.592-3.078 7.491-.846.93-1.544 2.01-1.552 2.4-.038 1.91-7.139 10.007-10.808 12.323-.868.548-1.578 1.161-1.578 1.362 0 .747-1.313 1.641-3.052 2.079-1.124.283-2.345.998-3.275 1.919-1.549 1.534-2.65 1.943-8.207 3.049-1.723.343-4.243 1.198-5.6 1.9L57.4 291.4h-7.818c-6.424 0-7.992-.112-8.8-.629-1.707-1.093-4.431-2.009-8.938-3.005-3.067-.679-4.528-1.193-4.9-1.725-.725-1.035-3.581-2.659-5.662-3.219-1.142-.308-1.83-.757-2.054-1.342-.428-1.119-1.44-1.998-3.292-2.857-.908-.422-1.556-1.049-1.707-1.651-.134-.534-.975-1.454-1.868-2.045-.894-.592-1.926-1.716-2.295-2.499-.368-.783-1.334-1.853-2.146-2.379-1.21-.782-1.553-1.31-1.898-2.922-.839-3.913-2.427-5.902-4.722-5.918C.049 261.2 0 261.26 0 262.8c0 1.492.077 1.6 1.138 1.6 1.43 0 2.059.71 3.675 4.15.724 1.54 2.316 3.88 3.618 5.316 1.279 1.412 2.434 2.91 2.568 3.33.133.42.599.876 1.035 1.015.437.138 1.746 1.183 2.911 2.32 2.457 2.402 8.116 6.062 11.855 7.668 1.43.615 3.571 1.543 4.757 2.063 12.104 5.308 36.91 2.646 46.4-4.979.794-.638 2.073-1.483 2.843-1.879 1.284-.661 2.42-1.654 6.085-5.319 3.634-3.633 4.653-4.792 5.264-5.98.366-.712 1.206-1.909 1.866-2.661.66-.752 1.747-2.599 2.415-4.105a220.897 220.897 0 0 1 2.37-5.143c1.21-2.517 2.43-7.648 3.186-13.396.844-6.423 2.041-7.533 9.056-8.405 2.058-.256 4.201-.804 5.305-1.357 2.232-1.118 3.677-1.575 7.761-2.454 2.303-.495 3.443-.975 4.4-1.851.711-.65 2.578-1.765 4.149-2.477 1.64-.742 3.324-1.847 3.951-2.592.601-.715 1.768-1.643 2.593-2.064.825-.421 1.869-1.392 2.321-2.158.452-.766 1.373-1.677 2.046-2.025.673-.349 1.578-1.327 2.011-2.175.432-.848 1.37-2.033 2.085-2.634.75-.631 1.842-2.301 2.585-3.951.707-1.571 1.775-3.366 2.374-3.987.829-.862 1.358-2.223 2.224-5.727.626-2.527 1.59-5.498 2.144-6.601.641-1.276 1.143-3.193 1.38-5.273.795-6.989 1.946-8.172 8.829-9.075 5.389-.707 10.37-1.956 13.4-3.36 1.54-.714 3.79-1.728 5-2.253 1.21-.525 2.885-1.553 3.721-2.286.837-.732 2.007-1.535 2.6-1.784.962-.404 1.983-1.295 5.964-5.206 3.113-3.058 4.888-5.093 5.524-6.333.387-.754 1.137-1.891 1.666-2.525 7.514-9.001 10.663-35.035 5.521-45.647-.319-.66-1.303-3.078-2.187-5.372-.883-2.295-1.937-4.545-2.342-5-.405-.456-1.586-2.128-2.625-3.718-1.04-1.589-2.384-3.241-2.988-3.671-.603-.43-1.432-1.403-1.841-2.163-.409-.759-1.299-1.7-1.978-2.091-.679-.391-2.135-1.549-3.235-2.573-1.1-1.025-3.08-2.366-4.4-2.982-1.32-.615-2.85-1.536-3.4-2.046-1.094-1.016-4.023-2.183-7.883-3.142-1.366-.339-3.346-1.061-4.4-1.603-1.441-.741-3.096-1.109-6.667-1.481-6.852-.713-7.265-1.16-8.277-8.958-.314-2.422-.782-4.141-1.431-5.254-.531-.91-1.476-3.926-2.101-6.702-.962-4.271-1.301-5.176-2.203-5.886-.587-.461-1.601-2.018-2.255-3.46-.654-1.441-2.008-3.497-3.009-4.568-1.002-1.07-2.008-2.481-2.235-3.134-.25-.717-1.019-1.527-1.943-2.046-.841-.473-1.849-1.453-2.239-2.179-.418-.775-1.334-1.6-2.222-2-.831-.375-1.829-1.033-2.217-1.462-.527-.582-5.063-3.158-5.459-3.1-.032.004-.329.589-.659 1.3m225.8 2.856c2.052.576 2.657.98 3.533 2.356.392.617 1.018 1.231 1.39 1.364 1.272.456 6.03 5.693 6.844 7.534.656 1.482 1.132 1.963 2.464 2.486l1.651.648-2.015.889c-1.739.768-2.081 1.112-2.503 2.521-.374 1.248-.826 1.796-1.926 2.334-.895.438-1.789 1.345-2.368 2.403-.558 1.021-1.216 1.7-1.646 1.7-.981 0-2.714 1.427-3.442 2.835-.384.743-.925 1.172-1.492 1.183-.49.01-1.42.244-2.068.521-1.133.483-1.255.426-3.224-1.518a141.496 141.496 0 0 0-4.522-4.221c-1.362-1.21-3.093-3.111-3.847-4.223-.753-1.113-2.148-2.514-3.1-3.113l-1.729-1.09 2.559-2.67c1.408-1.468 2.902-3.444 3.32-4.39.545-1.231 1.147-1.881 2.117-2.286.788-.33 1.785-1.247 2.382-2.193.577-.914 1.595-1.864 2.324-2.169.714-.298 1.552-.848 1.862-1.222.342-.412.815-.572 1.2-.405.35.152 1.356.479 2.236.726m22.641 8.838c-.504 2.091-1.233 4.193-1.619 4.67-.676.833-.668.919.205 2.206.5.736 1.226 2.684 1.614 4.33 1.087 4.609 1.447 3.844 1.998-4.246.256-3.751-.397-10.763-1.002-10.763-.154 0-.692 1.711-1.196 3.803M380.4 46.4c0 2.737-.17 4.858-.4 5-.238.147-.4-.32-.4-1.15 0-.769-.152-1.815-.339-2.324-.395-1.081.317-6.787.81-6.482.181.112.329 2.342.329 4.956m-82.79 30.892l-2.191.398 1.454.746c.8.41 1.82 1.21 2.265 1.777l.811 1.03.475-.922c.262-.506.825-1.304 1.251-1.773.774-.851.773-.853-.51-1.3-.706-.246-1.303-.427-1.325-.4-.022.026-1.026.226-2.23.444m.675 6.818c-.833.709-2.506 2.235-3.717 3.39-1.211 1.155-2.375 2.1-2.585 2.1-.599 0-6.504 6.128-7.267 7.541-.376.697-1.331 1.649-2.122 2.116-.832.49-1.355 1.069-1.239 1.371.111.287.395 1.244.633 2.127.266.987.872 1.918 1.575 2.418.628.448 1.478 1.525 1.89 2.395.411.869 1.373 2.002 2.137 2.516.765.514 1.812 1.561 2.326 2.326.514.764 1.598 1.724 2.409 2.132.811.408 2.12 1.398 2.907 2.2a40.489 40.489 0 0 0 3.088 2.77l1.655 1.313 1.406-2.118c.783-1.179 2.478-2.898 3.827-3.88 1.331-.969 3.695-3.263 5.252-5.098 1.557-1.834 3.34-3.763 3.961-4.285.748-.63 1.307-1.659 1.654-3.044l.525-2.093-3.676-3.854c-4.376-4.586-4.61-4.821-8.755-8.772-1.778-1.695-3.488-3.482-3.8-3.971l-.569-.891-1.515 1.291m2.115 2.859c0 .983 1.969 2.961 3.22 3.235.863.19 1.421.7 1.994 1.824a5.522 5.522 0 0 0 2.358 2.358c1.124.573 1.634 1.131 1.824 1.994.243 1.107 1.464 2.414 3.21 3.438 1.131.663.121 4.392-1.404 5.181-.681.352-1.397 1.263-1.846 2.35-.558 1.348-1.094 1.934-2.225 2.434-1.064.469-1.692 1.113-2.194 2.25-.475 1.077-1.033 1.674-1.72 1.843-1.65.406-2.728 1.293-3.194 2.63l-.437 1.253-.616-.88c-.338-.484-1.73-1.43-3.093-2.103-6.125-3.026-13.783-13.303-11.133-14.941.2-.124.747-1.041 1.216-2.04.558-1.186 1.301-2.035 2.147-2.451.711-.35 1.833-1.367 2.493-2.259 1.138-1.539 2.925-2.835 5.6-4.064.66-.303 1.636-1.017 2.17-1.586 1.085-1.159 1.63-1.314 1.63-.466m-27.596 7.871c-.596 2.646-.402 14.143.258 15.309.35.618.571.129 1.265-2.8 1.312-5.543 1.401-6.667.695-8.813a89.692 89.692 0 0 1-1.175-3.936l-.538-2-.505 2.24M50.623 98.386c-.256 3.271.062 11.063.436 10.689 1.188-1.188 1.762-8.623.907-11.742-.842-3.071-1.032-2.922-1.343 1.053M273.93 102.2c-.014 1.1-.162 2.54-.33 3.2-.19.748-.306-.608-.307-3.6-.001-3.552.085-4.384.33-3.2.182.88.32 2.5.307 3.6m25.429 21.801c-.22.22-1.921.915-3.78 1.544l-3.379 1.143 2.4.507c2.38.504 8.828.353 10.378-.242.563-.216.282-.444-1.251-1.015-1.086-.406-2.362-1.098-2.835-1.538-.994-.926-1.003-.929-1.533-.399m22.944 63.658c-4.498.329-7.157.91-10.503 2.293-1.1.455-3.547 1.279-5.437 1.831-2.096.613-4.036 1.481-4.973 2.225-.845.672-2.652 1.754-4.016 2.404-1.363.651-2.772 1.631-3.13 2.177-.358.547-1.223 1.29-1.922 1.651-1.566.81-5.992 5.254-7.307 7.336-.534.846-1.476 1.899-2.093 2.341-.666.477-1.402 1.601-1.812 2.769-.38 1.082-1.139 2.585-1.687 3.341-.548.755-1.291 1.774-1.65 2.264-.359.49-.981 2.584-1.382 4.653-.401 2.069-1.282 5.092-1.959 6.718-.677 1.626-1.393 4.212-1.592 5.747-.654 5.058-1.37 5.827-6.07 6.515-1.413.207-3.83.858-5.37 1.448-1.54.589-4.597 1.429-6.794 1.865-2.196.437-4.425 1.102-4.953 1.478-2.767 1.974-4.387 2.874-5.96 3.315-1.171.328-2.083.935-2.783 1.852-.573.751-1.536 1.621-2.141 1.934-1.356.701-6.218 5.45-7.472 7.298-.507.747-1.457 1.809-2.11 2.358-.653.55-1.187 1.23-1.187 1.512 0 .282-.934 1.931-2.076 3.665-1.412 2.143-2.634 4.75-3.82 8.151-2.447 7.016-2.846 8.507-3.319 12.384-.902 7.406-2.359 8.604-12.185 10.023-1.76.255-4.01.82-5 1.256-.99.436-3.436 1.319-5.435 1.963-1.999.643-4.789 1.918-6.2 2.834-1.411.915-3.32 2-4.243 2.411-.923.411-2.016 1.177-2.429 1.702-.414.525-1.379 1.381-2.145 1.901-1.875 1.272-6.625 6.128-7.332 7.495-.313.605-1.176 1.563-1.918 2.129-.867.661-1.532 1.638-1.859 2.729-.534 1.783-2.096 4.514-2.847 4.978-.647.4-1.088 1.761-1.979 6.108-.438 2.138-1.316 5.237-1.951 6.887-.635 1.65-1.287 4.08-1.449 5.4-.55 4.467-1.41 5.284-6.173 5.861-1.704.206-4.336.903-5.987 1.585-1.621.669-4.64 1.544-6.709 1.945s-4.163 1.023-4.653 1.382c-.49.359-1.509 1.102-2.264 1.65-.756.548-2.259 1.307-3.341 1.687-1.168.41-2.292 1.146-2.769 1.812-.442.617-1.495 1.559-2.341 2.093-2.082 1.315-6.526 5.741-7.336 7.307-.361.699-1.124 1.577-1.696 1.951-.571.375-1.355 1.411-1.742 2.304-.386.893-1.372 2.61-2.189 3.817-2.048 3.024-2.109 3.158-3.23 7.027-.547 1.886-1.439 4.486-1.982 5.776-.543 1.291-1.105 3.349-1.249 4.575L107.89 400h1.413c1.332 0 1.424-.086 1.603-1.5.105-.825.472-2.85.816-4.5s.833-4.167 1.087-5.593c.372-2.095.749-2.906 1.957-4.217.887-.961 1.683-2.351 1.953-3.407.318-1.243 1.131-2.51 2.683-4.18 1.224-1.319 2.365-2.939 2.535-3.6.218-.847.819-1.485 2.029-2.157 1.122-.622 1.918-1.428 2.291-2.32.411-.984 1.042-1.569 2.257-2.09.927-.399 2.427-1.53 3.333-2.513 1.211-1.316 2.162-1.927 3.6-2.31 2.613-.697 3.736-1.445 4.21-2.803.377-1.083.532-1.143 3.668-1.399 8.001-.653 15.075-2.456 15.075-3.84 0-.204.41-.371.911-.371 1.251 0 2.689-1.082 2.689-2.023 0-.427.183-.777.406-.777 1.492 0 2.656-3.946 3.57-12.107l.717-6.403 1.45-1.245c1.103-.947 1.646-1.89 2.267-3.936.679-2.236 1.121-2.946 2.616-4.195 1.172-.98 1.959-2.04 2.259-3.042.37-1.233.766-1.659 2.006-2.155 1.08-.432 1.779-1.078 2.325-2.148.545-1.068 1.294-1.761 2.482-2.295.936-.421 2.577-1.601 3.646-2.621 1.341-1.281 2.589-2.044 4.029-2.462 1.324-.385 2.573-1.109 3.421-1.985 1.394-1.438 1.811-1.572 8.627-2.767 1.771-.311 4.381-1.107 5.8-1.768 1.418-.662 3.901-1.403 5.517-1.647 5.096-.769 5.663-1.352 6.467-6.656.289-1.908.949-4.088 1.668-5.513.66-1.307 1.444-3.805 1.761-5.606 1.233-7.029 1.398-7.554 2.774-8.83.794-.736 1.579-2.046 1.982-3.307.434-1.359 1.303-2.755 2.492-4 1.005-1.051 2.171-2.678 2.592-3.614.534-1.188 1.227-1.937 2.295-2.482 1.07-.546 1.716-1.245 2.148-2.325.496-1.24.922-1.636 2.155-2.006 1.003-.3 2.062-1.088 3.047-2.265 1.222-1.462 1.944-1.926 3.795-2.438 3.023-.835 4.024-1.358 4.306-2.246.396-1.247 1.759-1.653 7.98-2.374 8.027-.93 10.103-1.425 11.365-2.709.569-.579 1.395-1.237 1.835-1.462.455-.233.973-1.102 1.2-2.016.22-.883.794-2.104 1.275-2.713 1.576-1.992 2.481-5.988 3.151-13.908.248-2.929.306-3.067 1.509-3.6 1.328-.588 1.885-1.474 2.721-4.327.349-1.189 1.103-2.309 2.288-3.4.972-.895 2.093-2.386 2.492-3.313.521-1.215 1.106-1.846 2.09-2.257.892-.373 1.698-1.169 2.32-2.291.672-1.21 1.31-1.811 2.157-2.029.661-.17 2.281-1.306 3.6-2.524 1.727-1.594 2.984-2.384 4.498-2.825 1.373-.399 2.522-1.074 3.318-1.949 1.281-1.408 2.11-1.658 8.711-2.626 1.807-.266 4.094-.983 5.971-1.874 2.952-1.4 3.177-1.443 7.699-1.443s4.747.043 7.699 1.443c1.877.891 4.164 1.608 5.971 1.874 6.752.991 7.518 1.225 8.583 2.621.725.951 1.687 1.537 3.475 2.117 1.783.579 3.084 1.37 4.669 2.84 1.208 1.12 2.731 2.175 3.384 2.344.822.213 1.439.791 2.003 1.879.515.99 1.444 1.917 2.516 2.508 1.121.618 1.7 1.211 1.7 1.738 0 .44.982 1.829 2.183 3.088 1.589 1.666 2.432 2.986 3.1 4.856.812 2.274 1.978 3.582 3.396 3.809.044.007.361 2.437.704 5.4.751 6.47 1.46 9.101 2.92 10.837l1.097 1.303.107 81.324c.071 54.811.239 81.323.513 81.323.62 0 .264-163.447-.363-166.516-.26-1.274-.997-3.434-1.638-4.8-.641-1.366-1.435-3.924-1.765-5.684-.758-4.038-.891-4.368-2.731-6.798-.833-1.101-1.774-2.761-2.091-3.689-.316-.929-1.311-2.459-2.21-3.4l-3.829-4.004c-1.206-1.26-2.193-2.458-2.193-2.661 0-.204-.945-1-2.1-1.769-1.155-.769-2.5-1.862-2.989-2.429-.488-.566-1.542-1.303-2.341-1.637-.8-.334-2.65-1.396-4.112-2.361-1.78-1.174-3.914-2.117-6.458-2.854-2.09-.605-4.34-1.375-5-1.711-1.978-1.008-4.99-1.657-8.8-1.897-1.98-.125-4.05-.276-4.6-.336-.55-.06-2.934.032-5.297.205m-51.028 104.97c-1.045.736-1.568 1.906-2.097 4.688-.2 1.055-.796 2.495-1.325 3.2-1.273 1.699-2.105 4.779-2.651 9.81-.539 4.966-.476 4.787-2.424 6.897-.968 1.048-1.656 2.243-1.806 3.135-.414 2.469-.587 2.805-1.812 3.528-.655.387-1.707 1.606-2.337 2.709-1.375 2.404-8.446 9.389-10.652 10.522-.864.443-1.89 1.352-2.279 2.02-.728 1.247-1.059 1.419-3.533 1.834-.896.151-2.09.841-3.157 1.826-2.047 1.89-1.992 1.87-6.802 2.4-4.655.513-7.721 1.347-9.71 2.643-.83.541-2.36 1.145-3.4 1.342-5.741 1.091-5.29-1.202-5.29 26.906 0 23.644.009 23.911.8 23.911s.8-.267.8-23.226c0-14.999.144-23.496.407-23.988.79-1.476 3.692-2.764 7.228-3.208 2.009-.253 4.179-.82 5.385-1.408 1.111-.541 4.124-1.501 6.697-2.133 3.58-.879 4.986-1.42 5.995-2.306.725-.636 2.69-1.775 4.367-2.529 2.001-.901 3.269-1.744 3.687-2.453.351-.594 1.436-1.466 2.41-1.938 1.061-.513 2.101-1.414 2.59-2.243.449-.762 1.44-1.753 2.202-2.202.829-.489 1.73-1.529 2.243-2.59.472-.974 1.344-2.059 1.938-2.41.709-.418 1.552-1.686 2.453-3.687.754-1.677 1.902-3.653 2.55-4.391.919-1.047 1.389-2.277 2.135-5.594.527-2.339 1.406-5.161 1.955-6.273.566-1.147 1.254-3.659 1.591-5.809.618-3.938 1.889-6.821 3.353-7.605 1.068-.571 49.163-.557 50.688.015 2.118.795 4.098 2.467 4.912 4.149.805 1.664.814 2.211.814 51.755 0 44.244.07 50.074.6 50.074.699 0 .91-99.981.217-102.969-.452-1.948-1.534-3.448-3.053-4.231-1.85-.953-54.349-1.114-55.689-.171" fill="#272727"/><path d="M123.7 19.063c-3.238.767-3.159 1.015.8 2.527 4.835 1.846 5.147 2.226 4.312 5.276-.495 1.809-.97 2.653-1.84 3.27-10.877 7.712-19.652 23.12-21.183 37.193-.601 5.517-2.367 7.044-9.051 7.821-3.955.459-5.83.975-12.167 3.345-3.7 1.384-4.89 1.995-10.171 5.225-3.308 2.024-10.955 8.999-12.791 11.667-1.201 1.745-5.375 3.852-6.389 3.225-.629-.389-1.783-2.827-2.796-5.908-1.055-3.209-1.421-3.544-1.976-1.808-1.487 4.66-1.628 16.571-.249 21.054.794 2.58 1.092 2.397 2.402-1.474.887-2.62 1.636-4.287 2.513-5.583.605-.897 5.487 1.612 6.635 3.409 1.908 2.988 10.657 10.732 13.591 12.03 1.067.472 2.777 1.463 3.8 2.203 1.023.74 3.75 1.988 6.06 2.773 2.31.786 5.25 1.81 6.534 2.276 1.283.467 3.893.993 5.8 1.169 8.26.763 7.656-1.479 7.661 28.447.004 26.086.095 25.188-2.754 27.092l-1.359.908H76.767c-14.194 0-24.726-.156-25.303-.376-1.174-.446-2.664-4.007-2.664-6.366 0-2.542-.811-6.126-2.005-8.858-.625-1.43-1.447-3.838-1.827-5.351-.39-1.553-1.293-3.644-2.072-4.8-.759-1.127-1.834-2.949-2.388-4.049-.554-1.1-1.75-2.847-2.658-3.882-5.884-6.712-7.43-8.325-8.912-9.296-.915-.6-2.085-1.543-2.6-2.096-.516-.554-2.018-1.549-3.338-2.213a76.111 76.111 0 0 1-4.62-2.568c-1.221-.748-3.831-1.794-5.8-2.324-1.969-.53-4.469-1.36-5.556-1.845C3.777 129.729 0 129.604 0 130.945c0 .826.196 1.056.9 1.06.495.003 1.98.341 3.3.752 1.32.41 4.38 1.152 6.8 1.648 3.538.726 4.635 1.122 5.6 2.022.66.616 2.37 1.611 3.8 2.211 1.43.601 3.32 1.774 4.2 2.607.88.834 2.216 1.773 2.968 2.088.753.315 1.84 1.266 2.416 2.114.576.848 1.663 1.957 2.415 2.464.751.506 1.6 1.475 1.884 2.152.285.678 1.242 1.934 2.127 2.793.885.859 2.23 2.837 2.989 4.397.759 1.56 1.812 3.236 2.341 3.726.676.627 1.169 1.831 1.661 4.056.982 4.443 1.764 6.948 2.66 8.515.424.743.941 2.723 1.149 4.4.763 6.168 1.56 8.002 3.854 8.875 1.39.528 49.018.475 51.336-.058 4.864-1.117 4.874-1.186 4.722-31.46L107 130.815l-1.21-1.21c-1.215-1.214-5.496-2.405-8.65-2.405-.655 0-2.304-.53-3.665-1.177-1.361-.648-4.455-1.659-6.875-2.248-3.567-.868-4.665-1.314-5.8-2.357-.77-.708-2.517-1.757-3.882-2.333-1.435-.605-3.143-1.728-4.052-2.665-.864-.89-2.125-1.852-2.803-2.137-.677-.284-1.648-1.135-2.157-1.891-.509-.755-1.551-1.793-2.316-2.307-.764-.514-1.792-1.721-2.284-2.683-.492-.961-1.289-2.025-1.772-2.364-.493-.344-1.175-1.573-1.553-2.794l-.674-2.179 1.439-.933c.792-.512 1.868-1.708 2.391-2.657.523-.949 1.53-2.105 2.238-2.569.708-.464 1.677-1.439 2.154-2.165.476-.727 1.57-1.681 2.431-2.121.86-.439 1.987-1.324 2.502-1.968.516-.643 2.378-1.914 4.138-2.825 1.76-.911 3.766-2.069 4.458-2.573.692-.505 2.852-1.335 4.8-1.846 1.948-.51 4.442-1.352 5.542-1.87 1.1-.518 3.26-1.131 4.8-1.361 10.125-1.516 10.44-1.787 11.578-9.944.427-3.059 1.016-5.396 1.826-7.242.658-1.499 1.196-2.964 1.196-3.257 0-1.21 2.142-6.842 2.985-7.848.5-.597 1.564-2.387 2.363-3.977.799-1.59 1.912-3.192 2.473-3.56.561-.367 1.307-1.226 1.659-1.908.73-1.419 6.261-6.844 8.197-8.041 1.025-.634 2.037-1.939 2.565-3.308.109-.284 4.855 2.331 5.476 3.017.388.429 1.386 1.087 2.217 1.462.888.4 1.804 1.225 2.222 2 .39.726 1.398 1.706 2.239 2.179.924.519 1.693 1.329 1.943 2.046.227.653 1.233 2.064 2.235 3.134 1.001 1.071 2.355 3.127 3.009 4.568.654 1.442 1.668 2.999 2.255 3.46.902.71 1.241 1.615 2.203 5.886.625 2.776 1.57 5.792 2.101 6.702.649 1.113 1.117 2.832 1.431 5.254 1.012 7.798 1.425 8.245 8.277 8.958 3.571.372 5.226.74 6.667 1.481 1.054.542 3.034 1.264 4.4 1.603 3.86.959 6.789 2.126 7.883 3.142.55.51 2.08 1.431 3.4 2.046 1.32.616 3.3 1.957 4.4 2.982 1.1 1.024 2.556 2.182 3.235 2.573.679.391 1.569 1.332 1.978 2.091.409.76 1.238 1.733 1.841 2.163.604.43 1.948 2.082 2.988 3.671 1.039 1.59 2.22 3.262 2.625 3.718.405.455 1.459 2.705 2.342 5 .884 2.294 1.868 4.712 2.187 5.372 2.063 4.257 3.142 15.956 2.196 23.81-.926 7.687-4.611 18.117-7.717 21.837-.529.634-1.279 1.771-1.666 2.525-.636 1.24-2.411 3.275-5.524 6.333-3.981 3.911-5.002 4.802-5.964 5.206-.593.249-1.763 1.052-2.6 1.784-.836.733-2.511 1.761-3.721 2.286-1.21.525-3.46 1.539-5 2.253-3.03 1.404-8.011 2.653-13.4 3.36-6.883.903-8.034 2.086-8.829 9.075-.237 2.08-.739 3.997-1.38 5.273-.554 1.103-1.518 4.074-2.144 6.601-.866 3.504-1.395 4.865-2.224 5.727-.599.621-1.667 2.416-2.374 3.987-.743 1.65-1.835 3.32-2.585 3.951-.715.601-1.653 1.786-2.085 2.634-.433.848-1.338 1.826-2.011 2.175-.673.348-1.594 1.259-2.046 2.025-.452.766-1.496 1.737-2.321 2.158-.825.421-1.992 1.349-2.593 2.064-.627.745-2.311 1.85-3.951 2.592-1.571.712-3.438 1.827-4.149 2.477-.957.876-2.097 1.356-4.4 1.851-4.084.879-5.529 1.336-7.761 2.454-1.104.553-3.247 1.101-5.305 1.357-7.015.872-8.212 1.982-9.056 8.405-.756 5.748-1.976 10.879-3.186 13.396a220.897 220.897 0 0 0-2.37 5.143c-.668 1.506-1.755 3.353-2.415 4.105-.66.752-1.5 1.949-1.866 2.661-.611 1.188-1.63 2.347-5.264 5.98-3.665 3.665-4.801 4.658-6.085 5.319-.77.396-2.049 1.241-2.843 1.879-9.49 7.625-34.296 10.287-46.4 4.979a901.733 901.733 0 0 0-4.757-2.063c-3.739-1.606-9.398-5.266-11.855-7.668-1.165-1.137-2.474-2.182-2.911-2.32-.436-.139-.902-.595-1.035-1.015-.134-.42-1.289-1.918-2.568-3.33-1.302-1.436-2.894-3.776-3.618-5.316C2.507 263.641 0 262.521 0 266.4c0 1.935.037 2 1.146 2 1.006 0 1.368.378 2.965 3.1 2.009 3.424 8.361 10.434 11.137 12.291a63.455 63.455 0 0 1 3.357 2.44c4.75 3.751 15.731 7.873 24.4 9.161 18.297 2.716 38.824-6.032 50.55-21.544 2.384-3.153 3.604-5.176 6.748-11.19 1.011-1.933 3.622-11.563 4.317-15.924.575-3.602.809-4.275 1.817-5.226 1.303-1.229 1.355-1.244 7.239-2.031 2.534-.339 4.918-.906 5.85-1.392.865-.45 3.351-1.371 5.523-2.046 2.173-.675 4.761-1.779 5.751-2.455.99-.675 2.7-1.693 3.8-2.263 5.014-2.596 14.081-11.846 17.165-17.512.836-1.534 1.86-3.223 2.276-3.752.417-.53 1.314-2.784 1.994-5.01.68-2.226 1.46-4.407 1.734-4.847.915-1.469 1.38-3.35 1.851-7.491.48-4.223 1.501-6.922 2.751-7.28.346-.099 2.069-.382 3.829-.628 3.647-.511 14.101-3.345 16.2-4.392 27.196-13.565 38.837-39.014 30.742-67.209-3.024-10.535-12.898-24.19-20.717-28.654a121.236 121.236 0 0 1-4.268-2.604c-2.209-1.412-9.116-4.311-13.757-5.774-.99-.312-4.128-.843-6.974-1.18-6.558-.777-7.084-1.31-7.646-7.743-.329-3.756-.947-6.361-2.019-8.501-.512-1.021-1.234-3.091-1.605-4.6-.702-2.852-1.843-5.504-2.56-5.947-.229-.141-1.031-1.478-1.783-2.971-1.927-3.826-9.143-12.02-13.302-15.104-.814-.604-1.435-1.643-1.985-3.32l-.801-2.442.931-.732c.512-.403 2.374-1.314 4.137-2.025 1.764-.711 3.207-1.429 3.207-1.595 0-1.516-14.955-2.212-20.3-.945m221.971-.08c-3.381.819-3.335 1.194.304 2.474 1.787.629 3.727 1.521 4.31 1.983l1.06.841-.665 2.359c-.524 1.856-.988 2.609-2.173 3.526-.829.641-4.071 3.75-7.204 6.91l-5.697 5.744-1.53-.781c-.841-.429-1.765-1.064-2.052-1.41-.287-.346-.947-.629-1.467-.629-4.41 0-5.235 10.217-.999 12.379l1.531.781 1.112-1.161c2.672-2.789 2.897-2.698 9.182 3.716 3.09 3.152 6.382 6.403 7.317 7.224 3.192 2.804 2.399 6.782-1.828 9.168l-2.262 1.277 2.195.52c2.573.61 14.798.464 16.395-.196l1-.414-1.359-.747c-3.4-1.869-4.041-2.778-4.041-5.731v-2.702l4.388-3.957c2.414-2.176 5.037-4.89 5.83-6.029.901-1.295 2.411-2.704 4.026-3.757 3.077-2.005 3.234-1.915 4.581 2.629 2.036 6.869 2.316 7.218 3.442 4.3 1.66-4.302.786-23.7-1.067-23.7-.377 0-1.157 2.059-2.369 6.252-.454 1.568-1.142 3.243-1.53 3.722l-.705.871-1.598-1.337c-.879-.735-2.073-1.636-2.653-2.002-.58-.366-1.472-1.349-1.983-2.186-1.137-1.861-5.978-6.707-8.254-8.262-1.305-.891-1.819-1.593-2.343-3.2-.369-1.132-.834-2.265-1.035-2.519-.524-.665 1.563-2.031 5.151-3.369 4.27-1.593 4.279-1.626.718-2.553-2.984-.778-14.564-.799-17.728-.034m-208.499.991c1.314.832-5.308 1.311-8.372.606-1.347-.31-1.362-.333-.4-.611 1.46-.422 8.103-.418 8.772.005M359.2 20c.33.213.457.391.283.394-.174.003-1.634.278-3.245.611-2.608.539-3.054.539-4.083.002-.635-.331-1.605-.621-2.155-.644l-1-.043 1-.32c1.436-.46 8.488-.46 9.2 0m-2.409 10c.164 0 .999.561 1.854 1.248.855.686 2.02 1.413 2.589 1.616.572.204 1.323.975 1.683 1.73.372.78 1.337 1.757 2.257 2.284.885.507 1.82 1.431 2.078 2.052.708 1.702 3.186 4.532 5.473 6.25l2.036 1.53-2.314 1.429c-1.98 1.222-5.247 4.621-5.247 5.459 0 .492-9.103 8.49-10.652 9.359-.842.473-1.916 1.544-2.385 2.38l-.853 1.522-.444-1.764c-.465-1.843-1.894-3.578-3.729-4.528-.594-.307-1.195-.92-1.335-1.362-.141-.442-1.056-1.354-2.035-2.028-.979-.673-2.082-1.708-2.451-2.3-2.854-4.571-6.964-7.443-10.129-7.076-2.043.238-2.37.177-2.735-.504-.722-1.348.446-2.528 2.048-2.068 2.777.796 3.388.552 6.512-2.602 1.619-1.635 3.406-3.705 3.971-4.6.565-.895 1.197-1.627 1.405-1.627.208 0 1.445-1.035 2.749-2.3 1.303-1.265 2.941-2.727 3.64-3.25.698-.522 1.555-1.663 1.904-2.536l.635-1.586 1.588 1.636c.873.9 1.723 1.636 1.887 1.636m24.018 10.663c.598 4.21.043 14.537-.781 14.537-.155 0-.599-1.346-.987-2.991-.388-1.646-1.114-3.594-1.614-4.33-.873-1.287-.881-1.373-.205-2.206.386-.477 1.115-2.579 1.619-4.67 1.127-4.678 1.347-4.716 1.968-.34M296 75.069c-1.405.224-4.427 1.348-5.516 2.052-.915.592-.914.594.8 1.358.944.42 2.383 1.413 3.198 2.206l1.481 1.442-1.933 2.313c-1.063 1.273-2.99 3.194-4.281 4.269-2.518 2.096-4.096 3.778-5.915 6.305-.65.901-2.23 2.214-3.663 3.04l-2.521 1.455-1.008-2.055c-.555-1.13-1.421-3.464-1.925-5.187-1.105-3.775-1.484-3.938-2.48-1.067-1.621 4.679-1.298 18.559.528 22.6l.722 1.6 1.31-4.2c.72-2.31 1.645-4.868 2.056-5.684.411-.816.747-1.896.748-2.4 0-.781.103-.713.7.457.44.865 1.404 1.752 2.605 2.4 1.08.582 2.47 1.808 3.205 2.827 1.6 2.217 5.301 6.02 6.807 6.993.614.397 2.186 2.04 3.492 3.652l2.376 2.93-1.7.996c-.935.548-3.117 1.496-4.849 2.106l-3.149 1.11 1.979.898c3.896 1.768 13.919 1.939 19.216.328 3.001-.913 2.899-1.167-1.033-2.573-1.975-.707-3.941-1.698-4.458-2.249l-.925-.984 1.775-2.287c.976-1.257 2.699-3.039 3.829-3.96 1.13-.921 3.59-3.334 5.467-5.363 4.811-5.198 4.628-5.103 7.318-3.787 4.632 2.266 6.544.843 6.544-4.872 0-5.722-1.686-6.936-6.542-4.713-2.742 1.255-2.561 1.347-7.025-3.567-1.945-2.141-4.188-4.38-4.985-4.975-6.224-4.654-6.678-7.27-1.694-9.771l1.953-.981-1.376-.85c-2.642-1.633-7.402-2.408-11.131-1.812m5.165 2.179c1.283.447 1.284.449.51 1.3-.426.469-.989 1.267-1.251 1.773l-.475.922-.811-1.03c-.445-.567-1.465-1.367-2.265-1.777l-1.454-.746 2.191-.398c1.204-.218 2.208-.418 2.23-.444.022-.027.619.154 1.325.4m3.004 10.433c4.145 3.951 4.379 4.186 8.755 8.772l3.676 3.854-.525 2.093c-.347 1.385-.906 2.414-1.654 3.044-.621.522-2.404 2.451-3.961 4.285-1.557 1.835-3.921 4.129-5.252 5.098-1.349.982-3.044 2.701-3.827 3.88l-1.406 2.118-1.655-1.313c-.91-.721-2.3-1.968-3.088-2.77-.787-.802-2.096-1.792-2.907-2.2-.811-.408-1.895-1.368-2.409-2.132-.514-.765-1.561-1.812-2.326-2.326-.764-.514-1.726-1.647-2.137-2.516-.412-.87-1.262-1.947-1.89-2.395-.703-.5-1.309-1.431-1.575-2.418-.238-.883-.522-1.84-.633-2.127-.116-.302.407-.881 1.239-1.371.791-.467 1.746-1.419 2.122-2.116.763-1.413 6.668-7.541 7.267-7.541.21 0 1.374-.945 2.585-2.1 1.211-1.155 2.884-2.681 3.717-3.39l1.515-1.291.569.891c.312.489 2.022 2.276 3.8 3.971m-29.147 10.855c.706 2.146.617 3.27-.695 8.813-.694 2.929-.915 3.418-1.265 2.8-.66-1.166-.854-12.663-.258-15.309l.505-2.24.538 2c.296 1.1.824 2.871 1.175 3.936M51.966 97.333c.855 3.119.281 10.554-.907 11.742-.374.374-.692-7.418-.436-10.689.311-3.975.501-4.124 1.343-1.053M300.892 124.4c.473.44 1.749 1.132 2.835 1.538 1.533.571 1.814.799 1.251 1.015-1.55.595-7.998.746-10.378.242l-2.4-.507 3.379-1.143c1.859-.629 3.56-1.324 3.78-1.544.53-.53.539-.527 1.533.399m18.708 61.473c-12.101 1.252-27.503 9.474-34.438 18.386-.969 1.245-2.324 2.911-3.011 3.702-.687.792-1.808 2.551-2.491 3.91s-1.446 2.597-1.696 2.751c-.656.406-2.169 4.021-2.752 6.578-.276 1.21-1.097 3.55-1.825 5.2-1.04 2.359-1.414 3.917-1.747 7.293-.619 6.263-.742 6.382-7.314 7.08-3.099.329-4.967.763-6.8 1.582-1.389.62-3.763 1.432-5.275 1.803-2.793.686-5.521 1.87-6.707 2.91-.36.317-1.737 1.151-3.059 1.854-13.234 7.037-23.955 23.889-25.877 40.678-.504 4.4-3.109 6.676-8.307 7.258-15.461 1.73-32.541 12.806-39.313 25.494-.667 1.249-1.673 2.896-2.236 3.659-1.212 1.643-1.61 2.63-2.954 7.318-.556 1.941-1.366 4.225-1.8 5.076-.51.999-.964 3.186-1.281 6.18-.652 6.133-1.049 6.572-6.394 7.061-4.731.433-5.715.65-7.923 1.747-.99.492-3.51 1.377-5.6 1.966-2.353.663-4.574 1.598-5.832 2.457a54.325 54.325 0 0 1-4.076 2.486c-5.165 2.775-12.296 9.739-16.465 16.08-5.579 8.484-10.373 23.618-7.482 23.618.849 0 .971-.227 1.207-2.228.144-1.226.706-3.284 1.249-4.575.543-1.29 1.435-3.89 1.982-5.776 1.121-3.869 1.182-4.003 3.23-7.027.817-1.207 1.803-2.924 2.189-3.817.387-.893 1.171-1.929 1.742-2.304.572-.374 1.335-1.252 1.696-1.951.81-1.566 5.254-5.992 7.336-7.307.846-.534 1.899-1.476 2.341-2.093.477-.666 1.601-1.402 2.769-1.812 1.082-.38 2.585-1.139 3.341-1.687.755-.548 1.774-1.291 2.264-1.65.49-.359 2.584-.981 4.653-1.382 2.069-.401 5.088-1.276 6.709-1.945 1.651-.682 4.283-1.379 5.987-1.585 4.763-.577 5.623-1.394 6.173-5.861.162-1.32.814-3.75 1.449-5.4.635-1.65 1.513-4.749 1.951-6.887.891-4.347 1.332-5.708 1.979-6.108.751-.464 2.313-3.195 2.847-4.978.327-1.091.992-2.068 1.859-2.729.742-.566 1.605-1.524 1.918-2.129.707-1.367 5.457-6.223 7.332-7.495.766-.52 1.731-1.376 2.145-1.901.413-.525 1.506-1.291 2.429-1.702.923-.411 2.832-1.496 4.243-2.411 1.411-.916 4.201-2.191 6.2-2.834 1.999-.644 4.445-1.527 5.435-1.963.99-.436 3.24-1.001 5-1.256 9.826-1.419 11.283-2.617 12.185-10.023.473-3.877.872-5.368 3.319-12.384 1.186-3.401 2.408-6.008 3.82-8.151 1.142-1.734 2.076-3.383 2.076-3.665 0-.282.534-.962 1.187-1.512.653-.549 1.603-1.611 2.11-2.358 1.254-1.848 6.116-6.597 7.472-7.298.605-.313 1.568-1.183 2.141-1.934.7-.917 1.612-1.524 2.783-1.852 1.573-.441 3.193-1.341 5.96-3.315.528-.376 2.757-1.041 4.953-1.478 2.197-.436 5.254-1.276 6.794-1.865 1.54-.59 3.957-1.241 5.37-1.448 4.7-.688 5.416-1.457 6.07-6.515.199-1.535.915-4.121 1.592-5.747.677-1.626 1.558-4.649 1.959-6.718s1.023-4.163 1.382-4.653c.359-.49 1.102-1.509 1.65-2.264.548-.756 1.307-2.259 1.687-3.341.41-1.168 1.146-2.292 1.812-2.769.617-.442 1.559-1.495 2.093-2.341 1.315-2.082 5.741-6.526 7.307-7.336.699-.361 1.564-1.104 1.922-1.651.358-.546 1.767-1.526 3.13-2.177 1.364-.65 3.171-1.732 4.016-2.404.937-.744 2.877-1.612 4.973-2.225 1.89-.552 4.337-1.376 5.437-1.831 7.559-3.125 23.026-3.311 29-.349.77.382 3.11 1.189 5.2 1.794 2.543.737 4.679 1.681 6.458 2.855 1.462.965 3.312 2.027 4.112 2.361.799.334 1.853 1.071 2.341 1.637.489.567 1.834 1.66 2.989 2.429 1.155.769 2.1 1.565 2.1 1.769 0 .203.987 1.401 2.193 2.661a7429.55 7429.55 0 0 1 3.829 4.004c.899.941 1.894 2.471 2.21 3.4.317.928 1.258 2.588 2.091 3.689 1.84 2.43 1.973 2.76 2.731 6.798.33 1.76 1.124 4.318 1.765 5.684 2.19 4.669 2.1 1.132 2.259 89.216.095 52.437.289 82.1.536 82.1.553 0 .523-163.51-.032-168.01-.264-2.144-.83-4.279-1.541-5.809-.617-1.33-1.543-4.01-2.057-5.955-.692-2.62-1.434-4.274-2.859-6.377-1.059-1.561-1.925-3.034-1.925-3.272s-.604-1.14-1.343-2.005a215.17 215.17 0 0 1-3.367-4.096c-10.68-13.322-29.76-20.582-48.89-18.603m-46.892 108.155c-1.416.825-2.67 3.73-3.275 7.584-.337 2.15-1.025 4.662-1.591 5.809-.549 1.112-1.428 3.934-1.955 6.273-.746 3.317-1.216 4.547-2.135 5.594-.648.738-1.796 2.714-2.55 4.391-.901 2.001-1.744 3.269-2.453 3.687-.594.351-1.466 1.436-1.938 2.41-.513 1.061-1.414 2.101-2.243 2.59-.762.449-1.753 1.44-2.202 2.202-.489.829-1.529 1.73-2.59 2.243-.974.472-2.059 1.344-2.41 1.938-.418.709-1.686 1.552-3.687 2.453-1.677.754-3.642 1.893-4.367 2.529-1.009.886-2.415 1.427-5.995 2.306-2.573.632-5.586 1.592-6.697 2.133-1.206.588-3.376 1.155-5.385 1.408-3.536.444-6.438 1.732-7.228 3.208-.263.492-.407 8.989-.407 23.988V400h2.4v-23.2c0-22.991.008-23.208.835-24.035 1.204-1.204 3.27-1.965 5.332-1.965 2.67 0 5.716-.706 8.633-2.001 1.43-.634 3.838-1.462 5.351-1.838 1.568-.39 3.632-1.278 4.8-2.065 1.127-.76 3.129-1.927 4.449-2.594 4.904-2.478 14.424-11.998 16.902-16.902.667-1.32 1.834-3.322 2.594-4.449.78-1.157 1.682-3.246 2.072-4.8.38-1.513 1.202-3.921 1.827-5.351 1.238-2.833 2.005-6.329 2.005-9.138 0-2.5 1.537-5.069 3.236-5.409.695-.139 11.836-.253 24.758-.253h23.494l1.556 1.037c3.239 2.16 2.937-3.259 2.947 52.863l.009 50.1h2.4v-50.074c0-49.544-.009-50.091-.814-51.755-.814-1.682-2.794-3.354-4.912-4.149-1.515-.568-49.79-.563-50.766.006" fill="#515151"/><path d="M122.4 16.786c-4.468.565-9.2 2.22-9.2 3.216 0 1.049 3.745 2.703 9.054 4 2.779.679 2.814 6.264.04 6.385-.436.019-6.368 6.015-7.142 7.219-.356.553-1.481 1.982-2.499 3.175-1.019 1.194-2.225 3.171-2.68 4.395-.456 1.223-1.256 2.674-1.78 3.224-1.193 1.255-1.913 2.969-2.948 7.024-.449 1.757-1.11 3.784-1.47 4.505-.576 1.156-.869 2.587-1.641 8.031-.313 2.211-2.067 3.64-4.468 3.64-1.097 0-3.136.366-4.53.814-1.395.448-4.179 1.242-6.188 1.765-3.848 1.002-5.827 1.843-7.148 3.039-.44.398-1.842 1.113-3.116 1.588-1.273.475-3.097 1.539-4.052 2.366-.954.826-2.555 2.026-3.556 2.665-1.001.64-2.024 1.523-2.272 1.963-.249.44-1.26 1.413-2.248 2.162-.987.749-2.434 2.324-3.215 3.5-1.479 2.229-1.397 2.191-5.015 2.309-.787.026-.984-.423-1.984-4.527-.675-2.771-1.527-5.187-2.176-6.167l-1.065-1.61-.923 1.528c-3.698 6.129-3.426 33.266.385 38.412 1.063 1.435 2.671-1.926 4.181-8.737.937-4.226.613-3.875 3.102-3.359 1.67.347 2.168.653 2.716 1.671.369.685 1.969 2.449 3.555 3.919a275.971 275.971 0 0 1 4.518 4.279c.899.884 2.429 1.961 3.4 2.393.971.432 1.973 1.126 2.228 1.542.546.892 4.275 2.732 6.588 3.252.894.201 2.033.748 2.531 1.216 1.952 1.834 7.024 2.955 15.006 3.318l2.187.099.688 2.2c.615 1.965.691 4.57.713 24.425L102 179.85l-1.122 1.075L99.756 182l-22.178-.024c-19.81-.022-22.413-.098-24.378-.713l-2.2-.688-.096-2.187c-.332-7.556-1.57-12.963-3.492-15.247-.557-.661-1.012-1.542-1.012-1.957 0-1.497-1.755-5.4-2.958-6.579-.677-.663-1.553-1.912-1.948-2.775-.395-.864-1.438-2.304-2.319-3.2-.881-.897-2.81-2.946-4.288-4.555-1.478-1.608-3.227-3.202-3.887-3.542-.66-.34-1.839-1.303-2.62-2.139-.859-.92-2.052-1.69-3.019-1.951-.88-.236-2.131-.988-2.78-1.669-1.379-1.447-2.925-2.158-6.493-2.985-1.459-.339-3.099-1.032-3.763-1.591-1.522-1.28-4.45-2.084-8.825-2.422l-3.5-.271v1.193c0 1.176.035 1.195 2.524 1.395 1.389.112 3.414.599 4.5 1.083 1.087.485 3.587 1.315 5.556 1.845 1.969.53 4.579 1.576 5.8 2.324 1.221.749 3.3 1.904 4.62 2.568 1.32.664 2.822 1.659 3.338 2.213.515.553 1.685 1.496 2.6 2.096 1.482.971 3.028 2.584 8.912 9.296.908 1.035 2.104 2.782 2.658 3.882.554 1.1 1.629 2.922 2.388 4.049.779 1.156 1.682 3.247 2.072 4.8.38 1.513 1.202 3.921 1.827 5.351 1.194 2.732 2.005 6.316 2.005 8.858 0 2.359 1.49 5.92 2.664 6.366.577.22 11.109.376 25.303.376h24.315l1.359-.908c2.849-1.904 2.758-1.006 2.754-27.092-.005-29.926.599-27.684-7.661-28.447-1.907-.176-4.517-.702-5.8-1.169a445.842 445.842 0 0 0-6.534-2.276c-2.31-.785-5.037-2.033-6.06-2.773-1.023-.74-2.733-1.731-3.8-2.203-2.934-1.298-11.683-9.042-13.591-12.03-1.148-1.797-6.03-4.306-6.635-3.409-.877 1.296-1.626 2.963-2.513 5.583-1.31 3.871-1.608 4.054-2.402 1.474-1.379-4.483-1.238-16.394.249-21.054.555-1.736.921-1.401 1.976 1.808 1.013 3.081 2.167 5.519 2.796 5.908 1.014.627 5.188-1.48 6.389-3.225 4.112-5.977 14.801-13.84 22.962-16.892 6.337-2.37 8.212-2.886 12.167-3.345 6.684-.777 8.45-2.304 9.051-7.821 1.531-14.073 10.306-29.481 21.183-37.193.87-.617 1.345-1.461 1.84-3.27.835-3.05.523-3.43-4.312-5.276-1.815-.693-3.3-1.41-3.3-1.593 0-1.495 15.897-2.228 20.474-.944 3.004.843 2.948 1.007-.881 2.55-1.763.711-3.625 1.622-4.137 2.025l-.931.732.801 2.442c.55 1.677 1.171 2.716 1.985 3.32 4.159 3.084 11.375 11.278 13.302 15.104.752 1.493 1.554 2.83 1.783 2.971.717.443 1.858 3.095 2.56 5.947.371 1.509 1.093 3.579 1.605 4.6 1.072 2.14 1.69 4.745 2.019 8.501.562 6.433 1.088 6.966 7.646 7.743 2.846.337 5.984.868 6.974 1.18 4.641 1.463 11.548 4.362 13.757 5.774 1.343.86 3.264 2.031 4.268 2.604 7.819 4.464 17.693 18.119 20.717 28.654 8.095 28.195-3.546 53.644-30.742 67.209-2.099 1.047-12.553 3.881-16.2 4.392-1.76.246-3.483.529-3.829.628-1.25.358-2.271 3.057-2.751 7.28-.471 4.141-.936 6.022-1.851 7.491-.274.44-1.054 2.621-1.734 4.847-.68 2.226-1.577 4.48-1.994 5.01-.416.529-1.44 2.218-2.276 3.752-3.084 5.666-12.151 14.916-17.165 17.512-1.1.57-2.81 1.588-3.8 2.263-.99.676-3.578 1.78-5.751 2.455-2.172.675-4.658 1.596-5.523 2.046-.932.486-3.316 1.053-5.85 1.392-5.884.787-5.936.802-7.239 2.031-1.008.951-1.242 1.624-1.817 5.226-.695 4.361-3.306 13.991-4.317 15.924-3.144 6.014-4.364 8.037-6.748 11.19-11.726 15.512-32.253 24.26-50.55 21.544-8.669-1.288-19.65-5.41-24.4-9.161a63.455 63.455 0 0 0-3.357-2.44c-2.776-1.857-9.128-8.867-11.137-12.291-1.597-2.722-1.959-3.1-2.965-3.1H0v5.6h1.151c.91 0 1.259.259 1.663 1.234.531 1.282 9.658 10.766 10.36 10.766.22 0 1.289.79 2.376 1.756 1.13 1.003 2.862 2.049 4.042 2.441 1.136.378 2.16.934 2.276 1.237.356.926 2.583 2.066 5.732 2.936 1.65.456 4.26 1.463 5.8 2.239 6.155 3.1 28.247 2.873 32.904-.337.823-.567 2.396-1.226 3.496-1.465 3.74-.81 5.784-1.661 6.695-2.788.535-.661 1.755-1.395 2.982-1.794 1.349-.438 2.93-1.435 4.509-2.844 1.337-1.193 2.946-2.435 3.574-2.761.629-.325 1.513-1.216 1.964-1.981.451-.764 1.369-1.674 2.041-2.021.672-.347 1.497-1.165 1.834-1.816.337-.652 1.592-2.283 2.79-3.625 1.328-1.489 2.505-3.316 3.018-4.688.463-1.236 1.191-2.493 1.619-2.792 1.12-.785 1.804-2.297 2.74-6.058.494-1.982 1.217-3.778 1.8-4.472 1.13-1.343 1.632-3.574 2.237-9.949.552-5.801.146-5.455 6.697-5.733 6.215-.264 9.165-.969 11.377-2.718.812-.642 1.692-1.167 1.956-1.167 1.629 0 5.931-1.719 6.941-2.773.626-.654 2.107-1.662 3.29-2.241 1.184-.579 3.183-2.026 4.444-3.216 1.261-1.19 2.605-2.267 2.988-2.393.382-.125 1.333-1.19 2.114-2.365.78-1.176 1.682-2.239 2.005-2.362.699-.269 3.785-4.936 3.785-5.724 0-.303.602-1.079 1.338-1.725 1.266-1.112 3.067-5.614 3.063-7.658 0-.362.278-.764.619-.895 1.754-.674 3.374-7.357 3.386-13.977.008-4.333-.214-4.155 5.803-4.666 6.167-.524 7.799-.906 10.191-2.387.99-.613 3.04-1.416 4.555-1.785 3.294-.801 4.545-1.41 5.742-2.795.494-.571 1.14-1.038 1.436-1.038 1.131 0 5.341-2.432 6.183-3.573.485-.656 1.681-1.66 2.657-2.232.976-.572 2.134-1.649 2.573-2.393.439-.744 1.347-1.637 2.019-1.984.672-.347 1.497-1.165 1.834-1.816.337-.652 1.602-2.294 2.812-3.65 1.548-1.734 2.381-3.09 2.813-4.574.376-1.295.969-2.344 1.535-2.714 1.186-.777 2.07-2.666 2.858-6.11.347-1.515 1.075-3.432 1.617-4.26 3.276-5.006 3.374-27.658.144-33.325-.637-1.116-1.429-3.203-1.762-4.637-.805-3.474-1.537-5.136-2.768-6.289-.562-.527-1.303-1.803-1.646-2.836-.343-1.033-1.179-2.402-1.858-3.042-.679-.641-1.694-1.884-2.256-2.763-1.44-2.252-8.97-9.623-10.779-10.55-.83-.426-1.924-1.219-2.431-1.763-.507-.543-2.127-1.494-3.6-2.112-1.473-.619-3.218-1.527-3.878-2.018-1.486-1.105-3.519-1.902-7.4-2.902-1.65-.425-4.119-1.152-5.487-1.615-1.368-.463-3.131-.842-3.918-.842-.787 0-2.576-.288-3.976-.64-2.928-.735-3.001-.859-3.021-5.16-.028-5.739-1.259-10.703-3.174-12.795-.405-.443-.933-1.746-1.174-2.896-.562-2.684-1.922-5.574-2.969-6.307-.451-.316-1.283-1.526-1.85-2.688-.714-1.465-1.425-2.298-2.314-2.714-.814-.381-1.37-.987-1.523-1.659-.276-1.221-5.259-6.444-7.012-7.35-1.277-.66-1.397-1.2-.772-3.45.39-1.406.51-1.484 3.297-2.157 2.972-.718 8.293-3.12 8.293-3.744 0-.434-4.373-2.278-6.8-2.868-2.236-.543-19.668-.833-23.2-.386m221.736 0c-3.773.429-7.242 1.583-9.307 3.097-.702.515 3.902 2.822 7.062 3.539 4.261.968 4.016.788 4.198 3.093.189 2.396-.062 2.851-2.162 3.922-.84.429-1.971 1.482-2.512 2.34-.542.858-1.529 1.882-2.194 2.274-.664.393-1.478 1.282-1.807 1.976-1.44 3.034-3.103 2.42-4.106-1.515-.296-1.162-.908-2.877-1.359-3.812l-.82-1.7h-4.641l-.789 1.7c-1.62 3.491-1.9 5.715-1.876 14.9.023 9.056.198 10.403 1.864 14.3l.812 1.9h4.745l.95-2.149c.523-1.181 1.07-2.786 1.216-3.566.147-.779.714-1.837 1.261-2.351l.995-.934 1.067 1.29c1.437 1.737 6.946 7.258 8.532 8.551l1.278 1.04-.784 1.36c-.567.985-1.661 1.81-3.971 2.995-4.314 2.214-6.184 4.011-5.021 4.826 6.069 4.251 29.654 3.914 35.576-.507.348-.261-2.817-3.069-4.588-4.071-6.228-3.523-7.101-4.529-4.774-5.502 1.29-.539 3.419-2.668 3.419-3.419 0-.207.638-.68 1.418-1.052 1.02-.487 1.665-1.215 2.298-2.594.484-1.054 1.075-1.917 1.314-1.917.239 0 1.27-.423 2.291-.94l1.857-.94.382 1.24c.211.682.595 2.59.855 4.24.259 1.65.793 3.81 1.186 4.8.393.99.936 2.385 1.205 3.1.701 1.857.901 1.685 2.313-2 3.04-7.932 3.04-27.868 0-35.8-1.412-3.685-1.612-3.857-2.313-2-.269.715-.814 2.11-1.21 3.1-.395.99-1.001 3.586-1.346 5.769-.659 4.168-1.054 5.053-1.933 4.335-.284-.232-1.283-.649-2.219-.927-1.479-.439-1.755-.703-2.109-2.019-.4-1.485-1.995-3.158-3.01-3.158-.282 0-.843-.675-1.246-1.5-.509-1.042-1.252-1.741-2.433-2.29-1.635-.759-1.7-.858-1.694-2.6.008-2.447.106-2.533 3.994-3.497 3.216-.798 8-3.003 8-3.688 0-.425-4.161-2.267-6.4-2.834-2.201-.557-19.498-.856-23.464-.405m19.263 2.231c3.561.927 3.552.96-.718 2.553-3.588 1.338-5.675 2.704-5.151 3.369.201.254.666 1.387 1.035 2.519.524 1.607 1.038 2.309 2.343 3.2 2.276 1.555 7.117 6.401 8.254 8.262.511.837 1.403 1.82 1.983 2.186.58.366 1.774 1.267 2.653 2.002l1.598 1.337.705-.871c.388-.479 1.076-2.154 1.53-3.722 1.212-4.193 1.992-6.252 2.369-6.252 1.853 0 2.727 19.398 1.067 23.7-1.126 2.918-1.406 2.569-3.442-4.3-1.347-4.544-1.504-4.634-4.581-2.629-1.615 1.053-3.125 2.462-4.026 3.757-.793 1.139-3.416 3.853-5.83 6.029l-4.388 3.957v2.702c0 2.953.641 3.862 4.041 5.731l1.359.747-1 .414c-1.597.66-13.822.806-16.395.196l-2.195-.52 2.262-1.277c4.227-2.386 5.02-6.364 1.828-9.168-.935-.821-4.227-4.072-7.317-7.224-6.285-6.414-6.51-6.505-9.182-3.716l-1.112 1.161-1.531-.781c-4.236-2.162-3.411-12.379.999-12.379.52 0 1.18.283 1.467.629.287.346 1.211.981 2.052 1.41l1.53.781 5.697-5.744c3.133-3.16 6.375-6.269 7.204-6.91 1.185-.917 1.649-1.67 2.173-3.526l.665-2.359-1.06-.841c-.583-.462-2.523-1.354-4.31-1.983-3.639-1.28-3.685-1.655-.304-2.474 3.164-.765 14.744-.744 17.728.034m-74.156 52.794c-3.171.885-5.127 2.132-6.636 4.232l-1.34 1.866 1.866 1c1.027.55 3.217 1.328 4.867 1.729 4.466 1.085 4.859 1.55 2.604 3.081-.767.522-1.927 1.683-2.578 2.581-.65.898-1.564 1.753-2.032 1.902-.467.148-1.478 1.252-2.246 2.453-.8 1.25-1.856 2.358-2.471 2.592-.59.224-1.638.839-2.329 1.365l-1.255.958-.69-3.685c-.909-4.849-1.703-7.635-2.785-9.768l-.886-1.747-1.233 2.715c-3.591 7.908-3.349 31.936.39 38.587l.835 1.486.8-1.479c1.152-2.128 3.476-11.179 3.476-13.537 0-.169 2.103.838 3.501 1.677.716.43 1.397 1.077 1.514 1.439.206.64 3.465 4.089 6.936 7.342 3.718 3.484 3.597 3.863-1.574 4.936-2.077.431-4.935 1.307-6.35 1.947l-2.574 1.163 2.574 1.414c7.062 3.879 29.184 3.783 35.319-.154 1.216-.78 1.759-1.335 1.414-1.446-.308-.099-.972-.499-1.475-.889-.503-.391-2.303-1.016-4-1.391-1.697-.374-3.932-.94-4.968-1.257l-1.884-.576 1.184-1.634c.651-.898 1.183-1.872 1.183-2.165 0-.292.711-.894 1.58-1.338.868-.443 1.903-1.274 2.3-1.846.839-1.213 1.457-1.831 3.165-3.168.684-.536 1.512-1.526 1.839-2.201l.594-1.227 2.096 4.217c1.733 3.487 2.28 4.257 3.161 4.449.586.128 1.593.399 2.238.604 1.255.397 1.323.349 2.47-1.772 2.553-4.721 2.48-23.302-.114-29.133l-1.008-2.266-2.061.599c-2.296.669-3.161 1.534-4.021 4.025-.321.93-1.044 2.293-1.605 3.029l-1.021 1.339-5.789-5.804c-6.652-6.672-6.603-6.327-1.114-7.733 4.274-1.095 6.218-2.136 5.721-3.063-.773-1.446-3.095-3.338-5.62-4.582l-2.59-1.275-8.61-.096c-6.68-.075-9.095.038-10.768.505m14.15 3.604c1.299.338 2.98.998 3.738 1.466l1.376.85-1.953.981c-2.155 1.081-3.24 1.928-3.791 2.958-.412.769 2.893 4.875 5.485 6.813.797.595 3.04 2.834 4.985 4.975 4.464 4.914 4.283 4.822 7.025 3.567 4.856-2.223 6.542-1.009 6.542 4.713 0 5.715-1.912 7.138-6.544 4.872-2.69-1.316-2.507-1.411-7.318 3.787-1.877 2.029-4.337 4.442-5.467 5.363-1.13.921-2.853 2.703-3.829 3.96l-1.775 2.287.925.984c.517.551 2.483 1.542 4.458 2.249 3.932 1.406 4.034 1.66 1.033 2.573-5.297 1.611-15.32 1.44-19.216-.328l-1.979-.898 3.149-1.11c1.732-.61 3.914-1.558 4.849-2.106l1.7-.996-2.376-2.93c-1.306-1.612-2.878-3.255-3.492-3.652-1.506-.973-5.207-4.776-6.807-6.993-.735-1.019-2.125-2.245-3.205-2.827-1.201-.648-2.165-1.535-2.605-2.4-.597-1.17-.7-1.238-.7-.457-.001.504-.337 1.584-.748 2.4-.411.816-1.336 3.374-2.056 5.684l-1.31 4.2-.722-1.6c-1.826-4.041-2.149-17.921-.528-22.6.996-2.871 1.375-2.708 2.48 1.067.504 1.723 1.37 4.057 1.925 5.187l1.008 2.055 2.521-1.455c1.433-.826 3.013-2.139 3.663-3.04 1.819-2.527 3.397-4.209 5.915-6.305 1.291-1.075 3.218-2.996 4.281-4.269l1.933-2.313-1.481-1.442c-.815-.793-2.254-1.786-3.198-2.206-4.36-1.944 6.176-4.609 12.109-3.064M318.6 182.384c-1.54.183-3.61.638-4.6 1.011-.99.373-3.66 1.205-5.934 1.849-4.609 1.305-5.915 1.884-7.029 3.115-.419.463-.958.841-1.199.841-.894.001-5.266 2.319-6.038 3.202-.44.503-1.73 1.514-2.866 2.247-1.136.733-2.445 1.864-2.907 2.513-.463.65-1.449 1.557-2.192 2.016-.742.459-1.642 1.45-1.998 2.202-.357.751-1.29 1.963-2.074 2.693-1.595 1.487-3.135 3.953-3.531 5.658-.144.621-.946 1.791-1.781 2.6-1.327 1.284-1.608 1.898-2.228 4.869-.483 2.316-1.007 3.719-1.645 4.4-1.708 1.825-2.246 3.88-2.673 10.194-.501 7.433.043 6.865-6.812 7.106-6.146.216-8.5.786-10.287 2.49-.654.624-2.057 1.196-4.006 1.634-3.605.809-4.977 1.464-5.845 2.789-.359.548-1.126 1.107-1.704 1.242-1.707.399-5.114 2.476-5.814 3.545-.357.544-1.368 1.357-2.248 1.806-.88.449-2.14 1.561-2.8 2.473-.66.911-1.709 1.966-2.33 2.344-.622.378-1.618 1.519-2.213 2.535-.596 1.016-1.498 2.12-2.005 2.452-.999.654-2.665 3.513-3.412 5.855-.257.805-.721 1.561-1.03 1.68-.859.33-2.027 2.925-2.814 6.255-.391 1.65-1.11 3.81-1.598 4.8-1.076 2.183-1.787 5.36-1.787 7.989 0 2.871-1.383 4.411-3.962 4.411-2.817 0-6.374.755-8.422 1.787-.999.503-2.446 1.039-3.216 1.192-2.991.592-6.378 1.908-7.31 2.84-.537.537-1.761 1.253-2.72 1.592-2.344.826-5.023 2.429-5.309 3.174-.128.334-1.238 1.25-2.467 2.036s-2.418 1.834-2.643 2.328c-.226.494-1.108 1.33-1.962 1.858-.926.572-1.976 1.737-2.602 2.887-.577 1.061-1.483 2.212-2.013 2.56-1.069.7-3.374 4.465-3.374 5.511 0 .367-.702 1.335-1.56 2.151-1.607 1.529-2.137 2.731-2.833 6.429-.263 1.401-.813 2.611-1.583 3.489-1.682 1.916-2.074 3.618-2.313 10.059-.254 6.854.313 6.311-7.117 6.812-6.285.425-8.343.96-10.194 2.651-.636.581-2.309 1.224-4.6 1.766-3.052.724-3.783 1.059-4.8 2.207-.66.744-1.92 1.587-2.8 1.873-2.029.66-4.084 1.983-5.529 3.558-.621.676-1.744 1.522-2.494 1.878-.75.356-1.74 1.255-2.199 1.997-.459.743-1.378 1.738-2.043 2.211-.664.473-1.748 1.737-2.407 2.81-.66 1.072-1.514 2.173-1.898 2.446-1.005.717-2.666 3.436-3.236 5.298-.27.88-.909 2.05-1.421 2.6-1.187 1.275-1.901 3.001-2.963 7.159-.467 1.831-1.093 3.715-1.39 4.185-.618.978-1.42 4.525-1.42 6.276 0 1.132.073 1.18 1.8 1.18 1.724 0 1.8-.049 1.8-1.174 0-3.266 2.788-12.055 5.576-17.579 4.099-8.12 12.597-17.335 19.316-20.945a54.325 54.325 0 0 0 4.076-2.486c1.258-.859 3.479-1.794 5.832-2.457 2.09-.589 4.61-1.474 5.6-1.966 2.208-1.097 3.192-1.314 7.923-1.747 5.345-.489 5.742-.928 6.394-7.061.317-2.994.771-5.181 1.281-6.18.434-.851 1.244-3.135 1.8-5.076 1.344-4.688 1.742-5.675 2.954-7.318.563-.763 1.569-2.41 2.236-3.659 6.772-12.688 23.852-23.764 39.313-25.494 5.198-.582 7.803-2.858 8.307-7.258 1.922-16.789 12.643-33.641 25.877-40.678 1.322-.703 2.699-1.537 3.059-1.854 1.186-1.04 3.914-2.224 6.707-2.91 1.512-.371 3.886-1.183 5.275-1.803 1.833-.819 3.701-1.253 6.8-1.582 6.572-.698 6.695-.817 7.314-7.08.333-3.376.707-4.934 1.747-7.293.728-1.65 1.549-3.99 1.825-5.2.583-2.557 2.096-6.172 2.752-6.578.25-.154 1.013-1.392 1.696-2.751s1.804-3.118 2.491-3.91c.687-.791 2.042-2.457 3.011-3.702 19.228-24.706 63.44-24.591 83.328.217a215.17 215.17 0 0 0 3.367 4.096c.739.865 1.343 1.767 1.343 2.005s.866 1.711 1.925 3.272c1.425 2.103 2.167 3.757 2.859 6.377.514 1.945 1.44 4.625 2.057 5.955 1.967 4.236 1.959 3.849 1.959 91.509 0 82.284 0 82.31.807 82.31h.807l-.107-86.7c-.119-96.246.094-88.979-2.694-92.025-.667-.728-1.213-1.722-1.213-2.208 0-2.143-1.562-6.483-2.687-7.467-.629-.55-1.805-2.361-2.613-4.024-.885-1.823-1.857-3.232-2.446-3.547-.538-.288-1.453-1.395-2.032-2.46-.684-1.256-1.61-2.248-2.638-2.826-.871-.49-1.584-1.072-1.584-1.295 0-.578-2.057-2.648-2.632-2.648-.265 0-1.386-.813-2.491-1.807-1.105-.993-3.06-2.264-4.343-2.824-2.586-1.127-2.567-1.116-4.801-2.673-.94-.655-3.158-1.504-5.449-2.085-2.125-.539-4.363-1.235-4.974-1.547-2.819-1.439-15.546-2.283-22.31-1.48m-44.899 113.898c-1.324.255-2.901 3.18-2.901 5.38 0 2.809-.767 6.305-2.005 9.138-.625 1.43-1.447 3.838-1.827 5.351-.39 1.554-1.292 3.643-2.072 4.8-.76 1.127-1.927 3.129-2.594 4.449-2.478 4.904-11.998 14.424-16.902 16.902-1.32.667-3.322 1.834-4.449 2.594-1.168.787-3.232 1.675-4.8 2.065-1.513.376-3.921 1.204-5.351 1.838-2.917 1.295-5.963 2.001-8.633 2.001-2.062 0-4.128.761-5.332 1.965-.827.827-.835 1.044-.835 24.035V400h2.8v-23.373c0-22.117.039-23.385.717-23.601.394-.125 3.139-.389 6.1-.588 5.838-.391 8.63-1.165 10.807-2.997.681-.573 1.639-1.041 2.129-1.041 1.84 0 5.83-1.664 6.825-2.847.545-.648 1.736-1.441 2.648-1.762 3.473-1.226 14.539-12.292 15.765-15.765.321-.912 1.117-2.105 1.768-2.653 1.177-.99 2.026-2.989 2.824-6.648.225-1.032.832-2.332 1.349-2.889 1.545-1.668 2.315-4.769 2.653-10.691.172-3 .436-5.655.587-5.9.372-.602 48.73-.632 49.854-.031.759.406.774 1.392.774 50.6V400h3.2l-.009-50.1c-.01-56.122.292-50.703-2.947-52.863L322.288 296l-23.844.054c-13.114.03-24.249.133-24.743.228" fill="#acacac"/><path d="M0 63.753v63.752l3.5.271c4.375.338 7.303 1.142 8.825 2.422.664.559 2.304 1.252 3.763 1.591 3.568.827 5.114 1.538 6.493 2.985.649.681 1.9 1.433 2.78 1.669.967.261 2.16 1.031 3.019 1.951.781.836 1.96 1.799 2.62 2.139.66.34 2.409 1.934 3.887 3.542a241.522 241.522 0 0 0 4.288 4.555c.881.896 1.924 2.336 2.319 3.2.395.863 1.271 2.112 1.948 2.775 1.203 1.179 2.958 5.082 2.958 6.579 0 .415.455 1.296 1.012 1.957 1.922 2.284 3.16 7.691 3.492 15.247l.096 2.187 2.2.688c1.965.615 4.568.691 24.378.713l22.178.024 1.122-1.075L102 179.85l-.024-22.225c-.022-19.855-.098-22.46-.713-24.425l-.688-2.2-2.187-.099c-7.982-.363-13.054-1.484-15.006-3.318-.498-.468-1.637-1.015-2.531-1.216-2.313-.52-6.042-2.36-6.588-3.252-.255-.416-1.257-1.11-2.228-1.542-.971-.432-2.501-1.509-3.4-2.393a275.971 275.971 0 0 0-4.518-4.279c-1.586-1.47-3.186-3.234-3.555-3.919-.548-1.018-1.046-1.324-2.716-1.671-2.489-.516-2.165-.867-3.102 3.359-1.51 6.811-3.118 10.172-4.181 8.737-3.811-5.146-4.083-32.283-.385-38.412l.923-1.528 1.065 1.61c.649.98 1.501 3.396 2.176 6.167 1 4.104 1.197 4.553 1.984 4.527 3.618-.118 3.536-.08 5.015-2.309.781-1.176 2.228-2.751 3.215-3.5.988-.749 1.999-1.722 2.248-2.162.248-.44 1.271-1.323 2.272-1.963 1.001-.639 2.602-1.839 3.556-2.665.955-.827 2.779-1.891 4.052-2.366 1.274-.475 2.676-1.19 3.116-1.588 1.321-1.196 3.3-2.037 7.148-3.039 2.009-.523 4.793-1.317 6.188-1.765 1.394-.448 3.433-.814 4.53-.814 2.401 0 4.155-1.429 4.468-3.64.772-5.444 1.065-6.875 1.641-8.031.36-.721 1.021-2.748 1.47-4.505 1.035-4.055 1.755-5.769 2.948-7.024.524-.55 1.324-2.001 1.78-3.224.455-1.224 1.661-3.201 2.68-4.395 1.018-1.193 2.143-2.622 2.499-3.175.774-1.204 6.706-7.2 7.142-7.219 2.774-.121 2.739-5.706-.04-6.385-5.309-1.297-9.054-2.951-9.054-4 0-3.906 28.548-4.917 36.875-1.306 1.279.555 2.325 1.163 2.325 1.351 0 .618-5.337 3.023-8.293 3.737-2.787.673-2.907.751-3.297 2.157-.625 2.25-.505 2.79.772 3.45 1.753.906 6.736 6.129 7.012 7.35.153.672.709 1.278 1.523 1.659.889.416 1.6 1.249 2.314 2.714.567 1.162 1.399 2.372 1.85 2.688 1.047.733 2.407 3.623 2.969 6.307.241 1.15.769 2.453 1.174 2.896 1.915 2.092 3.146 7.056 3.174 12.795.02 4.301.093 4.425 3.021 5.16 1.4.352 3.189.64 3.976.64.787 0 2.55.379 3.918.842 1.368.463 3.837 1.19 5.487 1.615 3.881 1 5.914 1.797 7.4 2.902.66.491 2.405 1.399 3.878 2.018 1.473.618 3.093 1.569 3.6 2.112.507.544 1.601 1.337 2.431 1.763 1.809.927 9.339 8.298 10.779 10.55.562.879 1.577 2.122 2.256 2.763.679.64 1.515 2.009 1.858 3.042.343 1.033 1.084 2.309 1.646 2.836 1.231 1.153 1.963 2.815 2.768 6.289.333 1.434 1.125 3.521 1.762 4.637 3.23 5.667 3.132 28.319-.144 33.325-.542.828-1.27 2.745-1.617 4.26-.788 3.444-1.672 5.333-2.858 6.11-.566.37-1.159 1.419-1.535 2.714-.432 1.484-1.265 2.84-2.813 4.574-1.21 1.356-2.465 2.98-2.791 3.608-.325.629-1.216 1.513-1.981 1.964-.764.451-1.664 1.352-2.001 2.002-.336.65-1.428 1.661-2.425 2.245-.998.585-2.212 1.6-2.697 2.256-.842 1.141-5.052 3.573-6.183 3.573-.296 0-.942.467-1.436 1.038-1.197 1.385-2.448 1.994-5.742 2.795-1.515.369-3.565 1.172-4.555 1.785-2.392 1.481-4.024 1.863-10.191 2.387-6.017.511-5.795.333-5.803 4.666-.012 6.62-1.632 13.303-3.386 13.977-.341.131-.619.533-.619.895.004 2.044-1.797 6.546-3.063 7.658-.736.646-1.338 1.422-1.338 1.725 0 .788-3.086 5.455-3.785 5.724-.323.123-1.225 1.186-2.005 2.362-.781 1.175-1.732 2.24-2.114 2.365-.383.126-1.727 1.203-2.988 2.393-1.261 1.19-3.26 2.637-4.444 3.216-1.183.579-2.664 1.587-3.29 2.241-1.01 1.054-5.312 2.773-6.941 2.773-.264 0-1.144.525-1.956 1.167-2.212 1.749-5.162 2.454-11.377 2.718-6.551.278-6.145-.068-6.697 5.733-.605 6.375-1.107 8.606-2.237 9.949-.583.694-1.306 2.49-1.8 4.472-.936 3.761-1.62 5.273-2.74 6.058-.428.299-1.156 1.556-1.619 2.792-.513 1.372-1.69 3.199-3.018 4.688-1.198 1.342-2.453 2.973-2.79 3.625-.337.651-1.162 1.469-1.834 1.816-.672.347-1.59 1.257-2.041 2.021-.451.765-1.335 1.656-1.964 1.981-.628.326-2.237 1.568-3.574 2.761-1.579 1.409-3.16 2.406-4.509 2.844-1.227.399-2.447 1.133-2.982 1.794-.911 1.127-2.955 1.978-6.695 2.788-1.1.239-2.673.898-3.496 1.465-4.657 3.21-26.749 3.437-32.904.337-1.54-.776-4.15-1.783-5.8-2.239-3.149-.87-5.376-2.01-5.732-2.936-.116-.303-1.14-.859-2.276-1.237-1.18-.392-2.912-1.438-4.042-2.441-1.087-.966-2.156-1.756-2.376-1.756-.702 0-9.829-9.484-10.36-10.766-.404-.975-.753-1.234-1.663-1.234H0v126h102.4v-1.18c0-1.751.802-5.298 1.42-6.276.297-.47.923-2.354 1.39-4.185 1.062-4.158 1.776-5.884 2.963-7.159.512-.55 1.151-1.72 1.421-2.6.57-1.862 2.231-4.581 3.236-5.298.384-.273 1.238-1.374 1.898-2.446.659-1.073 1.743-2.337 2.407-2.81.665-.473 1.584-1.468 2.043-2.211.459-.742 1.449-1.641 2.199-1.997.75-.356 1.873-1.202 2.494-1.878 1.445-1.575 3.5-2.898 5.529-3.558.88-.286 2.14-1.129 2.8-1.873 1.017-1.148 1.748-1.483 4.8-2.207 2.291-.542 3.964-1.185 4.6-1.766 1.851-1.691 3.909-2.226 10.194-2.651 7.43-.501 6.863.042 7.117-6.812.239-6.441.631-8.143 2.313-10.059.77-.878 1.32-2.088 1.583-3.489.696-3.698 1.226-4.9 2.833-6.429.858-.816 1.56-1.784 1.56-2.151 0-1.046 2.305-4.811 3.374-5.511.53-.348 1.436-1.499 2.013-2.56.626-1.15 1.676-2.315 2.602-2.887.854-.528 1.736-1.364 1.962-1.858.225-.494 1.414-1.542 2.643-2.328 1.229-.786 2.339-1.702 2.467-2.036.286-.745 2.965-2.348 5.309-3.174.959-.339 2.183-1.055 2.72-1.592.932-.932 4.319-2.248 7.31-2.84.77-.153 2.217-.689 3.216-1.192 2.048-1.032 5.605-1.787 8.422-1.787 2.579 0 3.962-1.54 3.962-4.411 0-2.629.711-5.806 1.787-7.989.488-.99 1.207-3.15 1.598-4.8.787-3.33 1.955-5.925 2.814-6.255.309-.119.773-.875 1.03-1.68.747-2.342 2.413-5.201 3.412-5.855.507-.332 1.409-1.436 2.005-2.452.595-1.016 1.591-2.157 2.213-2.535.621-.378 1.67-1.433 2.33-2.344.66-.912 1.92-2.024 2.8-2.473.88-.449 1.891-1.262 2.248-1.806.7-1.069 4.107-3.146 5.814-3.545.578-.135 1.345-.694 1.704-1.242.868-1.325 2.24-1.98 5.845-2.789 1.949-.438 3.352-1.01 4.006-1.634 1.787-1.704 4.141-2.274 10.287-2.49 6.855-.241 6.311.327 6.812-7.106.427-6.314.965-8.369 2.673-10.194.638-.681 1.162-2.084 1.645-4.4.62-2.971.901-3.585 2.228-4.869.835-.809 1.637-1.979 1.781-2.6.396-1.705 1.936-4.171 3.531-5.658.784-.73 1.717-1.942 2.074-2.693.356-.752 1.256-1.743 1.998-2.202.743-.459 1.729-1.366 2.192-2.016.462-.649 1.771-1.78 2.907-2.513 1.136-.733 2.426-1.738 2.866-2.234.812-.915 3.577-2.46 5.4-3.017.55-.168 1.586-.817 2.301-1.441.764-.666 2.499-1.48 4.2-1.969a177.179 177.179 0 0 0 5.299-1.626c6.395-2.109 6.433-2.114 15.4-2.127 8.666-.012 12.059.368 14.51 1.626.611.314 2.849 1.011 4.974 1.55 2.291.581 4.509 1.43 5.449 2.085 2.234 1.557 2.215 1.546 4.801 2.673 1.283.56 3.238 1.831 4.343 2.824 1.105.994 2.226 1.807 2.491 1.807.575 0 2.632 2.07 2.632 2.648 0 .223.713.805 1.584 1.295 1.028.578 1.954 1.57 2.638 2.826.579 1.065 1.494 2.172 2.032 2.46.589.315 1.561 1.724 2.446 3.547.808 1.663 1.984 3.474 2.613 4.024 1.125.984 2.687 5.324 2.687 7.467 0 .486.546 1.48 1.213 2.208 2.788 3.046 2.575-4.221 2.694 92.025l.107 86.7H400V0H0v63.753m367.6-46.562c2.239.567 6.4 2.409 6.4 2.834 0 .685-4.784 2.89-8 3.688-3.888.964-3.986 1.05-3.994 3.497-.006 1.742.059 1.841 1.694 2.6 1.181.549 1.924 1.248 2.433 2.29.403.825.964 1.5 1.246 1.5 1.015 0 2.61 1.673 3.01 3.158.354 1.316.63 1.58 2.109 2.019.936.278 1.935.695 2.219.927.879.718 1.274-.167 1.933-4.335.345-2.183.951-4.779 1.346-5.769.396-.99.941-2.385 1.21-3.1.701-1.857.901-1.685 2.313 2 3.04 7.932 3.04 27.868 0 35.8-1.412 3.685-1.612 3.857-2.313 2-.269-.715-.812-2.11-1.205-3.1-.393-.99-.927-3.15-1.186-4.8-.26-1.65-.644-3.558-.855-4.24l-.382-1.24-1.857.94c-1.021.517-2.052.94-2.291.94-.239 0-.83.863-1.314 1.917-.633 1.379-1.278 2.107-2.298 2.594-.78.372-1.418.845-1.418 1.052 0 .751-2.129 2.88-3.419 3.419-2.327.973-1.454 1.979 4.774 5.502 1.771 1.002 4.936 3.81 4.588 4.071-5.922 4.421-29.507 4.758-35.576.507-1.163-.815.707-2.612 5.021-4.826 2.31-1.185 3.404-2.01 3.971-2.995l.784-1.36-1.278-1.04c-1.586-1.293-7.095-6.814-8.532-8.551l-1.067-1.29-.995.934c-.547.514-1.114 1.572-1.261 2.351-.146.78-.693 2.385-1.216 3.566l-.95 2.149h-4.745l-.812-1.9c-1.666-3.897-1.841-5.244-1.864-14.3-.024-9.185.256-11.409 1.876-14.9l.789-1.7h4.641l.82 1.7c.451.935 1.063 2.65 1.359 3.812 1.003 3.935 2.666 4.549 4.106 1.515.329-.694 1.143-1.583 1.807-1.976.665-.392 1.652-1.416 2.194-2.274.541-.858 1.672-1.911 2.512-2.34 2.1-1.071 2.351-1.526 2.162-3.922-.182-2.305.063-2.125-4.198-3.093-3.16-.717-7.764-3.024-7.062-3.539 2.065-1.514 5.534-2.668 9.307-3.097 3.966-.451 21.263-.152 23.464.405m-56.389 55.486c2.525 1.244 4.847 3.136 5.62 4.582.497.927-1.447 1.968-5.721 3.063-5.489 1.406-5.538 1.061 1.114 7.733l5.789 5.804 1.021-1.339c.561-.736 1.284-2.099 1.605-3.029.86-2.491 1.725-3.356 4.021-4.025l2.061-.599 1.008 2.266c2.594 5.831 2.667 24.412.114 29.133-1.147 2.121-1.215 2.169-2.47 1.772a30.368 30.368 0 0 0-2.238-.604c-.881-.192-1.428-.962-3.161-4.449l-2.096-4.217-.594 1.227c-.327.675-1.155 1.665-1.839 2.201-1.708 1.337-2.326 1.955-3.165 3.168-.397.572-1.432 1.403-2.3 1.846-.869.444-1.58 1.046-1.58 1.338 0 .293-.532 1.267-1.183 2.165l-1.184 1.634 1.884.576c1.036.317 3.271.883 4.968 1.257 1.697.375 3.497 1 4 1.391.503.39 1.167.79 1.475.889.934.3-3.164 2.651-5.973 3.426-2.182.602-4.246.714-13.187.714-11.855 0-13.34-.215-17.573-2.54l-2.574-1.414 2.574-1.163c1.415-.64 4.273-1.516 6.35-1.947 5.171-1.073 5.292-1.452 1.574-4.936-3.471-3.253-6.73-6.702-6.936-7.342-.117-.362-.798-1.009-1.514-1.439-1.398-.839-3.501-1.846-3.501-1.677 0 2.358-2.324 11.409-3.476 13.537l-.8 1.479-.835-1.486c-3.739-6.651-3.981-30.679-.39-38.587l1.233-2.715.886 1.747c1.082 2.133 1.876 4.919 2.785 9.768l.69 3.685 1.255-.958c.691-.526 1.739-1.141 2.329-1.365.615-.234 1.671-1.342 2.471-2.592.768-1.201 1.779-2.305 2.246-2.453.468-.149 1.382-1.004 2.032-1.902.651-.898 1.811-2.059 2.578-2.581 2.255-1.531 1.862-1.996-2.604-3.081-1.65-.401-3.84-1.179-4.867-1.729l-1.866-1 1.34-1.866c2.893-4.026 5.977-4.866 17.404-4.737l8.61.096 2.59 1.275m-38.239 226.568c-.151.245-.415 2.9-.587 5.9-.338 5.922-1.108 9.023-2.653 10.691-.517.557-1.124 1.857-1.349 2.889-.798 3.659-1.647 5.658-2.824 6.648-.651.548-1.447 1.741-1.768 2.653-1.226 3.473-12.292 14.539-15.765 15.765-.912.321-2.103 1.114-2.648 1.762-.995 1.183-4.985 2.847-6.825 2.847-.49 0-1.448.468-2.129 1.041-2.177 1.832-4.969 2.606-10.807 2.997-2.961.199-5.706.463-6.1.588-.678.216-.717 1.484-.717 23.601V400h104.8v-50.186c0-49.208-.015-50.194-.774-50.6-1.124-.601-49.482-.571-49.854.031" fill="#fff"/></g></svg>