<svg width="400" height="400" xmlns="http://www.w3.org/2000/svg" display="block"><g fill-rule="evenodd"><path d="M119.124 37.169c-1.285.18-2.182.592-2.845 1.308-.533.575-1.579 1.351-2.324 1.725-1.295.649-6.334 5.658-6.348 6.311-.004.172-.73 2.157-1.614 4.41l-1.607 4.097.107 55.39.107 55.39.877 1.6c.482.88 1.495 2.967 2.25 4.638.952 2.103 1.789 3.33 2.724 3.988.742.523 2.277 1.701 3.411 2.619 4.46 3.608 14.769 3.821 18.538.384a42.31 42.31 0 0 1 2.925-2.393c.839-.613 1.685-1.538 1.882-2.054.197-.517.982-1.632 1.746-2.477 2.771-3.068 2.687-.951 2.552-64.105-.136-63.558.147-58.313-3.362-62.423-.929-1.089-1.798-2.32-1.93-2.736-.132-.415-.739-.962-1.35-1.215-.61-.253-2.07-1.247-3.243-2.21-3.035-2.49-6.414-3.097-12.496-2.247m247.436.018c-.949.203-2.792 1.212-4.371 2.392-1.502 1.123-3.133 2.142-3.626 2.266-.492.124-1.114.755-1.383 1.402-.268.648-1 1.824-1.627 2.612-.627.789-1.638 2.449-2.246 3.688L352.2 51.8l-.114 56c-.122 59.407-.1 60.172 1.737 62.693.524.719 1.531 2.279 2.237 3.467.714 1.202 1.827 2.444 2.508 2.8.673.352 1.807 1.233 2.519 1.959 3.604 3.67 14.84 3.608 18.951-.105.843-.762 2.214-1.82 3.047-2.351 1.12-.714 1.928-1.786 3.1-4.114.871-1.732 1.951-3.659 2.4-4.282.809-1.126.816-1.531.939-55.8.136-60.224.147-59.764-1.53-61.874-.627-.789-1.247-1.924-1.378-2.522-.406-1.847-3.075-4.912-6.216-7.137a598.303 598.303 0 0 1-3.808-2.715c-.987-.721-7.655-1.142-10.032-.632m-98.079 4.459c-2.166.361-4.23 1.224-4.685 1.96-.14.227-1.285.932-2.545 1.568-1.372.693-2.476 1.563-2.753 2.17-.254.557-1.076 1.698-1.827 2.535-3.83 4.265-3.84 16.365-.019 20.622.742.826 1.348 1.674 1.348 1.885 0 .603 1.651 2.008 3.4 2.893.88.445 2.05 1.22 2.6 1.722 2.617 2.39 12.38 2.433 15.192.067.685-.577 1.842-1.331 2.57-1.677 10.534-4.999 10.523-24.394-.017-30.429-1.189-.682-2.563-1.611-3.054-2.067-1.536-1.427-5.919-1.963-10.21-1.249M71.215 86.46c-1.249.157-2.425.585-2.947 1.073-.477.447-1.73 1.182-2.784 1.633-2.711 1.16-6.156 4.544-7.566 7.434-.644 1.32-1.564 3.12-2.044 4L55 102.2v64.533l.861 1.164c.473.64 1.597 2.63 2.499 4.423 1.137 2.262 1.989 3.44 2.787 3.852.631.327 2.082 1.391 3.223 2.366 4.055 3.461 16.678 3.936 18.414.692.222-.414 1.298-1.304 2.392-1.977 1.119-.688 2.28-1.799 2.656-2.538.367-.723 1.274-2.064 2.015-2.979 2.6-3.21 2.598-3.184 2.469-39.066-.127-35.227.075-32.466-2.667-36.47-3.251-4.749-3.661-5.117-8.401-7.54-.796-.407-1.808-1.066-2.248-1.465-.91-.825-4.42-1.156-7.785-.735M215.2 88.4c-1.869 1.1-3.621 2-3.894 2-.273 0-.946.713-1.496 1.585-.55.871-1.533 1.978-2.184 2.459-1.255.928-2.315 3.747-3.217 8.556-.661 3.519-.401 111.92.271 113.6.265.66.672 1.947.905 2.86.713 2.79 5.473 7.812 9.668 10.201 1.334.76 12.56.76 13.894 0 6.071-3.457 9.376-7.735 10.616-13.744.924-4.473.97-109.38.05-113.982-.986-4.939-1.531-6.252-3.138-7.577-.82-.677-1.768-1.765-2.106-2.418-.374-.723-1.271-1.472-2.292-1.913-.922-.399-2.663-1.378-3.868-2.176-2.133-1.413-2.291-1.451-6.001-1.451h-3.81l-3.398 2M21.525 90.754c-1.032.153-2.202.571-2.6.929-.399.359-2.225 1.42-4.058 2.358-3.223 1.65-3.391 1.807-5.067 4.733-.954 1.664-2.154 3.559-2.667 4.21-.869 1.102-.933 1.54-.933 6.4v5.216l2.1 3.237c1.155 1.78 2.1 3.423 2.1 3.651 0 .547 6.692 5.057 8.373 5.643 4.223 1.472 12.036.719 14.713-1.419a36.946 36.946 0 0 1 3.053-2.133c.979-.602 2.072-1.759 2.661-2.818.55-.988 1.468-2.419 2.041-3.179 1.593-2.115 2.106-4.638 1.852-9.1-.236-4.155-.455-4.888-2.294-7.682-.651-.99-1.568-2.533-2.036-3.428-.7-1.338-1.398-1.9-3.908-3.15-1.68-.837-3.685-1.933-4.455-2.436-1.575-1.028-5.677-1.505-8.875-1.032m296.675.031c-.88.157-2.86 1.003-4.4 1.879-1.54.877-3.356 1.816-4.037 2.087-.743.297-1.495 1.036-1.885 1.854-.356.748-1.259 2.043-2.006 2.877-3.635 4.064-3.873 15.394-.409 19.465.626.734 1.447 1.907 1.825 2.606.379.699 1.263 1.58 1.966 1.959.703.378 1.941 1.269 2.751 1.98 3.621 3.174 13.286 3.342 17.795.308 4.118-2.771 5.649-4.21 6.65-6.255 4.276-8.737 4.43-10.146 1.761-16.145-.49-1.1-1-2.45-1.133-3-.556-2.288-4.592-6.151-7.461-7.139-.76-.263-1.76-.831-2.221-1.264-1.4-1.316-5.546-1.862-9.196-1.212m-50.83 50.145c-.897.478-2.948 1.41-4.558 2.07-2.316.949-3.123 1.51-3.865 2.685-.516.816-1.483 1.887-2.149 2.38-3.185 2.354-4.143 14.61-1.504 19.25 1.674 2.945 5.116 6.301 8.669 8.452 2.031 1.23 7.774 1.711 11.884.995 3.644-.634 9.472-4.618 11.121-7.602 4.486-8.118 3.567-17.321-2.327-23.304-1.44-1.461-2.824-2.656-3.075-2.656-.252 0-2.08-.72-4.062-1.6-4.343-1.928-7.4-2.13-10.134-.67M21.2 190.539c-.99.293-2.8.835-4.023 1.203-1.315.396-2.867 1.254-3.8 2.099-.867.786-2.01 1.819-2.539 2.294-.528.476-1.22 1.495-1.536 2.265-.316.77-1.132 1.983-1.812 2.695-2.238 2.342-2.063 12.003.267 14.787.515.615 1.395 2.027 1.956 3.139.58 1.149 1.456 2.219 2.032 2.481.557.254 1.697 1.079 2.534 1.835 3.74 3.377 15.583 4.009 19.321 1.03.55-.438 1.834-1.344 2.853-2.013a9.11 9.11 0 0 0 2.923-3.182c.589-1.081 1.482-2.463 1.984-3.069 2.571-3.105 2.511-12.389-.099-15.556-.694-.841-1.261-1.723-1.261-1.96 0-4.381-12.75-9.838-18.8-8.048m49.4 45.34c-2.595.345-6.237 1.805-6.855 2.749-.343.523-1.461 1.468-2.484 2.098-1.325.816-2.015 1.576-2.397 2.638-.294.82-1.284 2.783-2.2 4.363L55 250.6l-.123 30.6c-.139 34.319-.21 32.967 1.918 36.495.858 1.423 1.68 3.066 1.828 3.653.147.586.808 1.468 1.468 1.959.661.491 1.855 1.564 2.655 2.383 6.492 6.653 21.008 4.146 26.284-4.539.766-1.261 1.581-2.355 1.812-2.432 1.344-.448 1.53-4.859 1.53-36.319-.001-33.612-.043-34.343-2.155-36.853-.58-.689-1.409-1.947-1.841-2.795-.433-.847-1.279-1.845-1.881-2.218-.602-.372-1.754-1.296-2.56-2.052-2.297-2.157-8.126-3.295-13.335-2.603m295.2.302c-1.32.312-2.619.579-2.887.593-.267.014-1.398.836-2.513 1.826-1.115.99-2.187 1.8-2.382 1.8-.195 0-.864.825-1.487 1.833-.622 1.009-1.623 2.424-2.224 3.145-2.4 2.879-2.336 1.067-2.216 63.324.12 62.557-.1 57.206 2.502 60.898 2.624 3.726 3.27 4.474 4.748 5.497l1.591 1.103h19.83l1.469-1.4c3.209-3.058 3.69-3.63 3.949-4.694.149-.608.804-1.777 1.457-2.597 1.992-2.503 1.981-2.139 1.869-61.529l-.106-55.78-1.656-2.8c-.911-1.54-1.931-3.463-2.268-4.273-.352-.845-1.113-1.733-1.785-2.08-.645-.333-1.737-1.25-2.428-2.037-2.333-2.657-10.146-4.086-15.463-2.829m-246.4 53.298c-2.816.374-6.07 1.749-6.948 2.936-.486.657-1.596 1.645-2.467 2.195-.872.55-1.585 1.189-1.585 1.42 0 .231-.439 1.354-.976 2.495-3.312 7.044-3.621 8.92-2.094 12.736 2.325 5.813 3.363 7.738 4.536 8.414.645.371 1.408 1.116 1.697 1.656 1.108 2.071 8.843 4.532 12.837 4.085 7.172-.803 11.811-3.809 15.381-9.966 2.402-4.142 2.31-13.544-.162-16.632-.449-.56-1.171-1.675-1.604-2.477-.434-.802-1.342-1.882-2.017-2.4-.675-.518-1.85-1.454-2.61-2.08-2.461-2.028-8.68-3.087-13.988-2.382m195.727.478c-2.902.805-6.703 3.66-8.577 6.443a42.53 42.53 0 0 1-1.748 2.4c-1.76 2.186-2.423 10.144-1.2 14.408.878 3.06 5.619 8.712 8.299 9.893 6.653 2.932 10.193 3.047 17.325.564 2.256-.785 7.574-5.422 7.574-6.602 0-.278.419-1.396.932-2.484 2.04-4.335 2.268-5.075 2.268-7.38 0-1.543-.268-2.904-.764-3.887-1.099-2.175-3.236-7.186-3.236-7.588 0-.188-.648-.691-1.441-1.118-.793-.427-1.927-1.365-2.52-2.085-2.328-2.824-11.15-4.161-16.912-2.564m-147.191 48.997c-3.462.745-9.32 5.07-10.803 7.978-1.832 3.591-2.957 9.758-2.295 12.587 1.251 5.347 2.469 8.189 3.82 8.912.533.285 1.314 1.076 1.735 1.757 2.235 3.617 12.476 6.372 16.567 4.457 1.122-.525 3.275-1.47 4.785-2.1 2.172-.906 2.991-1.501 3.923-2.851.649-.939 1.606-1.986 2.128-2.328 3.626-2.376 3.86-16.486.345-20.752a116.886 116.886 0 0 1-2.082-2.612c-.518-.675-1.598-1.583-2.4-2.017-.802-.433-1.917-1.155-2.477-1.604-2.194-1.756-8.537-2.44-13.246-1.427m49.254.05c-3.734.907-9.301 5.321-11.094 8.796-3.039 5.892-1.976 17.029 1.959 20.531 1.07.952 1.945 1.991 1.945 2.309 0 .317.405.741.9.942.495.2 2.776 1.187 5.069 2.191 5.44 2.384 7.053 2.424 11.693.29 1.838-.845 4.019-1.76 4.847-2.033.95-.313 1.721-.914 2.09-1.627.321-.622 1.256-1.684 2.076-2.361 1.571-1.294 2.045-2.412 3.16-7.442 3.008-13.563-8.914-24.933-22.645-21.596m48.939.16c-3.281.939-9.148 5.802-10.775 8.931-2.695 5.182-1.822 16.616 1.479 19.394.683.575 1.651 1.69 2.152 2.478.692 1.088 1.572 1.708 3.663 2.578 1.514.63 3.67 1.575 4.792 2.1 3.159 1.479 5.761 1.317 9.945-.616 1.87-.863 3.787-1.693 4.26-1.843 4.2-1.333 8.91-10.938 8.204-16.728-.861-7.06-3.912-11.71-9.999-15.239-3.19-1.85-9.3-2.32-13.721-1.055"/><path d="M119.2 35.603c-7.639.851-15.676 9.572-16.819 18.251-.918 6.962-.308 112.844.662 115.146 4.865 11.534 13.412 16.282 25.607 14.225 6.672-1.125 12.599-6.978 15.016-14.826l.923-2.999.127-54.4c.134-57.564.173-56.177-1.765-62.23-1.403-4.381-6.108-9.578-11.051-12.206-.948-.504-7.749-1.432-9.5-1.297-.33.026-1.77.177-3.2.336m247.6.001c-8.749.852-15.726 8.414-17.191 18.631-.934 6.515-.355 111.433.633 114.614 3.615 11.643 15.794 17.62 28.07 13.775 4.393-1.377 10.731-8.399 12.372-13.708 1.12-3.622 1.108-115.593-.013-118.805-3.122-8.954-12.577-15.812-20.471-14.848-.22.027-1.75.18-3.4.341m-239.034 1.629c.967.244 2.656 1.2 3.854 2.183 1.173.963 2.633 1.957 3.243 2.21.611.253 1.218.8 1.35 1.215.132.416 1.001 1.647 1.93 2.736 3.509 4.11 3.226-1.135 3.362 62.423.135 63.154.219 61.037-2.552 64.105-.764.845-1.549 1.96-1.746 2.477-.197.516-1.043 1.441-1.882 2.054a42.31 42.31 0 0 0-2.925 2.393c-3.769 3.437-14.078 3.224-18.538-.384-1.134-.918-2.669-2.096-3.411-2.619-.935-.658-1.772-1.885-2.724-3.988-.755-1.671-1.768-3.758-2.25-4.638l-.877-1.6-.107-55.39-.107-55.39 1.607-4.097c.884-2.253 1.61-4.238 1.614-4.41.014-.653 5.053-5.662 6.348-6.311.745-.374 1.791-1.15 2.324-1.725 1.403-1.513 7.706-2.196 11.487-1.244m248.826.586c.445.324 2.158 1.546 3.808 2.715 3.141 2.225 5.81 5.29 6.216 7.137.131.598.751 1.733 1.378 2.522 1.677 2.11 1.666 1.65 1.53 61.874-.123 54.269-.13 54.674-.939 55.8-.449.623-1.529 2.55-2.4 4.282-1.172 2.328-1.98 3.4-3.1 4.114-.833.531-2.204 1.589-3.047 2.351-4.111 3.713-15.347 3.775-18.951.105-.712-.726-1.846-1.607-2.519-1.959-.681-.356-1.794-1.598-2.508-2.8-.706-1.188-1.713-2.748-2.237-3.467-1.837-2.521-1.859-3.286-1.737-62.693l.114-56 1.107-2.253c.608-1.239 1.619-2.899 2.246-3.688.627-.788 1.359-1.964 1.627-2.612.269-.647.891-1.278 1.383-1.402.493-.124 2.124-1.143 3.626-2.266 3.69-2.758 11.696-3.737 14.403-1.76m-110.183 2.028c-8.861 1.936-15.66 10.629-15.764 20.153-.191 17.728 20.04 27.616 34.008 16.621 17.917-14.104 4.233-41.686-18.244-36.774m9.018 1.787c1.349.246 2.757.79 3.264 1.261.491.456 1.865 1.385 3.054 2.067 10.54 6.035 10.551 25.43.017 30.429-.728.346-1.885 1.1-2.57 1.677-2.812 2.366-12.575 2.323-15.192-.067-.55-.502-1.72-1.277-2.6-1.722-1.749-.885-3.4-2.29-3.4-2.893 0-.211-.606-1.059-1.348-1.885-3.821-4.257-3.811-16.357.019-20.622.751-.837 1.573-1.978 1.827-2.535.277-.607 1.381-1.477 2.753-2.17 1.26-.636 2.405-1.341 2.545-1.568 1.096-1.772 7.126-2.795 11.631-1.972M70 84.783c-7.633 1.128-15.478 9.373-16.79 17.647-.918 5.789-.368 64.067.63 66.77 5.744 15.553 25.128 19.773 35.702 7.773 5.556-6.306 5.402-5.164 5.564-41.173.167-37.229.129-37.569-4.809-43.294-5.693-6.598-11.908-8.962-20.297-7.723m147.466.036c-8.27 1.388-15.841 10.956-16.708 21.114-.876 10.253-.255 108.735.701 111.269C205.54 228.02 212.256 233.2 222.2 233.2c10.01 0 16.57-5.058 20.752-16 .977-2.556 1.578-103.63.667-112.124-1.484-13.841-12.687-22.518-26.153-20.257M79 87.195c.44.399 1.452 1.058 2.248 1.465 4.74 2.423 5.15 2.791 8.401 7.54 2.742 4.004 2.54 1.243 2.667 36.47.129 35.882.131 35.856-2.469 39.066-.741.915-1.648 2.256-2.015 2.979-.376.739-1.537 1.85-2.656 2.538-1.094.673-2.17 1.563-2.392 1.977-1.736 3.244-14.359 2.769-18.414-.692-1.141-.975-2.592-2.039-3.223-2.366-.798-.412-1.65-1.59-2.787-3.852-.902-1.793-2.026-3.783-2.499-4.423L55 166.733V102.2l.874-1.6c.48-.88 1.4-2.68 2.044-4 1.41-2.89 4.855-6.274 7.566-7.434 1.054-.451 2.307-1.186 2.784-1.633 1.61-1.507 9.179-1.745 10.732-.338m149.409.656c1.205.798 2.946 1.777 3.868 2.176 1.021.441 1.918 1.19 2.292 1.913.338.653 1.286 1.741 2.106 2.418 1.607 1.325 2.152 2.638 3.138 7.577.92 4.602.874 109.509-.05 113.982-1.24 6.009-4.545 10.287-10.616 13.744-1.334.76-12.56.76-13.894 0-4.195-2.389-8.955-7.411-9.668-10.201-.233-.913-.64-2.2-.905-2.86-.672-1.68-.932-110.081-.271-113.6.902-4.809 1.962-7.628 3.217-8.556.651-.481 1.634-1.588 2.184-2.459.55-.872 1.223-1.585 1.496-1.585.273 0 2.025-.9 3.894-2l3.398-2h3.81c3.71 0 3.868.038 6.001 1.451M21.4 88.809C6.544 90.668-1.373 109.084 7.398 121.377c10.115 14.175 32.746 11.013 37.309-5.213 4.341-15.433-7.501-29.332-23.307-27.355m297.6-.168c-8.508 1.105-15.273 6.4-17.836 13.959-8.067 23.797 24.309 38.992 37.837 17.758 9.196-14.433-3.089-33.914-20.001-31.717M30.4 91.786c.77.503 2.775 1.599 4.455 2.436 2.51 1.25 3.208 1.812 3.908 3.15.468.895 1.385 2.438 2.036 3.428 1.839 2.794 2.058 3.527 2.294 7.682.254 4.462-.259 6.985-1.852 9.1-.573.76-1.491 2.191-2.041 3.179-.589 1.059-1.682 2.216-2.661 2.818a36.946 36.946 0 0 0-3.053 2.133c-2.677 2.138-10.49 2.891-14.713 1.419-1.681-.586-8.373-5.096-8.373-5.643 0-.228-.945-1.871-2.1-3.651L6.2 114.6v-5.216c0-4.86.064-5.298.933-6.4.513-.651 1.713-2.546 2.667-4.21 1.676-2.926 1.844-3.083 5.067-4.733 1.833-.938 3.659-1.999 4.058-2.358 1.693-1.523 9.086-1.457 11.475.103m294.025-.981c1.173.222 2.51.759 2.971 1.192.461.433 1.461 1.001 2.221 1.264 2.869.988 6.905 4.851 7.461 7.139.133.55.643 1.9 1.133 3 2.19 4.923 2.275 7.637.368 11.701-3.23 6.88-3.387 7.071-8.779 10.699-4.509 3.034-14.174 2.866-17.795-.308-.81-.711-2.048-1.602-2.751-1.98-.703-.379-1.587-1.26-1.966-1.959-.378-.699-1.199-1.872-1.825-2.606-3.464-4.071-3.226-15.401.409-19.465.747-.834 1.65-2.129 2.006-2.877.39-.818 1.142-1.557 1.885-1.854.681-.271 2.497-1.21 4.037-2.087 3.763-2.141 6.558-2.63 10.625-1.859M269.4 137.85c-.44.087-1.762.353-2.938.591-8.437 1.71-17.148 13.108-16.318 21.35 2.608 25.885 39.456 26.929 42.665 1.209 1.553-12.442-11.622-25.471-23.409-23.15m8.104 3.75c1.982.88 3.81 1.6 4.062 1.6.251 0 1.635 1.195 3.075 2.656 5.894 5.983 6.813 15.186 2.327 23.304-1.649 2.984-7.477 6.968-11.121 7.602-4.11.716-9.853.235-11.884-.995-3.553-2.151-6.995-5.507-8.669-8.452-2.639-4.64-1.681-16.896 1.504-19.25.666-.493 1.633-1.564 2.149-2.38.742-1.175 1.549-1.736 3.865-2.685 1.61-.66 3.661-1.592 4.558-2.07 2.734-1.46 5.791-1.258 10.134.67m-255.76 45.643c-9.035 1.1-17.161 9.826-17.957 19.281-1.721 20.446 23.919 31.22 36.886 15.499 12.226-14.822.103-37.097-18.929-34.78m9.267 4.172c4.145 1.264 8.989 5.129 8.989 7.172 0 .237.567 1.119 1.261 1.96 2.61 3.167 2.67 12.451.099 15.556-.502.606-1.395 1.988-1.984 3.069a9.11 9.11 0 0 1-2.923 3.182c-1.019.669-2.303 1.575-2.853 2.013-3.738 2.979-15.581 2.347-19.321-1.03-.837-.756-1.977-1.581-2.534-1.835-.576-.262-1.452-1.332-2.032-2.481-.561-1.112-1.441-2.524-1.956-3.139-2.33-2.784-2.505-12.445-.267-14.787.68-.712 1.496-1.925 1.812-2.695.316-.77 1.008-1.789 1.536-2.265.529-.475 1.672-1.508 2.539-2.294.933-.845 2.485-1.703 3.8-2.099 1.223-.368 3.033-.91 4.023-1.203 2.35-.695 5.616-.404 9.811.876m39.638 41.396c-7.48 1.294-14.765 7.877-17.015 15.376-.916 3.052-1.154 62.39-.269 67.079.76 4.033 4.649 10.223 7.99 12.719 12.991 9.707 30.223 2.8 33.245-13.325.918-4.901.68-62.824-.273-66.26-2.85-10.28-13.57-17.337-23.678-15.589m296.951-.02c-8.1 1.131-15.29 7.569-17.472 15.644-.985 3.645-1.324 109.242-.37 115.169 1.188 7.38 5.399 13.088 10.281 13.939 7.738 1.347 21.986.411 24.561-1.614 1.362-1.072 5.592-7.44 6.28-9.455.824-2.414.955-112.999.138-116.916-2.212-10.608-12.871-18.239-23.418-16.767m-288.265 3.566c2.431.581 3.465 1.059 4.6 2.125.806.756 1.958 1.68 2.56 2.052.602.373 1.448 1.371 1.881 2.218.432.848 1.261 2.106 1.841 2.795 2.112 2.51 2.154 3.241 2.155 36.853 0 31.46-.186 35.871-1.53 36.319-.231.077-1.046 1.171-1.812 2.432-5.276 8.685-19.792 11.192-26.284 4.539-.8-.819-1.994-1.892-2.655-2.383-.66-.491-1.321-1.373-1.468-1.959-.148-.587-.97-2.23-1.828-3.653-2.128-3.528-2.057-2.176-1.918-36.495L55 250.6l1.664-2.873c.916-1.58 1.906-3.543 2.2-4.363.382-1.062 1.072-1.822 2.397-2.638 1.023-.63 2.141-1.575 2.484-2.098 1.63-2.488 9.746-3.67 15.59-2.271m298.168.432c1.796.567 2.859 1.196 3.76 2.221.691.787 1.783 1.704 2.428 2.037.672.347 1.433 1.235 1.785 2.08.337.81 1.357 2.733 2.268 4.273l1.656 2.8.106 55.78c.112 59.39.123 59.026-1.869 61.529-.653.82-1.308 1.989-1.457 2.597-.259 1.064-.74 1.636-3.949 4.694l-1.469 1.4h-19.83l-1.591-1.103c-1.478-1.023-2.124-1.771-4.748-5.497-2.602-3.692-2.382 1.659-2.502-60.898-.12-62.257-.184-60.445 2.216-63.324.601-.721 1.602-2.136 2.224-3.145.623-1.008 1.292-1.833 1.487-1.833.195 0 1.267-.81 2.382-1.8 1.115-.99 2.246-1.812 2.513-1.826.268-.014 1.567-.281 2.887-.593 3.069-.726 8.35-.451 11.703.608m-258.214 49.638c-15.125 3.858-21.706 19.218-13.613 31.773 14.773 22.918 48.594 3.122 36.22-21.2-3.914-7.694-14.494-12.642-22.607-10.573m199.911-.429c-20.749 2.648-26.27 29.162-8.25 39.614 11.314 6.562 23.886 1.769 30.285-11.547 1.854-3.859 1.331-12.142-.99-15.665-.507-.77-1.486-2.3-2.176-3.4-1.643-2.621-5.083-5.584-7.962-6.86-2.09-.925-7.893-2.625-8.471-2.481-.13.032-1.226.185-2.436.339m-190.098 3.97c1.758.456 3.448 1.203 4.286 1.893.76.626 1.935 1.562 2.61 2.08.675.518 1.583 1.598 2.017 2.4.433.802 1.155 1.917 1.604 2.477 2.472 3.088 2.564 12.49.162 16.632-3.57 6.157-8.209 9.163-15.381 9.966-3.994.447-11.729-2.014-12.837-4.085-.289-.54-1.052-1.285-1.697-1.656-1.173-.676-2.211-2.601-4.536-8.414-1.527-3.816-1.218-5.692 2.094-12.736.537-1.141.976-2.264.976-2.495 0-.231.713-.87 1.585-1.42.871-.55 1.981-1.538 2.467-2.195 2.05-2.773 10.574-4.026 16.65-2.447m199.478.414c1.573.549 2.746 1.274 3.459 2.139.593.72 1.727 1.658 2.52 2.085.793.427 1.441.93 1.441 1.118 0 .402 2.137 5.413 3.236 7.588.496.983.764 2.344.764 3.887 0 2.305-.228 3.045-2.268 7.38-.513 1.088-.932 2.206-.932 2.484 0 3.44-11.123 8.989-16.755 8.358-6.978-.781-10.86-3.183-14.96-9.256-2.725-4.037-2.89-14.127-.283-17.365a42.53 42.53 0 0 0 1.748-2.4c4.298-6.383 13.651-8.938 22.03-6.018M167.8 336.156c-12.636 3.086-19.964 17.818-14.367 28.884 9.455 18.69 35.065 15.819 40.336-4.522 3.606-13.915-11.338-27.934-25.969-24.362m48.8.215c-10.352 3.079-17.826 14.331-15.641 23.547 4.883 20.6 31.397 24.044 40.597 5.274 7.702-15.713-8.013-33.861-24.956-28.821m49 .174c-8.315 2.5-14.104 9.569-15.39 18.794-.589 4.223 2.035 11.234 5.632 15.047 8.933 9.469 22.103 9.687 31.188.517 14.978-15.119-.877-40.538-21.43-34.358m-87.818 2.452c1.31.313 2.84.936 3.4 1.384.56.449 1.675 1.171 2.477 1.604.802.434 1.882 1.342 2.4 2.017.518.675 1.454 1.85 2.082 2.612 3.515 4.266 3.281 18.376-.345 20.752-.522.342-1.479 1.389-2.128 2.328-.932 1.35-1.751 1.945-3.923 2.851-1.51.63-3.663 1.575-4.785 2.1-4.091 1.915-14.332-.84-16.567-4.457-.421-.681-1.202-1.472-1.735-1.757-1.351-.723-2.569-3.565-3.82-8.912-1.141-4.879 1.454-12.792 5.232-15.953 5.872-4.914 10.869-6.203 17.712-4.569m48.851-.138c9.008 1.746 15.328 12.153 13.202 21.741-1.115 5.03-1.589 6.148-3.16 7.442-.82.677-1.755 1.739-2.076 2.361-.369.713-1.14 1.314-2.09 1.627-.828.273-3.009 1.188-4.847 2.033-4.64 2.134-6.253 2.094-11.693-.29a383.063 383.063 0 0 0-5.069-2.191c-.495-.201-.9-.625-.9-.942 0-.318-.875-1.357-1.945-2.309-1.805-1.606-2.012-1.991-2.873-5.331-3.923-15.221 6.567-27.026 21.451-24.141m49.194-.028c7.326 1.33 12.973 8.026 14.022 16.627.706 5.79-4.004 15.395-8.204 16.728-.473.15-2.39.98-4.26 1.843-4.184 1.933-6.786 2.095-9.945.616a148.682 148.682 0 0 0-4.792-2.1c-2.091-.87-2.971-1.49-3.663-2.578-.501-.788-1.469-1.903-2.152-2.478-3.301-2.778-4.174-14.212-1.479-19.394.642-1.235 4.564-5.298 6.815-7.059 2.876-2.251 8.449-3.151 13.658-2.205" fill="#747474"/><path d="M117.4 34.656c-2.886.463-4.38 1.091-5.936 2.496-.915.827-2.239 1.901-2.943 2.387-1.52 1.052-4.522 5.053-5.913 7.882-1.738 3.532-1.794 5.399-1.904 62.979-.115 60.577-.169 59.098 2.317 62.472.538.73 1.293 1.868 1.679 2.528 2.09 3.581 7.114 7.694 10.778 8.824 12.249 3.778 23.799-1.057 28.687-12.008 2.763-6.191 2.635-3.14 2.635-62.597 0-55.525-.053-57.607-1.547-60.219-.378-.66-1.018-2.08-1.424-3.156-1.282-3.399-6.612-8.587-10.975-10.683-1.75-.841-12.083-1.446-15.454-.905m247.8-.027c-4.063.698-5.267 1.112-6.455 2.222-.707.661-1.753 1.443-2.325 1.739-2.046 1.058-5.939 6.058-6.793 8.725a85.081 85.081 0 0 1-1.504 4.285c-.64 1.628-.732 4.19-.962 26.8-.162 15.92-.423 26.015-.719 27.794-.352 2.115-.353 3.67-.005 6.4.274 2.149.562 13.707.712 28.606.249 24.82.258 25.014 1.151 26.951.495 1.073.9 2.101.9 2.285 0 2.772 5.536 9.944 9.384 12.158 6.02 3.464 16.619 3.613 23.143.325 1.364-.687 6.673-5.883 6.673-6.531 0-.253.623-1.189 1.385-2.079 2.938-3.432 2.815-.603 2.815-64.709 0-60.908.025-60.088-1.945-63.299-3.267-5.327-7.815-9.813-11.146-10.994-1.665-.591-11.974-1.079-14.309-.678m-238.3.971c4.269.415 4.963.69 8.474 3.345 3.826 2.892 6.445 6.289 7.577 9.825 1.938 6.053 1.899 4.666 1.765 62.23l-.127 54.4-.923 2.999c-2.417 7.848-8.344 13.701-15.016 14.826-12.195 2.057-20.742-2.691-25.607-14.225-.97-2.302-1.58-108.184-.662-115.146.709-5.379 3.907-10.65 8.861-14.605 3.949-3.152 4.92-3.499 11.158-3.982.33-.025 2.355.124 4.5.333m247.165-.021c6.947.731 13.923 6.836 16.606 14.532 1.121 3.212 1.133 115.183.013 118.805-1.641 5.309-7.979 12.331-12.372 13.708-12.276 3.845-24.455-2.132-28.07-13.775-.988-3.181-1.567-108.099-.633-114.614 1.465-10.217 8.442-17.779 17.191-18.631 1.65-.161 3.18-.314 3.4-.341.22-.027 1.959.115 3.865.316M265.4 38.73c-12.213 2.559-20.733 18.606-15.479 29.153 4.321 8.677 8.231 12.197 15.525 13.98 6.506 1.59 18.522-.429 19.623-3.297.115-.301 1.086-1.177 2.157-1.946 1.142-.821 2.306-2.106 2.815-3.11.478-.94 1.277-2.199 1.777-2.798 3.509-4.198 3.343-16.841-.282-21.387-.668-.839-1.561-2.2-1.984-3.025-.423-.825-1.44-1.932-2.26-2.459-.821-.527-2.16-1.58-2.978-2.34-3.288-3.06-11.673-4.288-18.914-2.771m10.567.921c9.184 1.575 16.943 10.964 16.915 20.469-.045 15.526-17.482 26.135-30.928 18.817-21.514-11.71-10.198-43.437 14.013-39.286M66.209 84.244c-1.096.348-2.549 1.111-3.229 1.695-.681.583-2.066 1.632-3.077 2.33-1.012.698-2.457 2.228-3.213 3.4-.755 1.172-1.752 2.467-2.215 2.878-2.582 2.291-2.858 6.053-2.866 39.053-.008 33.885.383 38.94 3.161 40.897.393.276 1.083 1.223 1.533 2.103 4.232 8.274 19.126 11.389 29.398 6.149 3.374-1.722 9.477-9.396 9.503-11.949.003-.33.454-1.385 1.002-2.343 2.447-4.28 2.394-3.506 2.394-35.257 0-31.373.053-30.565-2.195-33.393-.633-.797-1.275-2.024-1.427-2.728-.425-1.97-1.636-4.106-2.914-5.141-.637-.516-1.47-1.43-1.852-2.031-.382-.601-1.351-1.485-2.153-1.964-.803-.479-1.909-1.282-2.459-1.785-2.6-2.38-14.299-3.535-19.391-1.914m148.479-.096c-1.051.294-2.311.898-2.8 1.344-.488.445-1.621 1.263-2.516 1.818-4.367 2.707-8.958 9.257-9.845 14.045-.42 2.265-.527 14.053-.527 57.845 0 59.009-.018 58.468 2.012 61.83.521.864 1.398 2.38 1.949 3.37 1.756 3.157 6.002 6.899 10.039 8.847l3.6 1.737 5.6.008 5.6.008 3.834-1.855c2.439-1.18 4.257-2.359 5-3.241.641-.763 1.634-1.686 2.206-2.052.572-.366 1.552-1.606 2.177-2.755.626-1.149 1.55-2.697 2.055-3.44 1.186-1.749 1.671-3.48 2.146-7.657.562-4.954.537-105.074-.028-110.2-.865-7.844-6.068-14.972-14.062-19.263-1.756-.943-13.463-1.22-16.44-.389M80.56 85.252c6.457 1.702 12.922 9.664 14.246 17.548.887 5.284.317 62.901-.654 66.049-2.147 6.963-7.945 12.828-14.021 14.179-10.125 2.253-18.43-.832-23.613-8.771-3.719-5.697-3.471-3.093-3.635-38.057-.176-37.594-.349-35.795 4.066-42.335 5.322-7.883 14.154-11.105 23.611-8.613m146.24-.427c8.14 1.312 15.773 10.502 16.819 20.251.911 8.494.31 109.568-.667 112.124-4.182 10.942-10.742 16-20.752 16-9.944 0-16.66-5.18-20.741-15.998-.956-2.534-1.577-101.016-.701-111.269 1.229-14.404 12.244-23.332 26.042-21.108M21.2 87.59c-3.768.4-6.889 1.426-8.019 2.636-.539.579-1.638 1.389-2.44 1.8-.802.412-1.882 1.304-2.4 1.982a81.98 81.98 0 0 1-2.274 2.798c-4.514 5.296-4.72 19.554-.363 25.195 4.349 5.632 6.211 7.022 12.687 9.469 3.644 1.377 8.719 1.539 11.409.363.88-.384 2.695-1.042 4.034-1.462 5.39-1.689 11.044-8.017 12.203-13.658.238-1.162.774-2.837 1.19-3.723 1.318-2.804 1.364-3.917.25-6.055-.556-1.064-1.317-3.358-1.692-5.097-.554-2.565-.961-3.47-2.161-4.8-.813-.901-1.886-2.227-2.385-2.947-.498-.72-1.656-1.688-2.573-2.152-.916-.464-1.811-1.091-1.987-1.394-1.217-2.084-9.248-3.618-15.479-2.955m296.324.01c-3.756.462-6.849 1.433-7.754 2.433-.423.469-1.412 1.18-2.197 1.58-2.004 1.023-6.193 5.624-6.789 7.458-.274.841-.914 2.339-1.422 3.329-3.983 7.752.578 20.925 9.187 26.534 1.368.891 7.301 2.979 10.051 3.538 4.479.909 12.858-1.631 16.315-4.945 1.106-1.06 2.16-1.927 2.344-1.927.184 0 .893-.991 1.577-2.202.684-1.211 1.476-2.336 1.762-2.5 4.073-2.336 4.148-17.962.108-22.434-.756-.836-1.775-2.234-2.265-3.106-.498-.885-1.71-2.103-2.743-2.758-1.019-.644-2.133-1.507-2.475-1.918-1.995-2.392-9.44-3.854-15.699-3.082M31 89.427c15.406 4.303 19.624 26.179 7.029 36.458-7.337 5.986-19.076 6.142-26.103.346C-6.231 111.254 8.358 83.103 31 89.427m296.418-.017c7.35 2.057 14.334 10.841 14.842 18.666 1.235 18.989-21.784 29.815-35.62 16.752-16.105-15.207-.718-41.437 20.778-35.418m-61.535 47.578c-2.587.541-5.483 1.912-5.483 2.596 0 .175-.57.555-1.267.844-1.93.799-6.172 4.986-7.189 7.095-.498 1.032-1.298 2.189-1.778 2.57-3.331 2.642-3.303 14.772.041 17.914.569.534 1.383 1.759 1.809 2.722 3.711 8.389 19.635 14.36 26.752 10.032.714-.434 2.171-1.121 3.239-1.527 2.533-.962 6.985-4.922 8.213-7.306.531-1.029 1.149-1.986 1.375-2.125 3.024-1.869 3.761-15.477 1.078-19.877-2.701-4.426-4.814-7.025-6.769-8.324-1.157-.769-2.734-1.878-3.504-2.465-3.092-2.356-10.757-3.353-16.517-2.149m9.544 1.043c10.258 1.864 18.635 12.932 17.382 22.969-3.209 25.72-40.057 24.676-42.665-1.209-.83-8.242 7.881-19.64 16.318-21.35 1.176-.238 2.498-.504 2.938-.591 1.564-.308 3.686-.244 6.027.181M18.839 186.219c-1.409.306-3.278 1.056-4.154 1.668a92.404 92.404 0 0 1-3.538 2.317c-1.101.682-2.532 2.071-3.295 3.2-.743 1.098-1.729 2.335-2.193 2.75-4.968 4.449-4.035 19.639 1.646 26.785 11.668 14.678 34.82 9.49 39.005-8.739 1.012-4.408 1.326-7.385.87-8.238-.19-.354-.621-1.971-.96-3.593-.627-3.007-2.39-7.169-3.037-7.169-.197 0-1.089-.99-1.983-2.199-1.001-1.355-2.349-2.59-3.512-3.216-1.038-.559-2.481-1.446-3.205-1.972-2.778-2.017-10.206-2.774-15.644-1.594m9.561 1.184c6.07.766 14.107 7.679 16.042 13.797 7.927 25.072-24.737 39.602-38.368 17.068-7.028-11.619 1.928-29.352 15.67-31.025 2.436-.297 3.182-.279 6.656.16m41.291 43.824c-7.083.921-15.571 9.041-17.353 16.601-.675 2.864-.972 61.858-.336 66.772 1.256 9.705 9.317 18.028 18.446 19.048 9.073 1.013 14.714-1.053 20.585-7.54 2.082-2.3 2.85-3.527 3.757-6 .627-1.709 1.493-3.923 1.923-4.92 1.111-2.571 1.831-7.042 1.514-9.396-.148-1.096-.411-13.692-.585-27.992l-.317-26-1.476-4.147c-2.843-7.984-6.445-12.03-13.768-15.462-2.501-1.172-7.685-1.575-12.39-.964m296.396-.023c-1.382.193-3.002.606-3.6.919-4.665 2.441-6.7 3.844-7.802 5.377-.671.935-1.361 1.7-1.532 1.7-.769 0-2.579 3.149-4.081 7.098l-1.636 4.302-.255 24.8c-.184 17.989-.404 25.706-.799 28.1-.46 2.786-.46 3.814.001 6.6.398 2.411.61 10.092.785 28.5l.24 25.2 1.701 4.366c1.379 3.541 2.094 4.788 3.784 6.6 3.61 3.869 3.312 3.793 15.707 3.968 15.815.222 16.194.118 20.241-5.554 4.213-5.906 3.956-1.619 3.957-66.028.002-59.095-.017-59.68-2.115-63.207-6.162-10.361-13.689-14.26-24.596-12.741M79.8 233.479c6.931 2.143 12.598 7.964 14.527 14.921.953 3.436 1.191 61.359.273 66.26-3.66 19.531-26.933 24.311-37.962 7.797-4.059-6.078-3.901-4.33-3.742-41.319.149-34.411.027-32.843 2.923-37.513 5.729-9.237 14.677-13.022 23.981-10.146m297.8.43c6.6 2.663 12.031 8.998 13.418 15.649.817 3.917.686 114.502-.138 116.916-.688 2.015-4.918 8.383-6.28 9.455-2.575 2.025-16.823 2.961-24.561 1.614-4.882-.851-9.093-6.559-10.281-13.939-.954-5.927-.615-111.524.37-115.169 3.228-11.949 16.486-18.96 27.472-14.526m-258.8 50.473c-4.467.924-11.01 5.459-13.3 9.218-.469.77-1.428 2.083-2.129 2.917-2.37 2.817-3.451 14.382-1.71 18.3 2.334 5.256 9.333 12.233 14.139 14.094 4.531 1.755 13.995 1.201 17.368-1.017.748-.492 2.226-1.434 3.284-2.094 2.603-1.624 6.413-6.003 7.33-8.426.411-1.086 1.001-2.368 1.312-2.849 2.167-3.356 2.138-11.164-.055-14.725-.271-.44-.925-1.88-1.453-3.2-3.268-8.169-15.416-14.157-24.786-12.218m196.8.234c-1.21.339-2.83 1.051-3.6 1.582a19.537 19.537 0 0 1-2.97 1.618c-1.995.83-6.881 5.718-7.683 7.686-.336.824-1.137 2.594-1.78 3.933-3.129 6.511-1.201 17.51 3.894 22.218a46.2 46.2 0 0 1 2.29 2.317c.632.696 1.802 1.625 2.6 2.064a31.786 31.786 0 0 1 2.766 1.754c2.609 1.893 9.839 2.767 14.928 1.805 4.162-.787 10.185-4.839 12.559-8.449.844-1.285 1.948-2.723 2.453-3.197 3.598-3.381 3.605-17.351.011-21.47-.71-.812-1.53-1.952-1.823-2.533-1.391-2.756-5.762-6.183-11.219-8.797-2.385-1.142-9.206-1.434-12.426-.531m-186.645 2.256c20.618 6.776 20.648 34.184.045 40.875-11.683 3.795-26.005-6.362-26.862-19.049-.96-14.216 13.691-26.141 26.817-21.826m195.881-.513c6.206 1.59 10.619 4.472 13.233 8.641.69 1.1 1.669 2.63 2.176 3.4 2.321 3.523 2.844 11.806.99 15.665-6.399 13.316-18.971 18.109-30.285 11.547-18.02-10.452-12.499-36.966 8.25-39.614 1.21-.154 2.306-.307 2.436-.339.13-.033 1.57.283 3.2.7M168.6 333.781c-1.1.281-3.08 1.074-4.4 1.76-1.32.687-2.617 1.251-2.883 1.254-.266.003-1.256.743-2.2 1.644-.944.902-2.177 1.969-2.739 2.372-.562.402-1.372 1.413-1.8 2.246-.428.833-1.35 2.282-2.049 3.221-2.6 3.492-3.35 12.918-1.428 17.948 1.913 5.004 9.01 11.994 13.899 13.689 2.82.978 15.158.514 17.2-.646 9.621-5.468 15.358-14.609 14.233-22.678-.947-6.796-7.529-15.975-13.033-18.177-1.32-.528-2.76-1.182-3.2-1.453-2.641-1.627-7.807-2.152-11.6-1.18m49.4-.012c-5.935 1.64-12.756 6.386-14.817 10.308a37.261 37.261 0 0 1-1.789 2.97c-5.798 8.543-1.917 21.232 8.694 28.427 3.979 2.697 4.925 2.921 12.362 2.924 6.595.002 8.536-.362 10.677-2.005.59-.453 2.153-1.61 3.473-2.571 2.408-1.753 3.282-2.772 6.194-7.222 3.751-5.733 3.854-14.108.242-19.6-.724-1.1-1.8-2.855-2.393-3.9-.592-1.045-1.234-1.9-1.426-1.9-.192 0-1.04-.736-1.883-1.636-4.16-4.437-13.796-7.326-19.334-5.795m48.8.204c-1.21.401-2.74 1.011-3.4 1.354-.66.343-2.023.974-3.028 1.403-5.096 2.174-11.595 11.673-12.407 18.135-.41 3.269.277 6.759 1.842 9.362.52.865 1.406 2.489 1.968 3.608 1.484 2.956 5.666 6.739 10.425 9.429 1.716.97 11.883 1.574 16.03.952 4.344-.651 11.24-6.649 14.522-12.629 2.388-4.352 2.062-15.252-.565-18.87-.526-.724-1.401-2.127-1.944-3.117-3.833-6.988-16.151-12.046-23.443-9.627m-88.243 2.472c10.723 3.187 17.745 14.299 15.212 24.073-5.271 20.341-30.881 23.212-40.336 4.522-7.748-15.318 8.308-33.593 25.124-28.595m48.718-.226c10.25 2.657 18.118 13.773 16.389 23.157-3.227 17.513-24.176 24.121-36.707 11.579-14.762-14.776-.007-40.002 20.318-34.736m48.725-.194c9.069 2.046 15.691 9.361 16.815 18.575 1.991 16.33-17.042 28.661-31.327 20.294-7.155-4.19-12.201-12.939-11.278-19.555 1.835-13.159 13.695-22.041 25.79-19.314" fill="#a6a6a6"/><path d="M113.645 34.009c-2.751.382-4.191 1.326-4.619 3.029-.133.529-.517.962-.853.962-1.44 0-2.948 1.221-3.349 2.712-.305 1.132-.707 1.62-1.622 1.965-1.487.561-2.216 2.156-2.832 6.189-.246 1.614-.835 3.564-1.309 4.334-.84 1.366-.866 1.847-1.061 19.691l-.2 18.291-1.048 1.048-1.048 1.048-1.264-2.208c-.86-1.503-1.815-2.531-2.995-3.222-.952-.559-2.03-1.47-2.394-2.026-1.785-2.724-8.249-3.661-20.746-3.008-6.057.317-7.251.738-7.975 2.816-.225.643-.67 1.17-.989 1.17-1.415 0-2.921 1.239-3.383 2.783-.346 1.155-.772 1.683-1.586 1.967-1.554.542-2.213 1.779-2.798 5.25-.278 1.65-.531 3.041-.563 3.09-.62.962-4.167-1.717-5.273-3.982-.936-1.918-1.658-2.816-2.8-3.486-.846-.496-2.025-1.489-2.62-2.205-1.369-1.648-4.181-2.852-7.518-3.218-1.43-.156-2.875-.527-3.212-.824-2.05-1.807-7.003-1.837-9.717-.058-.49.321-1.967.711-3.281.866-5.728.678-13.363 7.392-14.043 12.349-.237 1.73-.341 1.868-1.401 1.868H0v16.4h1.144c1.08 0 1.158.117 1.389 2.065.323 2.726 1.778 5.598 3.172 6.259.607.288 1.353 1.12 1.657 1.848.605 1.446 2.01 2.628 3.126 2.628.39 0 1.406.629 2.257 1.398 4.614 4.168 19.112 4.472 23.375.49.685-.64 2.063-1.465 3.063-1.832 1.348-.497 1.997-1.029 2.515-2.062.384-.766 1.36-1.843 2.168-2.394 1.035-.704 1.644-1.533 2.057-2.8.722-2.214.728-2.222 1.423-1.645 1.062.882 1.173 2.665 1.413 22.845L49 164.6l1.078 2.2c.593 1.21 1.275 3.438 1.516 4.95.523 3.29 1.212 4.782 3.071 6.65.766.77 1.791 2.029 2.279 2.798.487.769 1.696 1.849 2.687 2.4.99.551 2.298 1.481 2.906 2.067 3.197 3.083 20.016 3.044 23.113-.054.619-.618 1.681-1.318 2.36-1.555 1.697-.591 6.772-5.865 7.068-7.344.128-.644.742-1.546 1.362-2.005.621-.459 1.613-1.79 2.204-2.958 1.243-2.458 1.551-2.452 1.893.041.332 2.426 1.529 4.668 3.427 6.425.861.796 1.787 1.983 2.058 2.637.289.698 1.115 1.508 1.999 1.959.828.422 2.337 1.487 3.352 2.366 4.166 3.606 19.876 3.885 23.627.42.66-.61 1.65-1.245 2.2-1.411 1.371-.416 6.211-5.161 6.85-6.717.287-.698 1.088-1.809 1.782-2.469 2.833-2.697 2.715-.113 2.869-62.8.16-65.379.139-65.803-3.317-68.439-.738-.563-1.446-1.535-1.588-2.178-.267-1.218-2.256-3.183-3.222-3.183-.31 0-1.014-.712-1.563-1.583-1.576-2.497-3.397-2.892-14.011-3.039-4.84-.068-9.95.037-11.355.231M361 33.979c-3.664.489-6.6 2.013-6.6 3.428 0 .257-.805.881-1.789 1.387-1.469.756-1.981 1.338-2.87 3.263-.595 1.289-1.215 2.343-1.379 2.343-.522 0-2.019 2.751-2.671 4.91-.534 1.768-.667 5.917-.861 26.89-.127 13.64-.351 24.53-.499 24.2-.148-.33-.38-1.27-.516-2.089-.256-1.543-1.422-2.711-2.707-2.711-.461 0-.944-.573-1.361-1.615-.619-1.549-2.164-2.785-3.479-2.785-.314 0-.8-.554-1.081-1.231-.719-1.735-1.768-2.286-5.406-2.834-1.785-.27-3.596-.797-4.127-1.202-2.214-1.687-7.55-1.711-9.35-.042-.596.553-1.721.936-3.304 1.125-3.68.439-6.496 1.624-7.228 3.039-.39.754-1.275 1.475-2.405 1.959-1.461.626-1.93 1.101-2.572 2.598-.432 1.007-1.285 2.252-1.895 2.765-4.141 3.485-4.098 20.029.065 24.636.789.874 1.435 1.872 1.435 2.218 0 1.112 4.47 5.425 6.616 6.384 1.109.495 2.279 1.219 2.6 1.608 2.946 3.567 17.511 3.863 22.023.448.924-.699 2.688-1.837 3.921-2.53 1.538-.864 2.498-1.742 3.063-2.8.5-.938 1.439-1.863 2.4-2.365 1.716-.896 2.433-2.055 3.194-5.158.412-1.682.502 1.745.542 20.582.058 27.754.34 30.94 3.003 33.923.726.812 1.435 1.955 1.577 2.538.338 1.397 5.476 6.646 7.037 7.191.673.234 1.758.926 2.412 1.536 3.653 3.414 21.716 3.154 23.585-.338.219-.408 1.358-1.197 2.532-1.753 1.716-.812 2.282-1.338 2.888-2.681.414-.919 1.237-1.921 1.828-2.227 1.423-.736 2.773-3.691 3.281-7.184.225-1.543.733-3.268 1.13-3.833 1.781-2.542 1.768-2.097 1.768-58.372 0-56.621.053-54.914-1.802-57.6-.38-.55-.816-1.9-.97-3-.507-3.627-1.052-5.024-2.549-6.533-.813-.82-1.734-1.981-2.047-2.579-.312-.598-.724-1.088-.917-1.088-.192 0-1.205-.801-2.251-1.779-1.047-.979-2.434-1.993-3.083-2.254-1.417-.569-17.594-.865-21.181-.388m-228.146 1.582c4.363 2.096 9.693 7.284 10.975 10.683.406 1.076 1.046 2.496 1.424 3.156 1.494 2.612 1.547 4.694 1.547 60.219 0 59.457.128 56.406-2.635 62.597-4.888 10.951-16.438 15.786-28.687 12.008-3.664-1.13-8.688-5.243-10.778-8.824a34.903 34.903 0 0 0-1.679-2.528c-2.486-3.374-2.432-1.895-2.317-62.472.11-57.58.166-59.447 1.904-62.979 1.391-2.829 4.393-6.83 5.913-7.882.704-.486 2.028-1.56 2.943-2.387 2.587-2.335 4.698-2.739 13.39-2.56 5.36.111 6.503.249 8 .969m246.655-.254c3.331 1.181 7.879 5.667 11.146 10.994 1.97 3.211 1.945 2.391 1.945 63.299 0 64.106.123 61.277-2.815 64.709-.762.89-1.385 1.826-1.385 2.079 0 .648-5.309 5.844-6.673 6.531-6.524 3.288-17.123 3.139-23.143-.325-3.848-2.214-9.384-9.386-9.384-12.158 0-.184-.405-1.212-.9-2.285-.893-1.937-.902-2.131-1.151-26.951-.15-14.899-.438-26.457-.712-28.606-.348-2.73-.347-4.285.005-6.4.296-1.779.557-11.874.719-27.794.23-22.61.322-25.172.962-26.8.39-.99 1.067-2.918 1.504-4.285.854-2.667 4.747-7.667 6.793-8.725.572-.296 1.618-1.078 2.325-1.739 1.188-1.11 2.392-1.524 6.455-2.222 2.335-.401 12.644.087 14.309.678m-112.173.067c-.915.286-2.228.922-2.917 1.413-.69.49-2.34 1.145-3.667 1.455-3.078.718-3.826 1.131-4.725 2.611-.402.66-1.338 1.504-2.079 1.874-.842.421-1.648 1.291-2.148 2.32-.44.906-1.382 2.134-2.093 2.73-3.979 3.331-3.883 22.581.125 25.207.53.347 1.244 1.303 1.586 2.124 1.138 2.731 6.253 6.892 8.473 6.892.394 0 .928.338 1.186.751 2.224 3.563 16.1 4 20.035.631.888-.76 1.956-1.382 2.373-1.382 1.143 0 4.137-2.066 5.715-3.943.77-.915 2.169-2.518 3.109-3.561 1.758-1.95 2.061-2.698 3.037-7.496.314-1.54.848-3.767 1.189-4.948.576-2.003.567-2.286-.134-4.2-.414-1.129-1.023-3.672-1.353-5.652-.563-3.374-.7-3.688-2.176-5-.867-.77-1.888-2.075-2.27-2.9-.381-.825-.863-1.5-1.072-1.5-.208 0-1.324-.895-2.48-1.988-1.689-1.597-2.531-2.077-4.276-2.439-1.196-.247-2.853-.91-3.684-1.472-2.898-1.964-8.168-2.649-11.754-1.527m8.864 3.023c3.946.645 6.538 1.637 8.114 3.104.818.76 2.157 1.813 2.978 2.34.82.527 1.837 1.634 2.26 2.459.423.825 1.316 2.186 1.984 3.025 3.625 4.546 3.791 17.189.282 21.387-.5.599-1.299 1.858-1.777 2.798-.509 1.004-1.673 2.289-2.815 3.11-1.071.769-2.042 1.645-2.157 1.946-.327.851-4.181 2.568-7.478 3.331-10.456 2.419-21.14-1.754-25.564-9.985-2.558-4.757-2.863-5.555-3.316-8.658-1.302-8.936 3.394-17.889 12.074-23.017 3.018-1.783 10.385-2.663 15.415-1.84m-60.6 44.378c-4.937.32-6.77 1.034-7.708 3.001-.444.931-1.008 1.43-1.818 1.608-1.413.31-2.717 1.621-3.084 3.1-.159.642-.831 1.415-1.649 1.898-1.699 1.002-2.493 2.785-3.126 7.018-.263 1.76-.734 3.65-1.047 4.2-.944 1.662-.839 106.283.111 110.2.374 1.54.794 3.88.934 5.2.317 2.983 1.339 5.374 3.062 7.165.729.758 1.797 2.17 2.374 3.139.666 1.116 1.763 2.175 3 2.892 1.073.623 2.093 1.37 2.267 1.66 2.449 4.1 21.349 4.547 25.92.613a41.857 41.857 0 0 1 3.531-2.672c1.004-.662 2.063-1.698 2.353-2.304.29-.605 1.114-1.684 1.83-2.397 2.253-2.241 3.018-3.947 3.655-8.149.328-2.171.867-4.831 1.196-5.911.494-1.618.599-5.108.599-19.864v-17.901l1.231-1.035c1.599-1.346 1.569-1.356 2.969.989.974 1.632 4.004 4.375 4.832 4.375.105 0 1.097.716 2.205 1.591 5.28 4.174 20.727 4.065 24.881-.177.705-.72 2.062-1.704 3.015-2.186 1.003-.508 2.014-1.41 2.4-2.142.367-.695 1.422-1.989 2.344-2.875 1.947-1.87 2.706-3.653 3.316-7.789.241-1.638.595-3.168.787-3.4.947-1.145 1.181-4.795.413-6.422-.416-.88-.951-2.838-1.19-4.351-.599-3.791-1.317-5.307-2.978-6.287-1.026-.606-1.529-1.262-1.834-2.395-.415-1.542-1.899-2.767-3.352-2.767-.331 0-.894-.616-1.251-1.369-.771-1.624-2.445-2.402-6.676-3.1-1.719-.284-3.454-.859-4.276-1.416-1.645-1.117-5.482-.969-7.262.28-.564.396-2.251.91-3.749 1.143-3.274.51-6.252 1.905-6.897 3.232-.259.534-1.249 1.344-2.2 1.8-1.299.624-1.942 1.277-2.591 2.63-.475.99-1.06 1.782-1.3 1.76-2.811-.258-2.614 1.186-2.857-20.845-.187-16.938-.315-20.154-.858-21.515-.351-.88-.841-2.931-1.089-4.558-.564-3.701-1.386-5.466-2.85-6.114-.778-.344-1.356-1.065-1.812-2.259-.562-1.472-.967-1.879-2.52-2.531-1.299-.546-2.03-1.159-2.451-2.058-1.127-2.405-9.212-3.456-20.8-2.705M83 84.55c.88.381 2.05 1.104 2.6 1.608.55.503 1.656 1.306 2.459 1.785.802.479 1.771 1.363 2.153 1.964.382.601 1.215 1.515 1.852 2.031 1.278 1.035 2.489 3.171 2.914 5.141.152.704.794 1.931 1.427 2.728 2.248 2.828 2.195 2.02 2.195 33.393 0 31.751.053 30.977-2.394 35.257-.548.958-.999 2.013-1.002 2.343-.026 2.553-6.129 10.227-9.503 11.949-10.272 5.24-25.166 2.125-29.398-6.149-.45-.88-1.14-1.827-1.533-2.103-2.778-1.957-3.169-7.012-3.161-40.897.008-33 .284-36.762 2.866-39.053.463-.411 1.46-1.706 2.215-2.878.756-1.172 2.201-2.702 3.213-3.4 1.011-.698 2.396-1.747 3.077-2.33 2.788-2.391 15.647-3.283 20.02-1.389m148.128-.013c7.994 4.291 13.197 11.419 14.062 19.263.565 5.126.59 105.246.028 110.2-.475 4.177-.96 5.908-2.146 7.657-.505.743-1.429 2.291-2.055 3.44-.625 1.149-1.605 2.389-2.177 2.755-.572.366-1.565 1.289-2.206 2.052-.743.882-2.561 2.061-5 3.241L227.8 235l-5.6-.008-5.6-.008-3.6-1.737c-4.037-1.948-8.283-5.69-10.039-8.847-.551-.99-1.428-2.506-1.949-3.37-2.03-3.362-2.012-2.821-2.012-61.83 0-43.792.107-55.58.527-57.845.887-4.788 5.478-11.338 9.845-14.045.895-.555 2.028-1.373 2.516-1.818 2.178-1.984 16.042-2.673 19.24-.955M31.2 88.076c2.419.458 4.978 1.611 5.479 2.469.176.303 1.071.93 1.987 1.394.917.464 2.075 1.432 2.573 2.152.499.72 1.572 2.046 2.385 2.947 1.2 1.33 1.607 2.235 2.161 4.8.375 1.739 1.136 4.033 1.692 5.097 1.114 2.138 1.068 3.251-.25 6.055-.416.886-.952 2.561-1.19 3.723-1.159 5.641-6.813 11.969-12.203 13.658-1.339.42-3.154 1.078-4.034 1.462-2.69 1.176-7.765 1.014-11.409-.363-6.476-2.447-8.338-3.837-12.687-9.469-4.357-5.641-4.151-19.899.363-25.195a81.98 81.98 0 0 0 2.274-2.798c.518-.678 1.598-1.57 2.4-1.982.802-.411 1.901-1.221 2.44-1.8 2.337-2.503 10.815-3.515 18.019-2.15m296.4-.012c2.491.485 4.703 1.515 5.623 2.618.342.411 1.456 1.274 2.475 1.918 1.033.655 2.245 1.873 2.743 2.758.49.872 1.509 2.27 2.265 3.106 4.04 4.472 3.965 20.098-.108 22.434-.286.164-1.078 1.289-1.762 2.5-.684 1.211-1.393 2.202-1.577 2.202-.184 0-1.238.867-2.344 1.927-3.457 3.314-11.836 5.854-16.315 4.945-2.75-.559-8.683-2.647-10.051-3.538-8.609-5.609-13.17-18.782-9.187-26.534.508-.99 1.148-2.488 1.422-3.329.596-1.834 4.785-6.435 6.789-7.458.785-.4 1.774-1.111 2.197-1.58 2.087-2.307 11.026-3.294 17.83-1.969m-48.6 49.34c1.1.366 2.63 1.146 3.4 1.733.77.587 2.347 1.696 3.504 2.465 1.955 1.299 4.068 3.898 6.769 8.324 2.683 4.4 1.946 18.008-1.078 19.877-.226.139-.844 1.096-1.375 2.125-1.228 2.384-5.68 6.344-8.213 7.306-1.068.406-2.525 1.093-3.239 1.527-7.117 4.328-23.041-1.643-26.752-10.032-.426-.963-1.24-2.188-1.809-2.722-3.344-3.142-3.372-15.272-.041-17.914.48-.381 1.28-1.538 1.778-2.57 1.017-2.109 5.259-6.296 7.189-7.095.697-.289 1.267-.669 1.267-.844 0-2.511 13.025-4.037 18.6-2.18M22.597 183.755c-.661.289-2.731.748-4.6 1.021-4.232.619-5.638 1.196-6.764 2.778-.487.684-1.324 1.354-1.858 1.488-.535.134-1.738 1.16-2.674 2.28-.935 1.119-2.093 2.429-2.571 2.909-.527.528-1.061 1.842-1.353 3.321-.455 2.317-.543 2.448-1.629 2.448H0v16.8h1.146c1.053 0 1.165.144 1.391 1.792.37 2.702 1.273 4.504 2.687 5.364.701.426 1.597 1.498 1.994 2.384.579 1.294 1.031 1.703 2.31 2.086 1.014.304 1.751.828 2.033 1.448 1.943 4.265 21.736 4.528 26.019.346.8-.781 1.699-1.42 2-1.42 1.081 0 5.954-5.484 6.476-7.289.272-.941.996-2.297 1.609-3.013 3.517-4.11 3.25-16.939-.422-20.26-.464-.419-.843-1.153-.843-1.631 0-1.18-2.006-4.1-3.988-5.807a181.59 181.59 0 0 1-3.466-3.085c-2.081-1.904-3.041-2.279-7.494-2.927-1.731-.251-3.869-.712-4.75-1.023-1.944-.686-2.55-.687-4.105-.01m7.807 2.473c1.518.346 3.354 1.059 4.079 1.585.724.526 2.167 1.413 3.205 1.972 1.163.626 2.511 1.861 3.512 3.216.894 1.209 1.786 2.199 1.983 2.199.647 0 2.41 4.162 3.037 7.169.339 1.622.77 3.239.96 3.593 1.63 3.046-1.825 13.412-6.013 18.038-12.879 14.226-35.896 7.043-38.431-11.993-.785-5.894.682-13.845 2.923-15.853.464-.415 1.45-1.652 2.193-2.75.763-1.129 2.194-2.518 3.295-3.2a92.404 92.404 0 0 0 3.538-2.317c3.035-2.12 10.312-2.889 15.719-1.659m34.444 43.804c-2.109.414-3.497 1.263-3.842 2.349-.14.442-1.056 1.158-2.036 1.591-1.435.635-1.931 1.138-2.552 2.585-.488 1.14-1.207 2.024-1.963 2.415-1.372.709-2.576 3.471-3.056 7.01-.163 1.201-.647 2.657-1.075 3.236-1.415 1.914-1.505 3.925-1.497 33.582.008 30.613.039 31.224 1.677 33.126.319.371.79 1.995 1.047 3.61.65 4.073 1.282 5.399 2.955 6.192 1.075.511 1.463.983 1.657 2.014.281 1.5 1.101 2.378 2.713 2.906.592.194 1.494.975 2.005 1.736 1.484 2.21 3.136 2.53 13.119 2.544 10.335.014 10.813-.099 15-3.546 3.807-3.134 5.119-4.575 6.151-6.756.423-.894 1.242-2.166 1.82-2.826.578-.66 1.435-2.507 1.903-4.104.978-3.336.97-3.336 2.087-.002.682 2.037 1.125 2.69 2.366 3.49.961.62 1.607 1.387 1.744 2.072.266 1.327 1.547 2.548 3.043 2.903.626.148 1.263.653 1.454 1.152.746 1.95 2.339 2.729 7.181 3.509 1.402.226 3.18.735 3.953 1.131 1.526.783 4.236.57 6.698-.527.66-.293 2.28-.66 3.6-.813 3.127-.364 5.588-1.468 7.394-3.319.801-.821 2.074-1.855 2.828-2.298.854-.502 1.708-1.514 2.261-2.679.489-1.029 1.241-2.06 1.672-2.291 4.516-2.417 4.753-20.532.331-25.295-.547-.589-1.574-2.084-2.282-3.321-.774-1.354-1.896-2.635-2.816-3.216a30.286 30.286 0 0 1-2.859-2.096c-3.27-2.782-6.592-3.66-13.929-3.679-7.341-.019-11.888 1.122-13.224 3.318-.406.668-1.511 1.585-2.457 2.039-1.286.618-1.921 1.262-2.519 2.555-.594 1.284-1.086 1.787-1.912 1.952-1.436.289-2.552 1.73-2.89 3.731-.778 4.603-.998-.096-1-21.312-.003-26.254-.252-29.139-2.768-32.005-.625-.712-1.411-1.953-1.747-2.758-.603-1.442-5.237-6.337-6.001-6.337-.216 0-1.151-.699-2.079-1.554-1.202-1.109-2.282-1.682-3.764-2-2.401-.515-15.79-.525-18.391-.014m296.375-.015c-.982.203-2.414.911-3.2 1.581a39.356 39.356 0 0 1-2.823 2.164c-2.205 1.496-5.118 4.781-5.94 6.697-.413.964-1.057 2.007-1.432 2.318-2.589 2.149-2.738 3.679-2.995 30.823-.199 21.034-.308 24.339-.75 22.8-.813-2.833-1.265-3.472-2.916-4.12-1.196-.47-1.69-.972-2.193-2.228-.522-1.304-1.024-1.79-2.571-2.489-1.109-.501-2.11-1.28-2.365-1.84-1.764-3.87-19.752-4.661-24.773-1.089-1.026.73-2.957 2.063-4.291 2.963-1.725 1.164-2.819 2.295-3.79 3.92-.75 1.256-1.504 2.384-1.676 2.508-4.653 3.353-5.012 21.961-.492 25.516.498.392 1.419 1.69 2.046 2.886.826 1.574 1.555 2.376 2.647 2.91.828.405 1.959 1.33 2.513 2.057 1.228 1.61 3.969 2.837 7.178 3.214 1.32.155 2.94.523 3.6.816 2.452 1.093 5.18 1.312 6.65.535.742-.393 2.16-.831 3.15-.973 4.981-.716 6.989-1.533 7.759-3.156.453-.955 1.038-1.422 2.226-1.778 1.598-.479 2.815-1.968 2.815-3.445 0-.348.315-.733.7-.857 2.558-.822 2.908-1.089 3.28-2.498l.702-2.652c.175-.66.415 10.14.534 24 .239 27.899.185 27.326 2.876 30.676.761.948 1.491 2.025 1.622 2.394 1.954 5.506 2.781 5.73 21.104 5.73 17.197 0 17.051.022 17.964-2.745.305-.924.845-1.535 1.654-1.87 1.577-.653 2.269-2.083 2.84-5.871.323-2.142.754-3.461 1.381-4.226 1.527-1.863 1.543-2.441 1.543-57.088 0-54.701-.031-55.849-1.547-58.084-.527-.777-1.108-2.558-1.389-4.262-.658-3.983-1.367-5.506-3.018-6.48-.881-.52-1.484-1.236-1.64-1.948-.295-1.342-1.621-2.671-3.01-3.016-.552-.136-1.313-.787-1.691-1.446-1.258-2.192-2.756-2.516-12.105-2.621-4.62-.052-9.2.071-10.177.274m-283.342 1.182c4.564.593 9.187 3.186 12.836 7.201 2.783 3.062 3.185 3.786 5.132 9.253l1.476 4.147.317 26c.174 14.3.437 26.896.585 27.992.317 2.354-.403 6.825-1.514 9.396-.43.997-1.296 3.211-1.923 4.92-1.251 3.411-4.887 7.941-7.939 9.892-4.892 3.128-4.99 3.167-8.968 3.611-9.744 1.086-16.232-1.476-21.298-8.411-5.194-7.111-5.093-6.184-4.88-44.8.172-31.389.252-32.978 1.796-35.837 5.725-10.596 13.381-14.793 24.38-13.364m301.681 1.709c4.935 2.483 7.618 5.147 11.121 11.037 2.098 3.527 2.117 4.112 2.115 63.207-.001 64.409.256 60.122-3.957 66.028-4.047 5.672-4.426 5.776-20.241 5.554-12.395-.175-12.097-.099-15.707-3.968-1.69-1.812-2.405-3.059-3.784-6.6l-1.701-4.366-.24-25.2c-.175-18.408-.387-26.089-.785-28.5-.461-2.786-.461-3.814-.001-6.6.395-2.394.615-10.111.799-28.1l.255-24.8 1.636-4.302c1.502-3.949 3.312-7.098 4.081-7.098.171 0 .861-.765 1.532-1.7 1.102-1.533 3.137-2.936 7.802-5.377 3.724-1.948 12.442-1.548 17.075.785m-251.124 51.667c6.142 1.599 13.228 7.224 15.148 12.025.528 1.32 1.182 2.76 1.453 3.2 2.193 3.561 2.222 11.369.055 14.725-.311.481-.901 1.763-1.312 2.849-.917 2.423-4.727 6.802-7.33 8.426-1.058.66-2.536 1.602-3.284 2.094-3.373 2.218-12.837 2.772-17.368 1.017-4.806-1.861-11.805-8.838-14.139-14.094-1.741-3.918-.66-15.483 1.71-18.3.701-.834 1.66-2.147 2.129-2.917 2.29-3.759 8.833-8.294 13.3-9.218 2.428-.503 7.347-.404 9.638.193m199.588.572c5.457 2.614 9.828 6.041 11.219 8.797.293.581 1.113 1.721 1.823 2.533 3.594 4.119 3.587 18.089-.011 21.47-.505.474-1.609 1.912-2.453 3.197-2.374 3.61-8.397 7.662-12.559 8.449-5.089.962-12.319.088-14.928-1.805a31.786 31.786 0 0 0-2.766-1.754c-.798-.439-1.968-1.368-2.6-2.064a46.2 46.2 0 0 0-2.29-2.317c-5.095-4.708-7.023-15.707-3.894-22.218.643-1.339 1.444-3.109 1.78-3.933.802-1.968 5.688-6.856 7.683-7.686.863-.359 2.2-1.087 2.97-1.618 3.389-2.337 12.144-2.911 16.026-1.051m-160.309 46.45c-3.007.425-5.899 1.648-7.517 3.18-.66.625-1.98 1.527-2.933 2.005-1.004.503-2.013 1.397-2.4 2.126-.367.692-1.34 1.946-2.162 2.786-2.081 2.125-2.7 3.503-3.332 7.407-.302 1.863-.712 3.593-.912 3.843-.758.953-.943 4.937-.288 6.204.343.663.801 2.431 1.019 3.928.727 4.998 1.944 7.324 3.83 7.324.283 0 .631.532.774 1.181.369 1.682 1.622 3.115 2.985 3.415.76.167 1.46.746 1.993 1.65 1.391 2.358 2.734 2.678 12.045 2.871 11.472.238 15.361-.483 16.931-3.14.408-.691 1.38-1.475 2.266-1.83 1.236-.495 1.733-1.021 2.437-2.579.487-1.077 1.19-2.055 1.563-2.173 1.161-.368 1.996-1.608 3-4.453.532-1.508.971-2.369.976-1.913.025 2.544 1.762 5.811 3.553 6.685.548.267 1.168 1.026 1.378 1.686.525 1.653 1.338 2.492 2.917 3.013.768.254 1.561.887 1.852 1.479 1.287 2.623 4.271 3.302 14.508 3.302 10.242 0 13.221-.679 14.511-3.306.28-.573.91-1.153 1.4-1.29 1.93-.539 2.697-1.193 3.322-2.83.431-1.128 1.014-1.856 1.721-2.149 1.357-.562 1.985-1.58 2.837-4.6l.681-2.418.518 1.6c.906 2.797 1.984 4.565 3.151 5.169.732.378 1.375 1.218 1.816 2.372.54 1.416.989 1.91 2.162 2.38.815.326 2.053 1.305 2.751 2.175 1.964 2.446 3.39 2.704 14.93 2.699 10.965-.004 12.1-.225 13.574-2.649.512-.843 1.393-1.523 2.5-1.932 1.441-.532 1.81-.905 2.352-2.372.461-1.247.984-1.884 1.847-2.246 1.44-.606 2.311-2.529 2.935-6.479.236-1.495.769-3.438 1.185-4.318.768-1.627.534-5.277-.413-6.422-.192-.232-.552-1.762-.801-3.4-.575-3.784-1.602-6.132-3.487-7.972-.821-.801-1.852-2.063-2.292-2.804-.44-.742-1.586-1.761-2.546-2.266-.96-.505-2.176-1.383-2.703-1.951-4.069-4.391-20.319-4.437-25.022-.071-.589.547-2.04 1.548-3.223 2.225-1.505.861-2.56 1.868-3.508 3.346-.745 1.163-2.039 2.936-2.876 3.94-.84 1.008-1.814 2.798-2.177 4-.361 1.196-.708 1.995-.772 1.775-.063-.22-.39-1.39-.727-2.6-.424-1.522-1.241-2.94-2.651-4.6-1.121-1.32-2.255-2.849-2.52-3.397-.266-.548-1.381-1.565-2.479-2.258-1.098-.694-2.563-1.733-3.257-2.309-5.447-4.521-20.369-4.429-25.594.158-.752.661-2.078 1.563-2.946 2.006-.999.51-2.074 1.575-2.93 2.903-.744 1.153-1.758 2.457-2.254 2.897-1.22 1.083-2.65 4.008-3.03 6.2l-.313 1.8-.705-2.334c-.67-2.218-2.381-5.173-3.348-5.783-.246-.156-1.134-1.331-1.973-2.611-.839-1.28-1.823-2.441-2.186-2.58-.363-.138-1.38-.762-2.26-1.387-4.021-2.853-4.736-3.242-6.899-3.756-2.99-.71-9.63-.997-12.784-.552m9.51 2.237c1.195.349 2.533.856 2.973 1.127.44.271 1.88.925 3.2 1.453 5.504 2.202 12.086 11.381 13.033 18.177 1.125 8.069-4.612 17.21-14.233 22.678-2.042 1.16-14.38 1.624-17.2.646-4.889-1.695-11.986-8.685-13.899-13.689-1.922-5.03-1.172-14.456 1.428-17.948.699-.939 1.621-2.388 2.049-3.221.428-.833 1.238-1.844 1.8-2.246.562-.403 1.795-1.47 2.739-2.372.944-.901 1.934-1.641 2.2-1.644.266-.003 1.563-.567 2.883-1.254 4.43-2.304 8.952-2.896 13.027-1.707m49.115-.046c3.544.922 9.256 3.924 10.992 5.776.843.9 1.691 1.636 1.883 1.636.192 0 .834.855 1.426 1.9a84.177 84.177 0 0 0 2.393 3.9c3.612 5.492 3.509 13.867-.242 19.6-2.912 4.45-3.786 5.469-6.194 7.222-1.32.961-2.883 2.118-3.473 2.571-2.141 1.643-4.082 2.007-10.677 2.005-7.437-.003-8.383-.227-12.362-2.924-10.611-7.195-14.492-19.884-8.694-28.427a37.261 37.261 0 0 0 1.789-2.97c3.66-6.966 15.581-12.262 23.159-10.289m49.258-.032c5.761 1.424 12.515 5.965 14.643 9.844.543.99 1.418 2.393 1.944 3.117 2.627 3.618 2.953 14.518.565 18.87-3.282 5.98-10.178 11.978-14.522 12.629-4.147.622-14.314.018-16.03-.952-4.759-2.69-8.941-6.473-10.425-9.429a66.313 66.313 0 0 0-1.968-3.608c-1.565-2.603-2.252-6.093-1.842-9.362.812-6.462 7.311-15.961 12.407-18.135a55.073 55.073 0 0 0 3.028-1.403c3.892-2.024 8.151-2.572 12.2-1.571" fill="#d9d9d9"/><path d="M0 50.6v50.6h1.146c1.06 0 1.164-.138 1.401-1.868.68-4.957 8.315-11.671 14.043-12.349 1.314-.155 2.791-.545 3.281-.866 2.714-1.779 7.667-1.749 9.717.058.337.297 1.782.668 3.212.824 3.337.366 6.149 1.57 7.518 3.218.595.716 1.774 1.709 2.62 2.205 1.142.67 1.864 1.568 2.8 3.486 1.106 2.265 4.653 4.944 5.273 3.982.032-.049.285-1.44.563-3.09.585-3.471 1.244-4.708 2.798-5.25.814-.284 1.24-.812 1.586-1.967.462-1.544 1.968-2.783 3.383-2.783.319 0 .764-.527.989-1.17.724-2.078 1.918-2.499 7.975-2.816 12.497-.653 18.961.284 20.746 3.008.364.556 1.442 1.467 2.394 2.026 1.18.691 2.135 1.719 2.995 3.222l1.264 2.208 1.048-1.048 1.048-1.048.2-18.291c.195-17.844.221-18.325 1.061-19.691.474-.77 1.063-2.72 1.309-4.334.616-4.033 1.345-5.628 2.832-6.189.915-.345 1.317-.833 1.622-1.965.401-1.491 1.909-2.712 3.349-2.712.336 0 .72-.433.853-.962.726-2.891 4.588-3.648 16.974-3.328 9.537.246 11.501.715 13.011 3.107.549.871 1.253 1.583 1.563 1.583.966 0 2.955 1.965 3.222 3.183.142.643.85 1.615 1.588 2.178 3.456 2.636 3.477 3.06 3.317 68.439-.154 62.687-.036 60.103-2.869 62.8-.694.66-1.495 1.771-1.782 2.469-.639 1.556-5.479 6.301-6.85 6.717-.55.166-1.54.801-2.2 1.411-1.993 1.84-3.714 2.169-11.4 2.177-8.101.008-9.58-.306-12.227-2.597-1.015-.879-2.524-1.944-3.352-2.366-.884-.451-1.71-1.261-1.999-1.959-.271-.654-1.197-1.841-2.058-2.637-1.898-1.757-3.095-3.999-3.427-6.425-.342-2.493-.65-2.499-1.893-.041-.591 1.168-1.583 2.499-2.204 2.958-.62.459-1.234 1.361-1.362 2.005-.296 1.479-5.371 6.753-7.068 7.344-.679.237-1.741.937-2.36 1.555-3.097 3.098-19.916 3.137-23.113.054-.608-.586-1.916-1.516-2.906-2.067-.991-.551-2.2-1.631-2.687-2.4-.488-.769-1.513-2.028-2.279-2.798-1.859-1.868-2.548-3.36-3.071-6.65-.241-1.512-.923-3.74-1.516-4.95L49 164.6l-.241-20.2c-.24-20.18-.351-21.963-1.413-22.845-.695-.577-.701-.569-1.423 1.645-.413 1.267-1.022 2.096-2.057 2.8-.808.551-1.784 1.628-2.168 2.394-.518 1.033-1.167 1.565-2.515 2.062-1 .367-2.378 1.192-3.063 1.832-4.263 3.982-18.761 3.678-23.375-.49-.851-.769-1.867-1.398-2.257-1.398-1.116 0-2.521-1.182-3.126-2.628-.304-.728-1.05-1.56-1.657-1.848-1.394-.661-2.849-3.533-3.172-6.259-.231-1.948-.309-2.065-1.389-2.065H0V200h1.148c1.086 0 1.174-.131 1.629-2.448.292-1.479.826-2.793 1.353-3.321.478-.48 1.636-1.79 2.571-2.909.936-1.12 2.139-2.146 2.674-2.28.534-.134 1.371-.804 1.858-1.488 1.112-1.563 2.527-2.153 6.567-2.739 1.76-.256 3.977-.753 4.927-1.104 1.586-.588 1.896-.587 3.8.009 1.14.357 3.423.848 5.073 1.09 4.308.632 5.284 1.018 7.346 2.905a181.59 181.59 0 0 0 3.466 3.085c1.982 1.707 3.988 4.627 3.988 5.807 0 .478.379 1.212.843 1.631 3.672 3.321 3.939 16.15.422 20.26-.613.716-1.337 2.072-1.609 3.013-.522 1.805-5.395 7.289-6.476 7.289-.301 0-1.2.639-2 1.42-4.283 4.182-24.076 3.919-26.019-.346-.282-.62-1.019-1.144-2.033-1.448-1.279-.383-1.731-.792-2.31-2.086-.397-.886-1.293-1.958-1.994-2.384-1.414-.86-2.317-2.662-2.687-5.364-.226-1.648-.338-1.792-1.391-1.792H0V400h400V0H0v50.6m382.181-16.233c.649.261 2.036 1.275 3.083 2.254 1.046.978 2.059 1.779 2.251 1.779.193 0 .605.49.917 1.088.313.598 1.234 1.759 2.047 2.579 1.497 1.509 2.042 2.906 2.549 6.533.154 1.1.59 2.45.97 3 1.855 2.686 1.802.979 1.802 57.6 0 56.275.013 55.83-1.768 58.372-.397.565-.905 2.29-1.13 3.833-.508 3.493-1.858 6.448-3.281 7.184-.591.306-1.414 1.308-1.828 2.227-.606 1.343-1.172 1.869-2.888 2.681-1.174.556-2.313 1.345-2.532 1.753-1.869 3.492-19.932 3.752-23.585.338-.654-.61-1.739-1.302-2.412-1.536-1.561-.545-6.699-5.794-7.037-7.191-.142-.583-.851-1.726-1.577-2.538-2.663-2.983-2.945-6.169-3.003-33.923-.04-18.837-.13-22.264-.542-20.582-.761 3.103-1.478 4.262-3.194 5.158-.961.502-1.9 1.427-2.4 2.365-.565 1.058-1.525 1.936-3.063 2.8-1.233.693-2.997 1.831-3.921 2.53-4.512 3.415-19.077 3.119-22.023-.448-.321-.389-1.491-1.113-2.6-1.608-2.146-.959-6.616-5.272-6.616-6.384 0-.346-.646-1.344-1.435-2.218-4.163-4.607-4.206-21.151-.065-24.636.61-.513 1.463-1.758 1.895-2.765.642-1.497 1.111-1.972 2.572-2.598 1.13-.484 2.015-1.205 2.405-1.959.732-1.415 3.548-2.6 7.228-3.039 1.583-.189 2.708-.572 3.304-1.125 1.8-1.669 7.136-1.645 9.35.042.531.405 2.342.932 4.127 1.202 3.638.548 4.687 1.099 5.406 2.834.281.677.767 1.231 1.081 1.231 1.315 0 2.86 1.236 3.479 2.785.417 1.042.9 1.615 1.361 1.615 1.285 0 2.451 1.168 2.707 2.711.136.819.368 1.759.516 2.089.148.33.372-10.56.499-24.2.194-20.973.327-25.122.861-26.89.652-2.159 2.149-4.91 2.671-4.91.164 0 .784-1.054 1.379-2.343.889-1.925 1.401-2.507 2.87-3.263.984-.506 1.789-1.13 1.789-1.387 0-1.415 2.936-2.939 6.6-3.428 3.587-.477 19.764-.181 21.181.388m-106.678.972c1.143.296 2.757.999 3.587 1.562.831.562 2.488 1.225 3.684 1.472 1.745.362 2.587.842 4.276 2.439 1.156 1.093 2.272 1.988 2.48 1.988.209 0 .691.675 1.072 1.5.382.825 1.403 2.13 2.27 2.9 1.476 1.312 1.613 1.626 2.176 5 .33 1.98.939 4.523 1.353 5.652.701 1.914.71 2.197.134 4.2-.341 1.181-.875 3.408-1.189 4.948-.976 4.798-1.279 5.546-3.037 7.496a169.589 169.589 0 0 0-3.109 3.561c-1.578 1.877-4.572 3.943-5.715 3.943-.417 0-1.485.622-2.373 1.382-3.935 3.369-17.811 2.932-20.035-.631-.258-.413-.792-.751-1.186-.751-2.22 0-7.335-4.161-8.473-6.892-.342-.821-1.056-1.777-1.586-2.124-4.008-2.626-4.104-21.876-.125-25.207.711-.596 1.653-1.824 2.093-2.73.5-1.029 1.306-1.899 2.148-2.32.741-.37 1.677-1.214 2.079-1.874.899-1.48 1.647-1.893 4.725-2.611 1.327-.31 2.977-.965 3.667-1.455 2.675-1.906 7.095-2.483 11.084-1.448M233.8 83.549c1.553.505 2.134.937 2.6 1.931.421.899 1.152 1.512 2.451 2.058 1.553.652 1.958 1.059 2.52 2.531.456 1.194 1.034 1.915 1.812 2.259 1.464.648 2.286 2.413 2.85 6.114.248 1.627.738 3.678 1.089 4.558.543 1.361.671 4.577.858 21.515.243 22.031.046 20.587 2.857 20.845.24.022.825-.77 1.3-1.76.649-1.353 1.292-2.006 2.591-2.63.951-.456 1.941-1.266 2.2-1.8.645-1.327 3.623-2.722 6.897-3.232 1.498-.233 3.185-.747 3.749-1.143 1.78-1.249 5.617-1.397 7.262-.28.822.557 2.557 1.132 4.276 1.416 4.231.698 5.905 1.476 6.676 3.1.357.753.92 1.369 1.251 1.369 1.453 0 2.937 1.225 3.352 2.767.305 1.133.808 1.789 1.834 2.395 1.661.98 2.379 2.496 2.978 6.287.239 1.513.774 3.471 1.19 4.351.768 1.627.534 5.277-.413 6.422-.192.232-.546 1.762-.787 3.4-.61 4.136-1.369 5.919-3.316 7.789-.922.886-1.977 2.18-2.344 2.875-.386.732-1.397 1.634-2.4 2.142-.953.482-2.31 1.466-3.015 2.186-4.154 4.242-19.601 4.351-24.881.177-1.108-.875-2.1-1.591-2.205-1.591-.828 0-3.858-2.743-4.832-4.375-1.4-2.345-1.37-2.335-2.969-.989L248 175.271v17.901c0 14.756-.105 18.246-.599 19.864-.329 1.08-.868 3.74-1.196 5.911-.637 4.202-1.402 5.908-3.655 8.149-.716.713-1.54 1.792-1.83 2.397-.29.606-1.349 1.642-2.353 2.304a41.857 41.857 0 0 0-3.531 2.672c-4.571 3.934-23.471 3.487-25.92-.613-.174-.29-1.194-1.037-2.267-1.66-1.237-.717-2.334-1.776-3-2.892-.577-.969-1.645-2.381-2.374-3.139-1.723-1.791-2.745-4.182-3.062-7.165-.14-1.32-.56-3.66-.934-5.2-.95-3.917-1.055-108.538-.111-110.2.313-.55.784-2.44 1.047-4.2.633-4.233 1.427-6.016 3.126-7.018.818-.483 1.49-1.256 1.649-1.898.367-1.479 1.671-2.79 3.084-3.1.81-.178 1.374-.677 1.818-1.608.938-1.967 2.771-2.681 7.708-3.001 6.287-.407 15.816-.002 18.2.774M83.239 230.046c1.482.318 2.562.891 3.764 2 .928.855 1.863 1.554 2.079 1.554.764 0 5.398 4.895 6.001 6.337.336.805 1.122 2.046 1.747 2.758 2.516 2.866 2.765 5.751 2.768 32.005.002 21.216.222 25.915 1 21.312.338-2.001 1.454-3.442 2.89-3.731.826-.165 1.318-.668 1.912-1.952.598-1.293 1.233-1.937 2.519-2.555.946-.454 2.051-1.371 2.457-2.039 1.336-2.196 5.883-3.337 13.224-3.318 7.337.019 10.659.897 13.929 3.679a30.286 30.286 0 0 0 2.859 2.096c.92.581 2.042 1.862 2.816 3.216.708 1.237 1.735 2.732 2.282 3.321 4.422 4.763 4.185 22.878-.331 25.295-.431.231-1.183 1.262-1.672 2.291-.553 1.165-1.407 2.177-2.261 2.679-.754.443-2.027 1.477-2.828 2.298-1.806 1.851-4.267 2.955-7.394 3.319-1.32.153-2.94.52-3.6.813-2.462 1.097-5.172 1.31-6.698.527-.773-.396-2.551-.905-3.953-1.131-4.842-.78-6.435-1.559-7.181-3.509-.191-.499-.828-1.004-1.454-1.152-1.496-.355-2.777-1.576-3.043-2.903-.137-.685-.783-1.452-1.744-2.072-1.241-.8-1.684-1.453-2.366-3.49-1.117-3.334-1.109-3.334-2.087.002-.468 1.597-1.325 3.444-1.903 4.104-.578.66-1.397 1.932-1.82 2.826-1.032 2.181-2.344 3.622-6.151 6.756-4.187 3.447-4.665 3.56-15 3.546-9.983-.014-11.635-.334-13.119-2.544-.511-.761-1.413-1.542-2.005-1.736-1.612-.528-2.432-1.406-2.713-2.906-.194-1.031-.582-1.503-1.657-2.014-1.673-.793-2.305-2.119-2.955-6.192-.257-1.615-.728-3.239-1.047-3.61-1.638-1.902-1.669-2.513-1.677-33.126-.008-29.657.082-31.668 1.497-33.582.428-.579.912-2.035 1.075-3.236.48-3.539 1.684-6.301 3.056-7.01.756-.391 1.475-1.275 1.963-2.415.621-1.447 1.117-1.95 2.552-2.585.98-.433 1.896-1.149 2.036-1.591.345-1.086 1.733-1.935 3.842-2.349 2.601-.511 15.99-.501 18.391.014m298.07.456c.83.366 1.818 1.204 2.196 1.862.378.659 1.139 1.31 1.691 1.446 1.389.345 2.715 1.674 3.01 3.016.156.712.759 1.428 1.64 1.948 1.651.974 2.36 2.497 3.018 6.48.281 1.704.862 3.485 1.389 4.262 1.516 2.235 1.547 3.383 1.547 58.084 0 54.647-.016 55.225-1.543 57.088-.627.765-1.058 2.084-1.381 4.226-.571 3.788-1.263 5.218-2.84 5.871-.809.335-1.349.946-1.654 1.87-.913 2.767-.767 2.745-17.964 2.745-18.323 0-19.15-.224-21.104-5.73-.131-.369-.861-1.446-1.622-2.394-2.691-3.35-2.637-2.777-2.876-30.676-.119-13.86-.359-24.66-.534-24l-.702 2.652c-.372 1.409-.722 1.676-3.28 2.498-.385.124-.7.509-.7.857 0 1.477-1.217 2.966-2.815 3.445-1.188.356-1.773.823-2.226 1.778-.77 1.623-2.778 2.44-7.759 3.156-.99.142-2.408.58-3.15.973-1.47.777-4.198.558-6.65-.535-.66-.293-2.28-.661-3.6-.816-3.209-.377-5.95-1.604-7.178-3.214-.554-.727-1.685-1.652-2.513-2.057-1.092-.534-1.821-1.336-2.647-2.91-.627-1.196-1.548-2.494-2.046-2.886-4.52-3.555-4.161-22.163.492-25.516.172-.124.926-1.252 1.676-2.508.971-1.625 2.065-2.756 3.79-3.92 1.334-.9 3.265-2.233 4.291-2.963 5.021-3.572 23.009-2.781 24.773 1.089.255.56 1.256 1.339 2.365 1.84 1.547.699 2.049 1.185 2.571 2.489.503 1.256.997 1.758 2.193 2.228 1.651.648 2.103 1.287 2.916 4.12.442 1.539.551-1.766.75-22.8.257-27.144.406-28.674 2.995-30.823.375-.311 1.019-1.354 1.432-2.318.822-1.916 3.735-5.201 5.94-6.697.77-.523 2.04-1.496 2.823-2.164 2.003-1.708 3.835-1.962 13.377-1.855 6.809.076 8.686.22 9.909.759M180.501 332.149c2.163.514 2.878.903 6.899 3.756.88.625 1.897 1.249 2.26 1.387.363.139 1.347 1.3 2.186 2.58s1.727 2.455 1.973 2.611c.967.61 2.678 3.565 3.348 5.783l.705 2.334.313-1.8c.38-2.192 1.81-5.117 3.03-6.2.496-.44 1.51-1.744 2.254-2.897.856-1.328 1.931-2.393 2.93-2.903.868-.443 2.194-1.345 2.946-2.006 5.225-4.587 20.147-4.679 25.594-.158.694.576 2.159 1.615 3.257 2.309 1.098.693 2.213 1.71 2.479 2.258.265.548 1.399 2.077 2.52 3.397 1.41 1.66 2.227 3.078 2.651 4.6.337 1.21.664 2.38.727 2.6.064.22.411-.579.772-1.775.363-1.202 1.337-2.992 2.177-4 .837-1.004 2.131-2.777 2.876-3.94.948-1.478 2.003-2.485 3.508-3.346 1.183-.677 2.634-1.678 3.223-2.225 4.703-4.366 20.953-4.32 25.022.071.527.568 1.743 1.446 2.703 1.951.96.505 2.106 1.524 2.546 2.266.44.741 1.471 2.003 2.292 2.804 1.885 1.84 2.912 4.188 3.487 7.972.249 1.638.609 3.168.801 3.4.947 1.145 1.181 4.795.413 6.422-.416.88-.949 2.823-1.185 4.318-.624 3.95-1.495 5.873-2.935 6.479-.863.362-1.386.999-1.847 2.246-.542 1.467-.911 1.84-2.352 2.372-1.107.409-1.988 1.089-2.5 1.932-1.474 2.424-2.609 2.645-13.574 2.649-11.54.005-12.966-.253-14.93-2.699-.698-.87-1.936-1.849-2.751-2.175-1.173-.47-1.622-.964-2.162-2.38-.441-1.154-1.084-1.994-1.816-2.372-1.167-.604-2.245-2.372-3.151-5.169l-.518-1.6-.681 2.418c-.852 3.02-1.48 4.038-2.837 4.6-.707.293-1.29 1.021-1.721 2.149-.625 1.637-1.392 2.291-3.322 2.83-.49.137-1.12.717-1.4 1.29-1.29 2.627-4.269 3.306-14.511 3.306-10.237 0-13.221-.679-14.508-3.302-.291-.592-1.084-1.225-1.852-1.479-1.579-.521-2.392-1.36-2.917-3.013-.21-.66-.83-1.419-1.378-1.686-1.791-.874-3.528-4.141-3.553-6.685-.005-.456-.444.405-.976 1.913-1.004 2.845-1.839 4.085-3 4.453-.373.118-1.076 1.096-1.563 2.173-.704 1.558-1.201 2.084-2.437 2.579-.886.355-1.858 1.139-2.266 1.83-1.57 2.657-5.459 3.378-16.931 3.14-9.311-.193-10.654-.513-12.045-2.871-.533-.904-1.233-1.483-1.993-1.65-1.363-.3-2.616-1.733-2.985-3.415-.143-.649-.491-1.181-.774-1.181-1.886 0-3.103-2.326-3.83-7.324-.218-1.497-.676-3.265-1.019-3.928-.655-1.267-.47-5.251.288-6.204.2-.25.61-1.98.912-3.843.632-3.904 1.251-5.282 3.332-7.407.822-.84 1.795-2.094 2.162-2.786.387-.729 1.396-1.623 2.4-2.126.953-.478 2.273-1.38 2.933-2.005 3.438-3.256 12.642-4.447 20.301-2.628" fill="#fff"/></g></svg>