<svg width="400" height="400" xmlns="http://www.w3.org/2000/svg" display="block"><g fill-rule="evenodd"><path d="M125.895 43.35c-.717.555-4.317 1.839-7.395 2.639-1.242.323-1.7.645-1.7 1.196 0 .94-1.872 3.215-2.645 3.215-1.488 0-2.54 8.135-1.795 13.87.67 5.152.675 5.164 2.044 5.732.753.312 1.427 1.052 1.869 2.056.611 1.383.953 1.643 2.905 2.211 1.217.354 2.485.782 2.817.952 4.856 2.483 7.101 2.642 10.005.709.55-.366 1.738-.859 2.64-1.097 3.266-.86 5.833-3.437 7.127-7.156.33-.947 1.057-2.266 1.616-2.93 1.757-2.088 1.532-7.57-.402-9.794-.551-.634-1.113-1.603-1.248-2.153-.852-3.459-3.29-5.991-6.933-7.204-1.43-.475-2.87-1.095-3.2-1.375-.33-.281-1.164-.617-1.853-.747a68.65 68.65 0 0 1-2.2-.452c-.521-.12-1.264.028-1.652.328m149.136-.102c-.862.203-1.777.541-2.031.752-.255.212-1.889.858-3.632 1.437-3.894 1.293-4.44 1.779-6.359 5.669-.84 1.702-1.89 3.498-2.335 3.991-1.217 1.352-1.204 8.878.018 10.206.454.493 1.577 2.453 2.495 4.354l1.671 3.457 3.071 1.092c1.689.6 3.701 1.49 4.471 1.978 2.278 1.442 4.89 1.602 6.65.408.804-.546 1.752-.998 2.106-1.005.354-.007.974-.262 1.377-.568.402-.305 1.593-.761 2.644-1.014 1.745-.418 1.954-.596 2.386-2.038.337-1.125.91-1.855 1.992-2.539 3.505-2.212 3.295-16.046-.287-18.925-.857-.689-1.695-1.802-1.903-2.526-.318-1.109-.659-1.378-2.368-1.874-1.098-.319-2.177-.718-2.397-.886-.22-.169-.929-.433-1.576-.588-.646-.155-1.664-.63-2.261-1.056-1.189-.846-1.423-.866-3.732-.325m97.369.606c-1.43.538-3.559 1.311-4.732 1.719-1.314.456-2.639 1.294-3.454 2.184-.727.794-1.508 1.443-1.735 1.443-.227 0-.71.855-1.073 1.9a45.934 45.934 0 0 1-1.402 3.5c-2.763 5.962-2.74 5.353-.397 10.4.613 1.32 1.431 3.169 1.818 4.109.975 2.364 3.622 4.696 6.204 5.462 1.157.344 2.389.875 2.738 1.181 1.334 1.169 5.045 1.912 6.299 1.261 1.771-.921 5.818-2.524 7.044-2.791.611-.133 1.396-.577 1.746-.987 1.438-1.685 2.43-2.657 3.097-3.035.673-.381 1.094-1.693 2.44-7.6.509-2.236.479-2.686-.447-6.6-.546-2.31-1.07-4.582-1.164-5.049-.098-.482-.709-1.072-1.414-1.364-.73-.303-1.505-1.067-1.881-1.856-.495-1.037-1.009-1.436-2.264-1.756-2.545-.65-7.425-2.455-7.659-2.833-.302-.488-.837-.387-3.764.712M25.6 92.807c-.99.171-3.15.666-4.8 1.101-1.65.435-3.663.909-4.473 1.054-1.229.22-1.549.492-1.926 1.635-.318.963-.946 1.644-2.11 2.287-1.338.74-1.718 1.21-1.973 2.442-.181.872-1.088 2.473-2.117 3.737-2.479 3.043-2.562 7.516-.163 8.757.797.412 1.342 1.19 1.846 2.638.495 1.418 1.113 2.315 2 2.898.706.464 1.516 1.294 1.8 1.844.697 1.35 1.458 1.894 3.082 2.202.752.143 2.613.965 4.136 1.829l2.77 1.569h109.194l3.067-1.573c1.687-.865 3.787-1.884 4.667-2.265 1.788-.775 4.705-4.018 5.786-6.432.385-.86 1.192-1.886 1.793-2.279 1.09-.714 1.092-.724.956-4.864l-.135-4.149-1.419-1.319c-.78-.725-1.742-2.178-2.136-3.228-.486-1.291-1.092-2.102-1.875-2.506-.636-.329-1.433-1.133-1.771-1.786-.369-.715-1.048-1.285-1.706-1.434-.601-.136-2.713-.72-4.693-1.299l-3.6-1.051-52.2-.059c-28.71-.033-53.01.08-54 .251m295.6.194c-7.982 1.614-12.215 4.204-13.567 8.298-.272.826-1.148 2.032-1.962 2.703l-1.471 1.213v4.156c0 4.07.023 4.175 1.113 5.032.613.482 1.548 1.733 2.078 2.779 1.795 3.542 4.491 5.977 7.301 6.594.699.154 1.684.601 2.189.995 2.731 2.128 1.098 2.029 33.537 2.029 28.809 0 30.103-.031 31.12-.754 1.179-.837 5.258-2.595 6.957-2.999.736-.174 1.354-.767 1.883-1.804.433-.849 1.425-1.92 2.205-2.38 1.014-.598 1.417-1.117 1.417-1.823 0-.544.206-1.495.459-2.114 1.373-3.372 1.436-5.73.264-9.926-.615-2.2-1.119-4.279-1.121-4.62-.001-.346-.633-.847-1.432-1.136-1.103-.399-1.601-.916-2.176-2.258-.648-1.512-.947-1.776-2.27-2.008-.838-.146-2.784-.621-4.324-1.054-1.54-.433-3.7-.94-4.8-1.126-3.465-.588-54.38-.408-57.4.203m-98.2.59c-.44.202-2.219.779-3.954 1.281-2.972.861-3.197 1.006-3.906 2.521-.798 1.705-1.819 3.452-3.457 5.915-2.363 3.553-1.275 11.448 2.147 15.582.496.6 1.019 1.623 1.162 2.274.202.918.545 1.246 1.53 1.463 1.894.416 7.106 2.982 7.351 3.618.361.941 5.027.749 5.926-.243.802-.887 4.269-2.574 6.554-3.189 1.234-.333 1.628-.719 2.351-2.306.478-1.049 1.55-2.807 2.383-3.907l1.513-2-.01-5c-.01-4.996-.011-5.002-1.3-6.76-.71-.968-1.29-1.944-1.29-2.169 0-.224-.287-.725-.638-1.113-.351-.388-.873-1.392-1.16-2.232-.84-2.458-12.006-5.201-15.202-3.735M69.066 143.594c-4.824.824-4.678.755-5.252 2.512-.378 1.158-.793 1.486-3.414 2.701-.33.154-.651.619-.714 1.036-.063.416-.578 2.503-1.144 4.637-.894 3.374-.974 4.157-.611 6 1.043 5.294 1.843 7.394 2.948 7.745.413.131 1.201.951 1.751 1.822.549.871 1.488 1.776 2.085 2.01 1.857.731 3.417 1.513 5.285 2.648l1.8 1.094 31.27.001h31.271l1.129-.907c.622-.498 2.48-1.543 4.13-2.322 2.789-1.315 5.2-3.095 5.2-3.838 0-.565 2.7-4.512 3.598-5.26.814-.677.864-1.012.738-4.906l-.136-4.179-1.469-1.346c-.865-.792-1.677-2.035-1.972-3.022-.395-1.316-.835-1.847-2.047-2.465-.849-.433-1.893-1.362-2.32-2.064-1.401-2.305-2.384-2.372-36.992-2.512-28.486-.115-31.126-.069-35.134.615m149.334-.128c-2.875.501-3.596.788-4.669 1.863-.697.699-1.828 1.694-2.511 2.211-.683.517-1.512 1.597-1.842 2.4-.329.803-1.172 1.936-1.872 2.518l-1.272 1.057-.017 4.962-.017 4.962 2.067 2.477c1.137 1.361 2.19 3.034 2.34 3.717.206.939.629 1.386 1.733 1.837 3.411 1.392 5.921 2.676 6.792 3.475l.932.855H282.6l1.556-1.1c.856-.605 1.727-1.1 1.937-1.1.209 0 .832-.355 1.384-.789.553-.435 1.616-.905 2.365-1.045 1.118-.21 1.494-.558 2.112-1.954.413-.934 1.371-2.172 2.128-2.749 2.575-1.964 3.332-13.547.998-15.254-.345-.252-1.35-1.438-2.233-2.634-3.202-4.338-4.086-4.911-9.178-5.943-3.549-.72-60.973-.513-65.269.234m155.6-.414c-8.12 1.14-7.665 1.012-8.471 2.379-.417.706-1.336 1.52-2.043 1.808-1.522.62-2.256 1.454-2.273 2.582-.007.452-.829 2.466-1.825 4.475-1.972 3.973-2.011 5.837-.18 8.504.378.55.822 1.45.987 2 .326 1.086 1.637 4.244 2.153 5.185.346.632 3.854 2.556 5.882 3.225.689.227 1.67.858 2.181 1.402 1.579 1.68 6.683 1.464 9.608-.408 1.199-.768 2.827-1.577 3.617-1.798 1.946-.545 5.33-3.856 5.963-5.833l1.013-3.173c.877-2.747 1.031-5.367.42-7.167-.312-.918-.781-2.831-1.042-4.251-.618-3.354-.784-3.642-2.417-4.188-.929-.311-1.657-.963-2.252-2.017-.872-1.544-.906-1.56-4.4-2.053-5.669-.799-5.874-.819-6.921-.672M6.4 208.622v16.221l15.5-.121 15.5-.122 1.342-1.3c.739-.715 1.551-1.3 1.806-1.3 2.079 0 5.664-3.173 7.393-6.543.718-1.401 1.745-2.782 2.282-3.07.859-.459.985-.817 1.039-2.955.099-3.867-.001-4.194-2.032-6.634-1.117-1.342-2.035-2.902-2.188-3.715-.2-1.067-.509-1.463-1.294-1.66-1.427-.358-2.875-1.363-3.132-2.172-.733-2.31-4.947-2.851-22.193-2.851H6.4v16.222m215.465-15.783c-1.782.26-2.523.582-3.135 1.359-.44.56-1.37 1.312-2.065 1.671-1.453.751-2.056 1.428-2.827 3.174-.302.683-1.047 1.704-1.656 2.269-2.448 2.269-1.912 14.688.633 14.688.219 0 .891 1.01 1.492 2.245.873 1.791 1.375 2.343 2.493 2.735.77.27 2.385 1.149 3.589 1.954 3.691 2.468 8.878 2.611 12.066.332 1.748-1.249 3.542-2.222 4.835-2.621.38-.117 1.077-1.034 1.549-2.038.471-1.003 1.257-2.139 1.746-2.524 1.776-1.397 2.016-2.37 2.004-8.134l-.01-5.45-1.246-1.048c-.685-.577-1.537-1.778-1.894-2.671-.422-1.055-1.102-1.861-1.941-2.302-.709-.373-1.858-1.256-2.553-1.963-1.893-1.926-6.942-2.573-13.08-1.676M74.8 241.896c-1.029.09-2.145.48-2.605.912-.443.414-1.466 1.03-2.273 1.367-.807.337-1.589.811-1.739 1.052-.149.242-1.016.763-1.927 1.159-1.531.665-1.711.911-2.389 3.266a407.655 407.655 0 0 1-1.3 4.423 13.135 13.135 0 0 0-.004 7.45c.31 1.031.905 3.032 1.323 4.446.418 1.414 1.02 2.69 1.337 2.835.561.257 1.25.622 4.577 2.42.88.475 2.006 1.236 2.502 1.691.81.742 1.407.826 5.851.826h4.949l2.283-1.572c2.911-2.002 3.758-2.494 5.115-2.967.679-.237 1.1-.675 1.1-1.144 0-1.055 2.552-6.557 3.348-7.217.915-.76.921-5.322.008-6.08-.829-.687-3.356-6.072-3.356-7.15 0-.6-.569-1.093-2.1-1.82-1.155-.548-2.897-1.569-3.871-2.269-2.394-1.72-5.1-2.126-10.829-1.628m296.447-.029c-1.323.187-3.555 1.427-5.737 3.186-.6.484-1.623.996-2.274 1.139-.903.198-1.247.548-1.45 1.472-.356 1.62-2.817 6.984-3.357 7.318-.236.146-.429 1.414-.429 2.818 0 1.404.193 2.672.429 2.818.54.334 3.001 5.698 3.357 7.318.203.924.547 1.274 1.45 1.472.651.143 1.674.661 2.274 1.15 4.226 3.452 13.3 4.671 16.008 2.15 1.131-1.053 2.258-1.72 5.316-3.152l1.834-.859 1.314-4.249c1.621-5.238 1.899-7.648 1.107-9.591-.57-1.396-1.557-4.73-2.035-6.872-.161-.723-.776-1.271-2.14-1.908-3.344-1.562-5.091-2.536-5.924-3.303-.848-.779-6.752-1.329-9.743-.907M70.452 291.23c-.522.209-1.472.821-2.112 1.36-.641.538-1.827 1.162-2.637 1.386-1.998.552-5.966 4.826-6.52 7.024-.222.88-.669 2.191-.993 2.914-.74 1.648-.757 4.568-.04 6.673.303.887.869 2.603 1.258 3.813.742 2.306 1.598 3.6 2.381 3.6.256 0 1.51.973 2.788 2.162 3.121 2.904.93 2.726 35.823 2.918 36.828.203 38.539.1 40.143-2.417.398-.626 1.514-1.487 2.479-1.914 1.457-.645 1.836-1.049 2.237-2.39.266-.887.859-1.916 1.318-2.286 3.134-2.528 3.882-9.038 1.353-11.77-.698-.754-1.916-2.515-2.706-3.914-1.429-2.528-2.324-3.274-6.021-5.021-.768-.363-1.907-1.089-2.53-1.614l-1.134-.954-32.07.025c-19.23.016-32.449.178-33.017.405m246.757.16c-.278.334-2.172 1.509-4.211 2.611-3.469 1.876-3.776 2.146-4.793 4.224-.597 1.221-1.787 3.03-2.645 4.022-2.535 2.928-2.254 7.778.64 11.081.88 1.004 1.793 2.499 2.029 3.323.337 1.177.715 1.593 1.768 1.948.737.248 1.984 1.187 2.771 2.085 2.149 2.453 3.122 2.517 37.996 2.508 35.96-.009 35.202.066 39.105-3.902.698-.709 1.531-1.29 1.851-1.29.947 0 1.442-.907 2.541-4.653.573-1.951 1.184-3.728 1.358-3.949.42-.534-.182-4.786-.963-6.798-.341-.88-.629-1.922-.638-2.316-.01-.394-.739-1.474-1.621-2.4l-2.446-2.568c-.464-.486-1.497-1.1-2.297-1.363-.8-.264-2.147-1.036-2.995-1.716L383.118 291l-32.703-.109c-28.849-.096-32.761-.037-33.206.499M172 339.98c-.99.157-2.97.97-4.4 1.807-1.43.838-3.296 1.736-4.147 1.997-1.277.39-1.641.746-2.084 2.036-.296.859-1.249 2.2-2.119 2.979-2.71 2.429-3.351 13.334-.885 15.061.462.324 1.092 1.073 1.401 1.664.309.592 1.57 2.121 2.801 3.398 3.772 3.91-.864 3.626 61.833 3.789 60.711.159 62.281.099 65.131-2.471 1.025-.925 1.184-1.097 2.627-2.84.546-.66 1.575-1.889 2.285-2.73 2.902-3.435 2.669-13.822-.361-16.133-.757-.577-1.713-1.811-2.125-2.74-.642-1.451-1.001-1.761-2.545-2.194-.988-.276-2.002-.75-2.253-1.053-.251-.302-.68-.55-.952-.55-.273 0-1.195-.495-2.051-1.1l-1.556-1.1-54.4-.053c-29.92-.029-55.21.076-56.2.233m198.411 1.008c-.511.544-1.563 1.198-2.337 1.454-4.334 1.43-6.511 3.742-7.874 8.358-.162.55-.556 1.298-.876 1.663-.319.364-.845 1.677-1.169 2.916l-.589 2.255 1.817 3.661c.999 2.014 1.823 4.032 1.83 4.484.017 1.128.751 1.962 2.273 2.582.707.288 1.621 1.093 2.031 1.788.858 1.454 4.155 2.259 9.19 2.242 3.281-.01 9.813-.952 9.977-1.438.469-1.39 1.856-2.971 2.804-3.197 1.585-.379 2.112-.904 2.113-2.105.001-.578.432-2.671.958-4.651 1.116-4.195.996-5.6-1.043-12.2-.624-2.02-3.83-4.974-6.28-5.788-1.115-.37-2.131-.842-2.258-1.048-1.288-2.083-8.869-2.783-10.567-.976"/><path d="M123.711 41.205c-4.395.642-9.851 4.941-12.284 9.679-1.05 2.044-2.115 3.969-2.368 4.277-1.011 1.237-.542 8.803.697 11.239.616 1.21 1.597 3.165 2.182 4.345 1.187 2.396 5.359 5.903 9.062 7.618 1.813.84 9.499 1.054 12.212.341 5.037-1.325 11.165-7.319 12.579-12.304 1.53-5.396.541-14.09-1.85-16.253-.453-.41-1.277-1.518-1.83-2.463-.64-1.092-1.607-2.02-2.658-2.553-.909-.461-2.305-1.35-3.101-1.977-2.505-1.97-7.364-2.72-12.641-1.949m147.575.242c-1.162.316-2.984 1.199-4.048 1.964-1.063.764-2.095 1.389-2.292 1.389-1.402 0-5.547 5.609-6.555 8.868-2.635 8.525.169 17.787 6.609 21.827.88.552 1.983 1.352 2.45 1.778 1.819 1.654 9.654 2.534 13.865 1.556 3.368-.782 9.564-5.732 11.146-8.904 3.343-6.705 3.773-11.206 1.517-15.877-.428-.885-.778-1.845-.778-2.134 0-1.537-5.787-7.914-7.181-7.914-.17 0-.966-.522-1.768-1.16-2.436-1.935-8.55-2.592-12.965-1.393m100.114-.261c-2.616.429-4.044 1.011-5.509 2.244-.659.555-1.894 1.363-2.745 1.797-.892.456-1.99 1.505-2.594 2.481-.577.931-1.453 2.142-1.947 2.692-3.251 3.617-3.367 15.71-.186 19.374.585.674 1.539 1.986 2.12 2.915.581.928 1.643 1.988 2.359 2.354.716.367 1.932 1.154 2.702 1.751 5.618 4.351 16.88 2.855 23.32-3.098 4.308-3.982 6.813-15.272 4.349-19.598-.368-.647-1.467-2.598-2.443-4.337-.975-1.739-1.875-3.207-2-3.264-.124-.056-1.486-.929-3.026-1.94-5.032-3.3-9.073-4.247-14.4-3.371m-241.653 2.288c.689.13 1.523.466 1.853.747.33.28 1.77.9 3.2 1.375 3.643 1.213 6.081 3.745 6.933 7.204.135.55.697 1.519 1.248 2.153 1.934 2.224 2.159 7.706.402 9.794-.559.664-1.286 1.983-1.616 2.93-1.294 3.719-3.861 6.296-7.127 7.156-.902.238-2.09.731-2.64 1.097-2.904 1.933-5.149 1.774-10.005-.709-.332-.17-1.6-.598-2.817-.952-1.952-.568-2.294-.828-2.905-2.211-.442-1.004-1.116-1.744-1.869-2.056-1.369-.568-1.374-.58-2.044-5.732-.745-5.735.307-13.87 1.795-13.87.773 0 2.645-2.275 2.645-3.215 0-.551.458-.873 1.7-1.196 3.078-.8 6.678-2.084 7.395-2.639.388-.3 1.131-.448 1.652-.328.52.119 1.51.323 2.2.452m149.016.099c.597.426 1.615.901 2.261 1.056.647.155 1.356.419 1.576.588.22.168 1.299.567 2.397.886 1.709.496 2.05.765 2.368 1.874.208.724 1.046 1.837 1.903 2.526 3.582 2.879 3.792 16.713.287 18.925-1.082.684-1.655 1.414-1.992 2.539-.432 1.442-.641 1.62-2.386 2.038-1.051.253-2.242.709-2.644 1.014-.403.306-1.023.561-1.377.568-.354.007-1.302.459-2.106 1.005-1.76 1.194-4.372 1.034-6.65-.408-.77-.488-2.782-1.378-4.471-1.978l-3.071-1.092-1.671-3.457c-.918-1.901-2.041-3.861-2.495-4.354-1.222-1.328-1.235-8.854-.018-10.206.445-.493 1.495-2.289 2.335-3.991 1.919-3.89 2.465-4.376 6.359-5.669 1.743-.579 3.377-1.225 3.632-1.437.437-.363 2.968-1.072 4.138-1.16.296-.022 1.027.308 1.625.733m97.401-.431c.234.378 5.114 2.183 7.659 2.833 1.255.32 1.769.719 2.264 1.756.376.789 1.151 1.553 1.881 1.856.705.292 1.316.882 1.414 1.364.094.467.618 2.739 1.164 5.049.926 3.914.956 4.364.447 6.6-1.346 5.907-1.767 7.219-2.44 7.6-.667.378-1.659 1.35-3.097 3.035-.35.41-1.135.854-1.746.987-1.226.267-5.273 1.87-7.044 2.791-1.254.651-4.965-.092-6.299-1.261-.349-.306-1.581-.837-2.738-1.181-2.582-.766-5.229-3.098-6.204-5.462-.387-.94-1.205-2.789-1.818-4.109-2.343-5.047-2.366-4.438.397-10.4a45.934 45.934 0 0 0 1.402-3.5c.363-1.045.846-1.9 1.073-1.9.227 0 1.008-.649 1.735-1.443.815-.89 2.14-1.728 3.454-2.184a244.903 244.903 0 0 0 4.732-1.719c2.927-1.099 3.462-1.2 3.764-.712M21.543 90.357c-1.522.254-4.945 2.061-8.416 4.443-2.016 1.383-5.678 5.984-6.947 8.727-1.656 3.581-.591 12.106 1.887 15.106.879 1.063 1.857 2.433 2.173 3.043.315.611 1.121 1.394 1.791 1.74.669.346 1.881 1.218 2.693 1.939 4.014 3.56 2.858 3.502 65.876 3.355 64.317-.15 57.994.434 64.526-5.951 6.787-6.635 7.907-17.782 2.398-23.86-.848-.935-1.747-2.15-1.997-2.7-.251-.549-.576-.999-.722-.999-.147 0-1.905-.992-3.907-2.205-2.293-1.389-4.411-2.351-5.723-2.6-2.264-.429-111.071-.466-113.632-.038m200.316.248c-1.068.293-2.328.887-2.8 1.32-.473.433-1.759 1.246-2.859 1.808-5.048 2.579-9.112 10.936-8.373 17.219 1.441 12.246 11.078 19.273 23.409 17.069 8.758-1.565 15.966-12.396 14.121-21.221-1.378-6.594-4.485-11.495-8.36-13.188-.882-.385-2.142-1.142-2.8-1.681-2.222-1.82-8.202-2.463-12.338-1.326M318 90.401c-1.82.31-7.92 3.638-9.4 5.127-4.739 4.771-5.876 7.367-5.899 13.472-.019 5.29.744 8.569 2.412 10.357a26.774 26.774 0 0 1 2.067 2.565c.498.727 1.652 1.784 2.563 2.348.911.565 2.107 1.427 2.657 1.917 2.608 2.322 3.078 2.355 35.8 2.518 31.089.155 34.615.018 38-1.473 2.529-1.114 7.104-4.786 8.208-6.587 3.28-5.352 3.356-5.445 4.489-5.445H400v-11.549l-1.285-.126c-1.138-.111-1.522-.512-3.357-3.513-2.237-3.659-4.127-5.519-6.958-6.846-.99-.465-2.16-1.172-2.6-1.572-.44-.4-1.868-.922-3.173-1.16-2.748-.502-61.699-.532-64.627-.033m-182.6 3.265c1.98.579 4.092 1.163 4.693 1.299.658.149 1.337.719 1.706 1.434.338.653 1.135 1.457 1.771 1.786.783.404 1.389 1.215 1.875 2.506.394 1.05 1.356 2.503 2.136 3.228l1.419 1.319.135 4.149c.136 4.14.134 4.15-.956 4.864-.601.393-1.408 1.419-1.793 2.279-1.081 2.414-3.998 5.657-5.786 6.432-.88.381-2.98 1.4-4.667 2.265l-3.067 1.573H23.672l-2.77-1.569c-1.523-.864-3.384-1.686-4.136-1.829-1.624-.308-2.385-.852-3.082-2.202-.284-.55-1.094-1.38-1.8-1.844-.887-.583-1.505-1.48-2-2.898-.504-1.448-1.049-2.226-1.846-2.638-2.399-1.241-2.316-5.714.163-8.757 1.029-1.264 1.936-2.865 2.117-3.737.255-1.232.635-1.702 1.973-2.442 1.164-.643 1.792-1.324 2.11-2.287.377-1.143.697-1.415 1.926-1.635.81-.145 2.823-.619 4.473-1.054 1.65-.435 3.81-.93 4.8-1.101.99-.171 25.29-.284 54-.251l52.2.059 3.6 1.051m243.2-.868c1.1.186 3.26.693 4.8 1.126 1.54.433 3.486.908 4.324 1.054 1.323.232 1.622.496 2.27 2.008.575 1.342 1.073 1.859 2.176 2.258.799.289 1.431.79 1.432 1.136.002.341.506 2.42 1.121 4.62 1.172 4.196 1.109 6.554-.264 9.926-.253.619-.459 1.57-.459 2.114 0 .706-.403 1.225-1.417 1.823-.78.46-1.772 1.531-2.205 2.38-.529 1.037-1.147 1.63-1.883 1.804-1.699.404-5.778 2.162-6.957 2.999-1.017.723-2.311.754-31.12.754-32.439 0-30.806.099-33.537-2.029-.505-.394-1.49-.841-2.189-.995-2.81-.617-5.506-3.052-7.301-6.594-.53-1.046-1.465-2.297-2.078-2.779-1.09-.857-1.113-.962-1.113-5.032v-4.156l1.471-1.213c.814-.671 1.69-1.877 1.962-2.703 1.352-4.094 5.585-6.684 13.567-8.298 3.02-.611 53.935-.791 57.4-.203m-144.86 1.831c3.862 1.148 3.951 1.201 4.462 2.697.287.84.809 1.844 1.16 2.232.351.388.638.889.638 1.113 0 .225.58 1.201 1.29 2.169 1.289 1.758 1.29 1.764 1.3 6.76l.01 5-1.513 2c-.833 1.1-1.905 2.858-2.383 3.907-.723 1.587-1.117 1.973-2.351 2.306-2.285.615-5.752 2.302-6.554 3.189-.899.992-5.565 1.184-5.926.243-.245-.636-5.457-3.202-7.351-3.618-.985-.217-1.328-.545-1.53-1.463-.143-.651-.666-1.674-1.162-2.274-3.422-4.134-4.51-12.029-2.147-15.582 1.638-2.463 2.659-4.21 3.457-5.915.709-1.515.934-1.66 3.906-2.521 1.735-.502 3.514-1.079 3.954-1.281 1.479-.678 6.644-.179 10.74 1.038M71.47 139.65c-1.062.208-2.592.811-3.4 1.34-.809.529-1.989 1.088-2.622 1.242-1.556.379-6.485 5.094-7.683 7.349-.532 1-1.372 2.327-1.866 2.948-.826 1.037-.899 1.544-.899 6.208v5.079l2.274 3.592c2.472 3.906 2.314 3.72 5.577 6.546 4.681 4.054 5.368 4.119 41.949 3.947 36.877-.173 35.429.093 42.236-7.754 5.229-6.029 5.257-16.883.056-22.512-.932-1.009-1.964-2.229-2.293-2.711-.33-.482-2.669-1.922-5.199-3.2L135 139.4l-30.8-.064c-18.051-.038-31.599.092-32.73.314m148.921-.056c-2.692.467-9.586 4.144-10.8 5.761-.555.739-1.564 1.81-2.241 2.381-5.634 4.74-4.321 18.829 2.318 24.878 5.837 5.317 4.31 5.114 39.732 5.288 37.691.186 37.134.252 43.322-5.089 10.717-9.25 8.104-24.607-5.316-31.241l-4.394-2.172-30.406-.06c-16.723-.033-31.22.081-32.215.254m152.809-.115c-2.627.202-10.585 4.282-11.942 6.121a63.143 63.143 0 0 1-2.185 2.759c-3.85 4.541-4.158 15.392-.573 20.251.715.97 1.612 2.204 1.993 2.743 4.775 6.749 19.251 8.575 25.228 3.183.837-.755 1.977-1.58 2.534-1.834.557-.253 1.433-1.28 1.947-2.281.514-1.002 1.405-2.449 1.979-3.216 2.616-3.495 3.001-12.467.663-15.44-.437-.555-1.181-1.81-1.655-2.787-1.381-2.853-3.808-5.006-7.989-7.084-2.981-1.482-7.874-3.056-8.155-2.624-.025.038-.855.132-1.845.209m-235.492 4.18c2.342.48 2.813.728 3.484 1.832.427.702 1.471 1.631 2.32 2.064 1.212.618 1.652 1.149 2.047 2.465.295.987 1.107 2.23 1.972 3.022l1.469 1.346.136 4.179c.126 3.894.076 4.229-.738 4.906-.898.748-3.598 4.695-3.598 5.26 0 .743-2.411 2.523-5.2 3.838-1.65.779-3.508 1.824-4.13 2.322l-1.129.907H103.07l-31.27-.001-1.8-1.094c-1.868-1.135-3.428-1.917-5.285-2.648-.597-.234-1.536-1.139-2.085-2.01-.55-.871-1.338-1.691-1.751-1.822-1.105-.351-1.905-2.451-2.948-7.745-.363-1.843-.283-2.626.611-6 .566-2.134 1.081-4.221 1.144-4.637.063-.417.384-.882.714-1.036 2.621-1.215 3.036-1.543 3.414-2.701.574-1.757.428-1.688 5.252-2.512 5.671-.968 63.87-.913 68.642.065m145.961-.427c5.092 1.032 5.976 1.605 9.178 5.943.883 1.196 1.888 2.382 2.233 2.634 2.334 1.707 1.577 13.29-.998 15.254-.757.577-1.715 1.815-2.128 2.749-.618 1.396-.994 1.744-2.112 1.954-.749.14-1.812.61-2.365 1.045-.552.434-1.175.789-1.384.789-.21 0-1.081.495-1.937 1.1l-1.556 1.1h-62.536l-.932-.855c-.871-.799-3.381-2.083-6.792-3.475-1.104-.451-1.527-.898-1.733-1.837-.15-.683-1.203-2.356-2.34-3.717l-2.067-2.477.017-4.962.017-4.962 1.272-1.057c.7-.582 1.543-1.715 1.872-2.518.33-.803 1.159-1.883 1.842-2.4.683-.517 1.814-1.512 2.511-2.211 2.329-2.333 4.102-2.45 37.938-2.492 19.95-.025 30.578.106 32 .395m97.252.492c3.494.493 3.528.509 4.4 2.053.595 1.054 1.323 1.706 2.252 2.017 1.633.546 1.799.834 2.417 4.188.261 1.42.73 3.333 1.042 4.251.611 1.8.457 4.42-.42 7.167l-1.013 3.173c-.633 1.977-4.017 5.288-5.963 5.833-.79.221-2.418 1.03-3.617 1.798-2.925 1.872-8.029 2.088-9.608.408-.511-.544-1.492-1.175-2.181-1.402-2.028-.669-5.536-2.593-5.882-3.225-.516-.941-1.827-4.099-2.153-5.185-.165-.55-.609-1.45-.987-2-1.831-2.667-1.792-4.531.18-8.504.996-2.009 1.818-4.023 1.825-4.475.017-1.128.751-1.962 2.273-2.582.707-.288 1.626-1.102 2.043-1.808.806-1.367.351-1.239 8.471-2.379 1.047-.147 1.252-.127 6.921.672M5.952 190.7c-.93 3.202-.794 33.857.158 35.6l.711 1.3h11.405c16.639 0 22.443-.856 25.729-3.793.795-.71 1.86-1.509 2.366-1.775.507-.265 1.52-1.416 2.252-2.557.732-1.141 1.69-2.397 2.128-2.791 1.725-1.549 2.362-12.461.884-15.146-2.607-4.737-7.173-8.961-11.546-10.681-5.127-2.017-5.466-2.052-19.887-2.055L6.504 188.8l-.552 1.9m215.848-.721c-4.612 1.811-7.4 3.154-7.4 3.563 0 .213-.871 1.258-1.936 2.322-6.608 6.607-6.096 19.212 1.058 26.074 12.024 11.532 32.04 3.052 32.073-13.587.024-12.421-13.114-22.565-23.795-18.372m-184.477 2.863c3.088.475 4.948 1.321 5.293 2.409.257.809 1.705 1.814 3.132 2.172.785.197 1.094.593 1.294 1.66.153.813 1.071 2.373 2.188 3.715 2.031 2.44 2.131 2.767 2.032 6.634-.054 2.138-.18 2.496-1.039 2.955-.537.288-1.564 1.669-2.282 3.07-1.729 3.37-5.314 6.543-7.393 6.543-.255 0-1.067.585-1.806 1.3l-1.342 1.3-15.5.122-15.5.121V192.4h14.023c8.237 0 15.211.182 16.9.442m193.818-.024c2.03.33 2.796.671 3.804 1.697.695.707 1.844 1.59 2.553 1.963.839.441 1.519 1.247 1.941 2.302.357.893 1.209 2.094 1.894 2.671l1.246 1.048.01 5.45c.012 5.764-.228 6.737-2.004 8.134-.489.385-1.275 1.521-1.746 2.524-.472 1.004-1.169 1.921-1.549 2.038-1.293.399-3.087 1.372-4.835 2.621-3.188 2.279-8.375 2.136-12.066-.332-1.204-.805-2.819-1.684-3.589-1.954-1.118-.392-1.62-.944-2.493-2.735-.601-1.235-1.273-2.245-1.492-2.245-2.545 0-3.081-12.419-.633-14.688.609-.565 1.354-1.586 1.656-2.269.771-1.746 1.374-2.423 2.827-3.174.695-.359 1.625-1.111 2.065-1.671 1.235-1.57 7.173-2.23 12.411-1.38M73.777 239.559c-5.665 1.537-9.157 3.965-11.192 7.781-.604 1.133-1.416 2.42-1.804 2.86-2.18 2.475-2.171 12.765.013 15.2.395.44 1.168 1.7 1.718 2.8 4.686 9.37 21.394 11.266 29.102 3.302 7.727-7.985 8.028-18.169.786-26.576-4.185-4.858-12.097-7.138-18.623-5.367m298.623-.519c-16.022 2.879-21.859 20.088-10.921 32.195 5.741 6.354 18.632 7.15 25.245 1.558 2.91-2.461 3.347-2.959 4.349-4.962.558-1.117 1.336-2.391 1.727-2.831 2.196-2.467 2.04-11.996-.241-14.718-.516-.615-1.273-1.875-1.684-2.8-.733-1.652-1.021-1.975-4.307-4.833-2.682-2.332-10.371-4.291-14.168-3.609m-290.371 2.91c1.03.17 2.602.857 3.6 1.574.974.7 2.716 1.721 3.871 2.269 1.531.727 2.1 1.22 2.1 1.82 0 1.078 2.527 6.463 3.356 7.15.913.758.907 5.32-.008 6.08-.796.66-3.348 6.162-3.348 7.217 0 .469-.421.907-1.1 1.144-1.357.473-2.204.965-5.115 2.967l-2.283 1.572h-4.949c-4.444 0-5.041-.084-5.851-.826-.496-.455-1.622-1.216-2.502-1.691-3.327-1.798-4.016-2.163-4.577-2.42-.317-.145-.919-1.421-1.337-2.835-.418-1.414-1.013-3.415-1.323-4.446a13.135 13.135 0 0 1 .004-7.45c.312-1.031.897-3.021 1.3-4.423.678-2.355.858-2.601 2.389-3.266.911-.396 1.778-.917 1.927-1.159.15-.241.932-.715 1.739-1.052.807-.337 1.83-.953 2.273-1.367 1.086-1.018 6.177-1.462 9.834-.858m298.961.824c.833.767 2.58 1.741 5.924 3.303 1.364.637 1.979 1.185 2.14 1.908.478 2.142 1.465 5.476 2.035 6.872.792 1.943.514 4.353-1.107 9.591l-1.314 4.249-1.834.859c-3.058 1.432-4.185 2.099-5.316 3.152-2.708 2.521-11.782 1.302-16.008-2.15-.6-.489-1.623-1.007-2.274-1.15-.903-.198-1.247-.548-1.45-1.472-.356-1.62-2.817-6.984-3.357-7.318-.236-.146-.429-1.414-.429-2.818 0-1.404.193-2.672.429-2.818.54-.334 3.001-5.698 3.357-7.318.203-.924.547-1.274 1.45-1.472.651-.143 1.674-.655 2.274-1.139 3.85-3.104 5.093-3.47 10.88-3.2 2.972.138 3.964.336 4.6.921M72.697 288.449c-3.849.496-8.29 2.124-9.497 3.483-.55.62-1.668 1.612-2.485 2.206-.817.594-1.853 1.841-2.302 2.771-.448.93-1.265 2.303-1.815 3.051-2.091 2.846-2.545 11.748-.702 13.745.455.492 1.406 1.885 2.113 3.095 1.725 2.95 5.404 6.277 8.272 7.479 6.541 2.744 3.668 2.557 37.426 2.433l30.493-.112 3.2-1.333c9.5-3.956 13.163-8.808 13.186-17.467.03-11.149-5.908-17.692-17.588-19.38-3.436-.496-56.417-.471-60.301.029m247.222-.017c-8.903 1.306-15.695 7.215-17.115 14.891-1.838 9.939 2.697 17.591 12.996 21.929l3.2 1.348h62.4l3.942-1.586c4.294-1.728 8.617-5.255 10.066-8.214 1.047-2.138 2.196-3.2 3.462-3.2H400v-12.4h-1.1c-1.277 0-2.624-1.493-4.259-4.718-.58-1.145-1.242-2.082-1.472-2.082-.229 0-1.351-.881-2.493-1.957-2.385-2.248-5.325-3.348-10.768-4.031-3.941-.494-56.603-.477-59.989.02m-183.246 3.322c.623.525 1.762 1.251 2.53 1.614 3.697 1.747 4.592 2.493 6.021 5.021.79 1.399 2.008 3.16 2.706 3.914 2.529 2.732 1.781 9.242-1.353 11.77-.459.37-1.052 1.399-1.318 2.286-.401 1.341-.78 1.745-2.237 2.39-.965.427-2.081 1.288-2.479 1.914-1.604 2.517-3.315 2.62-40.143 2.417-34.893-.192-32.702-.014-35.823-2.918-1.278-1.189-2.532-2.162-2.788-2.162-.783 0-1.639-1.294-2.381-3.6-.389-1.21-.955-2.926-1.258-3.813-.717-2.105-.7-5.025.04-6.673.324-.723.771-2.034.993-2.914.554-2.198 4.522-6.472 6.52-7.024.81-.224 1.996-.848 2.637-1.386 2.069-1.742 2.007-1.738 35.129-1.765l32.07-.025 1.134.954m247.986.483c.848.68 2.195 1.452 2.995 1.716.8.263 1.833.877 2.297 1.363l2.446 2.568c.882.926 1.611 2.006 1.621 2.4.009.394.297 1.436.638 2.316.781 2.012 1.383 6.264.963 6.798-.174.221-.785 1.998-1.358 3.949-1.099 3.746-1.594 4.653-2.541 4.653-.32 0-1.153.581-1.851 1.29-3.903 3.968-3.145 3.893-39.105 3.902-34.874.009-35.847-.055-37.996-2.508-.787-.898-2.034-1.837-2.771-2.085-1.053-.355-1.431-.771-1.768-1.948-.236-.824-1.149-2.319-2.029-3.323-2.894-3.303-3.175-8.153-.64-11.081.858-.992 2.048-2.801 2.645-4.022 1.017-2.078 1.324-2.348 4.793-4.224 2.039-1.102 3.933-2.277 4.211-2.611.445-.536 4.357-.595 33.206-.499l32.703.109 1.541 1.237m-215.558 45.975c-9.567 1.904-17.043 13.11-14.669 21.988 1.755 6.561 4.899 10.468 11.052 13.734L169 375.8l57.202.105 57.203.106 4.223-2.106c17.031-8.49 14.646-31.861-3.645-35.709-4.007-.843-110.64-.828-114.882.016m203.299-.189c-4.777.528-9.734 3.125-11.907 6.238-.381.546-1.248 1.753-1.926 2.681-3.36 4.602-3.292 17.099.109 19.921.355.295 1.313 1.436 2.129 2.537 1.258 1.698 2.181 2.356 6.106 4.354l4.624 2.354 4.228-.188c3.063-.136 4.423-.361 4.933-.815.387-.344 1.944-1.209 3.459-1.92 3.12-1.466 5.26-3.413 6.862-6.244a68.966 68.966 0 0 1 2.039-3.361c2.136-3.221 1.671-11.185-.873-14.98-.738-1.1-1.623-2.674-1.967-3.498-.402-.964-1.229-1.872-2.32-2.548-.933-.578-2.146-1.463-2.696-1.968-2.003-1.838-8.176-3.074-12.8-2.563m-88.244 2.877c.856.605 1.778 1.1 2.051 1.1.272 0 .701.248.952.55.251.303 1.265.777 2.253 1.053 1.544.433 1.903.743 2.545 2.194.412.929 1.368 2.163 2.125 2.74 3.03 2.311 3.263 12.698.361 16.133-.71.841-1.739 2.07-2.285 2.73-4.805 5.804-.742 5.486-67.758 5.311-62.697-.163-58.061.121-61.833-3.789-1.231-1.277-2.492-2.806-2.801-3.398-.309-.591-.939-1.34-1.401-1.664-2.466-1.727-1.825-12.632.885-15.061.87-.779 1.823-2.12 2.119-2.979.443-1.29.807-1.646 2.084-2.036.851-.261 2.717-1.159 4.147-1.997 3.725-2.181 1.243-2.097 60.6-2.04l54.4.053 1.556 1.1m95.033-.106c.856.437 1.661.963 1.789 1.17.127.206 1.143.678 2.258 1.048 2.45.814 5.656 3.768 6.28 5.788 2.039 6.6 2.159 8.005 1.043 12.2-.526 1.98-.957 4.073-.958 4.651-.001 1.201-.528 1.726-2.113 2.105-.948.226-2.335 1.807-2.804 3.197-.164.486-6.696 1.428-9.977 1.438-5.035.017-8.332-.788-9.19-2.242-.41-.695-1.324-1.5-2.031-1.788-1.522-.62-2.256-1.454-2.273-2.582-.007-.452-.831-2.47-1.83-4.484l-1.817-3.661.589-2.255c.324-1.239.85-2.552 1.169-2.916.32-.365.714-1.113.876-1.663 1.363-4.616 3.54-6.928 7.874-8.358.774-.256 1.826-.91 2.337-1.454 1.253-1.334 6.324-1.446 8.778-.194" fill="#272727"/><path d="M123 39.03c-3.266.766-5.58 1.645-6.449 2.451-.561.519-1.994 1.665-3.185 2.544-1.192.88-2.166 1.741-2.166 1.913 0 .172-.83 1.551-1.844 3.063-8.286 12.354-.65 29.85 14.141 32.403 21.091 3.639 35.016-20.247 20.797-35.673-5.022-5.448-14.251-8.352-21.294-6.701m146.8.305c-4.992 1.289-11.012 6.242-13.148 10.817-2.04 4.369-2.333 5.192-2.652 7.451-1.389 9.826 5.923 20.889 15.435 23.354 24.103 6.246 39.516-23.182 19.876-37.948-5.143-3.867-13.021-5.351-19.511-3.674m98.15.203c-17.666 4.61-19.886 31.608-3.304 40.182 5.373 2.779 17.602 2.495 21.321-.494.568-.457 1.975-1.553 3.127-2.437 1.152-.883 2.394-2.187 2.762-2.897.367-.711 1.201-1.956 1.853-2.767 3.498-4.354 3.632-17.128.225-21.404a33.43 33.43 0 0 1-2.218-3.233c-.553-.941-1.84-2.282-2.861-2.981-1.02-.698-2.097-1.507-2.393-1.797-2.676-2.628-12.395-3.769-18.512-2.172m-235.598 1.875c1.484.35 3.158 1.079 4 1.741.796.627 2.192 1.516 3.101 1.977 1.051.533 2.018 1.461 2.658 2.553.553.945 1.377 2.053 1.83 2.463 2.391 2.163 3.38 10.857 1.85 16.253-1.414 4.985-7.542 10.979-12.579 12.304-2.713.713-10.399.499-12.212-.341-3.703-1.715-7.875-5.222-9.062-7.618a553.367 553.367 0 0 0-2.182-4.345c-1.239-2.436-1.708-10.002-.697-11.239.253-.308 1.318-2.233 2.368-4.277 3.982-7.755 12.277-11.509 20.925-9.471m147.911-.173c1.726.301 2.992.809 3.988 1.6.802.638 1.598 1.16 1.768 1.16 1.394 0 7.181 6.377 7.181 7.914 0 .289.35 1.249.778 2.134 2.256 4.671 1.826 9.172-1.517 15.877-1.582 3.172-7.778 8.122-11.146 8.904-4.211.978-12.046.098-13.865-1.556-.467-.426-1.57-1.226-2.45-1.778-6.44-4.04-9.244-13.302-6.609-21.827 1.008-3.259 5.153-8.868 6.555-8.868.197 0 1.229-.625 2.292-1.389 3.292-2.365 7.696-3.099 13.025-2.171m101.137.752c.88.401 2.86 1.555 4.4 2.565 1.54 1.011 2.902 1.884 3.026 1.94.125.057 1.025 1.525 2 3.264.976 1.739 2.075 3.69 2.443 4.337 2.464 4.326-.041 15.616-4.349 19.598-6.44 5.953-17.702 7.449-23.32 3.098-.77-.597-1.986-1.384-2.702-1.751-.716-.366-1.778-1.426-2.359-2.354-.581-.929-1.535-2.241-2.12-2.915-3.181-3.664-3.065-15.757.186-19.374.494-.55 1.37-1.761 1.947-2.692.604-.976 1.702-2.025 2.594-2.481.851-.434 2.086-1.242 2.745-1.797 3.07-2.583 11.317-3.348 15.509-1.438M23.8 88.056c-5.875.417-12.534 3.627-15.064 7.263-.491.705-1.493 1.996-2.229 2.87-2.356 2.802-3.268 9.78-2.295 17.568.267 2.134.509 2.619 3.526 7.043 2.685 3.937 7.111 6.687 12.956 8.049 4.097.955 54.739 1.738 91.706 1.418l19.4-.168 4.4-1.183c13.374-3.595 18.998-12.957 16.431-27.349-.842-4.718-3.362-8.259-8.193-11.511-6.853-4.614-.824-4.212-63.438-4.236-29.48-.011-55.22.095-57.2.236m296.2-.005c-4.595.338-6.966 1.017-9.016 2.582-.947.723-2.231 1.579-2.853 1.902-4.908 2.552-7.859 8.889-7.848 16.855.011 8.072 1.016 10.794 5.68 15.389 6.95 6.848 7.212 6.89 43.683 7.113l28.645.176 4.355-1.068c5.12-1.256 7.92-2.382 8.869-3.568.377-.471 1.356-1.364 2.175-1.984.82-.621 2.033-2.01 2.697-3.088 1.012-1.645 1.399-1.96 2.409-1.96H400v-2.6c0-2.571-.012-2.6-1.103-2.6-1.133 0-1.209.093-4.489 5.445-1.104 1.801-5.679 5.473-8.208 6.587-3.385 1.491-6.911 1.628-38 1.473-32.722-.163-33.192-.196-35.8-2.518-.55-.49-1.746-1.352-2.657-1.917-.911-.564-2.065-1.621-2.563-2.348a26.774 26.774 0 0 0-2.067-2.565c-3.849-4.126-3.284-16.009 1.002-21.044 2.642-3.103 3.074-3.466 6.669-5.586 4.696-2.77 4.031-2.722 37.643-2.725 30.717-.002 33.77.135 35.373 1.592.44.4 1.61 1.107 2.6 1.572 2.831 1.327 4.721 3.187 6.958 6.846 1.835 3.001 2.219 3.402 3.357 3.513l1.285.126v-2.426c0-2.405-.009-2.425-1.151-2.425-.947 0-1.424-.395-2.684-2.226-2.349-3.41-8.257-7.383-12.265-8.248-2.29-.494-57.692-.733-63.9-.275m-98.6.334c-2.509.547-3.489 1.014-6.648 3.172-4.94 3.375-5.584 4.114-8.395 9.643l-1.728 3.4-.003 4.8c-.002 3.905.144 5.135.786 6.6 3.636 8.301 8.357 12.845 14.988 14.424 1.21.288 2.686.761 3.28 1.05 1.294.63 4.464.691 5.554.108.431-.231 2.118-.761 3.751-1.178 8.232-2.106 14.873-9.925 15.799-18.604 1.543-14.472-12.665-26.622-27.384-23.415m-86.225 2.01c1.312.249 3.43 1.211 5.723 2.6 2.002 1.213 3.76 2.205 3.907 2.205.146 0 .471.45.722.999.25.55 1.149 1.765 1.997 2.7 5.509 6.078 4.389 17.225-2.398 23.86-6.532 6.385-.209 5.801-64.526 5.951-63.018.147-61.862.205-65.876-3.355-.812-.721-2.024-1.593-2.693-1.939-.67-.346-1.476-1.129-1.791-1.74-.316-.61-1.294-1.98-2.173-3.043-2.478-3-3.543-11.525-1.887-15.106 1.269-2.743 4.931-7.344 6.947-8.727 3.471-2.382 6.894-4.189 8.416-4.443 2.561-.428 111.368-.391 113.632.038m95.694.08c1.172.262 2.67.917 3.328 1.456.658.539 1.918 1.296 2.8 1.681 5.004 2.186 9.414 11.297 8.504 17.565-2.301 15.832-18.551 22.703-30.805 13.025-9.656-7.627-8.788-25.211 1.504-30.469 1.1-.562 2.386-1.375 2.859-1.808 1.849-1.695 7.566-2.397 11.81-1.45M70.4 137.201c-2.891.518-6.94 2.757-10.644 5.886-1.408 1.189-4.987 6.082-5.811 7.943-1.929 4.361-1.236 15.105 1.17 18.146A35.796 35.796 0 0 1 57.103 172c2.345 3.811 6.634 6.58 13.497 8.715 2.505.78 54.548 1.226 60.988.524 14.766-1.611 22.265-10.142 21.484-24.439-.48-8.781-6.286-16.092-15.143-19.067-2.316-.778-63.466-1.26-67.529-.532m147.8.249c-1.54.333-3.34.948-4 1.366-.66.418-2.102 1.299-3.205 1.957-12.098 7.218-13.891 23.744-3.655 33.688 3.355 3.26 4.219 3.754 10.06 5.754l4.4 1.506 27-.067c34.181-.086 34.67-.125 41.4-3.307 14.524-6.866 15.886-29.183 2.261-37.031-1.024-.589-2.408-1.479-3.077-1.977-3.073-2.289-3.21-2.298-37.184-2.4-26.605-.08-31.612-.005-34 .511m152.8-.255c-3.167.549-4.647 1.109-6.176 2.337-.783.629-1.97 1.427-2.638 1.772-7.143 3.692-10.772 14.961-7.95 24.679 4.768 16.413 29.061 20.404 37.835 6.217.68-1.1 1.65-2.494 2.155-3.098 3.371-4.028 2.797-16.7-.981-21.676-.847-1.114-1.862-2.534-2.257-3.155-2.942-4.627-13.188-8.254-19.988-7.076m-231.4 4.529c2.53 1.278 4.869 2.718 5.199 3.2.329.482 1.361 1.702 2.293 2.711 5.201 5.629 5.173 16.483-.056 22.512-6.807 7.847-5.359 7.581-42.236 7.754-36.581.172-37.268.107-41.949-3.947-3.263-2.826-3.105-2.64-5.577-6.546L55 163.816v-5.079c0-4.664.073-5.171.899-6.208.494-.621 1.334-1.948 1.866-2.948 1.198-2.255 6.127-6.97 7.683-7.349.633-.154 1.813-.713 2.622-1.242 2.522-1.65 4.09-1.722 36.13-1.654l30.8.064 4.6 2.324m147.806-.152c13.42 6.634 16.033 21.991 5.316 31.241-6.188 5.341-5.631 5.275-43.322 5.089-35.422-.174-33.895.029-39.732-5.288-6.639-6.049-7.952-20.138-2.318-24.878.677-.571 1.686-1.642 2.241-2.381 1.214-1.617 8.108-5.294 10.8-5.761.995-.173 15.492-.287 32.215-.254l30.406.06 4.394 2.172m89.839-1.969c5.413 1.011 12.059 5.479 13.944 9.375.474.977 1.218 2.232 1.655 2.787 2.338 2.973 1.953 11.945-.663 15.44-.574.767-1.465 2.214-1.979 3.216-.514 1.001-1.39 2.028-1.947 2.281-.557.254-1.697 1.079-2.534 1.834-5.977 5.392-20.453 3.566-25.228-3.183a223.932 223.932 0 0 0-1.993-2.743c-3.585-4.859-3.277-15.71.573-20.251a63.143 63.143 0 0 0 2.185-2.759c1.357-1.839 9.315-5.919 11.942-6.121.99-.077 1.82-.171 1.845-.209.025-.039 1.015.111 2.2.333M5.479 187.179C3.884 189.075 3.8 190.136 3.8 208.4c0 24.961-1.989 22.502 18.058 22.33L37 230.6l4-1.777c7.116-3.16 12.182-9.029 13.047-15.112 1.619-11.38-1.512-18.94-9.946-24.02-5.751-3.464-5.407-3.409-22.538-3.594l-15.037-.163-1.047 1.245m216.121-.632c-11.149 3.05-19.38 16.227-16.618 26.604 4.536 17.042 24.354 22.951 36.872 10.993 10.378-9.914 8.669-27.428-3.329-34.099-1.279-.71-2.917-1.718-3.64-2.239-2.411-1.736-9.194-2.379-13.285-1.259m-186.2 2.686c7.331 1.963 12.767 6.095 16.185 12.305 1.478 2.685.841 13.597-.884 15.146-.438.394-1.396 1.65-2.128 2.791-.732 1.141-1.745 2.292-2.252 2.557-.506.266-1.571 1.065-2.366 1.775-3.286 2.937-9.09 3.793-25.729 3.793H6.821l-.711-1.3c-.952-1.743-1.088-32.398-.158-35.6l.552-1.9 13.648.002c8.431.002 14.26.166 15.248.431m197.791 1.438c22.127 8.983 11.96 41.651-11.191 35.96-13.514-3.323-19.067-21.238-9.536-30.767 1.065-1.064 1.936-2.109 1.936-2.322 0-.409 2.788-1.752 7.4-3.563 4.177-1.64 5.906-1.535 11.391.692M73.467 236.02c-14.217 3.536-21.29 21.374-13.26 33.442 3.326 4.999 4.644 6.088 11.936 9.865 2.074 1.074 8.441 1.388 11.135.549 20.328-6.33 23.124-32.281 4.514-41.88l-4.235-2.185-4.279-.086c-2.353-.047-4.968.085-5.811.295m295.684.287c-9.902 3.713-16.351 12.19-16.351 21.493 0 3.336 2.633 11.22 4.317 12.926.375.38 1.362 1.498 2.192 2.483 1.397 1.659 4.717 3.88 9.091 6.084 2.865 1.444 10.658 1.34 13.2-.175.99-.59 2.808-1.612 4.04-2.271 3.898-2.084 8.461-7.494 9.997-11.85.875-2.481.758-12.702-.169-14.797-4.806-10.862-17.097-17.351-26.317-13.893m-284.404 3.695c10.071 3.184 16.039 16.656 11.301 25.508-7.212 13.476-27.335 15.09-33.536 2.69-.55-1.1-1.323-2.36-1.718-2.8-2.184-2.435-2.193-12.725-.013-15.2.388-.44 1.2-1.727 1.804-2.86 3.638-6.822 13.485-10.082 22.162-7.338m296.932.199c3.098.979 3.793 1.418 7.485 4.733.531.476 1.301 1.623 1.711 2.548.411.925 1.168 2.185 1.684 2.8 2.281 2.722 2.437 12.251.241 14.718-.391.44-1.169 1.714-1.727 2.831-1.002 2.003-1.439 2.501-4.349 4.962-2.866 2.423-9.244 4.291-13.106 3.837-22.927-2.692-23.925-33.509-1.218-37.59 1.995-.358 6.092.154 9.279 1.161M74.8 284.393c-9.057 1.121-14.731 4.987-20.477 13.951-1.351 2.109-1.892 8.795-1.134 14.033.788 5.458 7.567 12.903 14.491 15.918 3.636 1.583 65.18 1.907 69.828.367 9.085-3.008 15.053-10.399 15.555-19.262.66-11.65-3.189-18.074-13.626-22.741l-3.637-1.626-27.6-.265c-15.18-.145-28.32-.362-29.2-.481-.88-.118-2.77-.071-4.2.106m294 .022c-2.97.16-15.21.316-27.2.348-24.107.063-23.478.003-29.344 2.783-10.474 4.962-14.842 16.087-10.988 27.989 1.644 5.079 8.663 11.284 14.932 13.201 2.601.795 61.491 1.207 65.8.46 5.439-.943 11.744-5.174 14.711-9.871.852-1.349 1.328-1.724 2.189-1.724 1.053-.001 1.1-.086 1.1-2.001 0-3.351-2.71-2.643-4.592 1.2-1.449 2.959-5.772 6.486-10.066 8.214L381.4 326.6H319l-3.2-1.348c-13.471-5.675-17.768-19.378-9.238-29.462 6.428-7.6 6.033-7.526 41.038-7.701 35.743-.18 38.569.106 43.076 4.354 1.142 1.076 2.264 1.957 2.493 1.957.23 0 .892.937 1.472 2.082 2.683 5.293 5.359 6.551 5.359 2.518 0-2.141-.03-2.2-1.116-2.2-.916 0-1.324-.357-2.28-1.994-4.439-7.6-13.91-11.14-27.804-10.391m-235.802 4.005c6.994 1.011 10.706 3.122 14.617 8.316 2.635 3.498 2.988 4.812 2.971 11.064-.023 8.659-3.686 13.511-13.186 17.467l-3.2 1.333-30.493.112c-33.758.124-30.885.311-37.426-2.433-2.868-1.202-6.547-4.529-8.272-7.479-.707-1.21-1.658-2.603-2.113-3.095-1.843-1.997-1.389-10.899.702-13.745.55-.748 1.367-2.121 1.815-3.051.449-.93 1.485-2.177 2.302-2.771.817-.594 1.935-1.586 2.485-2.206 1.207-1.359 5.648-2.987 9.497-3.483 3.884-.5 56.865-.525 60.301-.029m240.378 45.55c-1.113.131-2.823.63-3.8 1.11-.977.48-2.848 1.28-4.159 1.777-12.409 4.705-16.373 23.415-7.152 33.751 1.664 1.866 3.165 3.392 3.335 3.392.171 0 1.275.664 2.455 1.476 7.528 5.179 22.745 2.405 27.506-5.015.686-1.07 1.602-2.266 2.035-2.658 3.323-3.006 3.768-17.477.656-21.305-.491-.604-1.478-2.029-2.194-3.167-1.256-1.996-5.009-5.473-6.658-6.168-6.665-2.811-9.305-3.511-12.024-3.193M172 334.408c-18.923 2.715-27.421 23.156-15.072 36.251 3.336 3.538 7.77 6.401 10.771 6.956 1.4.259 22.81.363 60.534.293l58.367-.108 1.8-1.077c.99-.592 2.495-1.46 3.344-1.93 12.032-6.655 13.88-23.682 3.656-33.679-2.93-2.865-4.698-3.886-10-5.774l-3.2-1.14-54-.054c-29.7-.029-54.99.089-56.2.262m111.983 3.788c18.291 3.848 20.676 27.219 3.645 35.709l-4.223 2.106-57.203-.106L169 375.8l-3.516-1.866c-6.153-3.266-9.297-7.173-11.052-13.734-2.374-8.878 5.102-20.084 14.669-21.988 4.242-.844 110.875-.859 114.882-.016m97.417.669c1.54.442 3.25 1.216 3.8 1.721.55.505 1.763 1.39 2.696 1.968 1.091.676 1.918 1.584 2.32 2.548.344.824 1.229 2.398 1.967 3.498 2.544 3.795 3.009 11.759.873 14.98a68.966 68.966 0 0 0-2.039 3.361c-1.602 2.831-3.742 4.778-6.862 6.244-1.515.711-3.072 1.576-3.459 1.92-.51.454-1.87.679-4.933.815l-4.228.188-4.624-2.354c-3.925-1.998-4.848-2.656-6.106-4.354-.816-1.101-1.774-2.242-2.129-2.537-3.401-2.822-3.469-15.319-.109-19.921.678-.928 1.545-2.135 1.926-2.681 3.812-5.462 12.689-7.753 20.907-5.396" fill="#747474"/><path d="M124.6 35.047c-2.324.596-3.526 1.11-4.51 1.931-.604.505-1.947 1.037-3.013 1.194-2.349.347-4.464 2.109-9.698 8.08-1.577 1.799-1.873 2.441-2.397 5.2-.329 1.732-.986 3.958-1.459 4.948-1.111 2.322-1.105 5.221.016 7.755.468 1.059 1.05 3.122 1.293 4.585.469 2.827 1.387 4.454 4.325 7.66.907.99 1.736 2.07 1.843 2.4.235.727 3.363 2.751 4.894 3.166l1.106.3-1.4.767c-1.35.74-3.006.774-46.6.967-48.725.216-46.625.123-48.985 2.161-.338.292-1.496.646-2.574.786-4.547.59-5.218 1.013-11.334 7.151C3.016 97.199 2.854 97.742 2.556 106c-.431 11.899.585 17.978 3.266 19.56.765.452 1.607 1.414 1.946 2.225.459 1.099 1.039 1.617 2.514 2.246 1.055.45 2.458 1.338 3.118 1.974 3.037 2.922 5.688 3.195 31.053 3.195 13.761 0 20.711.135 20.547.4-.136.22-.757.4-1.379.4-1.493 0-2.7 1.076-3.121 2.78-.266 1.077-.607 1.449-1.553 1.694-1.459.378-2.487 1.437-2.895 2.983-.202.762-.774 1.368-1.719 1.819-2.382 1.136-2.533 1.968-2.533 13.924 0 11.842.306 13.364 2.988 14.878.725.409 1.462 1.329 1.858 2.319.504 1.262 1.084 1.862 2.505 2.594 1.017.524 2.346 1.492 2.954 2.15 2.769 3.001 5.946 3.252 41.105 3.256 35.455.004 37.475-.154 41.005-3.21 1.008-.873 2.089-1.587 2.401-1.587.789 0 6.032-5.287 6.395-6.449.163-.523.794-1.521 1.401-2.217 3.335-3.824 3.203-21.376-.181-24.038-.498-.392-1.351-1.519-1.895-2.504-.556-1.007-1.766-2.318-2.763-2.992-.975-.661-2.403-1.845-3.173-2.633-1.429-1.462-3.742-2.507-6.6-2.981l-1.6-.266 2.2-1.118c1.21-.615 2.696-1.677 3.303-2.36.607-.683 1.47-1.242 1.919-1.242.448 0 1.909-1.035 3.246-2.3 3.611-3.417 3.842-3.687 4.127-4.823.144-.573.856-1.701 1.583-2.505 3.21-3.553 3.153-19.824-.081-23.177-.766-.794-1.777-2.243-2.245-3.22-.636-1.324-1.313-2.009-2.667-2.698-.998-.508-1.988-1.316-2.2-1.797-.586-1.328-3.326-2.619-6.66-3.138l-3-.466.688-2.225c.662-2.137.76-2.243 2.5-2.687 2.254-.575 7.349-5.372 7.73-7.279.143-.717.614-1.365 1.179-1.622 4.338-1.977 4.348-22.924.011-25.245-.533-.286-1.127-1.155-1.391-2.037-.495-1.65-2.081-3.181-3.296-3.181-.413 0-.746-.282-.746-.631 0-1.327-2.116-2.805-4.8-3.353-1.43-.291-3.14-.916-3.8-1.387-2.46-1.756-8.151-2.763-11.2-1.982m147.029.219c-.755.217-2.105.891-3 1.499-.896.608-2.698 1.316-4.005 1.572-2.403.472-4 1.528-4.449 2.942-.132.414-.919 1.025-1.751 1.358-1.443.577-2.104 1.385-2.598 3.176-.124.448-.745 1.121-1.38 1.496-4.151 2.452-4.501 21.655-.465 25.491.81.77 1.691 1.945 1.958 2.612.786 1.964 4.847 5.635 6.887 6.225.976.283 2.36 1.015 3.076 1.628 4.19 3.585 18.485 3.297 20.47-.413.228-.426 1.047-.858 1.913-1.009 4.257-.74 10.392-8.248 11.313-13.843.271-1.65.633-3.18.803-3.4 1.075-1.389 1.314-4.979.485-7.283-.459-1.274-1.033-3.487-1.276-4.917-.593-3.494-1.046-4.528-2.432-5.553-.644-.476-1.541-1.591-1.993-2.476-.452-.886-1.128-1.717-1.503-1.847-.375-.131-1.312-.903-2.082-1.716-1.712-1.809-2.487-2.23-4.8-2.612-.99-.164-2.304-.72-2.919-1.237-2.26-1.897-8.526-2.763-12.252-1.693m99.198-.057c-.975.206-2.449.918-3.276 1.583-.827.664-1.892 1.208-2.366 1.208-2.863 0-7.185 2.408-7.185 4.004 0 .188-.405.465-.9.615-1.365.414-2.624 1.739-3.141 3.306-.256.774-1.033 1.976-1.727 2.67-3.728 3.728-3.765 19.42-.055 23.116.673.67 1.496 1.947 1.829 2.838.378 1.013 1.159 2.001 2.081 2.636.812.558 1.893 1.64 2.402 2.403.708 1.06 1.439 1.543 3.094 2.042l2.168.653-1.157.758c-1.086.712-2.417.773-21.576.984-21.049.232-22.23.326-24.272 1.93-.52.409-1.936.866-3.146 1.016-3.664.454-6.797 1.779-7.659 3.239-.451.765-1.376 1.518-2.317 1.888-1.244.488-1.787 1.051-2.64 2.735-.591 1.165-1.575 2.619-2.186 3.231-3.131 3.131-3.138 20.058-.009 23.186.618.619 1.312 1.665 1.543 2.326.591 1.696 5.783 6.787 7.213 7.073.635.127 1.7.809 2.367 1.516 2.569 2.724 5.637 3.008 32.668 3.023 12.309.006 22.209.162 22 .345-.209.182-1.124.543-2.033.801-1.778.505-2.294.968-3.3 2.953-.356.703-1.344 1.646-2.195 2.095-1.067.563-1.876 1.442-2.6 2.821-.579 1.102-1.475 2.425-1.992 2.941-3.989 3.974-4.136 19.318-.225 23.466.714.757 1.413 1.898 1.553 2.535.333 1.517 4.359 5.572 6.464 6.513.909.405 1.944 1.181 2.299 1.724 2.619 3.996 21.698 3.671 24.967-.426.595-.746 1.235-1.356 1.422-1.356 1.31 0 3.079-1.424 3.661-2.948.432-1.13 1.017-1.842 1.8-2.188 1.399-.619 2.604-3.493 3.025-7.209.268-2.372.316-2.455 1.426-2.455H400v-11.6h-1.2c-1.062 0-1.2-.136-1.2-1.18 0-3.71-1.514-7.033-3.326-7.299-.567-.083-.939-.561-1.184-1.521-.457-1.787-1.275-2.689-2.727-3.008-.79-.174-1.357-.68-1.795-1.604-.637-1.341-1.987-2.075-5.168-2.81l-1.2-.277 1-.321c.55-.177 2.034-.61 3.298-.962 1.346-.374 2.904-1.174 3.76-1.929.803-.709 2.289-1.739 3.301-2.289 1.179-.641 2.273-1.681 3.041-2.893.952-1.501 1.428-1.894 2.3-1.9 1.077-.007 1.1-.057 1.1-2.407v-2.4h-1.204c-1.01 0-1.397.315-2.409 1.96-.664 1.078-1.877 2.467-2.697 3.088-.819.62-1.798 1.513-2.175 1.984-.949 1.186-3.749 2.312-8.869 3.568l-4.355 1.068-28.645-.176c-36.471-.223-36.733-.265-43.683-7.113-4.664-4.595-5.669-7.317-5.68-15.389-.011-7.966 2.94-14.303 7.848-16.855.622-.323 1.92-1.19 2.884-1.926 3.398-2.594 3.985-2.638 37.165-2.798 30.436-.147 35.385.03 38.468 1.378 3.19 1.394 7.916 5.062 9.517 7.385 2.03 2.948 3.835 3.243 3.835.626 0-1.511-.067-1.6-1.2-1.6-.995 0-1.2-.162-1.2-.946 0-1.388-1.443-2.988-2.948-3.271-1.027-.192-1.419-.537-1.795-1.576-.563-1.558-2.229-2.371-5.764-2.813-2.616-.327-2.529-.172-1.551-2.747.654-1.722.977-2.052 2.741-2.8 2.493-1.057 3.108-1.567 4.171-3.458.466-.829 1.245-1.688 1.731-1.909 1.25-.57 2.892-4.234 3.218-7.18.268-2.429.309-2.5 1.436-2.5H400v-12h-1.148c-1.111 0-1.158-.081-1.43-2.483-.426-3.77-.821-4.484-5.022-9.075-.33-.36-.918-1.145-1.306-1.743-.865-1.335-3.237-2.59-5.557-2.94-.955-.145-2.099-.591-2.542-.992-2.043-1.849-8.081-2.82-12.168-1.958m-235.031 4.589c21.321 7.462 17.33 39.003-5.29 41.814-18.277 2.271-31.191-17.64-21.15-32.611 1.014-1.512 1.844-2.891 1.844-3.063 0-.172.974-1.033 2.166-1.913 1.191-.879 2.624-2.025 3.185-2.544.869-.806 3.183-1.685 6.449-2.451 1.918-.45 10.848.087 12.796.768m148.404.081c15.451 6.107 18.702 26.597 5.871 37-15.278 12.387-38.772-.168-36.071-19.276.319-2.259.612-3.082 2.652-7.451 2.136-4.575 8.156-9.528 13.148-10.817 3.076-.795 11.851-.463 14.4.544m96.92-.473c2.612.616 4.415 1.394 5.342 2.304.296.29 1.373 1.099 2.393 1.797 1.021.699 2.308 2.04 2.861 2.981a33.43 33.43 0 0 0 2.218 3.233c3.407 4.276 3.273 17.05-.225 21.404-.652.811-1.486 2.056-1.853 2.767-.368.71-1.61 2.014-2.762 2.897-1.152.884-2.559 1.98-3.127 2.437-2.795 2.247-12.154 3.2-17.549 1.786-10.807-2.831-17.195-14.036-14.678-25.743 2.593-12.062 14.426-18.917 27.38-15.863M223.4 84.867a11.8 11.8 0 0 0-1.6 1.123c-.45.382-2.163.882-3.914 1.142-3.784.561-5.44 1.361-6.025 2.912-.329.871-.833 1.279-1.953 1.581-1.558.419-2.469 1.422-2.904 3.196-.155.629-.689 1.187-1.392 1.452-1.563.59-2.371 2.356-2.856 6.24-.226 1.808-.643 4.007-.926 4.887-.411 1.276-.417 1.965-.029 3.4.267.99.681 3.476.919 5.525.441 3.789 1.577 6.554 3.186 7.757.382.285 1.317 1.418 2.078 2.518 1.573 2.273 1.968 2.622 4.273 3.78.958.482 2.342 1.741 3.281 2.985 1.75 2.317 1.638 2.613-.992 2.63-2.123.013-5.04 1.369-6.286 2.921-.693.863-1.953 1.847-2.8 2.186-1.184.474-1.707 1.009-2.268 2.316-.426.994-1.239 2.001-1.96 2.427-4.001 2.363-3.92 23.532.103 26.87.476.394 1.094 1.07 1.374 1.501.28.431.865 1.339 1.3 2.016.435.678 1.735 1.837 2.891 2.576 1.155.739 2.833 1.935 3.729 2.658 1.019.822 2.592 1.557 4.2 1.963 2.492.629 3.969 1.367 2.751 1.375-1.471.01-4.656 1.932-5.141 3.103-.363.874-1.001 1.399-2.313 1.9-1.538.587-1.928.971-2.581 2.542-.48 1.155-1.222 2.111-1.974 2.542-1.515.869-2.374 2.878-2.868 6.709-.213 1.65-.638 3.478-.945 4.061-.433.825-.472 1.583-.173 3.4l1 6.055c.686 4.141 1.718 6.54 3.245 7.54.561.368 1.449 1.516 1.974 2.553.733 1.446 1.374 2.081 2.758 2.731.992.466 2.007 1.228 2.255 1.692 2.52 4.708 23.103 4.971 27.299.349.614-.676 1.874-1.624 2.8-2.106 1.182-.616 1.98-1.438 2.679-2.759.546-1.035 1.418-2.109 1.936-2.386 1.31-.701 2.349-2.93 2.878-6.175.247-1.515.697-3.745 1-4.955.952-3.796 1.014-4.795.378-6.024-.332-.643-.852-2.589-1.155-4.327-.696-3.985-1.476-5.613-3.236-6.753-.769-.497-1.396-1.237-1.396-1.646 0-1.14-1.463-2.743-2.952-3.234-1.215-.401-1.373-.637-1.694-2.529-.336-1.98-.426-2.1-1.754-2.334-.77-.136 8.521-.271 20.648-.3 27.24-.065 28.61-.226 32.948-3.849.951-.795 2.336-1.699 3.076-2.008.767-.321 1.643-1.122 2.037-1.864.38-.715 1.391-2.028 2.246-2.916 3.078-3.199 3.245-3.962 3.241-14.816-.004-10.809-.233-11.941-2.718-13.407-.86-.507-1.591-1.39-1.987-2.398-.501-1.276-.99-1.752-2.436-2.372-1.151-.493-2.034-1.21-2.427-1.968-.709-1.372-3.485-2.574-6.97-3.02-1.179-.151-2.646-.646-3.262-1.101-1.851-1.369-3.832-1.498-23.196-1.518-17.82-.018-18.654-.052-19.9-.812-1.701-1.037-1.642-1.222.754-2.389 1.925-.938 2.578-1.542 3.946-3.645.33-.507 1.065-1.383 1.634-1.946 1.853-1.834 2.811-3.927 3.365-7.35.297-1.836.807-4.358 1.133-5.606.542-2.078.532-2.463-.13-4.569-.397-1.264-.926-3.646-1.176-5.291-.511-3.358-1.111-4.521-2.776-5.382-.733-.379-1.228-1.018-1.38-1.778-.286-1.429-1.584-2.722-3.058-3.045-.712-.157-1.302-.702-1.73-1.6-.732-1.534-2.955-2.423-7.182-2.872-1.265-.135-2.3-.366-2.3-.514 0-1.46-6.61-2.651-8.6-1.55m-85.962 3.681c1.561.389 3.288 1.01 3.838 1.38l3.162 2.128c4.831 3.252 7.351 6.793 8.193 11.511 2.567 14.392-3.057 23.754-16.431 27.349l-4.4 1.183-19.4.168c-36.967.32-87.609-.463-91.706-1.418-5.845-1.362-10.271-4.112-12.956-8.049-3.017-4.424-3.259-4.909-3.526-7.043-.973-7.788-.061-14.766 2.295-17.568.736-.874 1.738-2.165 2.229-2.87 1.128-1.621 7.639-5.973 9.817-6.562 4.744-1.284 113.806-1.475 118.885-.209m96.468.359c9.308 3.29 15.889 13.416 14.878 22.893-.926 8.679-7.567 16.498-15.799 18.604-1.633.417-3.32.947-3.751 1.178-1.09.583-4.26.522-5.554-.108-.594-.289-2.07-.762-3.28-1.05-6.631-1.579-11.352-6.123-14.988-14.424-.642-1.465-.788-2.695-.786-6.6l.003-4.8 1.728-3.4c2.811-5.529 3.455-6.268 8.395-9.643 5.193-3.547 13.401-4.683 19.154-2.65m-95.977 48.826c8.857 2.975 14.663 10.286 15.143 19.067.781 14.297-6.718 22.828-21.484 24.439-6.44.702-58.483.256-60.988-.524-6.863-2.135-11.152-4.904-13.497-8.715a35.796 35.796 0 0 0-1.988-2.824c-2.406-3.041-3.099-13.785-1.17-18.146.824-1.861 4.403-6.754 5.811-7.943 3.704-3.129 7.753-5.368 10.644-5.886 4.063-.728 65.213-.246 67.529.532m147.855 0c1.312.386 2.932 1.108 3.6 1.606.669.498 2.053 1.388 3.077 1.977 13.625 7.848 12.263 30.165-2.261 37.031-6.73 3.182-7.219 3.221-41.4 3.307l-27 .067-4.4-1.506c-5.841-2-6.705-2.494-10.06-5.754-10.236-9.944-8.443-26.47 3.655-33.688a178.763 178.763 0 0 0 3.205-1.957c2.988-1.894 4.681-1.978 38-1.877 28.374.086 31.416.158 33.584.794m95.771.213c2.699 1.026 8.564 4.958 9.433 6.325.395.621 1.41 2.041 2.257 3.155 3.778 4.976 4.352 17.648.981 21.676-.505.604-1.475 1.998-2.155 3.098-4.428 7.16-15.163 10.645-23.737 7.706-12.586-4.313-17.856-15.597-13.731-29.403.704-2.357 5.424-8.083 7.583-9.199.668-.345 1.855-1.143 2.638-1.772 3.285-2.639 11.829-3.449 16.731-1.586M5.294 183.681C2.509 185.923 2.6 185.087 2.6 208.4c0 22.857.065 23.605 2.14 24.522.583.258 1.298.696 1.589.973.632.604 20.633.689 24.871.106 12.251-1.686 13.111-1.905 14.632-3.712.582-.692 1.765-1.574 2.628-1.96 1.097-.492 1.747-1.126 2.156-2.107.33-.788 1.11-1.674 1.782-2.021 1.655-.856 2.24-1.927 2.952-5.401.338-1.65.91-4.26 1.27-5.8.771-3.287.591-8.724-.37-11.213-.337-.873-.8-2.653-1.03-3.956-.402-2.278-1.301-4.231-1.947-4.231-.17 0-1.001-.908-1.848-2.019-.847-1.11-2.117-2.259-2.823-2.554-.706-.295-1.673-1.084-2.149-1.753-.985-1.383-2.214-1.863-6.393-2.5-1.617-.246-3.597-.836-4.4-1.311-1.407-.832-1.957-.867-15.093-.982l-13.634-.119-1.639 1.319m33.306 3.24c9.348 3.092 15.221 10.318 15.669 19.279.575 11.473-3.392 18.236-13.269 22.623l-4 1.777-15.142.13C1.811 230.902 3.8 233.361 3.8 208.4c0-18.264.084-19.325 1.679-21.221l1.047-1.245 15.037.163c12.607.136 15.36.269 17.037.824m192.966-.491c1.102.237 2.596.856 3.319 1.376.723.521 2.361 1.529 3.64 2.239 11.998 6.671 13.707 24.185 3.329 34.099-12.518 11.958-32.336 6.049-36.872-10.993-3.883-14.588 11.423-29.972 26.584-26.721M76 233.016c-.77.297-2.03.552-2.8.568-3.891.08-7.802 1.688-8.227 3.383-.175.695-.61 1.026-1.589 1.21-1.509.283-2.984 1.866-2.984 3.203 0 .605-.435 1.079-1.422 1.55-1.695.808-2.366 2.21-3.033 6.334-.316 1.951-.784 3.309-1.394 4.048-1.759 2.127-1.793 6.498-.068 8.785.649.862 1.144 2.297 1.459 4.239.682 4.191 1.353 5.577 3.044 6.284 1.05.439 1.414.833 1.414 1.531 0 1.334 1.396 2.941 2.829 3.255.719.158 1.356.622 1.553 1.131.527 1.364 2.13 2.629 4.05 3.198l1.768.523-2 .31c-4.03.625-7.4 2.276-7.4 3.625 0 .25-.945.894-2.1 1.431-1.675.778-2.189 1.251-2.539 2.335-.272.842-1.029 1.76-1.987 2.411-2.669 1.813-3.048 3.871-2.873 15.63.165 11.163.338 11.995 2.743 13.223.856.436 1.556 1.069 1.556 1.405 0 1.417 1.227 2.948 2.72 3.395 1.104.331 1.728.851 2.298 1.914.892 1.665 2.381 2.306 6.582 2.838 1.508.191 3.272.727 4.2 1.277l1.6.948h58.4l3-1.068c1.65-.587 3.988-1.184 5.195-1.326 2.833-.334 4.394-1.097 6.7-3.275 1.028-.971 2.326-1.985 2.884-2.252.558-.268 1.583-1.385 2.276-2.483.694-1.098 1.732-2.562 2.307-3.254 3.509-4.228 3.673-19.95.25-23.876-.607-.696-1.219-1.636-1.36-2.088-.36-1.156-4.609-5.582-6.052-6.305-.66-.331-1.735-1.164-2.389-1.852-2.576-2.709-7.62-3.288-31.278-3.587-10.157-.129-18.548-.324-18.646-.434-1.614-1.806-1.345-3.244.88-4.701 1.361-.891 2.371-1.999 3.274-3.593.718-1.268 1.903-3.097 2.633-4.064 3.358-4.449 3.357-17.712-.002-22.126-.718-.944-1.896-2.75-2.617-4.013-.933-1.636-1.936-2.712-3.483-3.739-1.194-.793-2.172-1.586-2.172-1.761 0-1.213-4.054-2.826-9.03-3.594-2.843-.438-5.53-.872-5.97-.964-.44-.092-1.43.075-2.2.371m298.759-.442c-.121.121-2.467.559-5.213.973-5.235.79-6.827 1.375-8.893 3.273-.689.632-2.159 1.85-3.266 2.705-1.232.952-2.396 2.316-3 3.515-.543 1.078-1.565 2.628-2.271 3.443-3.858 4.458-3.752 18.767.171 22.917.415.44 1.284 1.771 1.93 2.958.704 1.296 2.006 2.815 3.256 3.8 2.228 1.757 2.652 2.971 1.56 4.466-.544.743-1.361.786-19.1 1.01-24.184.305-27.523.698-31.345 3.691-1.177.921-3.033 2.35-4.125 3.174-1.092.824-2.536 2.354-3.208 3.4a87.017 87.017 0 0 1-2.388 3.501c-3.375 4.628-3.302 19.655.114 23.683.708.834 1.787 2.378 2.399 3.43.611 1.053 1.6 2.166 2.196 2.474.596.309 1.7 1.139 2.454 1.845 2.501 2.343 4.185 3.2 7.427 3.779 1.729.309 4.133.968 5.343 1.465 2.148.883 2.64.909 21 1.114 19.075.213 19.719.266 20.939 1.737.385.464.255.661-.696 1.055-2.3.953-6.438 5.609-6.442 7.248 0 .347-.475 1.067-1.055 1.6-4.172 3.837-4.229 19.499-.086 23.626.517.516 1.417 1.835 1.999 2.932.706 1.329 1.546 2.248 2.516 2.751.801.416 1.906 1.345 2.456 2.066 2.173 2.849 3.869 3.196 15.569 3.186 11.338-.01 12.09-.134 13.344-2.195.41-.674 1.535-1.623 2.5-2.11 1.429-.721 1.826-1.168 2.129-2.397.261-1.056.641-1.578 1.262-1.734 1.917-.481 3.365-3.654 3.365-7.375 0-1.044.138-1.18 1.2-1.18h1.2v-11.6h-1.12c-1.085 0-1.134-.091-1.545-2.9-.576-3.93-1.403-5.731-3.089-6.726-.901-.532-1.483-1.233-1.649-1.987-.292-1.329-2.285-3.187-3.42-3.187-.483 0-1.054-.575-1.564-1.575-.442-.865-1.345-1.894-2.008-2.286-1.499-.885-1.534-1.338-.105-1.344 3.352-.014 7.3-2.055 7.3-3.774 0-.294.495-.656 1.1-.805 1.878-.461 2.852-1.351 3.3-3.015.38-1.411.572-1.601 1.615-1.601 1.155 0 1.185-.05 1.185-2 0-2.796-1.611-2.931-3.289-.275-2.967 4.697-9.272 8.928-14.711 9.871-4.309.747-63.199.335-65.8-.46-6.269-1.917-13.288-8.122-14.932-13.201-4.521-13.963 3.112-27.564 17.014-30.315 1.616-.32 49.231-1.002 58.518-.839 7.653.135 16.52 4.803 19.804 10.425 1.83 3.134 3.396 2.947 3.396-.406V292h-1.21c-.959 0-1.291-.228-1.6-1.1-.673-1.901-1-2.274-2.888-3.3-1.012-.55-2.31-1.572-2.883-2.272-1.112-1.357-3.4-2.286-6.809-2.766l-1.989-.28 1.7-.502c2.348-.693 3.468-1.506 4.066-2.949.281-.677.767-1.231 1.081-1.231 1.404 0 2.913-1.243 3.372-2.777.339-1.131.798-1.707 1.635-2.054 1.552-.643 2.265-2.154 2.823-5.982.454-3.112.491-3.187 1.583-3.187H400V252h-1.112c-1.085 0-1.124-.08-1.617-3.3-.54-3.526-1.295-4.983-3.023-5.829a2.434 2.434 0 0 1-1.308-1.673c-.301-1.502-1.525-2.775-2.94-3.058a2.113 2.113 0 0 1-1.587-1.308c-.634-1.53-2.262-2.351-5.662-2.852-3.177-.469-5.667-.959-6.961-1.369-.446-.142-.91-.158-1.031-.037m-286.967 5.422c16.564 8.544 16.832 30.4.484 39.55-4.499 2.518-6.171 2.946-10.733 2.748-4.084-.178-4.191-.215-9.717-3.33-19.734-11.127-11.245-41.697 11.452-41.239l4.279.086 4.235 2.185m295.874-.287c5.538 2.758 9.219 6.654 11.802 12.491.927 2.095 1.044 12.316.169 14.797-1.536 4.356-6.099 9.766-9.997 11.85-1.232.659-3.05 1.681-4.04 2.271-2.542 1.515-10.335 1.619-13.2.175-4.374-2.204-7.694-4.425-9.091-6.084-.83-.985-1.817-2.103-2.192-2.483-5.918-5.996-5.16-19.92 1.505-27.63 6.314-7.306 16.704-9.541 25.044-5.387M108.2 284.768l27.6.265 3.637 1.626c10.437 4.667 14.286 11.091 13.626 22.741-.502 8.863-6.47 16.254-15.555 19.262-4.648 1.54-66.192 1.216-69.828-.367-6.924-3.015-13.703-10.46-14.491-15.918-.758-5.238-.217-11.924 1.134-14.033 4.019-6.271 6.584-8.803 11.251-11.107 4.742-2.342 9.76-3.444 13.426-2.95.88.119 14.02.336 29.2.481m59.2 47.028c-3.573.668-4.265.947-6.316 2.547a58.508 58.508 0 0 1-3.68 2.588c-1.098.701-2.235 1.774-2.527 2.383-.293.61-1.218 1.779-2.057 2.597-3.127 3.053-4.101 8.867-3.306 19.75.448 6.137.861 7.306 2.965 8.379.931.475 1.521 1.062 1.521 1.514 0 1.149 1.472 2.742 2.998 3.245.807.267 1.598.89 1.894 1.493 1.702 3.47-.935 3.348 69.508 3.22l61.8-.112 1.829-.846c1.254-.58 1.989-1.233 2.338-2.074.376-.909.937-1.364 2.159-1.754 1.582-.504 1.802-.755 3.074-3.513.149-.323.795-.872 1.435-1.22 4.215-2.288 4.082-25.683-.159-27.952-.44-.236-1.352-1.325-2.026-2.422-.916-1.488-1.763-2.264-3.339-3.057-1.161-.585-2.167-1.209-2.236-1.387-.415-1.075-4.237-2.841-7.326-3.384-4.684-.825-114.138-.82-118.549.005m213.6 3.669c1.98.748 3.96 1.512 4.4 1.698 1.649.695 5.402 4.172 6.658 6.168.716 1.138 1.703 2.563 2.194 3.167 3.112 3.828 2.667 18.299-.656 21.305-.433.392-1.349 1.588-2.035 2.658-4.761 7.42-19.978 10.194-27.506 5.015-1.18-.812-2.284-1.476-2.455-1.476-.17 0-1.671-1.526-3.335-3.392-6.004-6.729-6.898-17.396-2.141-25.515 1.697-2.894 6.55-7.196 9.293-8.236 1.311-.497 3.182-1.297 4.159-1.777 3.557-1.746 5.998-1.664 11.424.385m-95.6-.125c5.302 1.888 7.07 2.909 10 5.774 10.224 9.997 8.376 27.024-3.656 33.679-.849.47-2.354 1.338-3.344 1.93l-1.8 1.077-58.367.108c-64.324.119-61.205.239-65.639-2.524-17.077-10.645-14.596-33.028 4.398-39.677 4.584-1.605 5.043-1.617 61.208-1.561l54 .054 3.2 1.14" fill="#dbdbdb"/><path d="M0 200v200h400v-37.6h-1.2c-1.062 0-1.2.136-1.2 1.18 0 3.721-1.448 6.894-3.365 7.375-.621.156-1.001.678-1.262 1.734-.303 1.229-.7 1.676-2.129 2.397-.965.487-2.09 1.436-2.5 2.11-1.254 2.061-2.006 2.185-13.344 2.195-11.7.01-13.396-.337-15.569-3.186-.55-.721-1.655-1.65-2.456-2.066-.97-.503-1.81-1.422-2.516-2.751-.582-1.097-1.482-2.416-1.999-2.932-4.143-4.127-4.086-19.789.086-23.626.58-.533 1.055-1.253 1.055-1.6.004-1.639 4.142-6.295 6.442-7.248.951-.394 1.081-.591.696-1.055-1.22-1.471-1.864-1.524-20.939-1.737-18.36-.205-18.852-.231-21-1.114-1.21-.497-3.614-1.156-5.343-1.465-3.242-.579-4.926-1.436-7.427-3.779-.754-.706-1.858-1.536-2.454-1.845-.596-.308-1.585-1.421-2.196-2.474-.612-1.052-1.691-2.596-2.399-3.43-3.416-4.028-3.489-19.055-.114-23.683a87.017 87.017 0 0 0 2.388-3.501c.672-1.046 2.116-2.576 3.208-3.4a360.487 360.487 0 0 0 4.125-3.174c3.822-2.993 7.161-3.386 31.345-3.691 17.739-.224 18.556-.267 19.1-1.01 1.092-1.495.668-2.709-1.56-4.466-1.25-.985-2.552-2.504-3.256-3.8-.646-1.187-1.515-2.518-1.93-2.958-3.923-4.15-4.029-18.459-.171-22.917.706-.815 1.728-2.365 2.271-3.443.604-1.199 1.768-2.563 3-3.515 1.107-.855 2.577-2.073 3.266-2.705 3.029-2.782 12.473-4.787 17.347-3.683.99.224 3.128.603 4.751.843 3.4.501 5.028 1.322 5.662 2.852.291.701.847 1.16 1.587 1.308 1.415.283 2.639 1.556 2.94 3.058a2.434 2.434 0 0 0 1.308 1.673c1.728.846 2.483 2.303 3.023 5.829.493 3.22.532 3.3 1.617 3.3H400v-87.2h-1.148c-1.11 0-1.158.083-1.426 2.455-.421 3.716-1.626 6.59-3.025 7.209-.783.346-1.368 1.058-1.8 2.188-.582 1.524-2.351 2.948-3.661 2.948-.187 0-.827.61-1.422 1.356-3.269 4.097-22.348 4.422-24.967.426-.355-.543-1.39-1.319-2.299-1.724-2.105-.941-6.131-4.996-6.464-6.513-.14-.637-.839-1.778-1.553-2.535-3.911-4.148-3.764-19.492.225-23.466.517-.516 1.413-1.839 1.992-2.941.724-1.379 1.533-2.258 2.6-2.821.851-.449 1.839-1.392 2.195-2.095 1.006-1.985 1.522-2.448 3.3-2.953.909-.258 1.824-.619 2.033-.801.209-.183-9.691-.339-22-.345-27.031-.015-30.099-.299-32.668-3.023-.667-.707-1.732-1.389-2.367-1.516-1.43-.286-6.622-5.377-7.213-7.073-.231-.661-.925-1.707-1.543-2.326-3.129-3.128-3.122-20.055.009-23.186.611-.612 1.595-2.066 2.186-3.231.853-1.684 1.396-2.247 2.64-2.735.941-.37 1.866-1.123 2.317-1.888.862-1.46 3.995-2.785 7.659-3.239 1.21-.15 2.626-.607 3.146-1.016 2.042-1.604 3.223-1.698 24.272-1.93 19.159-.211 20.49-.272 21.576-.984l1.157-.758-2.164-.652c-1.672-.504-2.392-.986-3.175-2.123-.557-.809-1.639-1.889-2.405-2.4-.86-.575-1.624-1.55-2-2.554-.334-.894-1.157-2.173-1.83-2.843-3.71-3.696-3.673-19.388.055-23.116.694-.694 1.471-1.896 1.727-2.67.517-1.567 1.776-2.892 3.141-3.306.495-.15.9-.427.9-.615 0-1.596 4.322-4.004 7.185-4.004.474 0 1.533-.539 2.352-1.198 3.399-2.731 12.267-2.522 15.458.365.443.401 1.587.847 2.542.992 2.32.35 4.692 1.605 5.557 2.94.388.598.976 1.383 1.306 1.743 4.201 4.591 4.596 5.305 5.022 9.075.272 2.402.319 2.483 1.43 2.483H400V0H0v200M133.4 35.639c.66.294 1.74.919 2.4 1.39.66.471 2.37 1.096 3.8 1.387 2.684.548 4.8 2.026 4.8 3.353 0 .349.333.631.746.631 1.215 0 2.801 1.531 3.296 3.181.264.882.858 1.751 1.391 2.037 4.337 2.321 4.327 23.268-.011 25.245-.565.257-1.036.905-1.179 1.622-.381 1.907-5.476 6.704-7.73 7.279-1.74.444-1.838.55-2.5 2.687l-.688 2.225 3 .466c3.334.519 6.074 1.81 6.66 3.138.212.481 1.202 1.289 2.2 1.797 1.354.689 2.031 1.374 2.667 2.698.468.977 1.479 2.426 2.245 3.22 3.234 3.353 3.291 19.624.081 23.177-.727.804-1.439 1.932-1.583 2.505-.285 1.136-.516 1.406-4.127 4.823-1.337 1.265-2.798 2.3-3.246 2.3-.449 0-1.312.559-1.919 1.242-.607.683-2.093 1.745-3.303 2.36l-2.2 1.118 1.6.266c2.858.474 5.171 1.519 6.6 2.981.77.788 2.198 1.972 3.173 2.633.997.674 2.207 1.985 2.763 2.992.544.985 1.397 2.112 1.895 2.504 3.384 2.662 3.516 20.214.181 24.038-.607.696-1.238 1.694-1.401 2.217-.363 1.162-5.606 6.449-6.395 6.449-.312 0-1.393.714-2.401 1.587-3.53 3.056-5.55 3.214-41.005 3.21-35.159-.004-38.336-.255-41.105-3.256-.608-.658-1.937-1.626-2.954-2.15-1.421-.732-2.001-1.332-2.505-2.594-.396-.99-1.133-1.91-1.858-2.319-2.682-1.514-2.988-3.036-2.988-14.878 0-11.956.151-12.788 2.533-13.924.945-.451 1.517-1.057 1.719-1.819.408-1.546 1.436-2.605 2.895-2.983.946-.245 1.287-.617 1.553-1.694.421-1.704 1.628-2.78 3.121-2.78.622 0 1.243-.18 1.379-.4.164-.265-6.786-.4-20.547-.4-25.365 0-28.016-.273-31.053-3.195-.66-.636-2.063-1.524-3.118-1.974-1.475-.629-2.055-1.147-2.514-2.246-.339-.811-1.181-1.773-1.946-2.225-2.681-1.582-3.697-7.661-3.266-19.56.298-8.258.46-8.801 3.551-11.902 6.116-6.138 6.787-6.561 11.334-7.151 1.078-.14 2.236-.494 2.574-.786 2.36-2.038.26-1.945 48.985-2.161 43.594-.193 45.25-.227 46.6-.967l1.4-.767-1.106-.3c-1.531-.415-4.659-2.439-4.894-3.166-.107-.33-.936-1.41-1.843-2.4-2.938-3.206-3.856-4.833-4.325-7.66-.243-1.463-.825-3.526-1.293-4.585-1.121-2.534-1.127-5.433-.016-7.755.473-.99 1.13-3.216 1.459-4.948.524-2.759.82-3.401 2.397-5.2 5.234-5.971 7.349-7.733 9.698-8.08 1.066-.157 2.409-.689 3.013-1.194.984-.821 2.186-1.335 4.51-1.931 1.436-.367 7.57.045 8.8.592m147.308-.229c1.13.335 2.558 1.032 3.173 1.549.615.517 1.929 1.073 2.919 1.237 2.313.382 3.088.803 4.8 2.612.77.813 1.707 1.585 2.082 1.716.375.13 1.051.961 1.503 1.847.452.885 1.349 2 1.993 2.476 1.386 1.025 1.839 2.059 2.432 5.553.243 1.43.817 3.643 1.276 4.917.829 2.304.59 5.894-.485 7.283-.17.22-.532 1.75-.803 3.4-.921 5.595-7.056 13.103-11.313 13.843-.866.151-1.685.583-1.913 1.009-1.985 3.71-16.28 3.998-20.47.413-.716-.613-2.1-1.345-3.076-1.628-2.04-.59-6.101-4.261-6.887-6.225-.267-.667-1.148-1.842-1.958-2.612-4.036-3.836-3.686-23.039.465-25.491.635-.375 1.256-1.048 1.38-1.496.494-1.791 1.155-2.599 2.598-3.176.832-.333 1.619-.944 1.751-1.358.449-1.414 2.046-2.47 4.449-2.942 1.307-.256 3.109-.964 4.005-1.572 2.946-2 8-2.567 12.079-1.355M397.403 68.9c-.326 2.946-1.968 6.61-3.218 7.18-.486.221-1.265 1.08-1.731 1.909-1.063 1.891-1.678 2.401-4.171 3.458-1.764.748-2.087 1.078-2.741 2.8-.978 2.575-1.065 2.42 1.551 2.747 3.535.442 5.201 1.255 5.764 2.813.376 1.039.768 1.384 1.795 1.576 1.505.283 2.948 1.883 2.948 3.271 0 .784.205.946 1.2.946h1.2V66.4h-1.161c-1.127 0-1.168.071-1.436 2.5M230.446 85.274c.854.48 1.554.995 1.554 1.143 0 .148 1.035.379 2.3.514 4.227.449 6.45 1.338 7.182 2.872.428.898 1.018 1.443 1.73 1.6 1.474.323 2.772 1.616 3.058 3.045.152.76.647 1.399 1.38 1.778 1.665.861 2.265 2.024 2.776 5.382.25 1.645.779 4.027 1.176 5.291.662 2.106.672 2.491.13 4.569-.326 1.248-.836 3.77-1.133 5.606-.554 3.423-1.512 5.516-3.365 7.35-.569.563-1.304 1.439-1.634 1.946-1.368 2.103-2.021 2.707-3.946 3.645-2.396 1.167-2.455 1.352-.754 2.389 1.246.76 2.08.794 19.9.812 19.364.02 21.345.149 23.196 1.518.616.455 2.083.95 3.262 1.101 3.485.446 6.261 1.648 6.97 3.02.393.758 1.276 1.475 2.427 1.968 1.446.62 1.935 1.096 2.436 2.372.396 1.008 1.127 1.891 1.987 2.398 2.485 1.466 2.714 2.598 2.718 13.407.004 10.854-.163 11.617-3.241 14.816-.855.888-1.866 2.201-2.246 2.916-.394.742-1.27 1.543-2.037 1.864-.74.309-2.125 1.213-3.076 2.008-4.338 3.623-5.708 3.784-32.948 3.849-12.127.029-21.418.164-20.648.3 1.328.234 1.418.354 1.754 2.334.321 1.892.479 2.128 1.694 2.529 1.489.491 2.952 2.094 2.952 3.234 0 .409.627 1.149 1.396 1.646 1.76 1.14 2.54 2.768 3.236 6.753.303 1.738.823 3.684 1.155 4.327.636 1.229.574 2.228-.378 6.024-.303 1.21-.753 3.44-1 4.955-.529 3.245-1.568 5.474-2.878 6.175-.518.277-1.39 1.351-1.936 2.386-.699 1.321-1.497 2.143-2.679 2.759-.926.482-2.186 1.43-2.8 2.106-4.196 4.622-24.779 4.359-27.299-.349-.248-.464-1.263-1.226-2.255-1.692-1.384-.65-2.025-1.285-2.758-2.731-.525-1.037-1.413-2.185-1.974-2.553-1.527-1-2.559-3.399-3.245-7.54l-1-6.055c-.299-1.817-.26-2.575.173-3.4.307-.583.732-2.411.945-4.061.494-3.831 1.353-5.84 2.868-6.709.752-.431 1.494-1.387 1.974-2.542.653-1.571 1.043-1.955 2.581-2.542 1.312-.501 1.95-1.026 2.313-1.9.485-1.171 3.67-3.093 5.141-3.103 1.218-.008-.259-.746-2.751-1.375-1.608-.406-3.181-1.141-4.2-1.963-.896-.723-2.574-1.919-3.729-2.658-1.156-.739-2.456-1.898-2.891-2.576-.435-.677-1.02-1.585-1.3-2.016-.28-.431-.898-1.107-1.374-1.501-2.374-1.97-2.735-3.755-2.735-13.515 0-10.209.355-12.01 2.632-13.355.721-.426 1.534-1.433 1.96-2.427.561-1.307 1.084-1.842 2.268-2.316.847-.339 2.107-1.323 2.8-2.186 1.246-1.552 4.163-2.908 6.286-2.921 2.63-.017 2.742-.313.992-2.63-.939-1.244-2.323-2.503-3.281-2.985-2.305-1.158-2.7-1.507-4.273-3.78-.761-1.1-1.696-2.233-2.078-2.518-1.609-1.203-2.745-3.968-3.186-7.757-.238-2.049-.652-4.535-.919-5.525-.388-1.435-.382-2.124.029-3.4.283-.88.7-3.079.926-4.887.485-3.884 1.293-5.65 2.856-6.24.703-.265 1.237-.823 1.392-1.452.435-1.774 1.346-2.777 2.904-3.196 1.12-.302 1.624-.71 1.953-1.581.585-1.551 2.241-2.351 6.025-2.912 1.751-.26 3.464-.76 3.914-1.142 2.222-1.89 6.001-2.203 8.646-.716M396.6 127.107c-.768 1.212-1.862 2.252-3.041 2.893-1.012.55-2.498 1.58-3.301 2.289-.856.755-2.414 1.555-3.76 1.929-1.264.352-2.748.785-3.298.962l-1 .321 1.2.277c3.181.735 4.531 1.469 5.168 2.81.438.924 1.005 1.43 1.795 1.604 1.452.319 2.27 1.221 2.727 3.008.245.96.617 1.438 1.184 1.521 1.812.266 3.326 3.589 3.326 7.299 0 1.044.138 1.18 1.2 1.18h1.2v-28l-1.1.007c-.872.006-1.348.399-2.3 1.9M35.66 183.463c.803.475 2.783 1.065 4.4 1.311 4.179.637 5.408 1.117 6.393 2.5.476.669 1.443 1.458 2.149 1.753.706.295 1.976 1.444 2.823 2.554.847 1.111 1.678 2.019 1.848 2.019.646 0 1.545 1.953 1.947 4.231.23 1.303.693 3.083 1.03 3.956.961 2.489 1.141 7.926.37 11.213-.36 1.54-.932 4.15-1.27 5.8-.712 3.474-1.297 4.545-2.952 5.401-.672.347-1.452 1.233-1.782 2.021-.409.981-1.059 1.615-2.156 2.107-.863.386-2.046 1.268-2.628 1.96-1.521 1.807-2.381 2.026-14.632 3.712-4.238.583-24.239.498-24.871-.106-.291-.277-1.006-.715-1.589-.973-2.075-.917-2.14-1.665-2.14-24.522 0-23.313-.091-22.477 2.694-24.719l1.639-1.319 13.634.119c13.136.115 13.686.15 15.093.982m48.51 50.146c4.976.768 9.03 2.381 9.03 3.594 0 .175.978.968 2.172 1.761 1.547 1.027 2.55 2.103 3.483 3.739.721 1.263 1.899 3.069 2.617 4.013 3.359 4.414 3.36 17.677.002 22.126-.73.967-1.915 2.796-2.633 4.064-.903 1.594-1.913 2.702-3.274 3.593-2.225 1.457-2.494 2.895-.88 4.701.098.11 8.489.305 18.646.434 23.658.299 28.702.878 31.278 3.587.654.688 1.729 1.521 2.389 1.852 1.443.723 5.692 5.149 6.052 6.305.141.452.753 1.392 1.36 2.088 1.922 2.205 2.188 3.653 2.188 11.934 0 8.241-.207 9.253-2.438 11.942-.575.692-1.613 2.156-2.307 3.254-.693 1.098-1.718 2.215-2.276 2.483-.558.267-1.856 1.281-2.884 2.252-2.306 2.178-3.867 2.941-6.7 3.275-1.207.142-3.545.739-5.195 1.326l-3 1.068H73.4l-1.6-.948c-.928-.55-2.692-1.086-4.2-1.277-4.201-.532-5.69-1.173-6.582-2.838-.57-1.063-1.194-1.583-2.298-1.914-1.493-.447-2.72-1.978-2.72-3.395 0-.336-.7-.969-1.556-1.405-2.405-1.228-2.578-2.06-2.743-13.223-.175-11.759.204-13.817 2.873-15.63.958-.651 1.715-1.569 1.987-2.411.35-1.084.864-1.557 2.539-2.335 1.155-.537 2.1-1.181 2.1-1.431 0-1.349 3.37-3 7.4-3.625l2-.31-1.768-.523c-1.92-.569-3.523-1.834-4.05-3.198-.197-.509-.834-.973-1.553-1.131-1.433-.314-2.829-1.921-2.829-3.255 0-.698-.364-1.092-1.414-1.531-1.691-.707-2.362-2.093-3.044-6.284-.315-1.942-.81-3.377-1.459-4.239-1.725-2.287-1.691-6.658.068-8.785.61-.739 1.078-2.097 1.394-4.048.667-4.124 1.338-5.526 3.033-6.334.987-.471 1.422-.945 1.422-1.55 0-1.337 1.475-2.92 2.984-3.203.979-.184 1.414-.515 1.589-1.21.425-1.695 4.336-3.303 8.227-3.383.77-.016 2.03-.271 2.8-.568.77-.296 1.76-.463 2.2-.371.44.092 3.127.526 5.97.964m313.128 33.178c-.558 3.828-1.271 5.339-2.823 5.982-.837.347-1.296.923-1.635 2.054-.459 1.534-1.968 2.777-3.372 2.777-.314 0-.8.554-1.081 1.231-.598 1.443-1.718 2.256-4.066 2.949l-1.7.502 1.989.28c3.409.48 5.697 1.409 6.809 2.766.573.7 1.871 1.722 2.883 2.272 1.888 1.026 2.215 1.399 2.888 3.3.309.872.641 1.1 1.6 1.1H400v-28.4h-1.119c-1.092 0-1.129.075-1.583 3.187m-.098 56.414c-.448 1.664-1.422 2.554-3.3 3.015-.605.149-1.1.511-1.1.805 0 1.719-3.948 3.76-7.3 3.774-1.429.006-1.394.459.105 1.344.663.392 1.566 1.421 2.008 2.286.51 1 1.081 1.575 1.564 1.575 1.135 0 3.128 1.858 3.42 3.187.166.754.748 1.455 1.649 1.987 1.686.995 2.513 2.796 3.089 6.726.411 2.809.46 2.9 1.545 2.9H400v-29.2h-1.185c-1.043 0-1.235.19-1.615 1.601m-111.251 8.59c3.089.543 6.911 2.309 7.326 3.384.069.178 1.075.802 2.236 1.387 1.576.793 2.423 1.569 3.339 3.057.674 1.097 1.586 2.186 2.026 2.422 2.336 1.25 2.924 4.177 2.924 14.559 0 10.677-.283 12.046-2.765 13.393-.64.348-1.286.897-1.435 1.22-1.272 2.758-1.492 3.009-3.074 3.513-1.222.39-1.783.845-2.159 1.754-.349.841-1.084 1.494-2.338 2.074l-1.829.846-61.8.112c-70.443.128-67.806.25-69.508-3.22-.296-.603-1.087-1.226-1.894-1.493-1.526-.503-2.998-2.096-2.998-3.245 0-.452-.59-1.039-1.521-1.514-2.104-1.073-2.517-2.242-2.965-8.379-.795-10.883.179-16.697 3.306-19.75.839-.818 1.764-1.987 2.057-2.597.292-.609 1.429-1.682 2.527-2.383a58.508 58.508 0 0 0 3.68-2.588c4.087-3.187 1.534-3.066 65.316-3.106 47.84-.031 56.698.052 59.549.554" fill="#fff"/></g></svg>