<svg width="400" height="400" xmlns="http://www.w3.org/2000/svg" display="block"><g fill-rule="evenodd"><path d="M0 32.449v32.449l18.5-.175 18.5-.175 3.4-1.632c1.87-.898 4.089-1.821 4.93-2.05 2.613-.714 11.203-8.738 11.68-10.912.15-.684.9-1.938 1.666-2.786 3.702-4.097 3.917-22.468.313-26.781-.728-.872-1.621-2.48-1.985-3.575-.46-1.386-1.131-2.362-2.211-3.217-.852-.675-1.65-1.545-1.773-1.933-.123-.388-1.048-1.226-2.055-1.862-1.006-.636-2.226-1.663-2.71-2.281-.677-.865-1.662-1.34-4.276-2.059-5.19-1.427-6.779-2.441-6.779-4.322V0H0v32.449M96 1.18c0 1.978-3.157 3.684-9.204 4.973-.552.118-1.315.74-1.694 1.382-.38.643-1.278 1.449-1.996 1.792-1.805.863-5.787 5.379-6.944 7.876-.527 1.137-1.331 2.592-1.786 3.231-.82 1.152-2.234 5.589-3.48 10.926-.564 2.412-.585 3.5-.168 8.6.263 3.212.476 9.12.475 13.129-.003 6.866.054 7.416.976 9.502l.979 2.214 29.095-.102 29.095-.103.537-2c.715-2.659.53-37.374-.208-39.121-.26-.617-1.04-1.826-1.733-2.688-.692-.862-1.575-2.518-1.961-3.679-.5-1.504-1.088-2.378-2.043-3.037-.737-.509-1.66-1.545-2.051-2.303-.455-.881-1.321-1.667-2.4-2.179-.929-.44-2.079-1.403-2.556-2.14-.69-1.068-1.219-1.395-2.6-1.608C111.441 5.089 108 3.163 108 1.18V0H96v1.18m44.661 11.92c-.109 7.205-.381 14.45-.605 16.1-.223 1.65-.418 9.461-.431 17.357l-.025 14.357 1.943 1.943 1.943 1.943H172.9c27.616 0 29.435-.043 29.757-.7.189-.385.393-14.965.455-32.4l.111-31.7h-62.365l-.197 13.1m140.943 17.8c.003 16.995.116 31.575.253 32.4l.248 1.5h58.575l1.675-1.213c2.534-1.836 2.445-.624 2.445-33.413V0h-63.2l.004 30.9M72.1 72.67l-.9.628v57.919l1.053 1.592 1.053 1.591 14.247-.003c19.835-.005 27.089-1.115 31.047-4.752.88-.808 2.187-1.712 2.905-2.008.781-.322 1.553-1.06 1.921-1.836.339-.714 1.23-1.629 1.981-2.033.791-.426 1.553-1.246 1.812-1.951.976-2.656 1.572-3.78 2.689-5.07 2.23-2.577 2.228-2.559 2.4-23.679.147-18.119.108-19.588-.537-20.3-.977-1.08-58.129-1.174-59.671-.098m69.5-.111l-1.8.481v15.819c0 11.215.132 15.982.454 16.38.76.938 2.781 6.378 3.552 9.561.524 2.161 1.034 3.287 1.825 4.027.603.565 1.356 1.645 1.672 2.4.718 1.713 5.293 6.446 7.128 7.373.753.38 1.819 1.108 2.369 1.618 1.132 1.049 4.085 2.214 8.2 3.235 2.381.592 5.379.719 20.049.854l17.25.158.45-1.292c.665-1.906.637-60.027-.029-60.693-.688-.688-58.527-.613-61.12.079m140.247.062c-.324.846-.322 58.904.003 60.529l.25 1.25h57.927l2.086-1.052c1.148-.579 2.219-1.254 2.381-1.5.162-.247.297-13.547.3-29.558l.006-29.11-1.1-.49c-1.907-.849-61.528-.916-61.853-.069m98.953.194c-1.914.228-3.227.689-4.976 1.747-1.308.791-2.559 1.438-2.782 1.438-2.077 0-6.325 1.875-7.056 3.114-.513.869-1.39 1.588-2.442 2.001-1.305.513-1.792.997-2.381 2.372-.461 1.075-1.244 2.024-2.076 2.514-1.192.704-1.455 1.206-2.457 4.694-.618 2.148-1.612 4.635-2.21 5.527-2.142 3.195-2.157 3.317-2.328 19.532-.141 13.43-.083 15.353.507 16.9l.667 1.746H400v-62l-8.3.053c-4.565.028-9.47.191-10.9.362m-98.953 70.608c-.325.845-.321 58.505.003 60.127l.25 1.25h28.735c30.712 0 32.286-.101 33.659-2.159.162-.243.297-13.528.3-29.522l.006-29.081-1.5-.51c-2.544-.865-61.123-.965-61.453-.105m70.815.108c-.591.654-.662 2.339-.662 15.784 0 16.612.314 20.394 1.838 22.168.994 1.158 2.046 3.606 3.184 7.417.378 1.265.809 2.3.958 2.3.149 0 1.532 1.485 3.073 3.3 2.043 2.406 3.489 3.679 5.333 4.7 1.392.77 2.941 1.783 3.443 2.252 2.295 2.145 5.806 2.69 18.471 2.866l11.7.162V142.8h-23.338c-22.101 0-23.373.039-24 .731m-326.278.471c-.998.169-2.471.753-3.273 1.297-.802.544-3.01 1.494-4.907 2.111-2.378.774-3.722 1.454-4.327 2.19-.482.587-1.729 1.666-2.77 2.397-1.041.731-1.987 1.624-2.101 1.984-.115.361-.928 1.338-1.807 2.171-.88.834-1.606 1.815-1.616 2.182-.05 2.019-2.981 6.666-4.283 6.791l-1.3.126V204.4h60.228l.686-1.162c.878-1.487 1.076-58.288.206-59.158-.549-.549-31.545-.619-34.736-.078M0 244.4v30.8h59.861l.869-.926.87-.926v-58.009l-.926-.869-.926-.87H0v30.8m281.776-29.5c-.376 1.695-.384 58.223-.009 59.4l.287.9 29.273-.032c26.224-.029 29.481-.102 31.273-.7l2-.668v-58.731l-2-.703c-1.835-.646-4.411-.707-31.268-.735l-29.268-.031-.288 1.3m-70.076-.218l-.9.174v59.529l1.1.307c.605.17 9.38.308 19.5.308 19.971 0 24.014-.358 25.008-2.215.224-.418 1.696-1.407 3.271-2.197 4.66-2.339 9.97-8.134 10.864-11.855.14-.587.868-1.644 1.617-2.35 1.684-1.589 1.943-3.216 1.895-11.924-.042-7.642-.161-8.258-2.067-10.777-.851-1.124-1.739-2.756-1.973-3.626-.309-1.149-1.272-2.42-3.52-4.647-5.929-5.873-6.133-6.028-9.229-7.005-1.614-.51-3.594-1.382-4.4-1.939-2.538-1.753-5.807-2.026-23.866-1.989-9.02.018-16.805.111-17.3.206M0 304.4v20.4h1.145c1.207 0 .998-.327 4.811 7.528 1.269 2.615 6.823 7.92 9.725 9.29 1.475.696 2.943 1.665 3.263 2.153 1.795 2.739 23.756 2.752 24.806.014.119-.308 1.798-1.363 3.733-2.345 2.601-1.32 3.754-2.16 4.429-3.224.501-.792 1.491-1.722 2.2-2.066 1.004-.488 1.596-1.301 2.687-3.688.769-1.684 1.816-3.487 2.327-4.007 2.057-2.095 2.474-6.584 2.472-26.655-.001-14.448-.04-15.264-.794-16.5l-.792-1.3H0v20.4m281.85-19.15c-.373 1.864-.29 59.667.086 60.26.469.739 59.158.512 61.364-.238l1.5-.51-.006-29.081c-.003-15.994-.138-29.27-.3-29.502-1.484-2.127-2.286-2.179-33.418-2.179H282.1l-.25 1.25M102 285.218c-6.058.332-9.381 1.056-11.538 2.514-.804.543-1.912 1.12-2.462 1.282-2.165.636-4.912 2.372-6.107 3.859-.69.859-1.82 1.911-2.512 2.338-.837.518-1.829 1.88-2.973 4.083-.944 1.818-2.042 3.77-2.44 4.336-1.864 2.656-3.65 10.31-3.399 14.57.13 2.2.347 9.059.481 15.242l.245 11.241 1.114.659c1.812 1.07 58.357 1 59.329-.073.981-1.085 1.019-58.182.039-59.58-.677-.968-16.236-1.214-29.777-.471m-29.7 70.525l-1.1 1.741V400h59.82l.565-3.1c.938-5.143 1.09-38.753.186-41.119l-.68-1.781-28.845.001H73.4l-1.1 1.742m170.1-.107c-4.596.392-11.067 1.953-12.878 3.106-.727.464-2.422 1.397-3.768 2.075-1.345.678-2.662 1.626-2.928 2.108-.265.481-1.195 1.372-2.066 1.979-.871.608-1.761 1.598-1.978 2.2-.217.603-1.082 1.726-1.923 2.496-1.325 1.214-1.644 1.873-2.407 4.971-.544 2.206-1.439 4.49-2.34 5.974-2.167 3.567-2.062 7.603.313 12.005 1.116 2.071 1.702 3.72 1.858 5.237l.229 2.213H274.4v-21.02c0-24.936.325-23.134-4.239-23.52-4.132-.349-23.009-.229-27.761.176m-76.602.925c-4.243.922-7.037 2.068-9.206 3.774-.566.445-1.554.925-2.196 1.066-.742.163-1.48.765-2.03 1.654-.476.77-1.565 1.863-2.422 2.43-.857.567-1.667 1.466-1.801 1.998-.133.533-1.014 1.872-1.956 2.975-1.257 1.473-1.928 2.771-2.522 4.875-.445 1.577-1.365 4.307-2.044 6.067-1.317 3.412-1.387 6.549-.187 8.4.714 1.102 2.566 7.63 2.566 9.045V400h58.284l.345-2.9c1.036-8.719.337-21.862-1.207-22.688-.812-.435-2.633-3.766-3.564-6.52-.131-.389-.888-1.09-1.68-1.558-.793-.468-1.863-1.519-2.379-2.335-.869-1.377-1.627-1.894-5.999-4.086-.88-.441-1.96-1.12-2.4-1.509-2.349-2.078-13.64-3.139-19.602-1.843"/><path d="M37.2 1.138c0 1.881 1.589 2.895 6.779 4.322 2.614.719 3.599 1.194 4.276 2.059.484.618 1.704 1.645 2.71 2.281 1.007.636 1.932 1.474 2.055 1.862.123.388.921 1.258 1.773 1.933 1.08.855 1.751 1.831 2.211 3.217.364 1.095 1.257 2.703 1.985 3.575 3.604 4.313 3.389 22.684-.313 26.781-.766.848-1.516 2.102-1.666 2.786-.477 2.174-9.067 10.198-11.68 10.912-.841.229-3.06 1.152-4.93 2.05L37 64.548l-18.5.175-18.5.175v2.37l18.5-.191c21.985-.228 22.314-.271 28.355-3.682 5.43-3.067 9.041-6.299 12.012-10.754 3.54-5.308 3.384-4.907 5.377-13.841.217-.975.237-.965.816.4 1.507 3.556 2.172 7.833 2.532 16.275.41 9.615.603 10.303 3.345 11.909L72.67 68.4h58.868l1.288-1.288c1.497-1.497 2.374-3.38 2.374-5.099 0-.667.18-1.213.4-1.213.22 0 .4.438.4.974 0 2.749 2.709 6.009 5.356 6.445 2.246.37 3.231.952 1.644.971-2.229.027-4.2.843-5.868 2.428l-1.659 1.579-.636-.876c-.905-1.244-.916-1.255-2.191-2.235l-1.154-.886h-29.313c-28.227 0-29.38.029-31.142.784-3.671 1.574-3.439-.643-3.397 32.416.043 33.332.005 32.857 2.76 34.395l1.8 1.005 12.8.128c13.158.132 22.883-.34 26.4-1.282 5.713-1.529 14.728-8.042 17.412-12.579a68.986 68.986 0 0 1 2.629-4.072c1.786-2.504 3.753-10.94 3.757-16.119.003-2.626.629-2.044.933.868.311 2.972 1.527 6.264 3.136 8.485.682.942 1.964 3.346 2.848 5.342 2.762 6.235 8.116 11.763 14.962 15.448 6.492 3.495 7.379 3.616 28.123 3.854l17 .195 1.441-1.214c2.334-1.968 2.359-2.331 2.359-34.773 0-32.288.163-30.33-2.703-32.418l-1.06-.772 1.308-1.49c2.352-2.678 2.246-1.092 2.371-35.501l.116-31.9h-2.809l-.111 31.7c-.062 17.435-.266 32.015-.455 32.4-.322.657-2.141.7-29.757.7h-29.414l-1.943-1.943-1.943-1.943.025-14.357c.013-7.896.208-15.707.431-17.357.224-1.65.496-8.895.605-16.1l.197-13.1H138.4v6.92c0 8.034-.61 16.73-1.395 19.88-.301 1.21-.673 3.28-.825 4.6-.365 3.154-.952 4.217-.968 1.752-.034-5.226-1.918-12.897-3.82-15.552-.708-.99-1.601-2.413-1.983-3.163-1.722-3.379-8.346-9.092-12.451-10.739-2.545-1.022-2.768-1.207-2.883-2.402L113.949 0H108v1.18c0 1.983 3.441 3.909 8.333 4.665 1.381.213 1.91.54 2.6 1.608.477.737 1.627 1.7 2.556 2.14 1.079.512 1.945 1.298 2.4 2.179.391.758 1.314 1.794 2.051 2.303.955.659 1.543 1.533 2.043 3.037.386 1.161 1.269 2.817 1.961 3.679.693.862 1.473 2.071 1.733 2.688.738 1.747.923 36.462.208 39.121l-.537 2-29.095.103-29.095.102-.979-2.214c-.922-2.086-.979-2.636-.976-9.502.001-4.009-.212-9.917-.475-13.129-.417-5.1-.396-6.188.168-8.6 1.246-5.337 2.66-9.774 3.48-10.926.455-.639 1.259-2.094 1.786-3.231 1.157-2.497 5.139-7.013 6.944-7.876.718-.343 1.616-1.149 1.996-1.792.379-.642 1.142-1.264 1.694-1.382C92.843 4.864 96 3.158 96 1.18V0h-6v1.137c0 1.044-.296 1.272-3.611 2.782C79.622 7.001 73.773 13.161 71 20.126c-1.27 3.192-1.798 3.996-4.025 6.128l-2.563 2.453-.404-1.453c-.222-.8-.405-1.705-.406-2.011C63.577 18.82 54.66 7.554 46.7 3.887c-3.201-1.475-3.5-1.71-3.5-2.75V0h-6v1.138M280.091 32.7l.109 32.7.899 1.681.898 1.682-1.012 1.904-1.012 1.903.12 31.615c.109 28.748.183 31.801.814 33.664.673 1.987.669 2.104-.119 3.884-.946 2.14-1.001 60.653-.061 66.378.331 2.019.328 2.989-.014 3.8-.286.68-.564 5.6-.738 13.089-.154 6.6-.514 13.665-.8 15.699-.426 3.041-.425 4.572.006 8.6.289 2.696.647 9.761.796 15.701.186 7.414.43 11.122.778 11.827.41.83.408 1.597-.008 4-.382 2.203-.547 10.94-.638 33.754l-.124 30.781 1.046 2.138 1.046 2.137 30.262-.154c33.534-.171 32.083-.059 33.705-2.616l1.156-1.824v-29.671c0-24.825-.094-29.939-.577-31.307-1.384-3.924-1.489-5.961-.415-8.081l.992-1.957v-59.311l-.944-1.879c-1.033-2.057-.956-4.471.25-7.837.375-1.047.67-4.295.852-9.4.152-4.29.452-9.06.666-10.6.214-1.54.498-11.202.633-21.471l.244-18.672-.873-1.412c-.48-.776-1.404-1.859-2.055-2.406l-1.182-.995 1.361-2.522c2.818-5.224 2.782-4.868 2.499-24.083-.139-9.481-.422-18.409-.628-19.839-.207-1.43-.504-6.788-.662-11.906l-.286-9.306-1.238-1.427c-1.037-1.197-1.592-1.475-3.437-1.719l-2.2-.292 2.3-.503c2.122-.465 2.385-.648 3.4-2.375L347 64.2l.109-32.1.109-32.1H344.8v30.174c0 32.789.089 31.577-2.445 33.413L340.68 64.8h-58.575l-.248-1.5c-.137-.825-.25-15.405-.253-32.4C281.6.153 281.596 0 280.791 0c-.806 0-.809.109-.7 32.7m100.174 38.136c-10.772.889-22.01 8.79-25.867 18.187-.519 1.264-1.262 2.279-1.98 2.703-2.905 1.716-3.004 2.419-3.144 22.382-.137 19.522-.064 20.331 2.195 24.228 1.001 1.725 1.002 1.739.202 2.3-2.496 1.748-2.472 1.541-2.457 21.211.017 21.054.154 22.29 2.736 24.591 1.033.921 2.195 2.646 3.234 4.8 2.399 4.974 7.958 10.496 13.283 13.192 6.398 3.24 10.567 3.964 22.833 3.968l8.7.002v-3.92l-11.7-.162c-12.665-.176-16.176-.721-18.471-2.866-.502-.469-2.051-1.482-3.443-2.252-1.844-1.021-3.29-2.294-5.333-4.7-1.541-1.815-2.924-3.3-3.073-3.3-.149 0-.58-1.035-.958-2.3-1.138-3.811-2.19-6.259-3.184-7.417-1.526-1.775-1.838-5.553-1.838-22.237 0-14.142.047-15.165.731-15.784.664-.6 2.91-.662 24-.662H400v-8.4h-46.734l-.667-1.746c-.59-1.547-.648-3.47-.507-16.9.171-16.215.186-16.337 2.328-19.532.598-.892 1.592-3.379 2.21-5.527 1.002-3.488 1.265-3.99 2.457-4.694.832-.49 1.615-1.439 2.076-2.514.589-1.375 1.076-1.859 2.381-2.372 1.052-.413 1.929-1.132 2.442-2.001.731-1.239 4.979-3.114 7.056-3.114.223 0 1.473-.643 2.777-1.428 2.98-1.795 5.792-2.165 16.481-2.169l7.7-.003v-2l-7.9.056c-4.345.031-9.671.202-11.835.38m-248.494 1.932c.645.712.684 2.181.537 20.3-.172 21.12-.17 21.102-2.4 23.679-1.117 1.29-1.713 2.414-2.689 5.07-.259.705-1.021 1.525-1.812 1.951-.751.404-1.642 1.319-1.981 2.033-.368.776-1.14 1.514-1.921 1.836-.718.296-2.025 1.2-2.905 2.008-3.958 3.637-11.212 4.747-31.047 4.752l-14.247.003-1.053-1.591-1.053-1.592V73.298l.9-.628c1.542-1.076 58.694-.982 59.671.098m70.949-.288c.666.666.694 58.787.029 60.693l-.45 1.292-17.25-.158c-14.67-.135-17.668-.262-20.049-.854-4.115-1.021-7.068-2.186-8.2-3.235-.55-.51-1.616-1.238-2.369-1.618-1.835-.927-6.41-5.66-7.128-7.373-.316-.755-1.069-1.835-1.672-2.4-.791-.74-1.301-1.866-1.825-4.027-.771-3.183-2.792-8.623-3.552-9.561-.322-.398-.454-5.165-.454-16.38V73.04l1.8-.481c2.593-.692 60.432-.767 61.12-.079m140.98.21l1.1.49-.006 29.11c-.003 16.011-.138 29.311-.3 29.558-.162.246-1.233.921-2.381 1.5l-2.086 1.052H282.1l-.25-1.25c-.325-1.625-.327-59.683-.003-60.529.325-.847 59.946-.78 61.853.069M26.6 141.464c-8.32.999-17.76 6.697-22.549 13.611-1.461 2.11-1.938 2.525-2.9 2.525H0v7.651l1.3-.126c1.302-.125 4.233-4.772 4.283-6.791.01-.367.736-1.348 1.616-2.182.879-.833 1.692-1.81 1.807-2.171.114-.36 1.06-1.253 2.101-1.984 1.041-.731 2.288-1.81 2.77-2.397.605-.736 1.949-1.416 4.327-2.19 1.897-.617 4.096-1.561 4.887-2.097.79-.537 2.443-1.141 3.673-1.342 3.511-.575 33.768-.479 34.356.109.87.87.672 57.671-.206 59.158l-.686 1.162H0v9.2h59.861l.869.926.87.926v58.009l-.926.869-.926.87H0v8.8h60.012l.792 1.3c.754 1.236.793 2.052.794 16.5.002 20.071-.415 24.56-2.472 26.655-.511.52-1.558 2.323-2.327 4.007-1.091 2.387-1.683 3.2-2.687 3.688-.709.344-1.699 1.274-2.2 2.066-.675 1.064-1.828 1.904-4.429 3.224-1.935.982-3.614 2.037-3.733 2.345-1.05 2.738-23.011 2.725-24.806-.014-.32-.488-1.788-1.457-3.263-2.153-2.902-1.37-8.456-6.675-9.725-9.29-3.813-7.855-3.604-7.528-4.811-7.528H0v7.6h1.166c.973 0 1.376.342 2.441 2.073 4.146 6.739 11.871 11.903 20.212 13.512 19.151 3.696 36.176-6.666 39.788-24.217.442-2.152.859-3.968.926-4.034.993-.994 3.049 11.61 3.059 18.752.009 6.94.395 8.171 2.989 9.548l1.655.877-1.726 1.645c-2.806 2.674-2.895 3.543-2.903 28.344L67.6 400h3.6v-42.516l1.1-1.741 1.1-1.742h28.846l28.845-.001.655 1.713c.763 1.998.956 32.523.239 37.687-.214 1.54-.503 3.655-.643 4.7l-.253 1.9h1.255c1.123 0 1.256-.125 1.256-1.173 0-.646.359-3.301.798-5.9.439-2.6.799-5.492.8-6.427.001-.935.182-1.7.402-1.7.22 0 .4.623.4 1.385 0 2.234 1.786 7.216 3.351 9.348.933 1.271 1.449 2.418 1.449 3.221 0 1.187.076 1.246 1.6 1.246 1.497 0 1.6-.074 1.6-1.155 0-1.415-1.852-7.943-2.566-9.045-1.2-1.851-1.13-4.988.187-8.4.679-1.76 1.599-4.49 2.044-6.067.594-2.104 1.265-3.402 2.522-4.875.942-1.103 1.825-2.453 1.963-2.999.137-.546.891-1.39 1.676-1.875.785-.485 1.883-1.57 2.439-2.41.637-.963 1.432-1.62 2.154-1.778.629-.138 1.607-.616 2.173-1.061 3.474-2.733 12.107-5.038 17.008-4.54 4.628.47 10.966 1.871 11.8 2.609.44.389 1.52 1.068 2.4 1.509 4.372 2.192 5.13 2.709 5.999 4.086.516.816 1.586 1.867 2.379 2.335.792.468 1.549 1.169 1.68 1.558.931 2.754 2.752 6.085 3.564 6.52 1.544.826 2.243 13.969 1.207 22.688l-.345 2.9h1.021c.943 0 1.034-.161 1.196-2.1.096-1.155.418-4.304.717-6.998.942-8.497-.344-16.346-3.436-20.964-.98-1.464-1.782-2.864-1.782-3.11 0-1.942-9.69-9.729-14.443-11.607-2.067-.816-4.133-1.686-4.593-1.932-5.038-2.702-20.184-.199-26.722 4.416-5.436 3.836-9.768 8.731-12.462 14.079-1.429 2.835-1.76 3.229-2.8 3.326-2.387.222-2.979.492-3.059 1.398-.044.49-.186-3.968-.315-9.908-.256-11.762-.609-13.678-3.053-16.583-.984-1.169-.984-1.172-.157-1.615.456-.244 1.363-1.181 2.017-2.083l1.187-1.639v-28.956c0-32.339.15-30.581-2.813-33.074l-1.248-1.05-15.67.014c-17.441.015-19.143.184-25.562 2.526-8.635 3.151-14.626 8.757-20.472 19.159-1.062 1.889-1.072 1.895-2.072 1.24-2.047-1.341-2.314-2.506-2.553-11.139-.186-6.732-.338-8.216-.958-9.363-1.598-2.954-2.238-6.326-1.353-7.126 2.385-2.157 2.301-.968 2.301-32.511 0-31.374.058-30.526-2.207-32.406-.949-.787-.459-4.157 1.031-7.095l1.166-2.299.005-29.1c.006-32.837.32-29.707-3.162-31.483-1.5-.765-29.968-1.209-35.433-.553m316.7 2.064l1.5.51-.006 29.081c-.003 15.994-.138 29.279-.3 29.522-1.373 2.058-2.947 2.159-33.659 2.159H282.1l-.25-1.25c-.324-1.622-.328-59.282-.003-60.127.33-.86 58.909-.76 61.453.105M210.713 212.3c-1.509 1.73-1.513 1.823-1.513 32.202 0 32.632.03 33.073 2.273 33.926 2.48.943 34.03.432 38.696-.626 9.065-2.056 17.986-8.195 21.236-14.614.61-1.203 1.529-2.74 2.044-3.415 4.11-5.394 3.958-26.973-.208-29.548-.204-.126-1.092-1.533-1.975-3.127-3.951-7.14-13.108-13.36-21.936-14.899-5.515-.962-37.763-.877-38.617.101m131.887 2.066l2 .703V273.8l-2 .668c-1.792.598-5.049.671-31.273.7l-29.273.032-.287-.9c-.375-1.177-.367-57.705.009-59.4l.288-1.3 29.268.031c26.857.028 29.433.089 31.268.735m-94.2.581c1.917.323 3.529.871 4.466 1.518.806.557 2.786 1.429 4.4 1.939 3.096.977 3.3 1.132 9.229 7.005 2.248 2.227 3.211 3.498 3.52 4.647.234.87 1.122 2.502 1.973 3.626 1.906 2.519 2.025 3.135 2.067 10.777.048 8.708-.211 10.335-1.895 11.924-.749.706-1.477 1.763-1.617 2.35-.894 3.721-6.204 9.516-10.864 11.855-1.575.79-3.047 1.779-3.271 2.197-.994 1.857-5.037 2.215-25.008 2.215-10.12 0-18.895-.138-19.5-.308l-1.1-.307v-59.529l.9-.174c2.307-.444 33.839-.216 36.7.265m93.726 69.932c1.141.483 2.206 1.068 2.368 1.3.162.232.297 13.508.3 29.502l.006 29.081-1.5.51c-2.206.75-60.895.977-61.364.238-.376-.593-.459-58.396-.086-60.26l.25-1.25h28.976c28.947 0 28.978.001 31.05.879m-210.349.81c.98 1.398.942 58.495-.039 59.58-.972 1.073-57.517 1.143-59.329.073l-1.114-.659-.245-11.241c-.134-6.183-.351-13.042-.481-15.242-.251-4.26 1.535-11.914 3.399-14.57.398-.566 1.496-2.518 2.44-4.336 1.144-2.203 2.136-3.565 2.973-4.083.692-.427 1.822-1.479 2.512-2.338 1.195-1.487 3.942-3.223 6.107-3.859.55-.162 1.658-.739 2.462-1.282 3.298-2.229 8.706-2.768 28.815-2.871 11.853-.061 11.879-.059 12.5.828M238.6 352.402c-1.32.162-3.12.565-4 .898-5.55 2.095-9.673 4.053-10.94 5.196-.803.725-2.135 1.734-2.96 2.244-.825.509-1.5 1.064-1.5 1.233 0 .17-1.067 1.517-2.372 2.995-1.304 1.477-2.699 3.528-3.1 4.556-.4 1.029-1.611 3.581-2.69 5.673-3.851 7.46-4.131 14.202-.853 20.521.558 1.076 1.015 2.479 1.015 3.119 0 1.097.094 1.163 1.656 1.163h1.656l-.229-2.213c-.156-1.517-.742-3.166-1.858-5.237-2.375-4.402-2.48-8.438-.313-12.005.901-1.484 1.796-3.768 2.34-5.974.763-3.098 1.082-3.757 2.407-4.971.841-.77 1.706-1.893 1.923-2.496.217-.602 1.107-1.592 1.978-2.2.871-.607 1.801-1.498 2.066-1.979.266-.482 1.583-1.43 2.928-2.108 1.346-.678 3.041-1.611 3.768-2.075 4.448-2.832 25.674-4.546 40.639-3.282 4.564.386 4.239-1.416 4.239 23.52V400h2.4v-20.874c0-22.915-.152-24.643-2.311-26.342-1.053-.828-29.733-1.133-35.889-.382" fill="#4f4f4f"/><path d="M43.2 1.137c0 1.04.299 1.275 3.5 2.75 7.96 3.667 16.877 14.933 16.902 21.356.001.306.184 1.211.406 2.011l.404 1.453 2.563-2.453c2.227-2.132 2.755-2.936 4.025-6.128 2.773-6.965 8.622-13.125 15.389-16.207C90.961 1.836 91.716 0 88 0c-1.914 0-2 .047-2.005 1.1-.004.986-.295 1.218-2.805 2.234-1.926.779-3.121 1.554-3.827 2.479-.564.74-1.649 1.713-2.411 2.162-.762.45-1.692 1.381-2.068 2.071-.376.689-1.419 1.996-2.318 2.904-1.105 1.116-1.944 2.523-2.596 4.35l-.963 2.7h-4.429l-1.107-2.542c-1.155-2.65-3.346-5.65-6.071-8.309-.88-.859-2.32-2.274-3.2-3.144C52.697 4.518 48.695 2.4 47.389 2.4c-.388 0-.589-.41-.589-1.2C46.8.044 46.733 0 45 0c-1.711 0-1.8.056-1.8 1.137m70.875.159c.115 1.195.338 1.38 2.883 2.402 4.105 1.647 10.729 7.36 12.451 10.739.382.75 1.275 2.173 1.983 3.163 1.902 2.655 3.786 10.326 3.82 15.552.016 2.465.603 1.402.968-1.752.152-1.32.524-3.39.825-4.6 1.519-6.097 1.979-26.8.595-26.8-.771 0-.8.267-.8 7.31 0 6.667-.447 12.845-1.077 14.89-.171.553-.41.006-.774-1.769a12.672 12.672 0 0 0-2.038-4.749c-.831-1.199-2.051-2.965-2.711-3.923-2.606-3.786-9.786-9.337-12.1-9.355-.288-.002-.5-.513-.5-1.204 0-1.158-.064-1.2-1.825-1.2-1.818 0-1.825.006-1.7 1.296M205.916 31.9c-.125 34.409-.019 32.823-2.371 35.501l-1.308 1.49 1.06.772c2.866 2.088 2.703.13 2.703 32.418 0 32.442-.025 32.805-2.359 34.773l-1.441 1.214-17-.195c-20.744-.238-21.631-.359-28.123-3.854-6.846-3.685-12.2-9.213-14.962-15.448-.884-1.996-2.166-4.4-2.848-5.342-1.609-2.221-2.825-5.513-3.136-8.485-.304-2.912-.93-3.494-.933-.868-.004 5.179-1.971 13.615-3.757 16.119a68.986 68.986 0 0 0-2.629 4.072c-2.684 4.537-11.699 11.05-17.412 12.579-3.517.942-13.242 1.414-26.4 1.282l-12.8-.128-1.8-1.005c-2.755-1.538-2.717-1.063-2.76-34.395-.042-33.059-.274-30.842 3.397-32.416 1.762-.755 2.915-.784 31.142-.784h29.313l1.154.886c1.275.98 1.286.991 2.191 2.235l.636.876 1.659-1.579c1.668-1.585 3.639-2.401 5.868-2.428 1.587-.019.602-.601-1.644-.971-2.647-.436-5.356-3.696-5.356-6.445 0-.536-.18-.974-.4-.974-.22 0-.4.546-.4 1.213 0 1.719-.877 3.602-2.374 5.099l-1.288 1.288H72.67l-1.733-1.016c-2.742-1.606-2.935-2.294-3.345-11.909-.36-8.442-1.025-12.719-2.532-16.275-.579-1.365-.599-1.375-.816-.4-1.993 8.934-1.837 8.533-5.377 13.841-2.971 4.455-6.582 7.687-12.012 10.754-6.041 3.411-6.37 3.454-28.355 3.682L0 67.268V69.6l14.5-.013c7.975-.007 15.67-.172 17.1-.367 11.966-1.627 14.225-2.208 17.14-4.406 1.177-.888 2.41-1.614 2.74-1.614.891 0 6.748-5.584 9.279-8.848 1.193-1.537 2.477-3.983 3.442-6.552.62-1.651 1.416 3.192 1.741 10.6.234 5.32.507 7.821.971 8.898.607 1.411.598 1.601-.152 3.297-.997 2.254-1.046 65.557-.052 67.296 1.07 1.871 1.353 1.902 18.691 2.035 20.302.156 28.579-.694 31.984-3.284.669-.509 2.34-1.509 3.713-2.223 1.374-.713 2.904-1.775 3.401-2.358.496-.584 1.67-1.663 2.608-2.399.937-.736 2.186-2.176 2.774-3.2.589-1.024 1.573-2.449 2.187-3.167 1.485-1.734 2.196-3.168 2.748-5.535.746-3.203.743-3.198 1.417-2.236.332.474 1.361 1.388 2.286 2.03 1.354.94 1.908 1.728 2.844 4.04.757 1.873 1.571 3.175 2.34 3.74.648.476 1.53 1.553 1.959 2.392.43.84 1.366 1.871 2.079 2.292.713.42 1.708 1.321 2.211 2.002.503.68 1.666 1.559 2.585 1.953.918.393 2.238 1.193 2.931 1.777 3.877 3.261 8.931 3.965 29.815 4.151 25.955.232 23.512 4.16 23.516-37.821.002-30.934.061-29.933-1.903-32.175-.551-.628-.498-.934.548-3.2L208.6 64.2l.116-32.1.115-32.1h-2.799l-.116 31.9m73.04 2c.098 18.645.173 34.44.167 35.1-.006.66-.06 34.05-.12 74.2-.104 69.758-.312 90.425-.949 94.4l-.288 1.8-.306-2.2c-.724-5.213-1.47-7.499-3.029-9.273-.834-.95-1.924-2.526-2.42-3.502-3.679-7.228-15.91-14.427-25.928-15.26-8.997-.749-35.021-.327-36.027.584-2.279 2.063-2.256 1.709-2.256 35.251 0 32.9.006 33.011 1.98 35.141l.982 1.059 18.119-.005c22.418-.007 22.894-.073 30.961-4.304 4.8-2.518 10.73-7.984 12.25-11.291.456-.99 1.502-2.457 2.327-3.26 1.557-1.516 2.332-3.846 3.012-9.053.997-7.639 1.419 7.968 1.383 51.149-.036 43.671.053 46.199 1.665 47.222.287.181 14.716.333 32.067.336l31.545.006 1.577-.886c1.258-.708 1.856-1.474 2.955-3.789l1.377-2.902v-28.654c0-23.39-.104-29.068-.567-30.911-1.083-4.319-1.151-6.836-.254-9.421 1.28-3.684 1.28-58.39 0-62.074-.897-2.585-.829-5.102.254-9.421.312-1.241.567-3.367.567-4.723 0-3.238.699-5.903 1.74-6.632 1.318-.923 1.701-.72 2.475 1.313.397 1.045 1.405 2.62 2.24 3.5 4.53 4.778 7.054 6.948 9.545 8.206.99.5 2.34 1.311 3 1.802 2.822 2.099 8.779 3.026 21.1 3.283l9.9.206V208.4l-8.7-.002c-12.266-.004-16.435-.728-22.833-3.968-5.325-2.696-10.884-8.218-13.283-13.192-1.039-2.154-2.201-3.879-3.234-4.8-2.582-2.301-2.719-3.537-2.736-24.591-.015-19.67-.039-19.463 2.457-21.211.8-.561.799-.575-.202-2.3-2.259-3.897-2.332-4.706-2.195-24.228.14-19.963.239-20.666 3.144-22.382.718-.424 1.461-1.439 1.98-2.703 3.003-7.317 10.641-13.867 20.128-17.26 2.128-.761 10.309-1.363 18.532-1.363 6.085 0 6.942-.079 6.942-.637 0-.574-1.294-.621-12.9-.471-14.352.185-16.62.543-19.256 3.036-.684.647-1.901 1.387-2.704 1.642-2.794.891-10.676 9.044-11.354 11.744-1.063 4.236-3.786-1.358-3.786-7.779 0-3.982-.098-4.553-1.175-6.813-.82-1.721-1.068-2.668-.82-3.131 1.797-3.358 1.742-2.318 1.893-36.091L350.04 0h-2.822l-.109 32.1L347 64.2l-1.1 1.872c-1.015 1.727-1.278 1.91-3.4 2.375l-2.3.503 2.2.292c1.845.244 2.4.522 3.437 1.719l1.238 1.427.286 9.306c.158 5.118.455 10.476.662 11.906.206 1.43.489 10.358.628 19.839.283 19.215.319 18.859-2.499 24.083l-1.361 2.522 1.182.995c.651.547 1.575 1.63 2.055 2.406l.873 1.412-.244 18.672c-.135 10.269-.419 19.931-.633 21.471-.214 1.54-.514 6.31-.666 10.6-.182 5.105-.477 8.353-.852 9.4-1.206 3.366-1.283 5.78-.25 7.837l.944 1.879v59.311l-.992 1.957c-1.074 2.12-.969 4.157.415 8.081.483 1.368.577 6.482.577 31.307v29.671l-1.156 1.824c-1.622 2.557-.171 2.445-33.705 2.616l-30.262.154-1.046-2.137-1.046-2.138.124-30.781c.091-22.814.256-31.551.638-33.754.416-2.403.418-3.17.008-4-.348-.705-.592-4.413-.778-11.827-.149-5.94-.507-13.005-.796-15.701-.431-4.028-.432-5.559-.006-8.6.286-2.034.646-9.099.8-15.699.174-7.489.452-12.409.738-13.089.342-.811.345-1.781.014-3.8-.94-5.725-.885-64.238.061-66.378.788-1.78.792-1.897.119-3.884-.631-1.863-.705-4.916-.814-33.664l-.12-31.615 1.012-1.903 1.012-1.904-.898-1.682-.899-1.681-.109-32.7C279.995 3.903 279.91 0 279.38 0c-.532 0-.581 3.908-.424 33.9M26.6 139.088c-5.089.715-10.917 2.72-13.6 4.68-.66.482-2.046 1.364-3.081 1.96-1.034.595-2.198 1.621-2.586 2.278-.388.656-.833 1.194-.989 1.194-.653 0-2.698 2.094-3.315 3.395-.54 1.139-.89 1.405-1.848 1.405C.048 154 0 154.073 0 155.8c0 2.939 1.727 2.63 4.051-.725 3.759-5.427 11.469-10.869 18.149-12.81 4.499-1.307 37.309-1.536 39.775-.278 3.55 1.811 3.226-1.361 3.22 31.513l-.005 29.1-1.166 2.299c-1.49 2.938-1.98 6.308-1.031 7.095 2.265 1.88 2.207 1.032 2.207 32.406 0 31.543.084 30.354-2.301 32.511-.885.8-.245 4.172 1.353 7.126.62 1.147.772 2.631.958 9.363.239 8.633.506 9.798 2.553 11.139 1 .655 1.01.649 2.072-1.24 5.846-10.402 11.837-16.008 20.472-19.159 6.419-2.342 8.121-2.511 25.562-2.526l15.67-.014 1.248 1.05c2.963 2.493 2.813.735 2.813 33.074v28.956l-1.187 1.639c-.654.902-1.561 1.839-2.017 2.083-.827.443-.827.446.157 1.615 2.444 2.905 2.797 4.821 3.053 16.583.129 5.94.271 10.398.315 9.908.08-.906.672-1.176 3.059-1.398 1.04-.097 1.371-.491 2.8-3.326 2.694-5.348 7.026-10.243 12.462-14.079 6.538-4.615 21.684-7.118 26.722-4.416.46.246 2.526 1.116 4.593 1.932 4.753 1.878 14.443 9.665 14.443 11.607 0 .246.802 1.646 1.782 3.11 3.092 4.618 4.378 12.467 3.436 20.964-1.006 9.073-1.006 9.098-.055 9.098.729 0 .84-.246.86-1.9.013-1.045.156-2.62.318-3.5l.294-1.6.883 2.578c.485 1.417.882 2.992.882 3.5 0 .787.205.922 1.4.922 1.783 0 1.905-1.353.385-4.282-3.278-6.319-2.998-13.061.853-20.521 1.079-2.092 2.29-4.644 2.69-5.673.401-1.028 1.796-3.079 3.1-4.556 1.305-1.478 2.372-2.825 2.372-2.995 0-.169.675-.724 1.5-1.233.825-.51 2.149-1.512 2.943-2.228 1.289-1.164 7.049-3.859 11.957-5.596 3.183-1.126 37.438-1.273 38.845-.166 2.21 1.738 2.355 3.362 2.355 26.376V400h2.431l-.116-22.978-.115-22.978-1.389-1.433c-2.197-2.266-2.387-2.283-23.611-2.115-20.322.162-20.962.216-23.653 2.017-.741.496-2.607 1.429-4.147 2.072-1.669.697-3.366 1.763-4.2 2.638-.77.808-1.994 1.807-2.719 2.22-.726.414-1.753 1.493-2.284 2.398-.53.905-1.436 1.954-2.012 2.332-.959.628-3.384 4.994-3.385 6.094 0 .257-.676 1.171-1.501 2.03-.958.997-1.859 2.565-2.489 4.333l-.987 2.77-.509-3c-.814-4.797-1.617-7.048-2.902-8.128-.639-.538-1.443-1.65-1.785-2.47-.727-1.74-4.562-6.045-6.415-7.202-.705-.44-1.85-1.37-2.545-2.067-.694-.697-2.119-1.555-3.165-1.907-1.046-.352-2.695-1.178-3.664-1.834-4.521-3.064-22.274-3.22-25.961-.227-.593.48-2.396 1.381-4.008 2.002-1.874.721-3.46 1.663-4.4 2.613-.808.818-2.054 1.888-2.768 2.38-.715.491-1.848 1.691-2.519 2.666-.671.975-1.721 2.032-2.334 2.349-.727.376-1.574 1.511-2.437 3.263l-1.323 2.687-.63-1.162c-.468-.864-.7-2.963-.903-8.163-.211-5.415-.461-7.588-1.102-9.598l-.83-2.597.889-1.803.888-1.802.092-29.6.091-29.6-.891-2.181c-.785-1.918-1.157-2.319-3.09-3.327l-2.197-1.146-19.003.148c-19.864.155-21.545.3-23.54 2.022-.364.315-1.929 1.048-3.477 1.63-3.146 1.183-9.45 6.066-11.585 8.972-.66.899-1.586 1.813-2.059 2.031-1.01.466-2.727 2.652-3.134 3.991-.672 2.206-1.178-.134-1.436-6.641-.146-3.685-.461-7.419-.7-8.299-.689-2.539-.666-5.803.059-8.384 1.016-3.617 1.016-57.615 0-61.232-.78-2.777-.751-5.667.097-9.584.517-2.388.589-7.133.489-32.258-.129-32.851.063-30.738-2.857-31.368-.693-.149-1.927-.61-2.743-1.023-1.414-.715-31.17-1.101-35.716-.463m222.73 73.111c8.828 1.539 17.985 7.759 21.936 14.899.883 1.594 1.771 3.001 1.975 3.127 4.166 2.575 4.318 24.154.208 29.548-.515.675-1.434 2.212-2.044 3.415-3.25 6.419-12.171 12.558-21.236 14.614-4.666 1.058-36.216 1.569-38.696.626-2.243-.853-2.273-1.294-2.273-33.926 0-30.379.004-30.472 1.513-32.202.854-.978 33.102-1.063 38.617-.101M64.44 319.656c-1.748 11.309-6.06 18.305-14.842 24.075-14.656 9.631-37.156 5.101-45.991-9.258C1.744 331.445 0 331.41 0 334.4c0 1.956.027 2 1.2 2 .66 0 1.2.179 1.2.399 0 .597 5.606 6.383 6.781 6.998.56.294 1.738 1.178 2.616 1.965.971.87 2.774 1.846 4.6 2.49 1.652.582 4.177 1.474 5.611 1.982 1.435.508 4.261 1.136 6.281 1.395 5.721.733 9.478-.044 19.842-4.108.622-.244 2.101-1.181 3.287-2.082a299.205 299.205 0 0 1 3.795-2.835c.9-.657 2.387-2.187 3.304-3.4a127.484 127.484 0 0 1 2.978-3.78c.722-.867 1.613-2.532 1.982-3.7 1.254-3.978 2.057-1.252 2.498 8.476.16 3.52.489 6.876.732 7.458.331.794.302 1.839-.119 4.2-1.02 5.721-.833 48.142.212 48.142.79 0 .8-.269.807-21.1.008-24.801.097-25.67 2.903-28.344l1.726-1.645-1.671-.886c-2.581-1.369-2.888-2.5-3.1-11.425-.143-5.996-.354-8.233-1-10.6-.985-3.609-1.971-6.696-2.025-6.344m70.758 66.844c-.001.935-.361 3.827-.8 6.427-1.035 6.128-1.034 7.073.002 7.073.645 0 .8-.267.8-1.376 0-.757.161-1.476.358-1.598.436-.27.842.697.842 2.007 0 .906.14.967 2.2.967 2.836 0 3.058-1.323.751-4.467-1.565-2.132-3.351-7.114-3.351-9.348 0-.762-.18-1.385-.4-1.385-.22 0-.401.765-.402 1.7" fill="#afafaf"/><path d="M46.8 1.2c0 .79.201 1.2.589 1.2 1.306 0 5.308 2.118 6.811 3.605.88.87 2.32 2.285 3.2 3.144 2.725 2.659 4.916 5.659 6.071 8.309L64.578 20h4.429l.963-2.7c.652-1.827 1.491-3.234 2.596-4.35.899-.908 1.942-2.215 2.318-2.904.376-.69 1.306-1.621 2.068-2.071.762-.449 1.847-1.422 2.411-2.162.706-.925 1.901-1.7 3.827-2.479C86.705 1.91 87.399 0 84.4 0c-1.511 0-1.6.067-1.6 1.2 0 .692-.212 1.201-.5 1.202-1.784.008-3.522.95-4.759 2.579-.738.972-1.758 1.875-2.267 2.007-.551.143-1.154.784-1.487 1.582-.309.738-1.283 1.914-2.166 2.613-1.145.907-1.727 1.751-2.033 2.944-.235.92-.492 1.87-.572 2.111-.467 1.423-4.542-.322-5-2.141-.676-2.685-9.108-11.073-11.545-11.485-1.514-.256-1.671-.392-1.671-1.447C50.8.034 50.742 0 48.8 0c-1.956 0-2 .027-2 1.2m70.8 0c0 .691.212 1.202.5 1.204 2.314.018 9.494 5.569 12.1 9.355.66.958 1.88 2.724 2.711 3.923a12.672 12.672 0 0 1 2.038 4.749c.611 2.975.817 2.627 1.436-2.421.541-4.418.553-18.01.015-18.01-.25 0-.418 2.665-.447 7.1-.057 8.537-.33 10.482-1.07 7.616-.352-1.363-.882-2.194-1.914-3-.784-.614-1.774-1.785-2.199-2.603-.425-.817-1.177-1.692-1.671-1.943-.495-.251-1.709-1.315-2.699-2.364-1.401-1.486-2.177-1.972-3.5-2.193-1.546-.258-1.7-.389-1.7-1.448C121.2.051 121.121 0 119.4 0c-1.733 0-1.8.044-1.8 1.2m91.116 30.9l-.116 32.1-1.157 2.505c-1.046 2.266-1.099 2.572-.548 3.2 1.964 2.242 1.905 1.241 1.903 32.175-.004 41.981 2.439 38.053-23.516 37.821-20.884-.186-25.938-.89-29.815-4.151-.693-.584-2.013-1.384-2.931-1.777-.919-.394-2.082-1.273-2.585-1.953-.503-.681-1.498-1.582-2.211-2.002-.713-.421-1.649-1.452-2.079-2.292-.429-.839-1.311-1.916-1.959-2.392-.769-.565-1.583-1.867-2.34-3.74-.936-2.312-1.49-3.1-2.844-4.04-.925-.642-1.954-1.556-2.286-2.03-.674-.962-.671-.967-1.417 2.236-.552 2.367-1.263 3.801-2.748 5.535-.614.718-1.598 2.143-2.187 3.167-.588 1.024-1.837 2.464-2.774 3.2-.938.736-2.112 1.815-2.608 2.399-.497.583-2.027 1.645-3.401 2.358-1.373.714-3.044 1.714-3.713 2.223-3.405 2.59-11.682 3.44-31.984 3.284-17.338-.133-17.621-.164-18.691-2.035-.994-1.739-.945-65.042.052-67.296.75-1.696.759-1.886.152-3.297-.464-1.077-.737-3.578-.971-8.898-.325-7.408-1.121-12.251-1.741-10.6-.965 2.569-2.249 5.015-3.442 6.552-2.531 3.264-8.388 8.848-9.279 8.848-.33 0-1.563.726-2.74 1.614-2.915 2.198-5.174 2.779-17.14 4.406-1.43.195-9.125.36-17.1.367L0 69.6v2.438l17.9-.138c19.024-.148 19.922-.235 21.818-2.124.674-.671 1.725-.99 4.453-1.351 4.424-.587 6.002-1.225 6.788-2.747.366-.707 1.062-1.294 1.727-1.456 2.734-.668 8.927-6.44 10.709-9.981.565-1.124 1.061-1.72 1.164-1.4.179.561.731 15.409.6 16.159-.038.22-.133 15.51-.211 33.977-.078 18.468-.289 33.724-.469 33.904-.18.18-1.286.145-2.458-.077-2.525-.479-29.828-.504-36.221-.034-5.07.373-7.416.983-8.832 2.294-.551.511-1.489 1.046-2.085 1.189-1.863.448-3.988 1.686-6.077 3.542-1.108.984-2.518 2.049-3.134 2.368-.615.318-1.639 1.402-2.275 2.408-.924 1.461-1.382 1.829-2.277 1.829-1.061 0-1.12.095-1.12 1.8 0 2.461 1.929 2.713 3.029.395.617-1.301 2.662-3.395 3.315-3.395.156 0 .601-.538.989-1.194.388-.657 1.552-1.683 2.586-2.278 1.035-.596 2.421-1.478 3.081-1.96 2.1-1.534 4.54-2.58 8.524-3.653 5.452-1.469 38.071-1.941 40.741-.59.844.428 2.101.9 2.794 1.049 2.92.63 2.728-1.483 2.857 31.368.1 25.125.028 29.87-.489 32.258-.848 3.917-.877 6.807-.097 9.584 1.016 3.617 1.016 57.615 0 61.232-.725 2.581-.748 5.845-.059 8.384.239.88.554 4.614.7 8.299.258 6.507.764 8.847 1.436 6.641.407-1.339 2.124-3.525 3.134-3.991.473-.218 1.399-1.132 2.059-2.031 2.135-2.906 8.439-7.789 11.585-8.972 1.548-.582 3.113-1.315 3.477-1.63 1.995-1.722 3.676-1.867 23.54-2.022l19.003-.148 2.197 1.146c1.933 1.008 2.305 1.409 3.09 3.327l.891 2.181-.091 29.6-.092 29.6-.888 1.802-.889 1.803.83 2.597c.641 2.01.891 4.183 1.102 9.598.203 5.2.435 7.299.903 8.163l.63 1.162 1.323-2.687c.863-1.752 1.71-2.887 2.437-3.263.613-.317 1.663-1.374 2.334-2.349.671-.975 1.804-2.175 2.519-2.666.714-.492 1.96-1.562 2.768-2.38.94-.95 2.526-1.892 4.4-2.613 1.612-.621 3.415-1.522 4.008-2.002 3.687-2.993 21.44-2.837 25.961.227.969.656 2.618 1.482 3.664 1.834 1.046.352 2.471 1.21 3.165 1.907.695.697 1.84 1.627 2.545 2.067 1.853 1.157 5.688 5.462 6.415 7.202.342.82 1.146 1.932 1.785 2.47 1.285 1.08 2.088 3.331 2.902 8.128l.509 3 .987-2.77c.63-1.768 1.531-3.336 2.489-4.333.825-.859 1.501-1.773 1.501-2.03.001-1.1 2.426-5.466 3.385-6.094.576-.378 1.482-1.427 2.012-2.332.531-.905 1.558-1.984 2.284-2.398.725-.413 1.949-1.412 2.719-2.22.834-.875 2.531-1.941 4.2-2.638 1.54-.643 3.406-1.576 4.147-2.072 2.691-1.801 3.331-1.855 23.653-2.017 21.224-.168 21.414-.151 23.611 2.115l1.389 1.433.115 22.978.116 22.978h1.969l.002-21.1c.002-13.227.156-21.653.414-22.582l.412-1.482 31.086-.134 31.086-.134 2.444-1.26c2.839-1.464 4.329-3.066 5.045-5.426.476-1.567.773-51.733.395-66.682-.064-2.53-.002-17.65.139-33.6.184-20.803.125-30.357-.209-33.8-.485-5.005.215-16.189 1.067-17.041.228-.228.722.406 1.282 1.644.632 1.4 1.32 2.227 2.249 2.706.736.38 1.756 1.321 2.266 2.091.55.828 1.763 1.809 2.971 2.4 1.123.55 2.628 1.502 3.344 2.115 2.094 1.791 3.366 2.271 7.589 2.863 2.96.416 4.216.775 4.884 1.398 1.431 1.333 3.157 1.581 13.034 1.874l9.3.276v-3.229l-9.9-.206c-12.321-.257-18.278-1.184-21.1-3.283-.66-.491-2.01-1.302-3-1.802-2.491-1.258-5.015-3.428-9.545-8.206-.835-.88-1.843-2.455-2.24-3.5-.774-2.033-1.157-2.236-2.475-1.313-1.041.729-1.74 3.394-1.74 6.632 0 1.356-.255 3.482-.567 4.723-1.083 4.319-1.151 6.836-.254 9.421.798 2.297.821 3.156.821 31.037s-.023 28.74-.821 31.037c-.897 2.585-.829 5.102.254 9.421.463 1.843.567 7.521.567 30.911v28.654l-1.377 2.902c-1.099 2.315-1.697 3.081-2.955 3.789l-1.577.886-31.545-.006c-17.351-.003-31.78-.155-32.067-.336-1.612-1.023-1.701-3.551-1.665-47.222.036-43.181-.386-58.788-1.383-51.149-.68 5.207-1.455 7.537-3.012 9.053-.825.803-1.871 2.27-2.327 3.26-1.52 3.307-7.45 8.773-12.25 11.291-8.067 4.231-8.543 4.297-30.961 4.304l-18.119.005-.982-1.059c-1.974-2.13-1.98-2.241-1.98-35.141 0-33.542-.023-33.188 2.256-35.251 1.006-.911 27.03-1.333 36.027-.584 10.018.833 22.249 8.032 25.928 15.26.496.976 1.586 2.552 2.42 3.502 1.559 1.774 2.305 4.06 3.029 9.273l.306 2.2.288-1.8c.637-3.975.845-24.642.949-94.4.06-40.15.114-73.54.12-74.2.135-14.993-.44-69-.734-69-.251 0-.409 41.106-.446 115.9-.031 63.745-.187 114.73-.347 113.3-.44-3.933-.53-4.053-3.352-4.484-.509-.078-.927-.692-1.274-1.869-.506-1.718-1.846-3.196-7.811-8.624-1.656-1.507-3.786-2.568-5.232-2.605-.37-.01-1.072-.578-1.559-1.263-1.928-2.707-8.599-3.316-33.786-3.087-16.201.148-16.158.141-16.96 3.028-.543 1.956-.583 67.747-.043 69.632.209.728 1.025 1.987 1.812 2.798l1.433 1.474H246.2l1.8-1.037c1.215-.7 2.969-1.203 5.4-1.547 4.287-.607 5.822-1.185 7.756-2.918.797-.714 2.383-1.729 3.525-2.256 1.404-.648 2.267-1.353 2.667-2.179.325-.672 1.28-1.598 2.121-2.059 1.158-.633 1.823-1.442 2.731-3.322.951-1.968 1.463-2.572 2.467-2.904 1.715-.566 2.617-2.089 2.948-4.97.151-1.324.3 18.022.33 42.992l.055 45.4-17.7-.131c-26.785-.199-32.293.328-33.851 3.24-.381.711-1.185 1.165-2.924 1.648-2.19.609-2.452.802-3.008 2.219-.499 1.269-.858 1.599-1.967 1.807-1.412.265-2.312 1.267-2.754 3.068-.18.734-.638 1.16-1.519 1.413-1.352.387-2.034 1.392-2.674 3.936-.309 1.228-.704 1.739-1.703 2.2-.838.387-1.67 1.286-2.341 2.53l-1.041 1.931-.232-2.25c-.248-2.404-1.704-5.358-3.135-6.361-.461-.322-1.313-1.546-1.894-2.718-.784-1.582-1.45-2.324-2.58-2.876-.837-.409-1.944-1.412-2.46-2.229-.964-1.528-4.337-3.227-6.404-3.227-.644 0-1.066-.362-1.421-1.219-.81-1.957-2.281-2.433-8.762-2.837-12.913-.806-21.313.14-23.698 2.669-.777.824-1.994 1.584-2.93 1.831-2.289.602-3.295 1.359-3.59 2.702-.207.942-.527 1.224-1.618 1.429-1.536.288-2.994 1.867-2.994 3.243 0 .829-.211.923-2.345 1.046l-2.345.136-.273-6.6c-.151-3.63-.221-7.23-.155-8 .587-6.936.053-65.52-.609-66.732-1.474-2.702-1.149-2.668-25.873-2.668-24.282 0-24.459.015-27.062 2.317-.798.706-2.641 1.737-4.094 2.292-2.231.852-2.758 1.242-3.377 2.5-.437.89-1.021 1.491-1.446 1.491-1.128 0-2.721 1.486-3.223 3.006-.487 1.477-1.033 1.709-2.099.894-1.332-1.018-2.983-12.262-2.177-14.82.971-3.079 1.042-61.034.078-63.342-.763-1.825-.761-4.98.004-7.502.505-1.662.596-6.485.596-31.489v-29.526l1.1-.566c.875-.45 4.407-.604 17.3-.753 17.244-.199 17.957-.277 20.781-2.289.659-.469 2.335-.974 4.03-1.215 5.305-.752 6.849-1.38 7.768-3.158.425-.822 1.001-1.222 2.039-1.417 1.03-.193 2.054-.898 3.554-2.447 1.159-1.197 2.294-2.176 2.522-2.176.228 0 .709-.62 1.069-1.378.359-.757 1.302-1.912 2.095-2.566.972-.8 1.678-1.884 2.164-3.322.398-1.174.915-2.116 1.15-2.094.236.022 1.235.067 2.22.1 1.61.054 1.818.172 2.036 1.16.617 2.785 1.167 3.785 3.487 6.341 4.326 4.765 5.425 5.705 7.529 6.442 1.332.467 2.163 1.023 2.383 1.596.569 1.483 2.174 2.172 6.451 2.77 2.722.38 4.214.772 4.432 1.162 1.14 2.037 6.415 2.568 25.29 2.543 13.804-.017 14.319-.093 17.403-2.548 3.439-2.738 3.244-.312 3.057-38.006l-.166-33.8c-.001-.33.072-15.945.163-34.7.163-33.82.158-34.1-.63-34.1-.786 0-.797.37-.911 32.1m141.182-.2c-.151 33.773-.096 32.733-1.893 36.091-.248.463 0 1.41.82 3.131 1.077 2.26 1.175 2.831 1.175 6.813 0 6.421 2.723 12.015 3.786 7.779.678-2.7 8.56-10.853 11.354-11.744.803-.255 2.02-.995 2.704-1.642 2.636-2.493 4.904-2.851 19.256-3.036l12.9-.167V66l-9.3.003c-11.092.004-15.3.413-18.078 1.759-1.112.539-3.166 1.361-4.564 1.827-3.04 1.014-4.155 1.698-4.832 2.962-.294.549-1.152 1.14-2.045 1.407-1.532.459-3.181 2.061-3.181 3.091 0 .297-.616.798-1.369 1.112-1.482.619-2.417 1.788-2.855 3.568-.539 2.192-1.049.363-1.389-4.985-.188-2.939-.544-5.914-.792-6.611-.342-.963-.331-1.636.049-2.8.377-1.158.537-9.574.655-34.433l.155-32.9h-2.414l-.142 31.9M63.477 331.724c-.369 1.168-1.26 2.833-1.982 3.7-.721.867-2.062 2.568-2.978 3.78-.917 1.213-2.404 2.743-3.304 3.4-.901.658-2.609 1.933-3.795 2.835-1.186.901-2.665 1.838-3.287 2.082-10.364 4.064-14.121 4.841-19.842 4.108-2.02-.259-4.846-.887-6.281-1.395-1.434-.508-3.959-1.4-5.611-1.982-1.826-.644-3.629-1.62-4.6-2.49-.878-.787-2.056-1.671-2.616-1.965-1.175-.615-6.781-6.401-6.781-6.998 0-.22-.54-.399-1.2-.399-1.133 0-1.2.089-1.2 1.6 0 1.505.07 1.6 1.181 1.6 1.011 0 1.294.253 1.956 1.752.597 1.349 1.153 1.918 2.419 2.477.904.399 1.644.929 1.644 1.178 0 .774 1.701 2.083 4.049 3.115 1.237.544 2.374 1.191 2.527 1.439.434.702 3.158 1.974 5.29 2.47 6.299 1.464 13.294 2.215 15.309 1.643.784-.222 3.384-.692 5.777-1.044 4.413-.648 7.382-1.661 8.843-3.016.443-.411 1.827-1.197 3.077-1.746 1.516-.667 2.468-1.379 2.862-2.14.338-.653 1.281-1.445 2.208-1.854 1.19-.526 1.802-1.131 2.314-2.291.382-.867.993-1.672 1.356-1.787 1.035-.328 2.244-1.854 2.77-3.496 1.354-4.229 1.376-3.579 1.226 36.8-.092 24.541-.044 26.9.546 26.9.587 0 .647-2.057.66-22.5.011-17.474.139-23.202.574-25.642.421-2.361.45-3.406.119-4.2-.243-.582-.572-3.938-.732-7.458-.441-9.728-1.244-12.454-2.498-8.476m142.777 63.332c-.557 4.067-.389 4.944.946 4.944 1.493 0 1.559-.782.363-4.322-1.001-2.966-.988-2.96-1.309-.622m-70.781 2.005c-.558.557-.293 2.939.327 2.939.389 0 .598-.386.594-1.1-.007-1.243-.511-2.25-.921-1.839" fill="#dadada"/><path d="M50.8 1.165c0 1.055.157 1.191 1.671 1.447 2.437.412 10.869 8.8 11.545 11.485.458 1.819 4.533 3.564 5 2.141.08-.241.337-1.191.572-2.111.306-1.193.888-2.037 2.033-2.944.883-.699 1.857-1.875 2.166-2.613.333-.798.936-1.439 1.487-1.582.509-.132 1.529-1.035 2.267-2.007 1.237-1.629 2.975-2.571 4.759-2.579.288-.001.5-.51.5-1.202V0h-32v1.165m70.4 0c0 1.059.154 1.19 1.7 1.448 1.323.221 2.099.707 3.5 2.193.99 1.049 2.204 2.113 2.699 2.364.494.251 1.246 1.126 1.671 1.943.425.818 1.415 1.989 2.199 2.603 1.032.806 1.562 1.637 1.914 3 .74 2.866 1.013.921 1.07-7.616L136 0h-14.8v1.165M210.257 34.1c-.091 18.755-.164 34.37-.163 34.7l.166 33.8c.187 37.694.382 35.268-3.057 38.006-3.084 2.455-3.599 2.531-17.403 2.548-18.875.025-24.15-.506-25.29-2.543-.218-.39-1.71-.782-4.432-1.162-4.277-.598-5.882-1.287-6.451-2.77-.22-.573-1.051-1.129-2.383-1.596-2.104-.737-3.203-1.677-7.529-6.442-2.32-2.556-2.87-3.556-3.487-6.341-.218-.988-.426-1.106-2.036-1.16a67.844 67.844 0 0 1-2.22-.1c-.235-.022-.752.92-1.15 2.094-.486 1.438-1.192 2.522-2.164 3.322-.793.654-1.736 1.809-2.095 2.566-.36.758-.841 1.378-1.069 1.378-.228 0-1.363.979-2.522 2.176-1.5 1.549-2.524 2.254-3.554 2.447-1.038.195-1.614.595-2.039 1.417-.919 1.778-2.463 2.406-7.768 3.158-1.695.241-3.371.746-4.03 1.215-2.824 2.012-3.537 2.09-20.781 2.289-12.893.149-16.425.303-17.3.753l-1.1.566v29.526c0 25.004-.091 29.827-.596 31.489-.765 2.522-.767 5.677-.004 7.502.964 2.308.893 60.263-.078 63.342-.806 2.558.845 13.802 2.177 14.82 1.066.815 1.612.583 2.099-.894.502-1.52 2.095-3.006 3.223-3.006.425 0 1.009-.601 1.446-1.491.619-1.258 1.146-1.648 3.377-2.5 1.453-.555 3.296-1.586 4.094-2.292 2.603-2.302 2.78-2.317 27.062-2.317 24.724 0 24.399-.034 25.873 2.668.662 1.212 1.196 59.796.609 66.732-.066.77.004 4.37.155 8l.273 6.6 2.345-.136c2.134-.123 2.345-.217 2.345-1.046 0-1.376 1.458-2.955 2.994-3.243 1.091-.205 1.411-.487 1.618-1.429.295-1.343 1.301-2.1 3.59-2.702.936-.247 2.153-1.007 2.93-1.831 2.385-2.529 10.785-3.475 23.698-2.669 6.481.404 7.952.88 8.762 2.837.355.857.777 1.219 1.421 1.219 2.067 0 5.44 1.699 6.404 3.227.516.817 1.623 1.82 2.46 2.229 1.13.552 1.796 1.294 2.58 2.876.581 1.172 1.433 2.396 1.894 2.718 1.431 1.003 2.887 3.957 3.135 6.361l.232 2.25 1.041-1.931c.671-1.244 1.503-2.143 2.341-2.53.999-.461 1.394-.972 1.703-2.2.64-2.544 1.322-3.549 2.674-3.936.881-.253 1.339-.679 1.519-1.413.442-1.801 1.342-2.803 2.754-3.068 1.109-.208 1.468-.538 1.967-1.807.556-1.417.818-1.61 3.008-2.219 1.739-.483 2.543-.937 2.924-1.648 1.558-2.912 7.066-3.439 33.851-3.24l17.7.131-.055-45.4c-.03-24.97-.179-44.316-.33-42.992-.331 2.881-1.233 4.404-2.948 4.97-1.004.332-1.516.936-2.467 2.904-.908 1.88-1.573 2.689-2.731 3.322-.841.461-1.796 1.387-2.121 2.059-.4.826-1.263 1.531-2.667 2.179-1.142.527-2.728 1.542-3.525 2.256-1.934 1.733-3.469 2.311-7.756 2.918-2.431.344-4.185.847-5.4 1.547l-1.8 1.037h-35.376l-1.433-1.474c-.787-.811-1.603-2.07-1.812-2.798-.54-1.885-.5-67.676.043-69.632.802-2.887.759-2.88 16.96-3.028 25.187-.229 31.858.38 33.786 3.087.487.685 1.189 1.253 1.559 1.263 1.446.037 3.576 1.098 5.232 2.605 5.965 5.428 7.305 6.906 7.811 8.624.347 1.177.765 1.791 1.274 1.869 2.822.431 2.912.551 3.352 4.484.16 1.43.316-49.555.347-113.3L278 0h-67.578l-.165 34.1m142.042-1.2c-.118 24.859-.278 33.275-.655 34.433-.38 1.164-.391 1.837-.049 2.8.248.697.604 3.672.792 6.611.34 5.348.85 7.177 1.389 4.985.438-1.78 1.373-2.949 2.855-3.568.753-.314 1.369-.815 1.369-1.112 0-1.03 1.649-2.632 3.181-3.091.893-.267 1.751-.858 2.045-1.407.677-1.264 1.792-1.948 4.832-2.962 1.398-.466 3.452-1.288 4.564-1.827 2.778-1.346 6.986-1.755 18.078-1.759L400 66V0h-47.546l-.155 32.9M63.307 54.351c-1.63 3.377-7.903 9.207-10.621 9.871-.665.162-1.361.749-1.727 1.456-.786 1.522-2.364 2.16-6.788 2.747-2.728.361-3.779.68-4.453 1.351-1.896 1.889-2.794 1.976-21.818 2.124L0 72.038V150.4h1.12c.895 0 1.353-.368 2.277-1.829.636-1.006 1.66-2.09 2.275-2.408.616-.319 2.026-1.384 3.134-2.368 2.089-1.856 4.214-3.094 6.077-3.542.596-.143 1.534-.678 2.085-1.189 1.416-1.311 3.762-1.921 8.832-2.294 6.393-.47 33.696-.445 36.221.034 1.172.222 2.278.257 2.458.077.18-.18.391-15.436.469-33.904.078-18.467.172-33.757.208-33.977.166-.997-.5-16.24-.715-16.361-.132-.075-.643.696-1.134 1.712m289.7 142.438c-.824 1.334-1.459 12.206-.993 17.011.334 3.443.393 12.997.209 33.8-.141 15.95-.203 31.07-.139 33.6.378 14.949.081 65.115-.395 66.682-.716 2.36-2.206 3.962-5.045 5.426l-2.444 1.26-31.086.134-31.086.134-.412 1.482c-.258.929-.412 9.355-.414 22.582L281.2 400H400V214.126l-9.3-.276c-9.877-.293-11.603-.541-13.034-1.874-.668-.623-1.924-.982-4.884-1.398-4.223-.592-5.495-1.072-7.589-2.863-.716-.613-2.221-1.565-3.344-2.115-1.207-.591-2.422-1.573-2.971-2.4-.511-.77-1.503-1.697-2.204-2.06-.831-.431-1.636-1.391-2.315-2.758-.695-1.4-1.144-1.93-1.352-1.593M63.582 336.3c-.526 1.642-1.735 3.168-2.77 3.496-.363.115-.974.92-1.356 1.787-.512 1.16-1.124 1.765-2.314 2.291-.927.409-1.87 1.201-2.208 1.854-.394.761-1.346 1.473-2.862 2.14-1.25.549-2.634 1.335-3.077 1.746-1.461 1.355-4.43 2.368-8.843 3.016-2.393.352-4.993.822-5.777 1.044-2.015.572-9.01-.179-15.309-1.643-2.132-.496-4.856-1.768-5.29-2.47-.153-.248-1.29-.895-2.527-1.439-2.348-1.032-4.049-2.341-4.049-3.115 0-.249-.74-.779-1.644-1.178-1.266-.559-1.822-1.128-2.419-2.477-.662-1.499-.945-1.752-1.956-1.752H0V400h64.716l.142-26.145c.203-37.304.053-41.707-1.276-37.555" fill="#fff"/></g></svg>