<svg width="400" height="400" xmlns="http://www.w3.org/2000/svg" display="block"><g fill-rule="evenodd"><path d="M44.013 1.3c.007.715.272 1.643.589 2.062.318.42.848 1.693 1.178 2.83.331 1.137.949 2.382 1.374 2.766 1.064.963 2.22 3.84 3.071 7.642.394 1.76 1.023 3.56 1.399 4 1.299 1.523 1.938 3.299 2.606 7.241.369 2.177.759 4.454.866 5.059.402 2.27 1.428-.17 2.479-5.9.441-2.4 1.089-4.184 1.817-4.999.294-.331 1.109-2.581 1.811-5.001.702-2.42 1.871-5.39 2.598-6.6.727-1.21 1.618-3.128 1.98-4.263.363-1.135 1.1-2.539 1.639-3.121.539-.581.98-1.498.98-2.037V0H44l.013 1.3M114 1.138c0 .626.352 1.457.783 1.846.43.39 1.27 1.985 1.866 3.545.596 1.56 1.588 3.564 2.205 4.454.706 1.02 1.522 3.219 2.21 5.957 1.412 5.624 1.718 4.92 2.148-4.94.177-4.07.517-8.029.755-8.797C124.974-.046 125.043 0 119.2 0H114v1.138m84.8.013c0 .633.298 1.848.662 2.7.461 1.078.738 3.311.91 7.349.207 4.824.38 5.998 1.032 6.973l.784 1.174.46-1.774c.253-.975.772-2.991 1.153-4.48.461-1.803 1.09-3.134 1.884-3.984.675-.723 1.528-2.362 1.965-3.776.424-1.375.947-2.607 1.161-2.74.214-.132.389-.77.389-1.417V0h-10.4v1.151m56 .235c0 .942.361 1.807 1.127 2.7 1.822 2.125 2.763 3.947 3.469 6.714.365 1.43 1.261 3.68 1.991 5 1.176 2.127 2.041 4.698 2.81 8.347.505 2.397.714.354 1.046-10.231.189-6.004.456-11.591.594-12.416l.251-1.5H254.8v1.386m84-.008c0 .879-.349 1.784-.964 2.5L336.872 5l-7.536.204c-9.653.261-12.109 1.226-6.136 2.411 3.726.739 5.956 1.603 6.752 2.615.472.599 1.766 1.279 3.387 1.78 5.385 1.664 6.107 3.259 5.969 13.19-.134 9.636-.943 14.109-2.939 16.233-.612.652-.92 1.936-1.357 5.661-.605 5.164-1.111 6.775-2.963 9.421-.648.927-1.472 2.727-1.829 4-.518 1.842-.914 2.47-1.936 3.072-.706.416-1.644 1.109-2.084 1.54-1.064 1.043-2.623 1.782-6 2.846-1.54.485-3.459 1.233-4.265 1.661-.806.428-4.856 1.481-9 2.341-4.144.859-8.705 1.85-10.135 2.202-9.791 2.41-16.496.578-18.217-4.977-.375-1.21-1.099-2.65-1.611-3.2-1.327-1.428-2.411-4.147-2.998-7.518-.569-3.263-.698-3.443-2.091-2.913-1.465.556-1.883 2.353-1.883 8.085 0 8.769-2.288 11.946-8.602 11.946-8.483 0-14.294 1.77-9.148 2.787 4.366.862 6.541 1.63 7.848 2.77.716.624 1.752 1.27 2.302 1.435 2.636.79 4.702 1.935 5.278 2.924 2.389 4.106 1.554 19.823-1.503 28.301-.79 2.191-1.704 5.423-2.032 7.183-.62 3.338-2.223 7.437-3.237 8.278-.325.27-1.015 1.449-1.533 2.621-.834 1.886-1.188 2.24-3.074 3.074-1.172.518-2.354 1.212-2.628 1.541-.785.946-4.32 2.309-8.047 3.102-1.883.402-5.147 1.35-7.252 2.109-9.317 3.355-25.93 3.933-29.041 1.01-.497-.467-1.292-2.038-1.767-3.492-.474-1.454-1.255-3.093-1.733-3.643-1.672-1.92-1.839-2.312-2.656-6.221-.556-2.666-1.055-4.1-1.546-4.444-1.226-.858-1.937-2.929-2.772-8.074-.893-5.501-.978-5.723-1.7-4.395-.806 1.483-4.59 12.311-5.718 16.365-.342 1.227-1.072 2.895-1.623 3.707-.551.812-1.352 2.544-1.78 3.848-1.096 3.337-4.402 7.546-5.991 7.626-.135.007-1.569.185-3.186.395-6.294.817-20.638-1.053-24.949-3.253-.87-.444-3.113-1.074-4.985-1.401-4.067-.71-7.35-1.876-8.331-2.96-.393-.434-1.633-1.218-2.755-1.741-3.271-1.526-4.764-3.434-5.834-7.454-.263-.989-1.004-2.597-1.647-3.574-1.385-2.107-1.732-3.293-2.544-8.716-.337-2.25-.902-4.86-1.255-5.8-1.85-4.916-2.146-6.068-2.536-9.867-1.105-10.775.344-14.92 5.747-16.433 1.047-.293 2.587-1.104 3.422-1.802 1.497-1.25 3.604-2.038 8.094-3.025 4.147-.911 1.384-2.202-5.49-2.564-11.24-.593-12.229-1.629-12.62-13.217-.33-9.778-.716-10.917-1.957-5.772-.95 3.935-1.633 5.626-2.815 6.972-.387.44-1.088 1.979-1.559 3.419-1.112 3.401-1.514 3.93-4.741 6.243L109.4 75.4l-17.675.116c-19.493.127-18.337.256-22.259-2.484-2.428-1.697-2.883-2.354-4.093-5.912-.538-1.58-1.334-3.252-1.769-3.716-.895-.952-2.099-4.21-2.794-7.554-1.002-4.827-1.636-2.387-1.961 7.55-.268 8.17-.311 8.34-2.649 10.285-1.745 1.453-3.365 1.817-9.4 2.113-4.462.219-5.666.414-6.931 1.124l-1.53.86 4.425 1.078c4.028.981 6.836 2.266 6.836 3.128 0 .184 1.249.714 2.776 1.177 6.435 1.955 6.492 2.19 6.34 25.874-.132 20.447.004 19.607-3.472 21.499-1.111.604-2.128 1.274-2.261 1.489-.404.655-4.66 2.623-6.783 3.138-1.1.267-2.985 1.038-4.189 1.714-2.294 1.287-6.715 2.721-8.39 2.721-.68 0-.853.128-.564.417.251.251 4.703.549 11.18.748 15.167.468 14.257-.203 14.63 10.776.403 11.86 1.079 12.826 2.979 4.259.339-1.526 1.246-3.373 2.16-4.4.393-.44 1.014-1.697 1.381-2.794 2.328-6.954 4.958-8.075 17.238-7.346 6.083.36 8.635.937 10.914 2.465 1.087.729 2.433 1.099 5.261 1.448 6.418.792 7.871 1.182 9.516 2.557 1.003.837 2.516 1.532 4.412 2.023 1.706.443 3.196 1.096 3.644 1.598.417.467 1.405 1.563 2.196 2.436 1.013 1.117 1.76 2.598 2.524 5 .597 1.877 1.482 3.906 1.967 4.508.894 1.111 1.017 1.569 2.722 10.105.528 2.64 1.319 5.79 1.758 7 1.407 3.874 2.186 12.724 1.455 16.53-.351 1.824-3.387 4.482-5.592 4.896-.821.154-1.623.652-2.017 1.252-.822 1.255-3.236 2.327-6.585 2.923a12.274 12.274 0 0 0-4.792 1.914c-2.591 1.714-4.565 2.278-9.347 2.672-4.01.33-4.782.802-5.232 3.199-.353 1.881-.457 1.802 3.037 2.28 8.017 1.097 8.154 1.133 10.232 2.695 1.583 1.189 2.605 1.605 4.856 1.977 3.608.595 5.853 1.49 6.818 2.717.416.529 1.728 1.283 2.915 1.675 5.452 1.798 7.073 6.025 5.696 14.858-.786 5.047-1.172 6.773-1.793 8.012-.674 1.348-1.438 4.728-2.386 10.564-.432 2.657-1.148 4.563-2.193 5.836-.27.33-.966 2.13-1.546 4-1.525 4.917-4.05 7.586-8.108 8.569-1.929.468-3.252 1.063-4.118 1.854-1.534 1.401-4.046 2.123-9.603 2.758-3.379.386-4.412.665-5.482 1.481-2.017 1.538-4.603 2.126-10.947 2.485-12.658.716-15.447-.421-17.434-7.113-.326-1.098-.825-2.23-1.11-2.515-1.483-1.489-2.442-3.997-3.753-9.819-.757-3.357-1.71 2.211-1.71 9.987 0 10.274 1.391 9.558-19.335 9.949-8.764.165-16.039.404-16.166.532-.128.128.293.234.934.236 7.173.026 13.947 1.485 15.886 3.424.673.673 1.718 1.118 3.189 1.357 3.88.632 5.507 1.231 7.015 2.583.812.729 1.927 1.463 2.477 1.631 6.043 1.842 5.8.853 5.8 23.562 0 23.205.105 22.786-6.072 24.28-1.06.256-2.468.96-3.128 1.564-1.722 1.577-2.568 1.933-6.669 2.81-4.361.932-4.123.752-3.375 2.542.744 1.781-.165 1.534 6.844 1.854 11.901.544 12.306.905 12.668 11.298.148 4.23.44 8.231.65 8.891l.381 1.2.444-1.108c.244-.609.715-2.281 1.048-3.716.658-2.836 1.417-4.553 2.36-5.335.332-.276 1.093-1.973 1.692-3.771 2.295-6.894 3.615-7.27 25.557-7.27 22.48 0 24.159.526 26.194 8.207.262.986.898 2.243 1.415 2.793 1.151 1.224 1.466 2.038 2.631 6.787l.916 3.733.491-1.36c.31-.856.507-3.882.531-8.16.045-7.758.545-9.716 2.671-10.468 4.42-1.563 5.418-1.732 10.251-1.732 5.477 0 6.79-.469 7.191-2.566.172-.9.015-1.021-1.851-1.425-5.656-1.224-7.046-1.72-8.398-2.995-.768-.725-2.16-1.5-3.132-1.745-2.179-.548-4.988-2.543-5.609-3.982-1.279-2.967-.271-16.654 1.495-20.287 1.182-2.431 1.625-4.167 2.199-8.6.539-4.165 1.381-6.873 2.432-7.825.437-.395 1.19-2.078 1.673-3.74 1.177-4.052 3.395-6.447 6.9-7.451 1.32-.378 2.545-.936 2.722-1.24 2.747-4.711 32.41-5.265 38.753-.723 1.032.738 2.848 1.625 4.035 1.97 2.041.593 3.89 1.823 3.89 2.587 0 .19.615 1.082 1.366 1.982.844 1.009 1.779 2.899 2.444 4.938.593 1.816 1.498 4.202 2.011 5.302.512 1.1 1.592 5.24 2.399 9.2.807 3.96 1.804 8.82 2.214 10.8 1.995 9.626.202 15.536-5.152 16.978-.905.244-2.149.851-2.764 1.35-2.231 1.809-3.386 2.304-7.209 3.091-3.115.641-4.132 1.031-5.1 1.957-1.7 1.626-9.403 3.047-17.752 3.275-1.839.05-1.834.053.543.365 1.497.197 3.905 1.019 6.4 2.184 2.536 1.185 4.952 2.006 6.6 2.242 3.383.484 7.189 1.755 9.061 3.025.82.557 2.852 1.366 4.515 1.797 1.663.432 3.698 1.269 4.522 1.861 3.625 2.602 4.287 3.147 5.288 4.361 2.381 2.885 2.469 8.568.269 17.314-.754 2.998-2.455 11.824-2.455 12.741V400h69.897l.282-3.3c.412-4.8.928-6.823 2.254-8.824 1.02-1.54 1.258-2.459 1.77-6.833.648-5.543 1.161-7.152 2.745-8.613.579-.533 1.052-1.189 1.052-1.458 0-3.214 2.611-7.389 5.135-8.209.806-.262 2.145-1.01 2.977-1.662 1.873-1.471 4.72-2.577 7.539-2.929 1.182-.148 4.108-.808 6.501-1.467 5.245-1.443 9.212-1.395 14.648.179 1.87.542 4.711 1.195 6.313 1.452 2.884.461 7.066 2.233 8.039 3.406.277.333 1.022.721 1.657.86 2.082.457 3.128 1.667 4.041 4.671.475 1.565 1.36 3.394 1.989 4.11 1.582 1.803 1.879 2.783 2.535 8.392.493 4.211.719 5.084 1.549 5.98 1.351 1.457 2.28 5.108 2.56 10.053l.238 4.192H400V0h-2.2c-2.095 0-2.2.049-2.2 1.026 0 3.848-.544 3.954-20.946 4.097-21.629.152-23.454-.143-23.454-3.793V0h-12.4v1.378M0 287.8c0 2.135.663 2.325 3.432.984 1.916-.927 4.541-1.386 10.568-1.847l4.2-.322-4.2-.258c-2.31-.143-6.405-.281-9.1-.308L0 286v1.8m0 66.4v5.4h.95c.522 0 1.686-.26 2.585-.577.9-.318 2.913-.754 4.474-.971 1.561-.216 3.052-.563 3.314-.77 1.575-1.248 8.448-3.688 10.573-3.754l2.304-.072-2-.131c-11.842-.774-16.915-1.701-18.616-3.402-.744-.744-1.538-1.123-2.353-1.123H0v5.4m26.5-.709c.825.087 2.175.087 3 0 .825-.086.15-.157-1.5-.157s-2.325.071-1.5.157m126.207-.001c.719.089 1.799.087 2.4-.004s.013-.164-1.307-.162c-1.32.002-1.812.077-1.093.166m-26.825 41.536c-1.128 4.015-.979 4.974.774 4.974h1.455l-.238-1.9a27.758 27.758 0 0 0-.774-3.7l-.536-1.8-.681 2.426m-71.027.441c-.797 3.972-.68 4.533.945 4.533 1.675 0 1.797-.731.747-4.474-.815-2.906-1.118-2.917-1.692-.059"/><path d="M38.803 1.1c.002.81.376 1.355 1.418 2.064 4.36 2.969 12.11 24.025 14.369 39.036.364 2.42.903 5.3 1.197 6.4.323 1.206.644 5.656.809 11.203.395 13.332.89 12.971-17.911 13.044-6.647.026-12.625.185-13.285.353-.66.168-.904.327-.541.353 1.503.108 6.549 2.497 7.521 3.56.772.846 2.147 1.489 5.234 2.449 3.618 1.125 9.615 3.607 14.381 5.952.821.404 2.054 1.647 3 3.023l1.605 2.337.133 15.342c.147 17.07-.03 18.955-1.991 21.189-1.442 1.642-9.597 5.752-13.894 7.001-1.623.472-3.963 1.363-5.2 1.98-2.348 1.172-3.815 1.561-9.948 2.644-8.072 1.425-1.228 2.808 15.9 3.215 15.589.369 14.745-.327 15.208 12.555.319 8.871.895 12.679 2.348 15.511l.761 1.483.426-1.797c.235-.988 1.136-3.867 2.004-6.397 7.358-21.46 9.358-22.982 24.918-18.964 2.185.564 6.295 1.448 9.135 1.964 3.43.623 6.208 1.403 8.281 2.324 1.715.762 4.355 1.788 5.866 2.279 6.127 1.993 10.832 11.921 14.025 29.597 2.741 15.169 2.245 17.583-4.14 20.162-1.413.571-2.853 1.286-3.2 1.589-1.078.942-2.919 1.703-5.832 2.413-1.54.375-4.077 1.309-5.637 2.075-2.077 1.021-4.275 1.658-8.2 2.376-8.052 1.474-7.705 1.324-8.106 3.513-.553 3.014-.385 3.1 9.512 4.881a25.948 25.948 0 0 1 6.781 2.217c1.766.866 3.519 1.574 3.895 1.574 1.32 0 5.635 1.547 7.088 2.54.807.552 2.661 1.477 4.119 2.055 6.461 2.562 6.862 8.271 1.939 27.605-4.24 16.654-6.419 20.356-13.153 22.353-1.189.352-3.303 1.197-4.698 1.876-1.394.679-4.022 1.502-5.838 1.828-3.952.71-10.458 2.215-13.502 3.124-3.547 1.06-11.787 1.316-13.455.417-2.817-1.517-10.508-18.542-11.567-25.607-.354-2.362-.81-2.564-1.591-.707-1.48 3.523-1.853 6.313-2.12 15.849-.368 13.14 2.932 11.887-31.426 11.938-21.206.031-25.441.128-25.441.583 0 .429 1.051.557 4.9.595 2.695.027 6.79.165 9.1.308l4.2.258-4.2.322c-6.027.461-8.652.92-10.568 1.847-.926.449-2.078.816-2.558.816-.732 0-.874.227-.874 1.4 0 1.935 1.407 1.888 5.708-.19 7.2-3.478 22.335-3.601 29.292-.237 1.54.744 3.97 1.65 5.4 2.012 2.816.713 12.843 5.441 14.289 6.737 1.957 1.754 2.155 3.806 2.028 20.999L56.6 336.2l-1.16 2.093c-1.303 2.353-1.835 2.768-5.24 4.097-1.32.515-3.48 1.519-4.8 2.232-1.32.713-4.11 1.776-6.2 2.363s-4.455 1.494-5.255 2.017c-4.834 3.156-19.948 3.257-25.991.175C3.27 346.787 0 346.221 0 347.8c0 .85.185 1 1.231 1 .815 0 1.609.379 2.353 1.123 1.701 1.701 6.774 2.628 18.616 3.402l2 .131-2.304.072c-2.125.066-8.998 2.506-10.573 3.754-.262.207-1.753.554-3.314.77-1.561.217-3.574.653-4.474.971-.899.317-2.063.577-2.585.577-.842 0-.95.183-.95 1.6 0 2.071 1.482 2.188 4.901.385 1.617-.852 4.056-1.559 8.206-2.379 3.247-.642 6.712-1.522 7.699-1.956 6.91-3.036 31.947-3.439 35.048-.565l1.025.95-.277 9.482c-.17 5.829-.485 10.254-.817 11.483-.297 1.1-.83 3.89-1.186 6.2a128.907 128.907 0 0 1-1.623 8.335c-1.36 5.764-1.324 6.865.224 6.865 1.051 0 1.2-.141 1.2-1.133 0-1.627.857-5.667 1.203-5.667.383 0 1.597 4.35 1.597 5.726 0 .986.131 1.074 1.6 1.074 1.944 0 1.939.043.782-6.66-.825-4.78-.795-6.013.228-9.34.304-.99.916-3.276 1.358-5.08 1.174-4.783 5.743-16.383 8.031-20.389 2.194-3.841 1.776-3.774 22.516-3.643l17.812.112 1.536 1.24c2.575 2.077 8.073 14.568 10.312 23.428.483 1.91 1.103 3.744 1.378 4.075.876 1.056.969 4.653.225 8.657-.389 2.09-.785 4.655-.881 5.7l-.174 1.9h1.638c1.623 0 1.639-.015 1.663-1.5.014-.825.338-2.49.721-3.7l.696-2.2.679 2.682c.374 1.475.68 3.14.68 3.7 0 .864.181 1.018 1.2 1.018 1.544 0 1.567-.815.184-6.551-3.264-13.547-4.988-34.645-2.993-36.64 2.872-2.872 27.265-2.622 34.809.357 1.21.478 4.794 1.388 7.964 2.024 3.898.781 6.493 1.537 8.015 2.335 1.238.649 3.64 1.561 5.337 2.026 3.229.886 11.665 5.102 12.867 6.431 1.949 2.153 1.098 13.965-1.602 22.237-.551 1.69-1.114 4.132-1.249 5.427l-.246 2.354h1.657c1.428 0 1.657-.119 1.657-.859 0-.917 1.701-9.743 2.455-12.741 2.2-8.746 2.112-14.429-.269-17.314-1.001-1.214-1.663-1.759-5.288-4.361-.824-.592-2.859-1.429-4.522-1.861-1.663-.431-3.695-1.24-4.515-1.797-1.872-1.27-5.678-2.541-9.061-3.025-1.648-.236-4.064-1.057-6.6-2.242-2.495-1.165-4.903-1.987-6.4-2.184-2.377-.312-2.382-.315-.543-.365 8.349-.228 16.052-1.649 17.752-3.275.968-.926 1.985-1.316 5.1-1.957 3.823-.787 4.978-1.282 7.209-3.091.615-.499 1.859-1.106 2.764-1.35 5.354-1.442 7.147-7.352 5.152-16.978-.41-1.98-1.407-6.84-2.214-10.8-.807-3.96-1.887-8.1-2.399-9.2-.513-1.1-1.418-3.486-2.011-5.302-.665-2.039-1.6-3.929-2.444-4.938-.751-.9-1.366-1.792-1.366-1.982 0-.764-1.849-1.994-3.89-2.587-1.187-.345-3.003-1.232-4.035-1.97-6.343-4.542-36.006-3.988-38.753.723-.177.304-1.402.862-2.722 1.24-3.505 1.004-5.723 3.399-6.9 7.451-.483 1.662-1.236 3.345-1.673 3.74-1.051.952-1.893 3.66-2.432 7.825-.574 4.433-1.017 6.169-2.199 8.6-1.766 3.633-2.774 17.32-1.495 20.287.621 1.439 3.43 3.434 5.609 3.982.972.245 2.364 1.02 3.132 1.745 1.352 1.275 2.742 1.771 8.398 2.995 1.866.404 2.023.525 1.851 1.425-.401 2.097-1.714 2.566-7.191 2.566-4.833 0-5.831.169-10.251 1.732-2.126.752-2.626 2.71-2.671 10.468-.024 4.278-.221 7.304-.531 8.16l-.491 1.36-.916-3.733c-1.165-4.749-1.48-5.563-2.631-6.787-.517-.55-1.153-1.807-1.415-2.793-.898-3.39-2.171-5.357-4.055-6.264-3.861-1.859-4.82-1.943-22.139-1.943-21.942 0-23.262.376-25.557 7.27-.599 1.798-1.36 3.495-1.692 3.771-.943.782-1.702 2.499-2.36 5.335-.333 1.435-.804 3.107-1.048 3.716l-.444 1.108-.381-1.2c-.21-.66-.502-4.661-.65-8.891-.362-10.393-.767-10.754-12.668-11.298-7.009-.32-6.1-.073-6.844-1.854-.748-1.79-.986-1.61 3.375-2.542 4.101-.877 4.947-1.233 6.669-2.81.66-.604 2.068-1.308 3.128-1.564 6.177-1.494 6.072-1.075 6.072-24.28 0-22.709.243-21.72-5.8-23.562-.55-.168-1.665-.902-2.477-1.631-1.508-1.352-3.135-1.951-7.015-2.583-1.471-.239-2.516-.684-3.189-1.357-1.939-1.939-8.713-3.398-15.886-3.424-.641-.002-1.062-.108-.934-.236.127-.128 7.402-.362 16.166-.521 20.724-.375 19.335.343 19.335-9.999 0-7.742.955-13.298 1.71-9.948 1.311 5.822 2.27 8.33 3.753 9.819.285.285.784 1.417 1.11 2.515 1.987 6.692 4.776 7.829 17.434 7.113 6.344-.359 8.93-.947 10.947-2.485 1.07-.816 2.103-1.095 5.482-1.481 5.557-.635 8.069-1.357 9.603-2.758.866-.791 2.189-1.386 4.118-1.854 4.058-.983 6.583-3.652 8.108-8.569.58-1.87 1.276-3.67 1.546-4 1.045-1.273 1.761-3.179 2.193-5.836.948-5.836 1.712-9.216 2.386-10.564.621-1.239 1.007-2.965 1.793-8.012 1.377-8.833-.244-13.06-5.696-14.858-1.187-.392-2.499-1.146-2.915-1.675-.965-1.227-3.21-2.122-6.818-2.717-2.251-.372-3.273-.788-4.856-1.977-2.078-1.562-2.215-1.598-10.232-2.695-3.494-.478-3.39-.399-3.037-2.28.45-2.397 1.222-2.869 5.232-3.199 4.782-.394 6.756-.958 9.347-2.672a12.274 12.274 0 0 1 4.792-1.914c3.349-.596 5.763-1.668 6.585-2.923.394-.6 1.196-1.098 2.017-1.252 2.205-.414 5.241-3.072 5.592-4.896.731-3.806-.048-12.656-1.455-16.53-.439-1.21-1.23-4.36-1.758-7-1.705-8.536-1.828-8.994-2.722-10.105-.485-.602-1.37-2.631-1.967-4.508-.764-2.402-1.511-3.883-2.524-5a593.806 593.806 0 0 1-2.196-2.436c-.448-.502-1.938-1.155-3.644-1.598-1.896-.491-3.409-1.186-4.412-2.023-1.645-1.375-3.098-1.765-9.516-2.557-2.828-.349-4.174-.719-5.261-1.448-2.279-1.528-4.831-2.105-10.914-2.465-12.28-.729-14.91.392-17.238 7.346-.367 1.097-.988 2.354-1.381 2.794-.914 1.027-1.821 2.874-2.16 4.4-1.9 8.567-2.576 7.601-2.979-4.259-.373-10.979.537-10.308-14.63-10.776-6.477-.199-10.929-.497-11.18-.748-.289-.289-.116-.417.564-.417 1.675 0 6.096-1.434 8.39-2.721 1.204-.676 3.089-1.447 4.189-1.714 2.123-.515 6.379-2.483 6.783-3.138.133-.215 1.15-.885 2.261-1.489 3.476-1.892 3.34-1.052 3.472-21.499.152-23.684.095-23.919-6.34-25.874-1.527-.463-2.776-.993-2.776-1.177 0-.862-2.808-2.147-6.836-3.128l-4.425-1.078 1.53-.86c1.265-.71 2.469-.905 6.931-1.124 6.035-.296 7.655-.66 9.4-2.113 2.338-1.945 2.381-2.115 2.649-10.285.325-9.937.959-12.377 1.961-7.55.695 3.344 1.899 6.602 2.794 7.554.435.464 1.231 2.136 1.769 3.716 1.21 3.558 1.665 4.215 4.093 5.912 3.922 2.74 2.766 2.611 22.259 2.484L109.4 75.4l2.704-1.938c3.227-2.313 3.629-2.842 4.741-6.243.471-1.44 1.172-2.979 1.559-3.419 1.182-1.346 1.865-3.037 2.815-6.972 1.241-5.145 1.627-4.006 1.957 5.772.391 11.588 1.38 12.624 12.62 13.217 6.874.362 9.637 1.653 5.49 2.564-4.49.987-6.597 1.775-8.094 3.025-.835.698-2.375 1.509-3.422 1.802-5.403 1.513-6.852 5.658-5.747 16.433.39 3.799.686 4.951 2.536 9.867.353.94.918 3.55 1.255 5.8.812 5.423 1.159 6.609 2.544 8.716.643.977 1.384 2.585 1.647 3.574 1.07 4.02 2.563 5.928 5.834 7.454 1.122.523 2.362 1.307 2.755 1.741.981 1.084 4.264 2.25 8.331 2.96 1.872.327 4.115.957 4.985 1.401 4.311 2.2 18.655 4.07 24.949 3.253 1.617-.21 3.051-.388 3.186-.395 1.589-.08 4.895-4.289 5.991-7.626.428-1.304 1.229-3.036 1.78-3.848.551-.812 1.281-2.48 1.623-3.707 1.128-4.054 4.912-14.882 5.718-16.365.722-1.328.807-1.106 1.7 4.395.835 5.145 1.546 7.216 2.772 8.074.491.344.99 1.778 1.546 4.444.817 3.909.984 4.301 2.656 6.221.478.55 1.259 2.189 1.733 3.643.475 1.454 1.27 3.025 1.767 3.492 3.111 2.923 19.724 2.345 29.041-1.01 2.105-.759 5.369-1.707 7.252-2.109 3.727-.793 7.262-2.156 8.047-3.102.274-.329 1.456-1.023 2.628-1.541 1.886-.834 2.24-1.188 3.074-3.074.518-1.172 1.208-2.351 1.533-2.621 1.014-.841 2.617-4.94 3.237-8.278.328-1.76 1.242-4.992 2.032-7.183 3.057-8.478 3.892-24.195 1.503-28.301-.576-.989-2.642-2.134-5.278-2.924-.55-.165-1.586-.811-2.302-1.435-1.307-1.14-3.482-1.908-7.848-2.77-5.146-1.017.665-2.787 9.148-2.787 6.314 0 8.602-3.177 8.602-11.946 0-5.732.418-7.529 1.883-8.085 1.393-.53 1.522-.35 2.091 2.913.587 3.371 1.671 6.09 2.998 7.518.512.55 1.236 1.99 1.611 3.2 1.721 5.555 8.426 7.387 18.217 4.977 1.43-.352 5.991-1.343 10.135-2.202 4.144-.86 8.194-1.913 9-2.341.806-.428 2.725-1.176 4.265-1.661 3.377-1.064 4.936-1.803 6-2.846.44-.431 1.378-1.124 2.084-1.54 1.022-.602 1.418-1.23 1.936-3.072.357-1.273 1.181-3.073 1.829-4 1.852-2.646 2.358-4.257 2.963-9.421.437-3.725.745-5.009 1.357-5.661 1.996-2.124 2.805-6.597 2.939-16.233.138-9.931-.584-11.526-5.969-13.19-1.621-.501-2.915-1.181-3.387-1.78-.796-1.012-3.026-1.876-6.752-2.615-5.973-1.185-3.517-2.15 6.136-2.411L336.872 5l.964-1.122C339.515 1.924 339.199 0 337.2 0c-1.511 0-1.6.067-1.6 1.2v1.2h-9.2V0h-35.6v1.148c0 1.308-.159 1.273 9.584 2.057 5.529.445 10.71 1.664 11.94 2.81.442.412 3.54 1.678 6.883 2.814 8.579 2.913 15.58 6.284 17.048 8.207 1.977 2.59 1.762 11.838-.422 18.164-.885 2.565-1.268 4.267-2.396 10.649-.319 1.809-1.108 4.308-1.781 5.64-.664 1.316-1.594 3.544-2.066 4.951-1.49 4.446-1.967 4.946-7.015 7.364-5.013 2.4-8.287 3.537-12.094 4.2-1.386.241-4.245.969-6.354 1.618-6.438 1.982-16.035 2.916-19.917 1.939-2.264-.57-3.146-1.562-4.422-4.969-.575-1.536-1.56-3.602-2.188-4.592-.628-.99-1.619-3.507-2.203-5.592-.584-2.086-1.69-4.918-2.459-6.293-1.151-2.057-1.573-3.513-2.379-8.208-.997-5.8-1.241-6.828-2.314-9.753-1.683-4.588-1.941-25.977-.345-28.677C269.269 1.16 269.126 0 267.469 0h-1.331l-.471 3.1c-.26 1.705-.491 6.34-.513 10.3-.047 8.316-.416 12.743-.9 10.8-1.206-4.846-1.697-6.283-2.867-8.4-.73-1.32-1.626-3.57-1.991-5-.706-2.767-1.647-4.589-3.469-6.714-.766-.893-1.127-1.758-1.127-2.7V0h-2c-2.36 0-2.869 1.401-1.033 2.846 1.432 1.126 6.01 10.082 6.99 13.674.468 1.715 1.385 4.177 2.037 5.469.744 1.472 1.505 4.041 2.041 6.88 1.143 6.064 1.526 7.531 1.966 7.531 1.343 0 2.213 7.703 2.654 23.484l.27 9.685-1.615 1.615-1.616 1.616-13.347.04c-15.878.047-16.663.16-11.845 1.694 2.573.82 3.708 1.405 4.385 2.259.975 1.231 3.474 2.36 7.573 3.422 5.052 1.31 13.807 5.968 14.837 7.895 1.679 3.142 1.079 12.139-1.317 19.752-.634 2.014-1.348 4.894-1.588 6.4-.673 4.236-1.205 6.105-2.601 9.138-.708 1.54-1.607 3.683-1.996 4.761-.952 2.639-3.017 4.838-5.32 5.667-1.031.371-3.322 1.362-5.091 2.201-1.978.94-4.594 1.782-6.8 2.19-3.388.627-5.912 1.244-12.348 3.016-9.267 2.553-17.101 1.709-18.901-2.035-3.967-8.252-4.957-10.506-5.534-12.6-.364-1.32-1.268-3.93-2.01-5.8-.741-1.87-1.715-5.051-2.163-7.069-.449-2.018-1.197-4.687-1.663-5.932l-.846-2.262-1.002.931c-2.383 2.216-3.43 4.37-4.557 9.372-.606 2.693-1.578 6.036-2.159 7.428-.581 1.393-1.573 4.083-2.205 5.979-1.429 4.285-4.881 10.817-6.386 12.084-2.41 2.027-12.626 1.541-19.853-.946-1.178-.405-4.531-1.206-7.45-1.779-3.822-.751-6.202-1.472-8.507-2.579-1.76-.845-3.65-1.668-4.2-1.828-6.26-1.821-10.486-11.855-14.175-33.653-1.56-9.219-.803-13.033 2.975-14.983 4.168-2.152 10.094-4.74 12.2-5.329 4.029-1.125 6.697-2.331 7.774-3.514.659-.724 2.206-1.537 4.321-2.27l3.294-1.143-1.85-.253c-1.018-.14-7.091-.256-13.495-.258-17.348-.006-16.866.342-17.165-12.396-.211-9.018-.602-11.513-2.383-15.2l-.869-1.8-.297 1.725c-.978 5.686-7.128 21.53-9.554 24.615-2.151 2.735-2.662 2.817-18.583 2.986-20.94.224-22.374-.067-25.125-5.102-1.752-3.204-6.48-15.409-7.45-19.229A293.428 293.428 0 0 0 59.796 43c-1.01-3.606-1.011-4.759-.008-10.375C61.861 21.024 68.212 5.314 71.775 2.98 73.848 1.621 73.21 0 70.6 0c-2.068 0-2.2.059-2.2.979 0 .539-.441 1.456-.98 2.037-.539.582-1.276 1.986-1.639 3.121-.362 1.135-1.253 3.053-1.98 4.263-.727 1.21-1.896 4.18-2.598 6.6s-1.517 4.67-1.811 5.001c-.728.815-1.376 2.599-1.817 4.999-1.051 5.73-2.077 8.17-2.479 5.9-.107-.605-.497-2.882-.866-5.059-.668-3.942-1.307-5.718-2.606-7.241-.376-.44-1.005-2.24-1.399-4-.851-3.802-2.007-6.679-3.071-7.642-.425-.384-1.043-1.629-1.374-2.766-.33-1.137-.86-2.41-1.178-2.83-.317-.419-.582-1.347-.589-2.062L44 0h-2.6c-2.57 0-2.6.013-2.597 1.1m70.804 0c.004.774.538 1.614 1.8 2.833 3.099 2.992 10.527 21.2 10.612 26.012.016.925.139.823 1.002-.834 1.736-3.335 2.232-6.337 2.461-14.911.226-8.445.382-9.197 2.28-10.97 1.933-1.806 1.461-3.23-1.07-3.23h-2.109l-.522 2.5c-.287 1.375-.667 5.74-.845 9.7-.435 9.657-.746 10.342-2.152 4.74-.688-2.738-1.504-4.937-2.21-5.957-.617-.89-1.609-2.894-2.205-4.454-.596-1.56-1.436-3.155-1.866-3.545-.431-.389-.783-1.22-.783-1.846C114 .025 113.951 0 111.8 0c-2.135 0-2.2.033-2.193 1.1m85.193-.062c0 .571.332 1.516.739 2.1 1.515 2.177 1.66 3.506 1.691 15.422.016 6.402.151 12.433.3 13.402l.27 1.762 1.118-3.442c.772-2.376 1.456-3.726 2.209-4.362 1.198-1.011 2.425-3.62 3.442-7.32.571-2.078 3.145-8.141 5.345-12.587.377-.763 1.44-1.933 2.362-2.6C215.035 1.416 214.754 0 211.6 0c-2.389 0-2.4.005-2.4 1.176 0 .647-.175 1.285-.389 1.417-.214.133-.737 1.365-1.161 2.74-.437 1.414-1.29 3.053-1.965 3.776-.794.85-1.423 2.181-1.884 3.984-.381 1.489-.9 3.505-1.153 4.48l-.46 1.774-.784-1.174c-.652-.975-.825-2.149-1.032-6.973-.172-4.038-.449-6.271-.91-7.349-.364-.852-.662-2.067-.662-2.7 0-1.115-.063-1.151-2-1.151-1.886 0-2 .059-2 1.038m156.4.292c0 3.65 1.825 3.945 23.454 3.793 18.897-.132 19.404-.189 20.534-2.301C396.402.555 395.853 0 392.4 0h-3.2v2.4h-32V0h-6v1.33M167 288.416c4.96.469 7.389 1.086 9.884 2.512.944.54 2.948 1.382 4.453 1.872 5.038 1.638 8.764 7.753 10.905 17.895.546 2.588 1.427 6.081 1.956 7.764 1.968 6.252 2.808 16.359 1.647 19.825-.765 2.283-1.702 3.056-5.245 4.331-1.1.396-2.99 1.31-4.2 2.031-1.21.721-3.711 1.691-5.557 2.156-1.847.464-4.379 1.36-5.627 1.99-5.898 2.977-20.226 3.652-24.979 1.177-3.81-1.985-4.616-2.313-8.189-3.325-2.064-.585-4.262-1.427-4.885-1.87-.623-.444-2.443-1.347-4.044-2.007-6.944-2.864-7.62-4.949-5.53-17.042 3.934-22.755 7.45-30.621 14.803-33.122 1.614-.549 3.539-1.355 4.278-1.792 3.877-2.287 11.706-3.209 20.33-2.395M29.5 353.491c-.825.087-2.175.087-3 0-.825-.086-.15-.157 1.5-.157s2.325.071 1.5.157m125.607-.005c-.601.091-1.681.093-2.4.004-.719-.089-.227-.164 1.093-.166 1.32-.002 1.908.071 1.307.162M296 356.623c-1.87.555-4.57 1.186-6 1.401-3.697.555-6.085 1.424-8.073 2.938-.95.723-2.386 1.531-3.192 1.796-2.527.829-5.135 5.002-5.135 8.214 0 .269-.473.925-1.052 1.458-1.584 1.461-2.097 3.07-2.745 8.613-.512 4.374-.75 5.293-1.77 6.833-1.326 2.001-1.842 4.024-2.254 8.824l-.282 3.3h1.251c1.079 0 1.252-.142 1.252-1.032 0-.568.534-3.133 1.188-5.7.653-2.568 1.558-6.798 2.011-9.402.536-3.077 1.221-5.528 1.957-7 .622-1.246 1.526-3.464 2.008-4.927 1.669-5.073 3.631-7.155 8.236-8.739 1.254-.432 2.872-1.15 3.596-1.597 5.938-3.671 23.263-3.703 31.364-.059 1.892.852 4.07 1.78 4.84 2.064 3.753 1.384 4.961 2.773 6.6 7.592.536 1.575 1.318 3.434 1.738 4.132 1.081 1.793 1.539 3.423 2.436 8.668.432 2.53 1.255 6.032 1.829 7.782.573 1.75 1.148 4.315 1.278 5.7.22 2.358.298 2.518 1.237 2.518h1.003l-.238-4.192c-.28-4.945-1.209-8.596-2.56-10.053-.83-.896-1.056-1.769-1.549-5.98-.656-5.609-.953-6.589-2.535-8.392-.629-.716-1.514-2.545-1.989-4.11-.913-3.004-1.959-4.214-4.041-4.671-.635-.139-1.38-.527-1.657-.86-.973-1.173-5.155-2.945-8.039-3.406-1.602-.257-4.443-.912-6.313-1.456-5.065-1.473-10.009-1.561-14.4-.257" fill="#494949"/><path d="M0 2.4v2.4l1.3-.006c.715-.004 2.38-.267 3.7-.586 6.305-1.522 31.627-.632 34 1.195 6.51 5.013 15 38.985 15 60.022v3.71l-1.347.832c-1.288.796-1.886.833-13.571.833-12.732 0-16.365.282-21.623 1.676l-3.14.834 1.94 1.11c2.251 1.289 14.257 5.591 19.058 6.831 1.805.466 4.327 1.372 5.603 2.014 1.276.641 3.616 1.629 5.2 2.194 3.831 1.367 5.143 2.212 6.524 4.204L53.8 91.33l.123 15.435c.157 19.619.056 20.111-4.433 21.605-1.398.465-3.487 1.455-4.643 2.2-1.346.867-3.424 1.677-5.775 2.251-2.019.494-4.842 1.498-6.272 2.233-2.046 1.05-3.707 1.506-7.8 2.139-6.081.941-12.2 2.357-12.2 2.823 0 .504 4.208 1.963 8.2 2.843 3.045.672 5.603.824 16.6.988 15.253.227 14.43.118 15.414 2.041.701 1.369.798 2.744 1.028 14.512.311 15.919.482 16.846 3.621 19.633 1.175 1.044 2.245 1.778 2.378 1.632.318-.351 1.391-4.464 1.946-7.465.883-4.77 1.741-8.031 2.525-9.594.44-.877 1.493-3.697 2.341-6.268 1.404-4.262 2.22-5.957 5.032-10.454 1.507-2.411 3.98-2.879 9.315-1.764 1.65.346 5.16.916 7.8 1.268 7.606 1.015 9.422 1.413 11.784 2.585 1.953.968 4.562 1.804 8.099 2.592 1.612.36 5.706 3.938 6.287 5.496.275.736 1.199 3.049 2.053 5.139 1.729 4.232 1.998 5.186 3.155 11.174.444 2.296 1.075 4.996 1.401 6 1.164 3.574 2.192 12.404 1.727 14.826-.549 2.86-.506 2.818-4.328 4.208-1.802.655-3.746 1.626-4.319 2.158-.726.673-2.542 1.354-5.972 2.24-2.71.701-5.414 1.632-6.007 2.071-1.515 1.118-3.224 1.595-8.28 2.314-12.025 1.709-13.276 2.191-13.461 5.181L81 215.619l2.169.811c1.193.446 4.343 1.159 7 1.585 2.657.427 5.972.965 7.366 1.197 1.394.231 3.476.952 4.625 1.6 1.149.649 4.149 1.689 6.667 2.312 3.313.819 4.881 1.414 5.679 2.154.89.825 3.59 1.98 7.717 3.302.643.206 1.771 4.718 1.564 6.259-.883 6.578-1.572 10.56-2.21 12.761-.414 1.43-1.047 4.216-1.406 6.192-.759 4.167-1.82 7.769-2.929 9.932-.429.839-1.007 2.409-1.284 3.49-1.109 4.325-3.709 6.541-9.374 7.99-1.741.445-3.871 1.277-4.734 1.848-1.593 1.054-1.84 1.107-13.479 2.918-2.766.43-6.167 1.176-7.556 1.657-3.076 1.064-6.92.921-7.823-.292-1.608-2.158-5.186-9.486-6.372-13.052-.748-2.245-1.815-5.17-2.371-6.499-.557-1.329-1.477-4.747-2.044-7.596-1.074-5.399-1.774-8.189-2.177-8.672-.13-.156-1.195.564-2.367 1.6-3.241 2.865-3.368 3.563-3.533 19.484-.161 15.507-.166 15.553-1.676 16.178-.814.338-8.28.489-26.79.544-23.207.068-25.662.137-25.662.714 0 .825 15.002 1.138 37.4.782 20.748-.331 19.4.407 19.4-10.615 0-7.831.462-12.033 1.73-15.754 1.065-3.123 1.528-3.158 2.148-.16 1.741 8.407 8.684 23.61 11.467 25.109 1.668.899 9.908.643 13.455-.417 3.044-.909 9.55-2.414 13.502-3.124 1.816-.326 4.444-1.149 5.838-1.828 1.395-.679 3.509-1.524 4.698-1.876 6.734-1.997 8.913-5.699 13.153-22.353 4.923-19.334 4.522-25.043-1.939-27.605-1.458-.578-3.312-1.503-4.119-2.055-1.453-.993-5.768-2.54-7.088-2.54-.376 0-2.129-.708-3.895-1.574a25.948 25.948 0 0 0-6.781-2.217c-9.897-1.781-10.065-1.867-9.512-4.881.401-2.189.054-2.039 8.106-3.513 3.925-.718 6.123-1.355 8.2-2.376 1.56-.766 4.097-1.7 5.637-2.075 2.913-.71 4.754-1.471 5.832-2.413.347-.303 1.787-1.018 3.2-1.589 6.385-2.579 6.881-4.993 4.14-20.162-3.193-17.676-7.898-27.604-14.025-29.597-1.511-.491-4.151-1.517-5.866-2.279-2.073-.921-4.851-1.701-8.281-2.324-2.84-.516-6.95-1.4-9.135-1.964-15.56-4.018-17.56-2.496-24.918 18.964-.868 2.53-1.769 5.409-2.004 6.397l-.426 1.797-.761-1.483c-1.453-2.832-2.029-6.64-2.348-15.511-.463-12.882.381-12.186-15.208-12.555-17.128-.407-23.972-1.79-15.9-3.215 6.133-1.083 7.6-1.472 9.948-2.644 1.237-.617 3.577-1.508 5.2-1.98 4.297-1.249 12.452-5.359 13.894-7.001 1.961-2.234 2.138-4.119 1.991-21.189L56.6 90.874l-1.605-2.337c-.946-1.376-2.179-2.619-3-3.023-4.766-2.345-10.763-4.827-14.381-5.952-3.087-.96-4.462-1.603-5.234-2.449-.972-1.063-6.018-3.452-7.521-3.56-.363-.026-.119-.185.541-.353.66-.168 6.638-.327 13.285-.353 18.801-.073 18.306.288 17.911-13.044-.165-5.547-.486-9.997-.809-11.203-.294-1.1-.833-3.98-1.197-6.4C52.331 27.189 44.581 6.133 40.221 3.164c-1.042-.709-1.416-1.254-1.418-2.064L38.8 0H0v2.4m72.8-1.246c0 .797-.317 1.362-1.025 1.826-3.563 2.334-9.914 18.044-11.987 29.645-1.003 5.616-1.002 6.769.008 10.375.308 1.1.948 3.528 1.422 5.395.97 3.82 5.698 16.025 7.45 19.229 2.751 5.035 4.185 5.326 25.125 5.102 15.921-.169 16.432-.251 18.583-2.986 2.426-3.085 8.576-18.929 9.554-24.615l.297-1.725.869 1.8c1.781 3.687 2.172 6.182 2.383 15.2.299 12.738-.183 12.39 17.165 12.396 6.404.002 12.477.118 13.495.258l1.85.253-3.294 1.143c-2.115.733-3.662 1.546-4.321 2.27-1.077 1.183-3.745 2.389-7.774 3.514-2.106.589-8.032 3.177-12.2 5.329-3.778 1.95-4.535 5.764-2.975 14.983 3.689 21.798 7.915 31.832 14.175 33.653.55.16 2.44.983 4.2 1.828 2.305 1.107 4.685 1.828 8.507 2.579 2.919.573 6.272 1.374 7.45 1.779 7.227 2.487 17.443 2.973 19.853.946 1.505-1.267 4.957-7.799 6.386-12.084.632-1.896 1.624-4.586 2.205-5.979.581-1.392 1.553-4.735 2.159-7.428 1.127-5.002 2.174-7.156 4.557-9.372l1.002-.931.846 2.262c.466 1.245 1.214 3.914 1.663 5.932.448 2.018 1.422 5.199 2.163 7.069.742 1.87 1.646 4.48 2.01 5.8.577 2.094 1.567 4.348 5.534 12.6 1.8 3.744 9.634 4.588 18.901 2.035 6.436-1.772 8.96-2.389 12.348-3.016 2.206-.408 4.822-1.25 6.8-2.19 1.769-.839 4.06-1.83 5.091-2.201 2.303-.829 4.368-3.028 5.32-5.667.389-1.078 1.288-3.221 1.996-4.761 1.396-3.033 1.928-4.902 2.601-9.138.24-1.506.954-4.386 1.588-6.4 2.396-7.613 2.996-16.61 1.317-19.752-1.03-1.927-9.785-6.585-14.837-7.895-4.099-1.062-6.598-2.191-7.573-3.422-.677-.854-1.812-1.439-4.385-2.259-4.818-1.534-4.033-1.647 11.845-1.694l13.347-.04 1.616-1.616 1.615-1.615-.27-9.685c-.441-15.781-1.311-23.484-2.654-23.484-.44 0-.823-1.467-1.966-7.531-.536-2.839-1.297-5.408-2.041-6.88-.652-1.292-1.569-3.754-2.037-5.469-.98-3.592-5.558-12.548-6.99-13.674-.581-.457-.967-1.177-.967-1.804V0H214l-.024 1.1c-.019.818-.455 1.411-1.7 2.313-.922.667-1.985 1.837-2.362 2.6-2.2 4.446-4.774 10.509-5.345 12.587-1.017 3.7-2.244 6.309-3.442 7.32-.753.636-1.437 1.986-2.209 4.362l-1.118 3.442-.27-1.762c-.149-.969-.284-7-.3-13.402-.031-11.916-.176-13.245-1.691-15.422-.407-.584-.739-1.529-.739-2.1V0h-66v1.13c0 .701-.394 1.499-1.038 2.1-1.898 1.773-2.054 2.525-2.28 10.97-.229 8.574-.725 11.576-2.461 14.911-.863 1.657-.986 1.759-1.002.834-.085-4.812-7.513-23.02-10.612-26.012-1.262-1.219-1.796-2.059-1.8-2.833L109.6 0H72.8v1.154m196-.177c0 .538-.405 1.663-.9 2.5-1.596 2.7-1.338 24.089.345 28.677 1.073 2.925 1.317 3.953 2.314 9.753.806 4.695 1.228 6.151 2.379 8.208.769 1.375 1.875 4.207 2.459 6.293.584 2.085 1.575 4.602 2.203 5.592.628.99 1.613 3.056 2.188 4.592 1.276 3.407 2.158 4.399 4.422 4.969 3.882.977 13.479.043 19.917-1.939 2.109-.649 4.968-1.377 6.354-1.618 3.807-.663 7.081-1.8 12.094-4.2 5.048-2.418 5.525-2.918 7.015-7.364.472-1.407 1.402-3.635 2.066-4.951.673-1.332 1.462-3.831 1.781-5.64 1.128-6.382 1.511-8.084 2.396-10.649 2.184-6.326 2.399-15.574.422-18.164-1.468-1.923-8.469-5.294-17.048-8.207-3.343-1.136-6.441-2.402-6.883-2.814-1.23-1.146-6.411-2.365-11.94-2.81-9.743-.784-9.584-.749-9.584-2.057V0h-22v.977m57.6.223v1.2h9.2V0h-9.2v1.2m30.8 0v1.2h32V0h-32v1.2M105.954 4.065c3.129.55 4.116 1.312 5.623 4.335.603 1.21 1.414 2.798 1.803 3.529.651 1.223 2.134 5.208 5.024 13.503 2.653 7.614 2.281 19.914-.78 25.806-.411.792-1.316 3.222-2.011 5.4-.695 2.179-1.947 5.222-2.783 6.762-.836 1.54-1.744 3.492-2.019 4.339C109.893 70.572 109.7 70.6 91 70.6c-17.805 0-18.342-.062-19.2-2.202-.22-.549-1.095-2.348-1.944-3.998-.849-1.65-2.222-4.98-3.051-7.4-.828-2.42-1.967-5.48-2.53-6.8-3.232-7.571-2.937-19.258.703-27.925.756-1.801 1.74-4.465 2.186-5.92.808-2.636 4.445-10.061 5.438-11.103 1.465-1.537 26.327-2.422 33.352-1.187m88.292 1.037c.852 1.265.883 1.708 1.065 15.4.191 14.325.417 16.691 2.041 21.367l.532 1.531 1.212-2.4c1.511-2.994 4.955-12.55 6.482-17.987.633-2.255 1.643-5.071 2.245-6.257.601-1.186 1.607-3.579 2.235-5.319 2.71-7.5 2.983-7.599 21.374-7.774 19.343-.184 19.948-.029 21.726 5.558.249.782 1.06 2.365 1.802 3.517.832 1.292 1.68 3.431 2.211 5.579.474 1.916 1.475 4.743 2.225 6.283 1.108 2.278 1.587 4.142 2.565 10 .662 3.96 1.49 8.01 1.842 9 1.71 4.813 2.946 24.197 1.667 26.149l-.649.991-15.111.169c-15.438.172-18.39.445-22.298 2.062l-1.212.502 2.513 1.276c3.021 1.534 13.687 5.311 18.687 6.617 1.98.518 4.252 1.326 5.049 1.797.796.47 2.944 1.401 4.772 2.068 3.021 1.103 4.262 1.884 7.132 4.49 1.203 1.092 1.017 6.824-.359 11.079-.463 1.43-1.378 5.75-2.034 9.6-.961 5.639-1.459 7.544-2.563 9.8-.753 1.54-1.56 3.673-1.794 4.741-1.02 4.662-3.263 6.864-8.449 8.295-1.625.448-3.674 1.234-4.554 1.747-2.049 1.195-3.625 1.602-10 2.588-2.86.442-6.82 1.264-8.8 1.828-1.98.564-5.177 1.136-7.104 1.272l-3.505.248-2.141-2.319c-1.527-1.654-2.342-2.962-2.839-4.56-.383-1.232-1.321-3.5-2.084-5.04-.763-1.54-1.737-4.15-2.164-5.8-.427-1.65-1.47-5.07-2.318-7.6-.848-2.53-1.937-6.49-2.421-8.8-.868-4.144-2.824-9.2-3.56-9.2-.207 0-1.264.797-2.347 1.771-2.31 2.076-2.698 3.192-4.339 12.461-.74 4.179-1.407 6.68-2.223 8.344-.642 1.306-1.715 4.272-2.385 6.591-.67 2.319-1.612 4.841-2.094 5.605-.482.764-1.596 2.837-2.476 4.608-1.573 3.166-1.63 3.225-3.4 3.539-2.194.389-6.78.014-8.987-.735-2.559-.869-6.385-1.683-12.008-2.555-3.85-.597-5.818-1.118-7.6-2.012-1.323-.663-3.845-1.68-5.605-2.26-4.313-1.421-4.253-1.379-5.936-4.105-3.664-5.937-9.064-27.345-9.064-35.937 0-3.216 2.169-5.635 6.498-7.247 1.264-.47 3.604-1.47 5.2-2.221 1.596-.752 4.664-1.842 6.817-2.423 9.274-2.504 20.681-7.147 19.366-7.883-2.749-1.538-7.602-2.042-22.1-2.292-12.543-.217-14.552-.336-15.441-.919l-1.022-.671-.211-16.129c-.116-8.872-.116-23.06.002-31.53l.212-15.4 1.302-1.302 1.302-1.303 31.122.103 31.121.102.878 1.302m99.761.249c4.073.536 8.753 1.346 10.4 1.799 16.438 4.528 23.851 7.244 28.593 10.476l3 2.044-.002 2.865c-.002 1.976-.37 4.136-1.184 6.96-.65 2.252-1.46 6.122-1.8 8.6-.928 6.754-1.396 8.685-2.642 10.894-.624 1.106-1.396 3.128-1.714 4.494-1.133 4.856-4.017 8.068-7.824 8.711-.873.148-2.812.855-4.31 1.571-2.788 1.334-6.167 2.255-11.124 3.034-1.54.241-4.51.874-6.6 1.406-12.425 3.16-15.469 2.44-17.862-4.227-.588-1.638-1.58-3.809-2.205-4.825s-1.58-3.64-2.122-5.833c-.543-2.192-1.611-5.321-2.374-6.953-1.193-2.55-1.507-3.894-2.236-9.567-.854-6.643-1.572-10.706-2.622-14.84-.358-1.405-.609-4.835-.674-9.2L268.6 5.8l1.8-.916c2.365-1.204 12.426-1.005 23.607.467M14.8 288.408c-4.552.47-6.336.956-9.568 2.603-1.499.764-3.289 1.389-3.979 1.389-1.013 0-1.253.164-1.253.856 0 1.44 4.148.82 8.185-1.222 6.485-3.281 18.213-3.395 24.295-.236 1.474.766 4.473 1.815 6.665 2.332 2.738.646 4.369 1.263 5.214 1.974 1.145.964 5.062 2.685 6.156 2.705 3.014.055 3.485 2.879 3.485 20.912v15.578l-1.295 2.356-1.296 2.356-3.276 1.021c-1.802.562-4.105 1.571-5.119 2.242-1.221.809-3.353 1.591-6.328 2.322-2.467.607-5.644 1.711-7.06 2.454l-2.574 1.35H14.2l-2.543-1.327C6.895 345.587 0 344.361 0 346c0 .572.267.8.937.8 1.16 0 4.727 1.208 7.017 2.377 6.043 3.082 21.157 2.981 25.991-.175.8-.523 3.165-1.43 5.255-2.017s4.88-1.65 6.2-2.363c1.32-.713 3.48-1.717 4.8-2.232 3.405-1.329 3.937-1.744 5.24-4.097l1.16-2.093.117-15.879c.127-17.193-.071-19.245-2.028-20.999-1.446-1.296-11.473-6.024-14.289-6.737-1.43-.362-3.86-1.266-5.4-2.009-4.223-2.037-12.684-2.945-20.2-2.168m140.653.03c-3.675.388-6.89 1.257-8.783 2.373-.739.437-2.664 1.243-4.278 1.792-7.353 2.501-10.869 10.367-14.803 33.122-2.09 12.093-1.414 14.178 5.53 17.042 1.601.66 3.421 1.563 4.044 2.007.623.443 2.821 1.285 4.885 1.87 3.573 1.012 4.379 1.34 8.189 3.325 4.753 2.475 19.081 1.8 24.979-1.177 1.248-.63 3.78-1.526 5.627-1.99 1.846-.465 4.347-1.435 5.557-2.156 1.21-.721 3.1-1.635 4.2-2.031 3.543-1.275 4.48-2.048 5.245-4.331 1.161-3.466.321-13.573-1.647-19.825-.529-1.683-1.41-5.176-1.956-7.764-2.141-10.142-5.867-16.257-10.905-17.895-1.505-.49-3.509-1.332-4.453-1.872-4.229-2.417-12.743-3.406-21.431-2.49m13.483 1.737c1.713.328 3.664 1.007 4.535 1.578.841.551 2.86 1.368 4.486 1.815 5.541 1.523 7.515 3.319 8.72 7.935.323 1.236 1.109 3.281 1.747 4.545 1.259 2.493 1.723 4.222 2.619 9.752.321 1.98 1.021 5.31 1.556 7.4 3.205 12.527 2.329 16.207-4.329 18.171-1.138.336-3.076 1.222-4.306 1.97-1.431.869-3.58 1.667-5.97 2.218-2.054.472-5.187 1.53-6.964 2.35l-3.23 1.491h-12.4l-3-1.458c-1.65-.802-4.71-1.856-6.8-2.342-2.292-.534-4.673-1.4-6-2.183-1.21-.714-3.606-1.804-5.325-2.421-6.004-2.155-6.456-7.852-2.028-25.563 4.478-17.908 5.724-19.829 14.395-22.184.904-.246 2.305-.896 3.115-1.446 3.056-2.074 12.61-2.885 19.179-1.628M31.8 355.247c-5.569.469-8.897 1.074-10.994 2-.987.435-4.452 1.317-7.699 1.959-4.15.82-6.589 1.527-8.206 2.379-1.266.668-2.886 1.214-3.601 1.214-1.136.001-1.3.133-1.3 1.051 0 1.576 3.262 1.207 7.46-.843 2.656-1.298 4.186-1.708 9.925-2.658 3.732-.617 7.962-1.479 9.4-1.914 6.144-1.859 23.303-2.837 25.93-1.479l1.285.665-.001 3.889c-.002 9.129-1.645 23.206-3.614 30.958-1.64 6.459-1.61 7.532.215 7.532 1.326 0 1.4-.072 1.4-1.365 0-.75.439-3.225.976-5.5a128.907 128.907 0 0 0 1.623-8.335c.356-2.31.889-5.1 1.186-6.2.332-1.229.647-5.654.817-11.483l.277-9.482-1.025-.95c-2.04-1.891-11.771-2.473-24.054-1.438m40.278.4c-1.237.617-2.049 1.431-2.884 2.893-2.283 3.998-6.853 15.602-8.026 20.38-.442 1.804-1.054 4.09-1.358 5.08-1.023 3.327-1.053 4.56-.228 9.34.45 2.607.818 5.172.818 5.7 0 .809.197.96 1.252.96h1.252l-.254-1.9c-1.108-8.27-.519-16.042 1.597-21.069.563-1.337 1.635-4.262 2.382-6.5.747-2.238 2.044-5.388 2.883-7 .838-1.612 1.811-3.684 2.163-4.604.55-1.44.871-1.736 2.301-2.12 2.498-.673 34.481-.391 35.327.312.883.734 5.252 9.81 6.103 12.681.392 1.32 1.231 3.613 1.866 5.096 2.61 6.1 3.472 13.396 2.576 21.804l-.351 3.3h1.213c1.156 0 1.221-.089 1.387-1.9.096-1.045.492-3.61.881-5.7.744-4.004.651-7.601-.225-8.657-.275-.331-.895-2.165-1.378-4.075-2.239-8.86-7.737-21.351-10.312-23.428l-1.536-1.24-17.864-.106c-17.577-.105-17.891-.093-19.585.753m56.122-.054c-2.474 1.271-2.605 1.618-2.56 6.783.093 10.792 1.329 21.052 3.744 31.073.559 2.318 1.016 4.741 1.016 5.383 0 1.068.12 1.168 1.4 1.168 1.782 0 1.84-.954.391-6.405-3.301-12.423-4.987-35.119-2.719-36.606 2.252-1.475 19.679-.44 26.682 1.584 1.785.516 5.856 1.324 9.046 1.795 4.802.708 6.282 1.096 8.6 2.256 1.54.771 4.751 1.919 7.136 2.553 2.499.663 4.702 1.495 5.2 1.962.475.447 2.214 1.38 3.864 2.074 4.306 1.812 4.208 1.651 4.151 6.902-.04 3.628-.284 5.364-1.275 9.085-2.537 9.531-3.083 14.8-1.533 14.8.856 0 .966-.217 1.189-2.354.135-1.295.698-3.737 1.249-5.427 2.7-8.272 3.551-20.084 1.602-22.237-1.202-1.329-9.638-5.545-12.867-6.431-1.697-.465-4.099-1.377-5.337-2.026-1.522-.798-4.117-1.554-8.015-2.335-3.17-.636-6.754-1.546-7.964-2.024-5.291-2.089-29.73-3.254-33-1.573m167.077 3.636c-3.241.421-6.736 1.433-8.337 2.414-.692.425-2.286 1.125-3.54 1.557-4.605 1.584-6.567 3.666-8.236 8.739-.482 1.463-1.386 3.681-2.008 4.927-.736 1.472-1.421 3.923-1.957 7-.453 2.604-1.358 6.834-2.011 9.402-1.582 6.216-1.57 6.732.158 6.732 1.539 0 1.193 1.268 2.84-10.4.781-5.539 1.156-7.082 2.33-9.6.77-1.65 1.712-4.42 2.094-6.154.549-2.496.976-3.453 2.042-4.584.742-.786 1.348-1.564 1.348-1.73 0-.84 1.979-1.911 5.014-2.713 1.861-.491 4.016-1.322 4.788-1.846 4.809-3.264 19.921-3.345 25.625-.137 1.115.626 3.1 1.39 4.411 1.695 5.34 1.246 7.518 3.48 8.772 8.995.357 1.566 1.111 3.529 1.677 4.361 1.308 1.922 1.516 2.71 2.509 9.478.449 3.061 1.084 6.717 1.41 8.125.327 1.408.594 2.998.594 3.535 0 .827.191.975 1.258.975h1.258l-.235-2.518c-.13-1.385-.705-3.95-1.278-5.7-.574-1.75-1.397-5.252-1.829-7.782-.897-5.245-1.355-6.875-2.436-8.668-.42-.698-1.202-2.557-1.738-4.132-1.639-4.819-2.847-6.208-6.6-7.592-.77-.284-2.947-1.212-4.838-2.062-5.429-2.443-14.841-3.387-23.085-2.317" fill="#8d8d8d"/><path d="M5 4.209c-1.1.283-2.675.531-3.5.553L0 4.8v1.8c0 2.233 1.396 2.529 3.304.7l1.147-1.1 14.475-.117c15.955-.128 18.785.068 19.004 1.322.536 3.079 1.915 6.509 3.052 7.595 1.035.989 1.348 1.727 1.783 4.2.913 5.199 1.695 7.599 2.853 8.756 1.173 1.173 1.345 2.083 2.394 12.644.534 5.382.912 7.144 2.217 10.327.927 2.261 1.035 3.146 1.253 10.316l.239 7.843-17.361.234c-19.495.263-23.813.607-28.883 2.302C3.54 72.27 1.515 72.8.977 72.8c-.602 0-.977.23-.977.6 0 .393.393.6 1.138.6.649 0 1.465.362 1.899.841 2.585 2.857 7.839 4.791 15.663 5.767 9.498 1.185 11.088 1.481 11.905 2.223 1.295 1.174 4.134 2.245 7.995 3.014 2.879.574 3.888.97 5.035 1.977.884.775 2.613 1.625 4.499 2.21 3.832 1.19 3.535-.46 3.386 18.799l-.12 15.431-1.237 1.237c-.937.936-1.857 1.355-3.8 1.727-2.727.523-5.627 1.959-6.516 3.228-.419.598-1.331.858-4.093 1.167-4.508.504-5.748.916-8.057 2.679l-1.869 1.426-6.014.338c-7.801.438-12.07.988-15.135 1.949-1.364.427-2.974.779-3.579.782-.989.004-1.1.146-1.1 1.405 0 1.292.093 1.4 1.214 1.4.668 0 1.613.259 2.1.576.487.317 2.956 1.121 5.486 1.787 2.53.666 5.23 1.401 6 1.632 4.224 1.271 9.39 1.714 22.8 1.956l13.8.249.255 14.6c.448 25.598 1.415 30.037 7.193 33.025l1.153.596.988-2.235c1.38-3.12 2.1-7.005 2.593-13.986.592-8.372.712-8.963 2.063-10.099 1.322-1.113 2.05-3.35 2.785-8.564.427-3.03.608-3.517 1.449-3.9 1.146-.522 2.329-2.973 2.964-6.137l.461-2.3 1.848-.071c3.781-.145 7.117.156 9.448.852 1.32.394 5.91 1.404 10.2 2.244 5.285 1.035 8.263 1.814 9.236 2.416.791.489 2.231 1.116 3.2 1.393.97.277 2.034.729 2.364 1.004.33.275 1.105.626 1.723.78 1.396.348 2.12 1.456 2.474 3.782.78 5.134 1.47 7.226 2.81 8.528l1.336 1.297.643 7.987c.604 7.505 1.343 12.161 2.177 13.718.254.475.139.951-.388 1.602-.412.509-.864 1.538-1.005 2.286-.224 1.197-.432 1.388-1.713 1.576-4.503.664-6.67 1.62-7.427 3.279-.313.687-.987.877-4.462 1.257-4.749.518-6.984 1.298-8.341 2.911l-.971 1.154-7.728.411c-9.925.529-13.674 1.178-17.828 3.088-1.265.581-1.3.665-1.3 3.108v2.51l1.814.853c3.778 1.776 8.603 2.568 18.633 3.061l5.047.248 1.236 1.31c1.416 1.502 4.306 2.374 9.375 2.831 2.869.259 3.158.368 3.789 1.437.745 1.26 4.044 2.748 6.095 2.748 1.963 0 3.115.653 3.395 1.926.141.645.691 1.581 1.221 2.079.741.696.875 1.072.58 1.624-.807 1.507-1.608 6.712-2.199 14.298l-.615 7.873-1.155.905c-1.428 1.119-2.244 3.516-2.856 8.394l-.464 3.698-1.534.413c-1.587.427-2.762 1.649-2.762 2.871 0 .809-.604.974-4.771 1.303-4.336.343-6.995 1.222-8.268 2.735-1.008 1.198-1.243 1.277-4.115 1.381-1.675.061-5.926.281-9.446.49-8.924.527-9.506.389-9.9-2.348-.423-2.945-1.64-5.541-2.857-6.095-1.074-.49-1.239-.997-1.672-5.147-.397-3.81-1.122-5.828-2.736-7.613-1.022-1.132-1.436-1.963-1.439-2.888-.025-8.071-1.417-17.566-3.05-20.799-1.096-2.169-1.127-2.182-2.746-1.074-.66.452-1.577.976-2.039 1.165-2.964 1.212-4.123 9.221-4.397 30.409-.107 8.25-.289 15.765-.404 16.7l-.209 1.7H25.575c-25.485 0-33.586.449-16.675.923 12.038.338 42.206-.077 43.59-.6 1.467-.554 1.477-.659 1.638-16.123.165-15.921.292-16.619 3.533-19.484 1.172-1.036 2.237-1.756 2.367-1.6.403.483 1.103 3.273 2.177 8.672.567 2.849 1.487 6.267 2.044 7.596.556 1.329 1.623 4.254 2.371 6.499 1.186 3.566 4.764 10.894 6.372 13.052.903 1.213 4.747 1.356 7.823.292 1.389-.481 4.79-1.227 7.556-1.657 11.639-1.811 11.886-1.864 13.479-2.918.863-.571 2.993-1.403 4.734-1.848 5.665-1.449 8.265-3.665 9.374-7.99.277-1.081.855-2.651 1.284-3.49 1.109-2.163 2.17-5.765 2.929-9.932.359-1.976.992-4.762 1.406-6.192.638-2.201 1.327-6.183 2.21-12.761.207-1.541-.921-6.053-1.564-6.259-4.127-1.322-6.827-2.477-7.717-3.302-.798-.74-2.366-1.335-5.679-2.154-2.518-.623-5.518-1.663-6.667-2.312-1.149-.648-3.231-1.369-4.625-1.6-1.394-.232-4.709-.77-7.366-1.197-2.657-.426-5.807-1.139-7-1.585L81 215.619l.139-2.247c.185-2.99 1.436-3.472 13.461-5.181 5.056-.719 6.765-1.196 8.28-2.314.593-.439 3.297-1.37 6.007-2.071 3.43-.886 5.246-1.567 5.972-2.24.573-.532 2.517-1.503 4.319-2.158 3.822-1.39 3.779-1.348 4.328-4.208.465-2.422-.563-11.252-1.727-14.826-.326-1.004-.957-3.704-1.401-6-1.157-5.988-1.426-6.942-3.155-11.174-.854-2.09-1.778-4.403-2.053-5.139-.581-1.558-4.675-5.136-6.287-5.496-3.537-.788-6.146-1.624-8.099-2.592-2.362-1.172-4.178-1.57-11.784-2.585-2.64-.352-6.15-.922-7.8-1.268-5.335-1.115-7.808-.647-9.315 1.764-2.812 4.497-3.628 6.192-5.032 10.454-.848 2.571-1.901 5.391-2.341 6.268-.784 1.563-1.642 4.824-2.525 9.594-.555 3.001-1.628 7.114-1.946 7.465-.133.146-1.203-.588-2.378-1.632-3.139-2.787-3.31-3.714-3.621-19.633-.23-11.768-.327-13.143-1.028-14.512-.984-1.923-.161-1.814-15.414-2.041-10.997-.164-13.555-.316-16.6-.988-3.992-.88-8.2-2.339-8.2-2.843 0-.466 6.119-1.882 12.2-2.823 4.093-.633 5.754-1.089 7.8-2.139 1.43-.735 4.253-1.739 6.272-2.233 2.351-.574 4.429-1.384 5.775-2.251 1.156-.745 3.245-1.735 4.643-2.2 4.489-1.494 4.59-1.986 4.433-21.605L53.8 91.33l-1.156-1.667c-1.381-1.992-2.693-2.837-6.524-4.204-1.584-.565-3.924-1.553-5.2-2.194-1.276-.642-3.798-1.548-5.603-2.014-4.801-1.24-16.807-5.542-19.058-6.831l-1.94-1.11 3.14-.834c5.258-1.394 8.891-1.676 21.623-1.676 11.685 0 12.283-.037 13.571-.833L54 69.135v-3.71c0-21.037-8.49-55.009-15-60.022-2.305-1.775-28.201-2.685-34-1.194m70.462-.016c-1.285.281-2.572.757-2.86 1.059-.993 1.042-4.63 8.467-5.438 11.103-.446 1.455-1.43 4.119-2.186 5.92-3.64 8.667-3.935 20.354-.703 27.925.563 1.32 1.702 4.38 2.53 6.8.829 2.42 2.202 5.75 3.051 7.4.849 1.65 1.724 3.449 1.944 3.998.858 2.14 1.395 2.202 19.2 2.202 18.7 0 18.893-.028 19.811-2.861.275-.847 1.183-2.799 2.019-4.339.836-1.54 2.088-4.583 2.783-6.762.695-2.178 1.6-4.608 2.011-5.4 3.061-5.892 3.433-18.192.78-25.806-2.89-8.295-4.373-12.28-5.024-13.503-.389-.731-1.2-2.319-1.803-3.529-1.507-3.023-2.494-3.785-5.623-4.335-3.723-.654-27.366-.555-30.492.128m54.361.705L128.521 6.2l-.212 15.4c-.118 8.47-.118 22.658-.002 31.53l.211 16.129 1.022.671c.889.583 2.898.702 15.441.919 14.498.25 19.351.754 22.1 2.292 1.315.736-10.092 5.379-19.366 7.883-2.153.581-5.221 1.671-6.817 2.423-1.596.751-3.936 1.751-5.2 2.221-4.329 1.612-6.498 4.031-6.498 7.247 0 8.592 5.4 30 9.064 35.937 1.683 2.726 1.623 2.684 5.936 4.105 1.76.58 4.282 1.597 5.605 2.26 1.782.894 3.75 1.415 7.6 2.012 5.623.872 9.449 1.686 12.008 2.555 2.207.749 6.793 1.124 8.987.735 1.77-.314 1.827-.373 3.4-3.539.88-1.771 1.994-3.844 2.476-4.608.482-.764 1.424-3.286 2.094-5.605.67-2.319 1.743-5.285 2.385-6.591.816-1.664 1.483-4.165 2.223-8.344 1.641-9.269 2.029-10.385 4.339-12.461 1.083-.974 2.14-1.771 2.347-1.771.736 0 2.692 5.056 3.56 9.2.484 2.31 1.573 6.27 2.421 8.8.848 2.53 1.891 5.95 2.318 7.6.427 1.65 1.401 4.26 2.164 5.8.763 1.54 1.701 3.808 2.084 5.04.497 1.598 1.312 2.906 2.839 4.56l2.141 2.319 3.505-.248c1.927-.136 5.124-.708 7.104-1.272 1.98-.564 5.94-1.386 8.8-1.828 6.375-.986 7.951-1.393 10-2.588.88-.513 2.929-1.299 4.554-1.747 5.186-1.431 7.429-3.633 8.449-8.295.234-1.068 1.041-3.201 1.794-4.741 1.104-2.256 1.602-4.161 2.563-9.8.656-3.85 1.571-8.17 2.034-9.6 1.376-4.255 1.562-9.987.359-11.079-2.87-2.606-4.111-3.387-7.132-4.49-1.828-.667-3.976-1.598-4.772-2.068-.797-.471-3.069-1.279-5.049-1.797-5-1.306-15.666-5.083-18.687-6.617l-2.513-1.276 1.212-.502c3.908-1.617 6.86-1.89 22.298-2.062l15.111-.169.649-.991c1.279-1.952.043-21.336-1.667-26.149-.352-.99-1.18-5.04-1.842-9-.978-5.858-1.457-7.722-2.565-10-.75-1.54-1.751-4.367-2.225-6.283-.531-2.148-1.379-4.287-2.211-5.579-.742-1.152-1.553-2.735-1.802-3.517-1.778-5.587-2.383-5.742-21.726-5.558-18.391.175-18.664.274-21.374 7.774-.628 1.74-1.634 4.133-2.235 5.319-.602 1.186-1.612 4.002-2.245 6.257-1.527 5.437-4.971 14.993-6.482 17.987l-1.212 2.4-.532-1.531c-1.624-4.676-1.85-7.042-2.041-21.367-.182-13.692-.213-14.135-1.065-15.4l-.878-1.302-31.121-.102-31.122-.103-1.302 1.303M270.4 4.884l-1.8.916.105 6.96c.065 4.365.316 7.795.674 9.2 1.05 4.134 1.768 8.197 2.622 14.84.729 5.673 1.043 7.017 2.236 9.567.763 1.632 1.831 4.761 2.374 6.953.542 2.193 1.497 4.817 2.122 5.833.625 1.016 1.617 3.187 2.205 4.825 2.393 6.667 5.437 7.387 17.862 4.227 2.09-.532 5.06-1.165 6.6-1.406 4.957-.779 8.336-1.7 11.124-3.034 1.498-.716 3.437-1.423 4.31-1.571 3.807-.643 6.691-3.855 7.824-8.711.318-1.366 1.09-3.388 1.714-4.494 1.246-2.209 1.714-4.14 2.642-10.894.34-2.478 1.15-6.348 1.8-8.6.814-2.824 1.182-4.984 1.184-6.96L336 19.67l-3-2.044c-4.742-3.232-12.155-5.948-28.593-10.476-9-2.479-30.742-3.928-34.007-2.266M106.549 6.378c2.067.48 2.174.626 3.029 4.133.829 3.397.86 3.464 2.659 5.689 1.066 1.318 1.372 2.161 1.736 4.788.663 4.772 1.125 6.096 2.749 7.894l1.478 1.636v6.509c0 6.036-.061 6.576-.835 7.441-1.675 1.869-2.54 3.834-2.973 6.752l-.639 4.302c-.11.735-.649 1.712-1.214 2.2-1.38 1.191-2.351 3.205-2.93 6.078-.371 1.838-.823 2.751-1.928 3.9l-1.443 1.5H76.057l-1.412-1.331c-.979-.924-1.554-1.934-1.877-3.3-.841-3.557-1.692-5.552-2.869-6.73-1.005-1.006-1.239-1.697-1.757-5.174-.639-4.291-1.215-5.805-2.888-7.591-1.945-2.078-1.781-13.957.224-16.12 1.454-1.569 2.023-3.15 2.741-7.612.575-3.569.759-4.046 2.149-5.554 1.25-1.356 1.645-2.214 2.218-4.819.793-3.601 1.37-4.458 3.156-4.683 2.628-.33 29.329-.25 30.807.092M193.725 23.1c.307 21.245.769 25.827 3.168 31.422l.824 1.921 1.325-1.283c2.967-2.876 4.989-8.144 5.952-15.509 1.363-10.411 1.485-11.037 2.432-12.451 1.393-2.081 2.014-3.806 2.806-7.8.558-2.812.965-3.871 1.858-4.836 1.075-1.163 3.083-5.971 3.102-7.428.012-.987 4.324-1.218 19.886-1.066l13.279.13 1.406 1.364c1.074 1.041 1.51 1.892 1.845 3.6.617 3.155 1.176 4.416 2.709 6.112 1.204 1.334 1.391 1.875 1.865 5.403.622 4.636.946 5.556 2.647 7.493l1.283 1.461.529 8.137c.563 8.666 1.246 12.572 2.827 16.144.829 1.875 1.018 3.075 1.216 7.696l.234 5.475-18.159.247c-22.295.304-26.413.709-31.878 3.137l-2.095.931 2.19 1.684c4.423 3.403 7.859 4.632 15.423 5.517 8.247.964 10.954 1.471 11.801 2.208 1.418 1.236 3.116 1.887 7.135 2.738 3.114.659 4.436 1.168 6.345 2.443 1.326.885 2.678 1.61 3.004 1.61.326 0 1.135.315 1.799.7l1.206.7-.254 3.4c-.14 1.87-.496 7.065-.791 11.544-.524 7.931-.719 8.824-1.936 8.85-1.059.022-2.499 5.356-2.801 10.375-.095 1.575-.239 1.811-1.307 2.152-1.649.527-2.509 1.355-2.805 2.7-.215.983-.478 1.166-1.922 1.342-7.995.975-9.993 1.584-10.765 3.278-.476 1.045-.549 1.057-11.308 1.784-3.74.252-7.932.551-9.316.665-3 .245-3.779-.254-4.43-2.84-.235-.936-1.048-2.512-1.805-3.504-1.109-1.453-1.547-2.613-2.255-5.975-.903-4.293-1.496-5.86-2.546-6.731-.741-.615-1.254-3.073-2.052-9.84-.8-6.788-1.274-9.13-2.385-11.8a240.885 240.885 0 0 1-2.02-5.083c-.607-1.586-1.574-3.433-2.148-4.105L197.8 85.99l-2.111.991c-3.746 1.76-5.308 6.729-6.106 19.416l-.465 7.397-1.337 1.479c-1.596 1.768-2.422 4.331-2.804 8.709-.26 2.986-.374 3.304-1.467 4.082-1.342.956-2.464 3.282-2.863 5.936-.149.99-.423 2.045-.609 2.344-.819 1.313-23.525-.054-24.747-1.49-1.361-1.599-4.347-2.786-7.757-3.084-2.343-.204-3.411-.478-3.836-.981-1.122-1.33-2.414-2.592-3.265-3.189-.661-.464-.979-1.37-1.406-4-.657-4.053-1.013-5.047-2.395-6.689-1.228-1.459-1.598-3.29-2.241-11.082-.253-3.064-.805-6.918-1.226-8.564-1.371-5.363-1.232-5.893 1.935-7.345 1.485-.681 3.24-1.725 3.9-2.321.879-.793 2.11-1.272 4.6-1.789 4.088-.848 7.012-1.904 8.156-2.943.86-.781 1.993-.995 12.044-2.276 7.569-.964 12.498-2.852 15.892-6.085l1.093-1.041-.851-.596c-3.465-2.427-11.245-3.291-32.534-3.614L130.6 69l-.103-31c-.057-17.05-.018-31.225.087-31.5.15-.394 6.83-.5 31.543-.5h31.351l.247 17.1M289 7.627c3.507 1.39 5.878 1.81 14.38 2.548 5.669.492 6.947.722 7.8 1.405 2.428 1.944 4.65 2.696 10.077 3.411 1.373.181 2.223.6 3.256 1.603.924.898 2.191 1.576 3.742 2.003 4.773 1.314 4.495.489 3.748 11.144-.218 3.112-.502 7.374-.631 9.469-.223 3.643-.282 3.839-1.348 4.45-1.438.826-2.312 3.368-2.866 8.338-.233 2.091-.454 3.802-.491 3.802-1.045.004-3.352 1.863-3.718 2.996l-.451 1.396-3.949.434c-5.036.554-6.547 1.073-8.107 2.788-.849.932-1.618 1.386-2.352 1.387-2.846.004-13.908.852-17.372 1.332l-3.881.538-1.341-1.435c-1.744-1.868-3.496-4.517-3.496-5.287 0-1.235-2.001-7.24-3.151-9.459-.654-1.26-1.362-3.28-1.575-4.49-1.186-6.741-2.563-13.315-3.267-15.6-1.34-4.351-2.548-23.707-1.507-24.143 1.701-.711 13.778.291 16.5 1.37M13.6 290.043c-1.21.192-3.647 1.084-5.415 1.983-2.344 1.192-3.888 1.695-5.7 1.86-1.853.168-2.485.379-2.485.831 0 1.928 11.864-.229 13.966-2.54l1.253-1.377h5.177c5.123 0 5.19.012 6.49 1.145 2.187 1.904 3.911 2.549 8.222 3.077 3.659.448 4.211.621 4.941 1.549 1.126 1.431 2.871 2.265 5.988 2.861 2.064.394 2.934.794 4 1.836L51.4 302.6l.116 16c.133 18.349.218 17.513-1.849 18.133-.853.255-2.331 1.081-3.283 1.835-.953.754-2.369 1.49-3.147 1.636-2.47.464-8.422 2.522-9.857 3.408-5.14 3.177-19.951 2.917-26.562-.466-1.582-.81-3.315-1.355-4.667-1.467L0 341.501v3.699h1.536c2.366 0 7.302 1.401 10.121 2.873L14.2 349.4h12.852l2.574-1.35c1.416-.743 4.593-1.847 7.06-2.454 2.975-.731 5.107-1.513 6.328-2.322 1.014-.671 3.317-1.68 5.119-2.242l3.276-1.021 1.296-2.356L54 335.299v-15.578c0-18.033-.471-20.857-3.485-20.912-1.094-.02-5.011-1.741-6.156-2.705-.845-.711-2.476-1.328-5.214-1.974-2.192-.517-5.191-1.566-6.665-2.332-3.948-2.05-12.193-2.817-18.88-1.755m142.4-.173c-2.615.265-4.767.931-6.243 1.933-.81.55-2.211 1.2-3.115 1.446-8.671 2.355-9.917 4.276-14.395 22.184-4.428 17.711-3.976 23.408 2.028 25.563 1.719.617 4.115 1.707 5.325 2.421 1.327.783 3.708 1.649 6 2.183 2.09.486 5.15 1.54 6.8 2.342l3 1.458h12.4l3.23-1.491c1.777-.82 4.91-1.878 6.964-2.35 2.39-.551 4.539-1.349 5.97-2.218 1.23-.748 3.168-1.634 4.306-1.97 6.658-1.964 7.534-5.644 4.329-18.171-.535-2.09-1.235-5.42-1.556-7.4-.896-5.53-1.36-7.259-2.619-9.752-.638-1.264-1.424-3.309-1.747-4.545-1.205-4.616-3.179-6.412-8.72-7.935-1.626-.447-3.645-1.264-4.486-1.815-2.675-1.754-10.465-2.594-17.471-1.883m11.44 1.236c.242.162.646.686.898 1.165.66 1.253 4.184 2.432 8.255 2.763 3.436.278 3.506.305 4.019 1.533.582 1.392 1.483 2.264 3.009 2.911.948.402 1.056.726 1.497 4.481.549 4.68 1.112 6.259 2.809 7.876l1.222 1.165.451 7.6c.249 4.18.608 8.41.797 9.4.907 4.729.861 5.331-.516 6.721-1.771 1.787-4.135 3.275-5.627 3.541-2.168.388-7.579 2.208-9.454 3.181-5.963 3.094-21.769 3.162-26.062.111-1.223-.868-5.954-2.534-8.986-3.164-1.538-.319-2.638-.917-4.257-2.31-1.2-1.034-2.49-2.06-2.866-2.28-.642-.376-.643-.582-.021-3.4.364-1.65.817-3.747 1.007-4.66.19-.913.629-4.767.976-8.565l.63-6.905 1.551-2.323c1.179-1.766 1.668-3.021 2.038-5.235.806-4.815.971-5.28 2.062-5.809 1.117-.542 1.865-1.323 2.516-2.629.354-.709 1.031-.918 4.327-1.332 3.936-.494 5.419-1.089 8.016-3.216 1.155-.946 10.481-1.44 11.709-.62M36.6 356.675c-3.418.3-7.312.997-9.815 1.757-1.438.437-5.668 1.3-9.4 1.917-5.739.95-7.269 1.36-9.925 2.658-2.053 1.002-3.889 1.596-5.3 1.713-1.782.148-2.16.31-2.16.93 0 2.145 11.965-.09 13.836-2.585.749-.998.913-1.026 8.364-1.445 8.697-.489 12.918-1.219 16.555-2.864 2.398-1.085 2.878-1.156 7.763-1.156h5.207l-.24 8.372c-.208 7.253-.346 8.58-1.032 9.924-1.589 3.114-2.206 6.887-3.537 21.604l-.226 2.5h1.255c1.173 0 1.255-.094 1.255-1.432 0-.788.533-3.533 1.185-6.1 1.969-7.752 3.612-21.829 3.614-30.958l.001-3.889-1.18-.611c-1.126-.582-11.063-.788-16.22-.335m37.059.173c-1.061.313-1.474.746-1.982 2.074-.353.923-1.327 2.997-2.165 4.609-.839 1.612-2.136 4.762-2.883 7-.747 2.238-1.817 5.159-2.378 6.491C61.468 383.634 61.225 400 63.91 400c.969 0 .978-.031.636-2.3-.19-1.265-.346-5.015-.346-8.334v-6.034l1.283-1.46c1.499-1.707 2.353-4.298 2.753-8.355.245-2.494.451-3.064 1.434-3.982 1.393-1.302 2.546-3.863 2.917-6.48.208-1.467.611-2.28 1.644-3.313.753-.753 1.369-1.543 1.369-1.755 0-.242 5.683-.387 15.2-.387H106l1.617 1.617c1.305 1.305 1.697 2.056 2.037 3.9.589 3.192 1.373 4.92 2.759 6.083 1.066.894 1.236 1.361 1.603 4.4.541 4.478 1.379 6.933 2.875 8.429l1.225 1.226.042 5.272c.023 2.9-.108 6.668-.292 8.373-.334 3.098-.334 3.1.625 3.1 3.014 0 2.18-17.16-1.219-25.104-.635-1.483-1.474-3.776-1.866-5.096-.851-2.871-5.22-11.947-6.103-12.681-.787-.653-33.508-.902-35.644-.271m55.641.189c-2.09 1.534-.257 24.71 2.891 36.558.555 2.088 1.009 4.383 1.009 5.1 0 1.196.105 1.305 1.256 1.305h1.255l-.257-2.1c-.141-1.155-.534-4.98-.873-8.5-.68-7.055-1.373-10.58-2.627-13.362-.836-1.854-1.486-8.438-1.534-15.538l-.02-2.9h5.108c4.794 0 5.285.075 8.017 1.223 3.987 1.675 7.425 2.259 16.385 2.782l7.663.448 1.341 1.341c1.574 1.574 4.25 2.435 8.791 2.831 2.836.247 3.163.366 3.76 1.377.824 1.395 2.596 2.246 5.867 2.816l2.567.446.659 2.468c.501 1.872.563 2.8.257 3.843-.221.757-.596 3.727-.832 6.6-.99 12.027-1.069 12.636-1.73 13.366-1.246 1.378-.859 2.859.747 2.859 1.351 0 1.4-.053 1.401-1.5.002-2.243 1.095-8.118 2.475-13.3.991-3.721 1.235-5.457 1.275-9.085.057-5.251.155-5.09-4.151-6.902-1.65-.694-3.389-1.627-3.864-2.074-.498-.467-2.701-1.299-5.2-1.962-2.385-.634-5.596-1.782-7.136-2.553-2.318-1.16-3.798-1.548-8.6-2.256-3.19-.471-7.261-1.279-9.046-1.795-6.859-1.983-24.843-3.012-26.854-1.536m167.5 3.734c-3.326.488-5.468 1.163-7.009 2.209-.766.52-2.916 1.348-4.777 1.839-3.035.802-5.014 1.873-5.014 2.713 0 .166-.606.944-1.348 1.73-1.066 1.131-1.493 2.088-2.042 4.584-.382 1.734-1.324 4.504-2.094 6.154-1.174 2.518-1.549 4.061-2.33 9.6a2378.32 2378.32 0 0 1-1.213 8.5l-.282 1.9h1.363c1.338 0 1.372-.042 1.834-2.3 3.475-16.962 4.109-19.65 5.048-21.379.561-1.034 1.244-2.654 1.519-3.6 1.228-4.228 3.242-6.19 6.698-6.525 4.437-.429 6.677-1.226 7.879-2.803l1.063-1.393h13.377l.466 1.023c.696 1.527 3.514 2.575 8.365 3.11 4.173.46 4.245.485 4.545 1.61.415 1.55 1.364 2.519 2.739 2.794 1.094.219 1.157.352 1.391 2.946.559 6.189 1.532 9.105 3.301 9.896.917.41.955.703 1.551 11.921l.249 4.7h1.36c1.616 0 1.7-.49.767-4.51-.326-1.408-.961-5.064-1.41-8.125-.993-6.768-1.201-7.556-2.509-9.478-.566-.832-1.32-2.795-1.677-4.361-1.256-5.523-3.431-7.749-8.793-9-1.324-.308-3.201-1.026-4.172-1.595-3.416-2.003-12.685-3.065-18.845-2.16" fill="#dedede"/><path d="M5.149 6.282c-.578.089-1.464.602-1.969 1.14-.555.59-1.368.978-2.05.978H0v64.4h.977c.538 0 2.563-.53 4.5-1.178 5.07-1.695 9.388-2.039 28.883-2.302l17.361-.234-.239-7.843c-.218-7.17-.326-8.055-1.253-10.316-1.305-3.183-1.683-4.945-2.217-10.327-1.049-10.561-1.221-11.471-2.394-12.644-1.158-1.157-1.94-3.557-2.853-8.756-.435-2.473-.748-3.211-1.783-4.2-1.138-1.087-2.516-4.519-3.053-7.6-.106-.608-.57-.865-1.934-1.07-1.888-.285-29.037-.327-30.846-.048m70.593.004c-1.786.225-2.363 1.082-3.156 4.683-.573 2.605-.968 3.463-2.218 4.819-1.39 1.508-1.574 1.985-2.149 5.554-.718 4.462-1.287 6.043-2.741 7.612-2.005 2.163-2.169 14.042-.224 16.12 1.673 1.786 2.249 3.3 2.888 7.591.518 3.477.752 4.168 1.757 5.174 1.177 1.178 2.028 3.173 2.869 6.73.323 1.366.898 2.376 1.877 3.3l1.412 1.331h30.181l1.443-1.5c1.105-1.149 1.557-2.062 1.928-3.9.579-2.873 1.55-4.887 2.93-6.078.565-.488 1.104-1.465 1.214-2.2l.639-4.302c.433-2.918 1.298-4.883 2.973-6.752.774-.865.835-1.405.835-7.441v-6.509l-1.478-1.636c-1.624-1.798-2.086-3.122-2.749-7.894-.364-2.627-.67-3.47-1.736-4.788-1.799-2.225-1.83-2.292-2.659-5.689-.855-3.507-.962-3.653-3.029-4.133-1.478-.342-28.179-.422-30.807-.092m54.842.214c-.105.275-.144 14.45-.087 31.5l.103 31 16.8.255c21.289.323 29.069 1.187 32.534 3.614l.851.596-1.093 1.041c-3.394 3.233-8.323 5.121-15.892 6.085-10.051 1.281-11.184 1.495-12.044 2.276-1.144 1.039-4.068 2.095-8.156 2.943-2.49.517-3.721.996-4.6 1.789-.66.596-2.415 1.64-3.9 2.321-3.167 1.452-3.306 1.982-1.935 7.345.421 1.646.973 5.5 1.226 8.564.643 7.792 1.013 9.623 2.241 11.082 1.382 1.642 1.738 2.636 2.395 6.689.427 2.63.745 3.536 1.406 4 .851.597 2.143 1.859 3.265 3.189.425.503 1.493.777 3.836.981 3.41.298 6.396 1.485 7.757 3.084 1.222 1.436 23.928 2.803 24.747 1.49.186-.299.46-1.354.609-2.344.399-2.654 1.521-4.98 2.863-5.936 1.093-.778 1.207-1.096 1.467-4.082.382-4.378 1.208-6.941 2.804-8.709l1.337-1.479.465-7.397c.798-12.687 2.36-17.656 6.106-19.416l2.111-.991 1.043 1.222c.574.672 1.541 2.519 2.148 4.105a240.885 240.885 0 0 0 2.02 5.083c1.111 2.67 1.585 5.012 2.385 11.8.798 6.767 1.311 9.225 2.052 9.84 1.05.871 1.643 2.438 2.546 6.731.708 3.362 1.146 4.522 2.255 5.975.757.992 1.57 2.568 1.805 3.504.651 2.586 1.43 3.085 4.43 2.84 1.384-.114 5.576-.413 9.316-.665 10.759-.727 10.832-.739 11.308-1.784.772-1.694 2.77-2.303 10.765-3.278 1.444-.176 1.707-.359 1.922-1.342.296-1.345 1.156-2.173 2.805-2.7 1.068-.341 1.212-.577 1.307-2.152.302-5.019 1.742-10.353 2.801-10.375 1.217-.026 1.412-.919 1.936-8.85.295-4.479.651-9.674.791-11.544l.254-3.4-1.206-.7c-.664-.385-1.473-.7-1.799-.7-.326 0-1.678-.725-3.004-1.61-1.909-1.275-3.231-1.784-6.345-2.443-4.019-.851-5.717-1.502-7.135-2.738-.847-.737-3.554-1.244-11.801-2.208-7.564-.885-11-2.114-15.423-5.517l-2.19-1.684 2.095-.931c5.465-2.428 9.583-2.833 31.878-3.137l18.159-.247-.234-5.475c-.198-4.621-.387-5.821-1.216-7.696-1.581-3.572-2.264-7.478-2.827-16.144l-.529-8.137-1.283-1.461c-1.701-1.937-2.025-2.857-2.647-7.493-.474-3.528-.661-4.069-1.865-5.403-1.533-1.696-2.092-2.957-2.709-6.112-.335-1.708-.771-2.559-1.845-3.6L248.357 6.2l-13.279-.13c-15.562-.152-19.874.079-19.886 1.066-.019 1.457-2.027 6.265-3.102 7.428-.893.965-1.3 2.024-1.858 4.836-.792 3.994-1.413 5.719-2.806 7.8-.947 1.414-1.069 2.04-2.432 12.451-.963 7.365-2.985 12.633-5.952 15.509l-1.325 1.283-.824-1.921c-2.399-5.595-2.861-10.177-3.168-31.422L193.478 6h-31.351c-24.713 0-31.393.106-31.543.5M272.5 6.257c-1.041.436.167 19.792 1.507 24.143.704 2.285 2.081 8.859 3.267 15.6.213 1.21.921 3.23 1.575 4.49 1.15 2.219 3.151 8.224 3.151 9.459 0 .77 1.752 3.419 3.496 5.287l1.341 1.435 3.881-.538c3.464-.48 14.526-1.328 17.372-1.332.734-.001 1.503-.455 2.352-1.387 1.56-1.715 3.071-2.234 8.107-2.788l3.949-.434.451-1.396c.366-1.133 2.673-2.992 3.718-2.996.037 0 .258-1.711.491-3.802.554-4.97 1.428-7.512 2.866-8.338 1.066-.611 1.125-.807 1.348-4.45.129-2.095.413-6.357.631-9.469.747-10.655 1.025-9.83-3.748-11.144-1.551-.427-2.818-1.105-3.742-2.003-1.033-1.003-1.883-1.422-3.256-1.603-5.427-.715-7.649-1.467-10.077-3.411-.853-.683-2.131-.913-7.8-1.405-8.502-.738-10.873-1.158-14.38-2.548-2.722-1.079-14.799-2.081-16.5-1.37M0 106.4v32.4l1.1-.005c.605-.003 2.215-.355 3.579-.782 3.065-.961 7.334-1.511 15.135-1.949l6.014-.338 1.869-1.426c2.309-1.763 3.549-2.175 8.057-2.679 2.762-.309 3.674-.569 4.093-1.167.889-1.269 3.789-2.705 6.516-3.228 1.943-.372 2.863-.791 3.8-1.727l1.237-1.237.12-15.431c.149-19.259.446-17.609-3.386-18.799-1.886-.585-3.615-1.435-4.499-2.21-1.147-1.007-2.156-1.403-5.035-1.977-3.861-.769-6.7-1.84-7.995-3.014-.817-.742-2.407-1.038-11.905-2.223-7.824-.976-13.078-2.91-15.663-5.767-.434-.479-1.25-.841-1.899-.841H0v32.4M0 212v70.4h51.151l.209-1.7c.115-.935.297-8.45.404-16.7.274-21.188 1.433-29.197 4.397-30.409.462-.189 1.379-.713 2.039-1.165 1.619-1.108 1.65-1.095 2.746 1.074 1.633 3.233 3.025 12.728 3.05 20.799.003.925.417 1.756 1.439 2.888 1.614 1.785 2.339 3.803 2.736 7.613.433 4.15.598 4.657 1.672 5.147 1.217.554 2.434 3.15 2.857 6.095.394 2.737.976 2.875 9.9 2.348 3.52-.209 7.771-.429 9.446-.49 2.872-.104 3.107-.183 4.115-1.381 1.273-1.513 3.932-2.392 8.268-2.735 4.167-.329 4.771-.494 4.771-1.303 0-1.222 1.175-2.444 2.762-2.871l1.534-.413.464-3.698c.612-4.878 1.428-7.275 2.856-8.394l1.155-.905.615-7.873c.591-7.586 1.392-12.791 2.199-14.298.295-.552.161-.928-.58-1.624-.53-.498-1.08-1.434-1.221-2.079-.28-1.273-1.432-1.926-3.395-1.926-2.051 0-5.35-1.488-6.095-2.748-.631-1.069-.92-1.178-3.789-1.437-5.069-.457-7.959-1.329-9.375-2.831l-1.236-1.31-5.047-.248c-10.03-.493-14.855-1.285-18.633-3.061l-1.814-.853v-2.51c0-2.443.035-2.527 1.3-3.108 4.154-1.91 7.903-2.559 17.828-3.088l7.728-.411.971-1.154c1.357-1.613 3.592-2.393 8.341-2.911 3.475-.38 4.149-.57 4.462-1.257.757-1.659 2.924-2.615 7.427-3.279 1.281-.188 1.489-.379 1.713-1.576.141-.748.593-1.777 1.005-2.286.527-.651.642-1.127.388-1.602-.834-1.557-1.573-6.213-2.177-13.718l-.643-7.987-1.336-1.297c-1.34-1.302-2.03-3.394-2.81-8.528-.354-2.326-1.078-3.434-2.474-3.782-.618-.154-1.393-.505-1.723-.78-.33-.275-1.394-.727-2.364-1.004-.969-.277-2.409-.904-3.2-1.393-.973-.602-3.951-1.381-9.236-2.416-4.29-.84-8.88-1.85-10.2-2.244-2.331-.696-5.667-.997-9.448-.852l-1.848.071-.461 2.3c-.635 3.164-1.818 5.615-2.964 6.137-.841.383-1.022.87-1.449 3.9-.735 5.214-1.463 7.451-2.785 8.564-1.351 1.136-1.471 1.727-2.063 10.099-.493 6.981-1.213 10.866-2.593 13.986l-.988 2.235-1.153-.596c-5.778-2.988-6.745-7.427-7.193-33.025l-.255-14.6-13.8-.249c-13.41-.242-18.576-.685-22.8-1.956-.77-.231-3.47-.966-6-1.632-2.53-.666-4.999-1.47-5.486-1.787-.487-.317-1.432-.576-2.1-.576H0V212m13.966 80.177c-1.698 1.866-4.116 2.607-9.466 2.899l-4.5.246v46.179l2.151.178c1.352.112 3.085.657 4.667 1.467 6.611 3.383 21.422 3.643 26.562.466 1.435-.886 7.387-2.944 9.857-3.408.778-.146 2.194-.882 3.147-1.636.952-.754 2.43-1.58 3.283-1.835 2.067-.62 1.982.216 1.849-18.133l-.116-16-1.363-1.332c-1.066-1.042-1.936-1.442-4-1.836-3.117-.596-4.862-1.43-5.988-2.861-.73-.928-1.282-1.101-4.941-1.549-4.311-.528-6.035-1.173-8.222-3.077-1.3-1.133-1.367-1.145-6.49-1.145h-5.177l-1.253 1.377m141.765-.451c-2.597 2.127-4.08 2.722-8.016 3.216-3.296.414-3.973.623-4.327 1.332-.651 1.306-1.399 2.087-2.516 2.629-1.091.529-1.256.994-2.062 5.809-.37 2.214-.859 3.469-2.038 5.235l-1.551 2.323-.63 6.905c-.347 3.798-.786 7.652-.976 8.565-.19.913-.643 3.01-1.007 4.66-.622 2.818-.621 3.024.021 3.4.376.22 1.666 1.246 2.866 2.28 1.619 1.393 2.719 1.991 4.257 2.31 3.032.63 7.763 2.296 8.986 3.164 4.293 3.051 20.099 2.983 26.062-.111 1.875-.973 7.286-2.793 9.454-3.181 1.492-.266 3.856-1.754 5.627-3.541 1.377-1.39 1.423-1.992.516-6.721-.189-.99-.548-5.22-.797-9.4l-.451-7.6-1.222-1.165c-1.697-1.617-2.26-3.196-2.809-7.876-.441-3.755-.549-4.079-1.497-4.481-1.526-.647-2.427-1.519-3.009-2.911-.513-1.228-.583-1.255-4.019-1.533-4.071-.331-7.595-1.51-8.255-2.763-.727-1.383-1.058-1.458-6.407-1.465-4.712-.006-5.149.059-6.2.92M38.6 358.789c-3.433 1.603-7.725 2.343-16.4 2.831-7.451.419-7.615.447-8.364 1.445-1.398 1.865-6.718 3.335-12.065 3.335H0V400h46.69l.226-2.5c1.331-14.717 1.948-18.49 3.537-21.604.686-1.344.824-2.671 1.032-9.924l.24-8.372-5.362.034c-4.998.032-5.526.111-7.763 1.155m37-.802c0 .212-.616 1.002-1.369 1.755-1.033 1.033-1.436 1.846-1.644 3.313-.371 2.617-1.524 5.178-2.917 6.48-.983.918-1.189 1.488-1.434 3.982-.4 4.057-1.254 6.648-2.753 8.354-1.527 1.738-1.991 8.113-1.065 14.629l.498 3.5h52.588l.503-4.663c.752-6.986.32-11.872-1.185-13.377-1.43-1.429-2.271-3.937-2.806-8.36-.367-3.039-.537-3.506-1.603-4.4-1.386-1.163-2.17-2.891-2.759-6.083-.34-1.844-.732-2.595-2.037-3.9L106 357.6H90.8c-9.517 0-15.2.145-15.2.387m54.82 2.513c.048 7.1.698 13.684 1.534 15.538 1.184 2.626 1.952 6.275 2.433 11.562.231 2.53.626 6.355.878 8.5l.459 3.9H187.6v-1.069c0-.587.294-1.393.653-1.79.661-.73.74-1.339 1.73-13.366.236-2.873.611-5.843.832-6.6.306-1.043.244-1.971-.257-3.843l-.659-2.468-2.567-.446c-3.271-.57-5.043-1.421-5.867-2.816-.597-1.011-.924-1.13-3.76-1.377-4.541-.396-7.217-1.257-8.791-2.831l-1.341-1.341-7.663-.448c-8.96-.523-12.398-1.107-16.385-2.782-2.732-1.148-3.223-1.223-8.017-1.223H130.4l.02 2.9m164.612 2.893c-1.202 1.577-3.442 2.374-7.879 2.803-3.456.335-5.47 2.297-6.698 6.525-.275.946-.958 2.566-1.519 3.6-.699 1.288-1.557 4.519-2.728 10.279-.939 4.62-1.909 9.12-2.155 10-.247.88-.45 2.005-.451 2.5l-.002.9h58.479l-.249-4.7c-.596-11.218-.634-11.511-1.551-11.921-1.769-.791-2.742-3.707-3.301-9.896-.234-2.594-.297-2.727-1.391-2.946-1.375-.275-2.324-1.244-2.739-2.794-.3-1.125-.372-1.15-4.545-1.61-4.851-.535-7.669-1.583-8.365-3.11l-.466-1.023h-13.377l-1.063 1.393" fill="#fff"/></g></svg>