<svg xmlns="http://www.w3.org/2000/svg" xmlns:xlink="http://www.w3.org/1999/xlink" width="1920.185" height="975.23" viewBox="0 0 1920.185 975.23">
  <defs>
    <linearGradient id="linear-gradient" y1="0.013" x2="1" y2="1" gradientUnits="objectBoundingBox">
      <stop offset="0" stop-color="#6c5ce7"/>
      <stop offset="1" stop-color="#a29bfe"/>
    </linearGradient>
    <linearGradient id="linear-gradient-2" x1="-0.032" y1="0.5" x2="1.363" y2="0.431" gradientUnits="objectBoundingBox">
      <stop offset="0" stop-color="#938aff"/>
      <stop offset="1" stop-color="#aba1ff"/>
    </linearGradient>
  </defs>
  <g id="Group_985" data-name="Group 985" transform="translate(0.185)">
    <path id="Path_677" data-name="Path 677" d="M0,0H1920V851s-495.818-279.517-950.726,0S0,851,0,851Z" fill="url(#linear-gradient)"/>
    <g id="Group_843" data-name="Group 843" transform="translate(-0.185 161.944)" opacity="0.25">
      <g id="Group_842" data-name="Group 842">
        <path id="Path_472" data-name="Path 472" d="M1351.418,251.4c8.8-29.223,1.927-61.329-17.775-86.551a109.213,109.213,0,0,0-11-12.084c-27.937-26.4-71.936-40.4-113.93-36.237-70.223,6.949-134.625,60.228-201.831,41.939q-1.11-.292-2.219-.632c-.35-.1-.681-.211-1.032-.324-20.5-6.3-36.64-18.321-51.631-31.944-.351-.324-.682-.616-1.032-.923-16.023-14.692-30.858-31.1-48.477-44.207-32.96-24.509-77.8-37.63-121.932-35.7-99.6,4.374-178.04,79.294-277.214,88.058-54.882,4.86-109.024-11.291-160.421-28.073-27.2-8.877-54.8-18.11-82.936-24.655-.35-.081-.681-.162-1.032-.243a342.791,342.791,0,0,0-51.611-8.164c-.35-.016-.681-.049-1.032-.065-7.534-.551-15.108-.778-22.739-.632-99.7,1.8-173.563,85.19-139.473,165,13.492,31.572,42.753,59.985,41.118,93.468-1.85,38.23-43.707,68.279-48.749,106.3C32.3,466.963,55.236,497.822,87.2,514.523c31.987,16.717,71.391,21.043,109.063,19,50.735-2.754,107.019-15.162,148.662,9.12,35.725,20.816,49.45,63.792,89.867,77.464,34.693,11.76,73.494-3.337,110.971-4.017,51.9-.923,100.828,26.145,152.537,22.387,56.654-4.115,100.3-43.608,154.659-57.49,62.631-15.988,129.369,3.774,191.279,21.577s131.627,33.581,191.065,10.675c37.244-14.369,65.629-43.721,74.526-77.075,16.139-60.487-29.261-124.019-11.37-184.183C1309.054,316.345,1340.691,287.008,1351.418,251.4Z" transform="translate(-35.67 -44.55)" fill="url(#linear-gradient-2)"/>
      </g>
    </g>
  </g>
</svg>
